<svg width="50" height="40" viewBox="0 0 50 40" fill="none" xmlns="http://www.w3.org/2000/svg">
<path d="M25.7602 27.214C25.4485 26.9023 25.2734 26.4795 25.2734 26.0387C25.2734 25.5979 25.4485 25.1752 25.7602 24.8634L28.8943 21.7293C29.206 21.418 29.6285 21.2432 30.069 21.2432C30.5095 21.2432 30.932 21.418 31.2437 21.7293C31.5553 22.041 31.7304 22.4638 31.7304 22.9046C31.7304 23.3454 31.5553 23.7682 31.2437 24.0799L28.1108 27.214C27.799 27.5257 27.3763 27.7007 26.9355 27.7007C26.4947 27.7007 26.0719 27.5257 25.7602 27.214Z" stroke="#1C1B25" stroke-width="1.76235" stroke-linecap="round" stroke-linejoin="round"/>
<path d="M18.3177 14.2883L22.6942 18.6648M28.3965 22.2271C28.9518 21.6718 29.193 20.8742 29.0389 20.1048L28.4036 16.9342C28.3158 16.4947 28.1041 16.0895 27.7935 15.7664C27.4829 15.4433 27.0863 15.2158 26.6506 15.1107L20.4906 13.6236C18.7824 13.2118 17.2436 14.7507 17.6553 16.4589L19.1424 22.6213C19.2476 23.0569 19.4752 23.4533 19.7983 23.7639C20.1214 24.0745 20.5265 24.2862 20.9659 24.3742L24.1365 25.0083C24.5158 25.0841 24.908 25.0652 25.2782 24.9531C25.6484 24.8411 25.9853 24.6394 26.2589 24.366L28.3965 22.2271Z" stroke="#1C1B25" stroke-width="1.76235" stroke-linecap="round" stroke-linejoin="round"/>
<path d="M23.801 21.3376C24.0103 21.3434 24.2187 21.3071 24.4137 21.231C24.6088 21.1548 24.7866 21.0403 24.9367 20.8943C25.0868 20.7483 25.2061 20.5737 25.2875 20.3808C25.369 20.1878 25.411 19.9806 25.411 19.7712C25.411 19.5618 25.369 19.3545 25.2875 19.1616C25.2061 18.9687 25.0868 18.794 24.9367 18.648C24.7866 18.502 24.6088 18.3875 24.4137 18.3114C24.2187 18.2352 24.0103 18.199 23.801 18.2047C23.393 18.2159 23.0054 18.3858 22.7208 18.6784C22.4361 18.9709 22.2769 19.363 22.2769 19.7712C22.2769 20.1793 22.4361 20.5714 22.7208 20.864C23.0054 21.1565 23.393 21.3264 23.801 21.3376Z" stroke="#1C1B25" stroke-width="1.76235" stroke-linecap="round" stroke-linejoin="round"/>
</svg>
