<svg width="588" height="495" viewBox="0 0 588 495" fill="none" xmlns="http://www.w3.org/2000/svg">
<mask id="mask0_8_1536" style="mask-type:luminance" maskUnits="userSpaceOnUse" x="0" y="0" width="588" height="495">
<path d="M587.999 0H0.0012207V494.984H587.999V0Z" fill="white"/>
</mask>
<g mask="url(#mask0_8_1536)">
<path d="M224.418 487.369H364.119V493.364H362.02V493.965C362.02 494.043 362.005 494.121 361.975 494.194C361.944 494.267 361.901 494.333 361.845 494.389C361.79 494.444 361.724 494.488 361.651 494.518C361.578 494.549 361.499 494.564 361.421 494.564H344.633C344.302 494.564 344.034 494.295 344.034 493.965V493.364H244.205V493.965C244.205 494.124 244.141 494.277 244.029 494.389C243.917 494.501 243.764 494.564 243.605 494.564H226.817C226.485 494.564 226.216 494.295 226.216 493.965V493.364H224.718C224.552 493.364 224.418 493.23 224.418 493.065V487.369Z" fill="url(#paint0_linear_8_1536)"/>
<path d="M364.119 402.514H224.418V487.654H364.119V402.514Z" fill="url(#paint1_linear_8_1536)"/>
<path d="M2.9499 2.63374C1.26371 4.31995 0.316162 6.60775 0.316162 8.99348V344.156H587.6V8.99348C587.6 6.60775 586.652 4.31995 584.966 2.63374C583.28 0.947527 580.993 0 578.608 0H9.30964C6.92393 0 4.63613 0.947527 2.9499 2.63374Z" fill="url(#paint2_linear_8_1536)"/>
<path d="M572.298 14.255H14.9927C14.4955 14.255 14.093 14.6575 14.093 15.1547V328.433C14.093 328.93 14.4955 329.332 14.9927 329.332H572.298C572.795 329.332 573.196 328.93 573.196 328.433V15.1547C573.196 14.6575 572.795 14.255 572.298 14.255Z" fill="url(#paint3_linear_8_1536)"/>
<path d="M323.415 47.8666C323.415 50.8686 320.978 53.306 317.976 53.306H289.691C286.689 53.306 284.251 50.8686 284.251 47.8666C284.251 44.8646 286.689 42.4272 289.691 42.4272H317.976C320.978 42.4272 323.415 44.8646 323.415 47.8666Z" fill="#2F2C44"/>
<path d="M382.16 47.8666C382.16 50.8686 379.723 53.306 376.721 53.306H348.436C345.434 53.306 342.997 50.8686 342.997 47.8666C342.997 44.8646 345.434 42.4272 348.436 42.4272H376.721C379.723 42.4272 382.16 44.8646 382.16 47.8666Z" fill="#2F2C44"/>
<path d="M440.906 47.8666C440.906 50.8686 438.468 53.306 435.466 53.306H407.182C404.18 53.306 401.742 50.8686 401.742 47.8666C401.742 44.8646 404.18 42.4272 407.182 42.4272H435.466C438.468 42.4272 440.906 44.8646 440.906 47.8666Z" fill="#2F2C44"/>
<path d="M292.863 145.712V129.394H297.824V126.261H284.247V129.394H289.295V145.712H292.863ZM302.523 145.712V137.379C302.523 136.759 302.654 136.215 302.893 135.769C303.133 135.312 303.481 134.964 303.916 134.724C304.351 134.474 304.841 134.354 305.395 134.354C305.972 134.354 306.472 134.474 306.897 134.724C307.332 134.964 307.658 135.312 307.908 135.769C308.148 136.215 308.267 136.759 308.267 137.379V145.712H311.694V136.574C311.694 135.508 311.466 134.572 311.009 133.767C310.563 132.962 309.932 132.331 309.116 131.874C308.311 131.417 307.386 131.2 306.342 131.2C305.33 131.2 304.449 131.417 303.687 131.863C302.937 132.309 302.393 132.951 302.056 133.81L302.523 134.3V125.945H299.086V145.712H302.523ZM323.389 145.581C324.205 145.288 324.912 144.874 325.499 144.352C326.098 143.83 326.533 143.231 326.805 142.557L324.042 141.197C323.726 141.752 323.302 142.198 322.747 142.524C322.203 142.862 321.539 143.025 320.756 143.025C319.973 143.025 319.277 142.84 318.678 142.47C318.08 142.111 317.623 141.589 317.319 140.925C317.014 140.251 316.894 139.478 316.97 138.608C316.894 137.64 317.003 136.813 317.297 136.128C317.58 135.453 318.004 134.931 318.559 134.561C319.114 134.202 319.755 134.017 320.462 134.017C321.213 134.017 321.855 134.202 322.388 134.561C322.91 134.931 323.302 135.421 323.53 136.052C323.77 136.682 323.802 137.39 323.628 138.195L325.271 136.965H316.231V139.598H327.196C327.273 139.391 327.316 139.163 327.349 138.913C327.371 138.662 327.381 138.401 327.381 138.14C327.381 137.183 327.229 136.291 326.914 135.464C326.598 134.637 326.152 133.898 325.554 133.256C324.966 132.614 324.248 132.113 323.4 131.744C322.562 131.374 321.583 131.2 320.462 131.2C319.124 131.2 317.928 131.515 316.862 132.157C315.795 132.81 314.958 133.68 314.327 134.79C313.707 135.888 313.391 137.161 313.391 138.586C313.391 139.957 313.696 141.208 314.305 142.339C314.914 143.471 315.774 144.374 316.872 145.037C317.982 145.69 319.266 146.027 320.724 146.027C321.681 146.027 322.573 145.875 323.389 145.581ZM339.848 145.712C340.49 145.505 341.056 145.19 341.578 144.776C342.089 144.352 342.525 143.852 342.895 143.253L342.166 143.286V145.712H345.397V136.258C345.397 135.268 345.146 134.387 344.657 133.626C344.156 132.853 343.471 132.266 342.579 131.831C341.687 131.406 340.664 131.2 339.5 131.2C338.543 131.2 337.651 131.352 336.835 131.667C336.019 131.983 335.312 132.407 334.703 132.962C334.104 133.506 333.669 134.159 333.386 134.898L336.182 136.258C336.443 135.638 336.857 135.116 337.422 134.724C337.988 134.322 338.641 134.115 339.37 134.115C340.153 134.115 340.773 134.322 341.252 134.735C341.72 135.138 341.948 135.649 341.948 136.258V139.946C341.948 140.566 341.807 141.154 341.513 141.687C341.208 142.231 340.795 142.655 340.24 142.96C339.696 143.264 339.065 143.416 338.347 143.416C337.792 143.416 337.325 143.275 336.955 142.981C336.574 142.698 336.389 142.307 336.389 141.817C336.389 141.317 336.552 140.914 336.889 140.61C337.216 140.305 337.727 140.088 338.402 139.968L342.372 139.261V136.65L337.749 137.411C336.639 137.585 335.715 137.879 334.986 138.293C334.246 138.717 333.702 139.228 333.354 139.848C332.995 140.468 332.81 141.165 332.81 141.948C332.81 142.775 333.017 143.493 333.419 144.102C333.811 144.722 334.387 145.201 335.127 145.527C335.867 145.864 336.726 146.027 337.727 146.027C338.51 146.027 339.217 145.919 339.848 145.712ZM351.38 145.712V137.379C351.38 136.759 351.489 136.215 351.717 135.769C351.946 135.312 352.261 134.964 352.685 134.724C353.099 134.474 353.577 134.354 354.121 134.354C354.676 134.354 355.155 134.474 355.568 134.724C355.982 134.964 356.297 135.312 356.526 135.769C356.743 136.215 356.863 136.759 356.863 137.379V145.712H360.279V137.379C360.279 136.759 360.398 136.215 360.616 135.769C360.844 135.312 361.171 134.964 361.584 134.724C362.009 134.474 362.487 134.354 363.02 134.354C363.575 134.354 364.065 134.474 364.467 134.724C364.881 134.964 365.196 135.312 365.424 135.769C365.653 136.215 365.762 136.759 365.762 137.379V145.712H369.188V136.574C369.188 135.508 368.96 134.572 368.503 133.767C368.057 132.962 367.426 132.331 366.643 131.874C365.849 131.417 364.946 131.2 363.934 131.2C362.803 131.2 361.802 131.482 360.932 132.048C360.061 132.614 359.408 133.462 358.973 134.594L359.942 134.507C359.68 133.517 359.104 132.723 358.223 132.113C357.331 131.504 356.308 131.2 355.133 131.2C354.078 131.2 353.153 131.45 352.37 131.95C351.587 132.462 351.064 133.234 350.803 134.278L351.173 134.8V131.504H347.931V145.712H351.38ZM377.913 145.712C378.555 145.505 379.132 145.19 379.643 144.776C380.154 144.352 380.589 143.852 380.959 143.253L380.23 143.286V145.712H383.461V136.258C383.461 135.268 383.222 134.387 382.722 133.626C382.221 132.853 381.536 132.266 380.644 131.831C379.763 131.406 378.729 131.2 377.565 131.2C376.608 131.2 375.716 131.352 374.9 131.667C374.084 131.983 373.377 132.407 372.778 132.962C372.169 133.506 371.734 134.159 371.451 134.898L374.247 136.258C374.508 135.638 374.922 135.116 375.487 134.724C376.053 134.322 376.706 134.115 377.435 134.115C378.218 134.115 378.849 134.322 379.317 134.735C379.784 135.138 380.024 135.649 380.024 136.258V139.946C380.024 140.566 379.871 141.154 379.578 141.687C379.284 142.231 378.86 142.655 378.305 142.96C377.761 143.264 377.13 143.416 376.412 143.416C375.857 143.416 375.389 143.275 375.02 142.981C374.65 142.698 374.454 142.307 374.454 141.817C374.454 141.317 374.628 140.914 374.954 140.61C375.281 140.305 375.792 140.088 376.466 139.968L380.437 139.261V136.65L375.814 137.411C374.704 137.585 373.779 137.879 373.05 138.293C372.322 138.717 371.778 139.228 371.419 139.848C371.06 140.468 370.886 141.165 370.886 141.948C370.886 142.775 371.081 143.493 371.484 144.102C371.886 144.722 372.452 145.201 373.192 145.527C373.932 145.864 374.802 146.027 375.792 146.027C376.575 146.027 377.282 145.919 377.913 145.712ZM396.647 145.712V142.688H387.987L388.509 143.862L396.603 134.3V131.504H385.159V134.561H393.568L393.046 133.386L384.8 142.949V145.712H396.647ZM401.401 129.916V126.261H397.952V129.916H401.401ZM401.401 145.712V131.504H397.952V145.712H401.401ZM407.384 145.712V137.379C407.384 136.759 407.504 136.215 407.743 135.769C407.993 135.312 408.33 134.964 408.765 134.724C409.201 134.474 409.701 134.354 410.256 134.354C410.811 134.354 411.311 134.474 411.746 134.724C412.181 134.964 412.519 135.312 412.758 135.769C413.008 136.215 413.128 136.759 413.128 137.379V145.712H416.544V136.574C416.544 135.508 416.315 134.572 415.869 133.767C415.412 132.962 414.781 132.331 413.976 131.874C413.16 131.417 412.236 131.2 411.191 131.2C410.18 131.2 409.299 131.417 408.548 131.863C407.786 132.309 407.242 132.951 406.916 133.81L407.177 134.3V131.504H403.935V145.712H407.384ZM423.637 141.48C423.071 141.154 422.625 140.697 422.299 140.12C421.983 139.554 421.82 138.902 421.82 138.162C421.82 137.433 421.983 136.78 422.299 136.204C422.625 135.638 423.071 135.181 423.648 134.855C424.224 134.518 424.866 134.354 425.584 134.354C426.291 134.354 426.922 134.518 427.477 134.855C428.021 135.181 428.456 135.638 428.782 136.204C429.098 136.78 429.261 137.433 429.261 138.162C429.261 138.913 429.109 139.576 428.793 140.153C428.478 140.729 428.043 141.175 427.499 141.491C426.955 141.817 426.313 141.98 425.584 141.98C424.844 141.98 424.202 141.817 423.637 141.48ZM429.326 150.618C430.36 150.063 431.176 149.302 431.785 148.323C432.383 147.344 432.677 146.245 432.677 145.005V131.504H429.446V134.637L429.892 133.778C429.348 132.94 428.674 132.309 427.879 131.863C427.074 131.417 426.15 131.2 425.084 131.2C423.778 131.2 422.614 131.493 421.581 132.092C420.558 132.701 419.742 133.517 419.144 134.561C418.545 135.605 418.241 136.802 418.241 138.14C418.241 139.467 418.545 140.653 419.144 141.719C419.742 142.775 420.569 143.612 421.613 144.221C422.658 144.831 423.833 145.135 425.138 145.135C426.193 145.135 427.129 144.918 427.945 144.483C428.75 144.047 429.402 143.406 429.892 142.557L429.261 141.774V145.005C429.261 145.701 429.109 146.299 428.804 146.8C428.5 147.289 428.086 147.67 427.553 147.931C427.02 148.192 426.411 148.323 425.715 148.323C424.823 148.323 424.072 148.116 423.452 147.714C422.832 147.3 422.418 146.767 422.212 146.103L419.024 147.3C419.318 148.138 419.797 148.867 420.449 149.487C421.102 150.107 421.885 150.586 422.788 150.934C423.691 151.282 424.67 151.456 425.736 151.456C427.096 151.456 428.293 151.173 429.326 150.618ZM445.895 145.712L449.811 134.463H448.658L452.52 145.712H455.577L460.461 131.504H456.861L453.281 142.296L454.532 142.263L450.747 131.504H447.722L443.904 142.263L445.166 142.296L441.587 131.504H437.986L442.86 145.712H445.895ZM466.619 142.339C466.031 141.98 465.564 141.469 465.226 140.816C464.889 140.164 464.715 139.424 464.715 138.608C464.715 137.792 464.889 137.063 465.226 136.421C465.564 135.769 466.031 135.268 466.619 134.898C467.217 134.539 467.892 134.354 468.664 134.354C469.447 134.354 470.122 134.539 470.709 134.898C471.297 135.268 471.754 135.769 472.091 136.421C472.428 137.063 472.602 137.792 472.602 138.608C472.602 139.424 472.428 140.164 472.091 140.816C471.754 141.469 471.297 141.98 470.709 142.339C470.122 142.709 469.447 142.894 468.664 142.894C467.892 142.894 467.217 142.709 466.619 142.339ZM472.45 145.059C473.581 144.417 474.484 143.536 475.159 142.426C475.844 141.306 476.181 140.033 476.181 138.608C476.181 137.161 475.844 135.888 475.169 134.79C474.506 133.68 473.603 132.81 472.472 132.157C471.34 131.515 470.067 131.2 468.664 131.2C467.271 131.2 466.01 131.515 464.878 132.157C463.747 132.81 462.833 133.68 462.158 134.8C461.484 135.91 461.136 137.183 461.136 138.608C461.136 140.033 461.484 141.306 462.158 142.426C462.833 143.536 463.747 144.417 464.889 145.059C466.031 145.701 467.282 146.027 468.664 146.027C470.056 146.027 471.318 145.701 472.45 145.059ZM481.588 145.712V137.803C481.588 136.726 481.882 135.888 482.469 135.29C483.067 134.703 483.851 134.409 484.819 134.409H486.048V131.352H485.211C484.221 131.352 483.372 131.559 482.665 131.983C481.958 132.396 481.447 133.136 481.109 134.202L481.37 134.67V131.504H478.139V145.712H481.588ZM490.748 145.712V125.945H487.299V145.712H490.748ZM498.211 142.339C497.602 141.98 497.134 141.469 496.796 140.827C496.448 140.185 496.285 139.446 496.285 138.608C496.285 137.792 496.448 137.063 496.796 136.421C497.134 135.769 497.602 135.268 498.211 134.898C498.82 134.539 499.516 134.354 500.278 134.354C501.039 134.354 501.725 134.539 502.323 134.898C502.932 135.268 503.4 135.769 503.737 136.421C504.074 137.063 504.248 137.792 504.248 138.608C504.248 139.446 504.074 140.185 503.737 140.827C503.4 141.469 502.932 141.98 502.323 142.339C501.725 142.709 501.039 142.894 500.278 142.894C499.516 142.894 498.82 142.709 498.211 142.339ZM502.758 145.429C503.628 145.026 504.303 144.428 504.792 143.645L504.433 142.97V145.712H507.664V125.945H504.248V134.333L504.771 133.626C504.281 132.853 503.617 132.266 502.769 131.831C501.931 131.406 500.963 131.2 499.886 131.2C498.526 131.2 497.308 131.526 496.231 132.19C495.154 132.853 494.294 133.734 493.663 134.855C493.022 135.964 492.706 137.216 492.706 138.608C492.706 139.99 493.022 141.241 493.642 142.372C494.273 143.503 495.132 144.396 496.22 145.048C497.308 145.701 498.537 146.027 499.908 146.027C500.941 146.027 501.888 145.821 502.758 145.429ZM290.437 175.28C289.85 174.921 289.382 174.41 289.045 173.757C288.707 173.105 288.533 172.365 288.533 171.549C288.533 170.733 288.707 170.004 289.045 169.362C289.382 168.71 289.85 168.209 290.437 167.839C291.035 167.48 291.71 167.295 292.471 167.295C293.255 167.295 293.94 167.48 294.528 167.839C295.104 168.209 295.572 168.71 295.909 169.362C296.246 170.004 296.42 170.733 296.42 171.549C296.42 172.365 296.246 173.105 295.909 173.757C295.572 174.41 295.104 174.921 294.528 175.28C293.94 175.65 293.255 175.835 292.471 175.835C291.71 175.835 291.035 175.65 290.437 175.28ZM296.257 178C297.389 177.358 298.302 176.477 298.977 175.367C299.651 174.247 300 172.974 300 171.549C300 170.102 299.662 168.829 298.988 167.73C298.324 166.621 297.421 165.751 296.29 165.098C295.158 164.456 293.886 164.14 292.471 164.14C291.079 164.14 289.817 164.456 288.686 165.098C287.554 165.751 286.651 166.621 285.977 167.741C285.291 168.851 284.954 170.124 284.954 171.549C284.954 172.974 285.291 174.247 285.977 175.367C286.651 176.477 287.565 177.358 288.707 178C289.839 178.642 291.101 178.968 292.471 178.968C293.864 178.968 295.126 178.642 296.257 178ZM307.049 178.653V167.502H310.204V164.445H307.049V164.01C307.049 163.27 307.256 162.737 307.669 162.4C308.093 162.063 308.681 161.889 309.442 161.889C309.573 161.889 309.703 161.899 309.856 161.899C309.997 161.91 310.16 161.932 310.334 161.965V159.017C310.16 158.984 309.943 158.951 309.693 158.93C309.442 158.897 309.214 158.886 309.007 158.886C307.908 158.886 306.951 159.093 306.146 159.484C305.33 159.887 304.71 160.463 304.275 161.225C303.84 161.986 303.622 162.911 303.622 164.01V164.445H301.12V167.502H303.622V178.653H307.049ZM323.987 178.413C324.792 178.054 325.412 177.543 325.869 176.89C326.326 176.238 326.544 175.487 326.544 174.628C326.544 173.627 326.228 172.767 325.597 172.071C324.955 171.375 324.063 170.853 322.888 170.505L320.626 169.83C320.288 169.721 319.995 169.613 319.744 169.493C319.494 169.362 319.298 169.21 319.157 169.014C319.016 168.829 318.95 168.612 318.95 168.361C318.95 167.926 319.114 167.589 319.451 167.339C319.777 167.078 320.234 166.958 320.8 166.958C321.518 166.958 322.16 167.143 322.736 167.513C323.313 167.894 323.715 168.405 323.965 169.047L326.576 167.818C326.141 166.653 325.412 165.751 324.379 165.098C323.356 164.456 322.17 164.14 320.832 164.14C319.799 164.14 318.896 164.315 318.102 164.684C317.308 165.054 316.688 165.555 316.252 166.207C315.806 166.86 315.578 167.622 315.578 168.492C315.578 169.471 315.893 170.32 316.514 171.038C317.123 171.767 318.026 172.289 319.211 172.626L321.539 173.279C321.844 173.366 322.127 173.474 322.366 173.605C322.616 173.736 322.812 173.888 322.954 174.073C323.106 174.258 323.182 174.486 323.182 174.758C323.182 175.215 322.997 175.585 322.627 175.857C322.268 176.14 321.779 176.281 321.17 176.281C320.365 176.281 319.647 176.053 318.994 175.596C318.341 175.15 317.83 174.519 317.46 173.714L314.882 174.943C315.317 176.183 316.089 177.162 317.21 177.88C318.341 178.609 319.657 178.968 321.17 178.968C322.247 178.968 323.193 178.783 323.987 178.413ZM332.005 178.653V170.32C332.005 169.7 332.125 169.156 332.375 168.71C332.614 168.253 332.951 167.905 333.386 167.665C333.822 167.415 334.322 167.295 334.877 167.295C335.453 167.295 335.954 167.415 336.378 167.665C336.802 167.905 337.14 168.253 337.379 168.71C337.629 169.156 337.749 169.7 337.749 170.32V178.653H341.165V169.515C341.165 168.448 340.947 167.513 340.49 166.708C340.033 165.903 339.402 165.272 338.597 164.815C337.792 164.358 336.857 164.14 335.812 164.14C334.812 164.14 333.92 164.358 333.169 164.804C332.407 165.25 331.863 165.892 331.537 166.751L332.005 167.241V158.886H328.556V178.653H332.005ZM349.9 178.653C350.542 178.446 351.108 178.131 351.63 177.717C352.141 177.293 352.577 176.792 352.947 176.194L352.218 176.227V178.653H355.449V169.199C355.449 168.209 355.198 167.328 354.709 166.566C354.208 165.794 353.523 165.207 352.631 164.771C351.739 164.347 350.716 164.14 349.552 164.14C348.595 164.14 347.703 164.293 346.887 164.608C346.071 164.924 345.364 165.348 344.755 165.903C344.156 166.447 343.721 167.1 343.438 167.839L346.234 169.199C346.495 168.579 346.909 168.057 347.474 167.665C348.04 167.263 348.693 167.056 349.422 167.056C350.205 167.056 350.825 167.263 351.304 167.676C351.772 168.079 352 168.59 352 169.199V172.887C352 173.507 351.859 174.095 351.565 174.628C351.26 175.172 350.847 175.596 350.292 175.9C349.748 176.205 349.117 176.357 348.399 176.357C347.844 176.357 347.377 176.216 347.007 175.922C346.626 175.639 346.441 175.248 346.441 174.758C346.441 174.258 346.604 173.855 346.941 173.551C347.268 173.246 347.779 173.028 348.454 172.909L352.424 172.202V169.591L347.801 170.352C346.691 170.526 345.767 170.82 345.038 171.233C344.298 171.658 343.754 172.169 343.406 172.789C343.047 173.409 342.862 174.105 342.862 174.889C342.862 175.715 343.069 176.433 343.471 177.043C343.863 177.663 344.439 178.141 345.179 178.468C345.919 178.805 346.778 178.968 347.779 178.968C348.562 178.968 349.269 178.859 349.9 178.653ZM363.347 175.28C362.748 174.921 362.28 174.41 361.943 173.768C361.595 173.126 361.432 172.387 361.432 171.549C361.432 170.733 361.595 170.004 361.943 169.362C362.28 168.71 362.748 168.209 363.347 167.839C363.945 167.48 364.619 167.295 365.37 167.295C366.153 167.295 366.85 167.48 367.448 167.839C368.046 168.209 368.525 168.71 368.873 169.362C369.221 170.004 369.395 170.733 369.395 171.549C369.395 172.387 369.221 173.126 368.873 173.768C368.525 174.41 368.046 174.921 367.448 175.28C366.85 175.65 366.153 175.835 365.37 175.835C364.619 175.835 363.945 175.65 363.347 175.28ZM361.432 183.875V175.911L360.877 176.586C361.388 177.369 362.074 177.967 362.933 178.37C363.793 178.762 364.739 178.968 365.762 178.968C367.143 178.968 368.362 178.642 369.45 177.989C370.527 177.336 371.375 176.444 372.006 175.313C372.626 174.182 372.942 172.931 372.942 171.549C372.942 170.156 372.626 168.905 371.995 167.796C371.353 166.675 370.494 165.794 369.417 165.13C368.34 164.467 367.132 164.14 365.794 164.14C364.696 164.14 363.727 164.347 362.89 164.771C362.052 165.207 361.399 165.794 360.91 166.566L361.225 167.274V164.445H357.983V183.875H361.432ZM384.354 178.522C385.169 178.228 385.877 177.815 386.464 177.293C387.062 176.771 387.497 176.172 387.769 175.498L385.006 174.138C384.691 174.693 384.266 175.139 383.712 175.465C383.168 175.803 382.504 175.966 381.721 175.966C380.938 175.966 380.241 175.781 379.643 175.411C379.045 175.052 378.588 174.53 378.283 173.866C377.979 173.192 377.859 172.419 377.935 171.549C377.859 170.581 377.968 169.754 378.261 169.069C378.544 168.394 378.969 167.872 379.523 167.502C380.078 167.143 380.72 166.958 381.427 166.958C382.178 166.958 382.82 167.143 383.353 167.502C383.875 167.872 384.266 168.361 384.495 168.992C384.734 169.623 384.767 170.331 384.593 171.136L386.236 169.906H377.195V172.539H388.161C388.237 172.332 388.281 172.104 388.313 171.854C388.335 171.603 388.346 171.342 388.346 171.081C388.346 170.124 388.194 169.232 387.878 168.405C387.563 167.578 387.117 166.838 386.518 166.197C385.931 165.555 385.213 165.054 384.364 164.684C383.527 164.315 382.548 164.14 381.427 164.14C380.089 164.14 378.892 164.456 377.826 165.098C376.76 165.751 375.922 166.621 375.291 167.73C374.671 168.829 374.356 170.102 374.356 171.527C374.356 172.898 374.661 174.149 375.27 175.28C375.879 176.412 376.738 177.315 377.837 177.978C378.947 178.631 380.23 178.968 381.688 178.968C382.646 178.968 383.538 178.816 384.354 178.522ZM398.561 178.413C399.355 178.054 399.986 177.543 400.432 176.89C400.889 176.238 401.118 175.487 401.118 174.628C401.118 173.627 400.802 172.767 400.16 172.071C399.529 171.375 398.626 170.853 397.462 170.505L395.189 169.83C394.862 169.721 394.569 169.613 394.318 169.493C394.057 169.362 393.862 169.21 393.731 169.014C393.59 168.829 393.513 168.612 393.513 168.361C393.513 167.926 393.687 167.589 394.014 167.339C394.34 167.078 394.797 166.958 395.374 166.958C396.081 166.958 396.734 167.143 397.299 167.513C397.876 167.894 398.289 168.405 398.529 169.047L401.139 167.818C400.704 166.653 399.975 165.751 398.953 165.098C397.919 164.456 396.734 164.14 395.395 164.14C394.373 164.14 393.459 164.315 392.665 164.684C391.882 165.054 391.262 165.555 390.815 166.207C390.369 166.86 390.152 167.622 390.152 168.492C390.152 169.471 390.456 170.32 391.077 171.038C391.697 171.767 392.6 172.289 393.775 172.626L396.103 173.279C396.418 173.366 396.69 173.474 396.94 173.605C397.18 173.736 397.375 173.888 397.528 174.073C397.669 174.258 397.745 174.486 397.745 174.758C397.745 175.215 397.56 175.585 397.201 175.857C396.831 176.14 396.342 176.281 395.733 176.281C394.939 176.281 394.21 176.053 393.557 175.596C392.904 175.15 392.393 174.519 392.034 173.714L389.445 174.943C389.88 176.183 390.663 177.162 391.784 177.88C392.904 178.609 394.221 178.968 395.733 178.968C396.821 178.968 397.756 178.783 398.561 178.413Z" fill="#685D90"/>
<path d="M76.4669 40.2515C80.6697 40.2515 84.0821 43.6638 84.0821 47.8666C84.0821 52.0694 80.6697 55.4817 76.4669 55.4817C72.2642 55.4817 68.8518 52.0694 68.8518 47.8666C68.8518 43.6638 72.2642 40.2515 76.4669 40.2515Z" fill="#403B5C"/>
<path d="M397.576 241.037V239.894H393.529V237.544H397.358V236.402H393.529V234.074H397.576V232.932H392.245V241.037H397.576ZM399.73 241.037L401.405 238.578H400.731L402.395 241.037H403.842L401.786 238.088L403.853 235.151H402.406L400.72 237.61H401.416L399.73 235.151H398.272L400.339 238.088L398.283 241.037H399.73ZM407.018 239.775C406.747 239.611 406.529 239.372 406.366 239.078C406.213 238.796 406.137 238.458 406.137 238.088C406.137 237.729 406.213 237.392 406.366 237.098C406.529 236.816 406.747 236.576 407.018 236.413C407.29 236.25 407.584 236.163 407.921 236.163C408.27 236.163 408.574 236.25 408.846 236.413C409.118 236.587 409.336 236.816 409.488 237.098C409.64 237.392 409.716 237.719 409.716 238.088C409.716 238.458 409.64 238.796 409.488 239.078C409.336 239.372 409.118 239.611 408.846 239.775C408.574 239.938 408.27 240.025 407.921 240.025C407.584 240.025 407.29 239.938 407.018 239.775ZM406.137 243.212V239.84L405.941 240.068C406.148 240.427 406.431 240.699 406.801 240.884C407.182 241.069 407.595 241.167 408.052 241.167C408.618 241.167 409.118 241.026 409.564 240.765C410.01 240.482 410.358 240.123 410.619 239.655C410.87 239.187 411 238.665 411 238.088C411 237.512 410.87 236.99 410.619 236.522C410.358 236.054 410.01 235.695 409.553 235.423C409.118 235.151 408.607 235.021 408.052 235.021C407.584 235.021 407.171 235.119 406.812 235.303C406.453 235.488 406.159 235.749 405.941 236.087L406.083 236.37V235.151H404.908V243.212H406.137ZM413.644 241.037V232.801H412.414V241.037H413.644ZM417.212 239.775C416.94 239.611 416.733 239.372 416.57 239.078C416.418 238.796 416.342 238.458 416.342 238.088C416.342 237.719 416.418 237.392 416.57 237.098C416.733 236.816 416.94 236.587 417.212 236.413C417.484 236.25 417.799 236.163 418.137 236.163C418.474 236.163 418.778 236.25 419.05 236.413C419.322 236.587 419.529 236.816 419.681 237.098C419.845 237.392 419.921 237.719 419.921 238.088C419.921 238.458 419.845 238.796 419.681 239.078C419.529 239.372 419.322 239.611 419.05 239.775C418.778 239.938 418.474 240.025 418.137 240.025C417.799 240.025 417.484 239.938 417.212 239.775ZM419.681 240.765C420.149 240.503 420.519 240.144 420.791 239.677C421.063 239.209 421.204 238.687 421.204 238.088C421.204 237.49 421.063 236.968 420.791 236.5C420.519 236.043 420.16 235.684 419.692 235.412C419.235 235.151 418.713 235.021 418.137 235.021C417.56 235.021 417.038 235.151 416.57 235.412C416.102 235.684 415.732 236.043 415.46 236.5C415.188 236.968 415.058 237.49 415.058 238.088C415.058 238.676 415.199 239.198 415.471 239.666C415.743 240.134 416.113 240.493 416.581 240.765C417.049 241.037 417.56 241.167 418.137 241.167C418.702 241.167 419.214 241.037 419.681 240.765ZM423.848 241.037V237.642C423.848 237.185 423.978 236.826 424.229 236.576C424.479 236.326 424.805 236.196 425.208 236.196H425.719V235.075H425.36C424.958 235.075 424.609 235.162 424.316 235.325C424.022 235.499 423.815 235.782 423.685 236.174L423.794 236.348V235.151H422.619V241.037H423.848ZM430.647 240.971C430.984 240.852 431.267 240.678 431.517 240.46C431.757 240.242 431.931 239.992 432.051 239.72L431.05 239.22C430.897 239.47 430.702 239.677 430.451 239.84C430.201 240.003 429.897 240.079 429.538 240.079C429.2 240.079 428.896 239.992 428.624 239.829C428.352 239.666 428.134 239.427 427.993 239.133C427.84 238.839 427.786 238.491 427.819 238.088C427.786 237.664 427.84 237.305 427.982 237.001C428.123 236.696 428.319 236.467 428.569 236.304C428.82 236.141 429.113 236.054 429.429 236.054C429.755 236.054 430.038 236.141 430.288 236.304C430.538 236.467 430.712 236.685 430.832 236.957C430.952 237.24 430.974 237.555 430.908 237.914L431.485 237.468H427.503V238.447H432.192C432.214 238.36 432.225 238.262 432.235 238.165C432.246 238.067 432.246 237.969 432.246 237.871C432.246 237.49 432.181 237.12 432.061 236.783C431.931 236.446 431.746 236.141 431.507 235.869C431.267 235.608 430.974 235.401 430.625 235.249C430.277 235.097 429.875 235.021 429.429 235.021C428.885 235.021 428.395 235.151 427.96 235.412C427.514 235.684 427.166 236.043 426.916 236.5C426.666 236.957 426.535 237.479 426.535 238.078C426.535 238.654 426.666 239.187 426.916 239.644C427.166 240.123 427.525 240.482 427.971 240.765C428.417 241.026 428.939 241.167 429.527 241.167C429.929 241.167 430.31 241.102 430.647 240.971Z" fill="#9081CA"/>
<path d="M359.315 236.613C359.315 244.719 352.734 251.3 344.629 251.3H298.938C290.832 251.3 284.251 244.719 284.251 236.613C284.251 228.508 290.832 221.927 298.938 221.927H344.629C352.734 221.927 359.315 228.508 359.315 236.613Z" fill="#8691FA"/>
<path d="M359.315 236.613C359.315 244.719 352.734 251.3 344.629 251.3H298.938C290.832 251.3 284.251 244.719 284.251 236.613C284.251 228.508 290.832 221.927 298.938 221.927H344.629C352.734 221.927 359.315 228.508 359.315 236.613Z" fill="#424060"/>
<path d="M301.053 240.743C301.466 240.536 301.792 240.264 302.032 239.916C302.26 239.568 302.38 239.165 302.38 238.719C302.38 238.175 302.217 237.719 301.89 237.349C301.564 236.99 301.074 236.707 300.432 236.511L299.007 236.065C298.67 235.967 298.42 235.815 298.257 235.608C298.094 235.401 298.007 235.173 298.007 234.912C298.007 234.683 298.061 234.488 298.17 234.324C298.289 234.161 298.442 234.031 298.648 233.933C298.855 233.846 299.084 233.802 299.355 233.802C299.802 233.802 300.182 233.911 300.52 234.139C300.857 234.368 301.107 234.705 301.27 235.129L302.336 234.672C302.206 234.281 301.999 233.933 301.716 233.639C301.422 233.334 301.085 233.095 300.683 232.932C300.28 232.758 299.845 232.671 299.355 232.671C298.844 232.671 298.387 232.769 297.996 232.965C297.593 233.16 297.289 233.432 297.071 233.78C296.842 234.129 296.734 234.531 296.734 234.977C296.734 235.499 296.897 235.956 297.201 236.348C297.528 236.739 297.985 237.033 298.594 237.218L300.128 237.697C300.443 237.795 300.694 237.925 300.857 238.099C301.02 238.284 301.107 238.513 301.107 238.806C301.107 239.024 301.053 239.22 300.922 239.383C300.813 239.546 300.639 239.677 300.432 239.775C300.215 239.862 299.965 239.905 299.671 239.905C299.181 239.905 298.746 239.775 298.366 239.503C297.985 239.231 297.702 238.85 297.506 238.349L296.418 238.806C296.56 239.242 296.777 239.622 297.093 239.97C297.397 240.297 297.767 240.569 298.202 240.754C298.627 240.939 299.105 241.037 299.617 241.037C300.161 241.037 300.639 240.939 301.053 240.743ZM306.786 240.95C306.905 240.939 307.025 240.917 307.123 240.906V239.851C307.058 239.862 306.992 239.862 306.916 239.873C306.84 239.883 306.775 239.883 306.72 239.883C306.492 239.883 306.296 239.84 306.155 239.775C306.013 239.698 305.905 239.59 305.839 239.437C305.774 239.296 305.741 239.133 305.741 238.926V236.141H307.079V235.021H305.741V233.672H304.512V234.129C304.512 234.401 304.436 234.618 304.284 234.781C304.12 234.944 303.903 235.021 303.631 235.021H303.468V236.141H304.512V238.98C304.512 239.611 304.686 240.101 305.023 240.449C305.361 240.797 305.839 240.971 306.459 240.971C306.557 240.971 306.666 240.96 306.786 240.95ZM311.202 240.895C311.474 240.797 311.725 240.667 311.931 240.493C312.138 240.319 312.312 240.112 312.454 239.873L312.214 239.851V240.906H313.389V236.946C313.389 236.544 313.291 236.185 313.095 235.869C312.889 235.565 312.617 235.325 312.258 235.151C311.899 234.977 311.485 234.89 311.018 234.89C310.637 234.89 310.289 234.955 309.962 235.075C309.625 235.195 309.342 235.369 309.103 235.597C308.853 235.826 308.679 236.076 308.559 236.37L309.592 236.881C309.712 236.609 309.886 236.38 310.136 236.217C310.376 236.054 310.659 235.967 310.974 235.967C311.333 235.967 311.616 236.065 311.833 236.25C312.051 236.424 312.16 236.663 312.16 236.946V238.458C312.16 238.752 312.095 239.024 311.953 239.263C311.812 239.514 311.605 239.709 311.366 239.851C311.115 239.992 310.822 240.068 310.495 240.068C310.223 240.068 310.006 239.992 309.843 239.862C309.669 239.72 309.582 239.535 309.582 239.307C309.582 239.078 309.658 238.893 309.81 238.741C309.962 238.589 310.202 238.48 310.528 238.426L312.334 238.121V237.142L310.289 237.479C309.832 237.555 309.462 237.675 309.168 237.849C308.874 238.023 308.657 238.241 308.515 238.491C308.374 238.741 308.298 239.035 308.298 239.35C308.298 239.688 308.385 239.992 308.548 240.242C308.711 240.493 308.951 240.688 309.255 240.83C309.549 240.971 309.897 241.037 310.3 241.037C310.626 241.037 310.93 240.993 311.202 240.895ZM316.272 240.906V237.512C316.272 237.055 316.392 236.696 316.642 236.446C316.892 236.195 317.229 236.065 317.632 236.065H318.143V234.944H317.784C317.382 234.944 317.033 235.031 316.74 235.195C316.446 235.369 316.239 235.652 316.109 236.043L316.218 236.217V235.021H315.043V240.906H316.272ZM322.07 240.95C322.19 240.939 322.31 240.917 322.408 240.906V239.851C322.342 239.862 322.277 239.862 322.201 239.873C322.125 239.883 322.059 239.883 322.005 239.883C321.777 239.883 321.581 239.84 321.439 239.775C321.298 239.698 321.189 239.59 321.124 239.437C321.059 239.296 321.026 239.133 321.026 238.926V236.141H322.364V235.021H321.026V233.672H319.797V234.129C319.797 234.401 319.721 234.618 319.557 234.781C319.405 234.944 319.187 235.021 318.916 235.021H318.752V236.141H319.797V238.98C319.797 239.611 319.971 240.101 320.308 240.449C320.645 240.797 321.124 240.971 321.744 240.971C321.842 240.971 321.951 240.96 322.07 240.95ZM327.172 240.906V237.436C327.172 237.142 327.227 236.903 327.336 236.685C327.444 236.478 327.597 236.326 327.803 236.206C327.999 236.087 328.228 236.032 328.478 236.032C328.728 236.032 328.957 236.087 329.152 236.206C329.348 236.326 329.501 236.478 329.609 236.685C329.718 236.903 329.773 237.142 329.773 237.436V240.906H331.002V237.109C331.002 236.674 330.904 236.293 330.719 235.956C330.534 235.619 330.273 235.358 329.936 235.173C329.598 234.988 329.218 234.89 328.783 234.89C328.358 234.89 327.988 234.988 327.673 235.173C327.357 235.369 327.118 235.652 326.977 236.021L327.118 236.174V235.021H325.943V240.906H327.172ZM334.45 239.644C334.178 239.481 333.972 239.242 333.809 238.948C333.656 238.665 333.58 238.328 333.58 237.958C333.58 237.588 333.656 237.262 333.809 236.968C333.972 236.685 334.178 236.457 334.45 236.283C334.722 236.119 335.038 236.032 335.375 236.032C335.712 236.032 336.017 236.119 336.289 236.283C336.561 236.457 336.768 236.685 336.92 236.968C337.083 237.262 337.159 237.588 337.159 237.958C337.159 238.328 337.083 238.665 336.92 238.948C336.768 239.242 336.561 239.481 336.289 239.644C336.017 239.807 335.712 239.894 335.375 239.894C335.038 239.894 334.722 239.807 334.45 239.644ZM336.92 240.634C337.388 240.373 337.758 240.014 338.03 239.546C338.301 239.078 338.443 238.556 338.443 237.958C338.443 237.36 338.301 236.837 338.03 236.37C337.758 235.913 337.399 235.554 336.931 235.282C336.474 235.021 335.952 234.89 335.375 234.89C334.799 234.89 334.276 235.021 333.809 235.282C333.341 235.554 332.971 235.913 332.699 236.37C332.427 236.837 332.296 237.36 332.296 237.958C332.296 238.545 332.438 239.067 332.71 239.535C332.982 240.003 333.352 240.362 333.819 240.634C334.287 240.906 334.799 241.037 335.375 241.037C335.941 241.037 336.452 240.906 336.92 240.634ZM342.403 240.906L343.991 236.119H343.589L345.177 240.906H346.286L348.321 235.021H347.015L345.46 239.709H345.917L344.35 235.021H343.23L341.652 239.709H342.109L340.564 235.021H339.259L341.282 240.906H342.403Z" fill="#9081CA"/>
<path d="M587.287 343.714H0.0012207L0.00231628 394.077C0.00231628 395.259 0.234015 396.428 0.686588 397.519C1.13913 398.611 1.80166 399.603 2.63715 400.438C3.47265 401.274 4.46368 401.935 5.55484 402.387C6.64597 402.838 7.81546 403.071 8.99689 403.071H578.294C580.679 403.071 582.967 402.123 584.654 400.437C586.34 398.751 587.287 396.463 587.287 394.077V343.714Z" fill="url(#paint4_linear_8_1536)"/>
<path d="M293.663 9.85671C295.138 9.85671 296.335 8.66005 296.335 7.18489C296.335 5.70973 295.138 4.51306 293.663 4.51306C292.188 4.51306 290.991 5.70973 290.991 7.18489C290.991 8.66005 292.188 9.85671 293.663 9.85671Z" fill="#21202F"/>
<mask id="mask1_8_1536" style="mask-type:luminance" maskUnits="userSpaceOnUse" x="123" y="203" width="109" height="56">
<path d="M123.246 203.433H231.489V258.915H123.246V203.433Z" fill="white"/>
</mask>
<g mask="url(#mask1_8_1536)">
<mask id="mask2_8_1536" style="mask-type:luminance" maskUnits="userSpaceOnUse" x="65" y="95" width="173" height="217">
<path d="M237.173 95.3769V311.489H65.8871V95.3769H237.173Z" fill="white"/>
</mask>
<g mask="url(#mask2_8_1536)">
<path d="M219.12 231.337C219.12 245.919 207.28 257.758 192.698 257.758C178.116 257.758 166.276 245.919 166.276 231.337C166.276 216.754 178.116 204.915 192.698 204.915C207.28 204.915 219.12 216.754 219.12 231.337Z" fill="#B09BFF"/>
<path d="M188.896 231.337C188.896 245.919 177.057 257.758 162.475 257.758C147.892 257.758 136.053 245.919 136.053 231.337C136.053 216.754 147.892 204.915 162.475 204.915C177.057 204.915 188.896 216.754 188.896 231.337Z" fill="#B09BFF"/>
<mask id="mask3_8_1536" style="mask-type:luminance" maskUnits="userSpaceOnUse" x="156" y="203" width="40" height="56">
<path d="M195.992 203.615V258.645H156.633V203.615H195.992Z" fill="white"/>
</mask>
<g mask="url(#mask3_8_1536)">
<path d="M195.592 257.298C195.592 257.298 189.114 258.012 185.203 257.07C181.659 256.229 180.912 256.222 177.786 255.996C174.997 255.794 172.941 256.19 168.745 257.003C166.512 257.437 157.089 256.843 157.089 256.843L156.961 206.257C156.961 206.257 166.808 205.06 169.361 205.858C172.941 206.978 175.175 206.978 178 206.887C180.368 206.81 182.738 206.388 185.506 205.784C191.138 204.556 195.427 206.986 195.427 206.986L195.592 257.298Z" fill="#B09BFF"/>
</g>
</g>
</g>
<mask id="mask4_8_1536" style="mask-type:luminance" maskUnits="userSpaceOnUse" x="120" y="146" width="220" height="172">
<path d="M120.526 146.347H339.189V317.633H120.526V146.347Z" fill="white"/>
</mask>
<g mask="url(#mask4_8_1536)">
<path d="M204.094 176.915L213.716 158.281" stroke="#FDDCAB" stroke-width="10.2043" stroke-linecap="round"/>
<path d="M204.111 176.609C204.111 176.609 198.739 159.763 197.939 157.256" stroke="#FDDCAB" stroke-width="10.2043" stroke-linecap="round"/>
<path d="M204.081 176.734C204.081 176.734 192.749 170.882 187.866 168.361" stroke="#FDDCAB" stroke-width="10.2043" stroke-linecap="round"/>
<path d="M204.334 176.724C204.334 176.724 195.85 179.429 189.933 181.316" stroke="#FDDCAB" stroke-width="10.2043" stroke-linecap="round"/>
<path d="M196.552 191.521C199.325 186.151 204.094 176.915 204.094 176.915" stroke="#FDDCAB" stroke-width="10.2043" stroke-linecap="round"/>
<path d="M210.091 195.357C208.694 190.978 204.111 176.609 204.111 176.609" stroke="#FDDCAB" stroke-width="10.2043" stroke-linecap="round"/>
<path d="M222.661 186.328L204.081 176.734" stroke="#FDDCAB" stroke-width="10.2043" stroke-linecap="round"/>
<path d="M223.997 170.452L204.334 176.724" stroke="#FDDCAB" stroke-width="10.2043" stroke-linecap="round"/>
</g>
<mask id="mask5_8_1536" style="mask-type:luminance" maskUnits="userSpaceOnUse" x="35" y="119" width="118" height="169">
<path d="M35.1277 119.666H152.618V287.743H35.1277V119.666Z" fill="white"/>
</mask>
<g mask="url(#mask5_8_1536)">
<mask id="mask6_8_1536" style="mask-type:luminance" maskUnits="userSpaceOnUse" x="65" y="91" width="172" height="220">
<path d="M236.63 91.9256V310.589H65.3434V91.9256H236.63Z" fill="white"/>
</mask>
<g mask="url(#mask6_8_1536)">
<mask id="mask7_8_1536" style="mask-type:luminance" maskUnits="userSpaceOnUse" x="35" y="119" width="118" height="169">
<path d="M152.809 119.623V287.629H35.4593V119.623H152.809Z" fill="white"/>
</mask>
<g mask="url(#mask7_8_1536)">
<mask id="mask8_8_1536" style="mask-type:luminance" maskUnits="userSpaceOnUse" x="35" y="119" width="118" height="169">
<path d="M152.809 119.623V287.629H35.4593V119.623H152.809Z" fill="white"/>
</mask>
<g mask="url(#mask8_8_1536)">
<path d="M108.529 163.538L79.7386 177.751C79.7386 177.751 92.5884 185.429 101.173 190.558" stroke="#3C395B" stroke-width="21.8663" stroke-linecap="round" stroke-linejoin="round"/>
</g>
</g>
</g>
</g>
<path d="M174.058 166.06V178.284C174.058 186.209 167.624 192.644 159.699 192.644H147.474C139.549 192.644 133.115 186.209 133.115 178.284V166.06C133.115 158.135 139.549 151.7 147.474 151.7H159.699C167.624 151.7 174.058 158.135 174.058 166.06Z" fill="#4F487B"/>
<path d="M179.606 133.561V112.739C179.606 104.814 186.04 98.3791 193.966 98.3791H214.787C222.713 98.3791 229.147 104.814 229.147 112.739V133.561C229.147 141.486 222.713 147.921 214.787 147.921H193.966C186.04 147.921 179.606 141.486 179.606 133.561Z" fill="#B09BFF"/>
<path d="M124.637 123.319C124.502 123.54 124.502 123.799 124.637 124.019C126.572 127.187 141.582 150.795 159.064 150.795C163.13 150.795 167.029 149.311 169.904 146.669C172.78 144.028 174.395 140.446 174.395 136.71C174.395 131.452 171.611 126.868 167.04 124.448C166.457 124.139 166.457 123.199 167.04 122.891C171.611 120.471 174.395 115.886 174.395 110.628C174.395 106.893 172.78 103.311 169.904 100.669C167.029 98.0279 163.13 96.5434 159.064 96.5434C141.582 96.5434 126.572 120.152 124.637 123.319Z" fill="#E87280"/>
<path d="M71.31 111.084C70.1989 111.114 69.5948 112.395 70.2779 113.272L75.3921 119.836C75.8544 120.429 75.7455 121.285 75.1493 121.743L68.5521 126.814C67.6709 127.492 67.9351 128.884 69.003 129.192L76.9988 131.495C77.7215 131.703 78.1363 132.46 77.9233 133.181L75.5671 141.162C75.2526 142.228 76.2838 143.199 77.3287 142.82L85.1518 139.984C85.8588 139.728 86.6389 140.096 86.8907 140.804L89.6753 148.646C90.047 149.693 91.4527 149.873 92.0753 148.952L96.7368 142.059C97.158 141.436 98.006 141.275 98.6263 141.701L105.488 146.408C106.404 147.036 107.647 146.356 107.609 145.245L107.33 136.928C107.305 136.177 107.896 135.548 108.648 135.528L116.966 135.303C118.077 135.272 118.681 133.991 117.998 133.115L112.884 126.551C112.421 125.958 112.53 125.102 113.126 124.644L119.724 119.572C120.605 118.895 120.341 117.503 119.273 117.195L111.277 114.892C110.554 114.684 110.139 113.927 110.352 113.206L112.709 105.225C113.023 104.159 111.992 103.188 110.947 103.567L103.124 106.402C102.417 106.659 101.637 106.291 101.385 105.582L98.6004 97.7411C98.2287 96.6934 96.823 96.5138 96.2004 97.4348L91.5388 104.328C91.1177 104.951 90.2697 105.111 89.6494 104.686L82.7876 99.9791C81.8714 99.3503 80.6292 100.031 80.6666 101.142L80.946 109.458C80.971 110.21 80.3795 110.839 79.6277 110.859L71.31 111.084Z" fill="#4F477B"/>
</g>
<defs>
<linearGradient id="paint0_linear_8_1536" x1="222.941" y1="487.375" x2="360.301" y2="514.53" gradientUnits="userSpaceOnUse">
<stop stop-color="#2F2C47"/>
<stop offset="0.5" stop-color="#2B2840"/>
<stop offset="1" stop-color="#252338"/>
</linearGradient>
<linearGradient id="paint1_linear_8_1536" x1="227.138" y1="485.737" x2="290.616" y2="385.655" gradientUnits="userSpaceOnUse">
<stop stop-color="#393757"/>
<stop offset="0.5" stop-color="#2E2C46"/>
<stop offset="1" stop-color="#222135"/>
</linearGradient>
<linearGradient id="paint2_linear_8_1536" x1="0.026801" y1="-0.274152" x2="587.479" y2="344.583" gradientUnits="userSpaceOnUse">
<stop stop-color="#393757"/>
<stop offset="0.5" stop-color="#2E2C46"/>
<stop offset="1" stop-color="#222135"/>
</linearGradient>
<linearGradient id="paint3_linear_8_1536" x1="14.4585" y1="14.144" x2="573.626" y2="329.628" gradientUnits="userSpaceOnUse">
<stop stop-color="#232234"/>
<stop offset="0.5" stop-color="#1F1F2D"/>
<stop offset="1" stop-color="#1B1B28"/>
</linearGradient>
<linearGradient id="paint4_linear_8_1536" x1="177.097" y1="343.77" x2="355.509" y2="403.602" gradientUnits="userSpaceOnUse">
<stop stop-color="#2F2C47"/>
<stop offset="0.5" stop-color="#2B2840"/>
<stop offset="1" stop-color="#252338"/>
</linearGradient>
</defs>
</svg>
