<svg width="84" height="19" viewBox="0 0 84 19" fill="none" xmlns="http://www.w3.org/2000/svg">
<path fill-rule="evenodd" clip-rule="evenodd" d="M57.3038 0H60.6158V18.416H57.3038V0ZM83.9999 7.76614V4.91094H80.6022V1.19918H77.2902V14.7614C77.2902 16.0177 77.6043 16.9599 78.2324 17.588C78.8606 18.2162 79.8028 18.5302 81.0876 18.5302H83.9999V15.675H81.8585C81.4017 15.675 81.0591 15.5608 80.8592 15.361C80.6879 15.1897 80.5737 14.7043 80.5737 14.1903V7.76614H83.9999ZM34.8905 14.8185L38.2882 4.88239H41.743L36.832 18.3875H32.9204L28.0095 4.91094H31.4643L34.8905 14.8185ZM71.9224 11.6492C71.9224 12.5058 71.7797 13.2481 71.5513 13.8477C71.2943 14.4473 70.9231 14.9327 70.4663 15.2468C70.0094 15.5608 69.4384 15.7036 68.7817 15.7036C67.8395 15.7036 67.1257 15.3895 66.6689 14.7899C66.212 14.1618 65.9551 13.2481 65.9551 12.0204V4.88239H62.643V12.363C62.643 13.5336 62.7858 14.533 63.0713 15.3039C63.3568 16.1033 63.7566 16.7315 64.2419 17.2168C64.7273 17.7022 65.2984 18.0449 65.9551 18.2447C66.5832 18.4446 67.2685 18.5588 67.9823 18.5588C69.0101 18.5588 69.8667 18.3589 70.5234 18.0163C71.123 17.6737 71.6084 17.2739 72.0081 16.8457L72.2936 18.416H75.1773V4.91094H71.8653V11.6492H71.9224ZM52.2501 5.59619C51.2222 5.02515 49.966 4.73963 48.5955 4.73963C47.225 4.73963 45.9972 5.02515 44.9408 5.59619C43.8844 6.16723 43.0564 6.99523 42.4853 8.02311C41.9143 9.05098 41.6288 10.2787 41.6288 11.6492C41.6288 13.0197 41.9143 14.2189 42.4853 15.2468C43.0564 16.2746 43.8844 17.1026 44.9408 17.6737C45.9972 18.2447 47.225 18.5302 48.5955 18.5302C49.9945 18.5302 51.2222 18.2447 52.2501 17.6737C53.278 17.1026 54.106 16.2746 54.677 15.2468C55.2481 14.2189 55.5336 12.9911 55.5336 11.6492C55.5336 10.2787 55.2481 9.05098 54.677 8.02311C54.1345 6.99523 53.3065 6.19578 52.2501 5.59619ZM50.5084 15.2468C49.966 15.5894 49.3378 15.7607 48.5955 15.7607C47.8531 15.7607 47.225 15.5894 46.6825 15.2468C46.14 14.9041 45.7117 14.4187 45.4262 13.7906C45.1407 13.1625 44.9694 12.4487 44.9694 11.6492C44.9694 10.8212 45.1121 10.1074 45.4262 9.50781C45.7117 8.90822 46.14 8.39428 46.6825 8.05166C47.225 7.70903 47.8531 7.50917 48.5955 7.50917C49.3378 7.50917 49.9945 7.68048 50.5084 8.05166C51.0509 8.39428 51.4507 8.90822 51.7647 9.50781C52.0503 10.1074 52.2216 10.8498 52.2216 11.6492C52.2216 12.4487 52.0788 13.1625 51.7647 13.7906C51.4792 14.4187 51.0509 14.9041 50.5084 15.2468ZM3.42624 4.53976H0V18.3875H3.42624V4.53976ZM14.1903 5.33922C14.1903 2.39837 11.792 0 8.85111 0H0V2.96941H8.42283C9.76478 2.96941 10.8498 4.02583 10.8783 5.31067C10.8783 5.96736 10.6499 6.56695 10.1931 7.02379C9.73622 7.45207 9.13663 7.70903 8.50849 7.70903H5.22501C5.1108 7.70903 5.02515 7.79469 5.02515 7.9089V10.5642C5.02515 10.6213 5.02515 10.6499 5.0537 10.6784L10.6213 18.3875H14.7043L9.10808 10.6499C11.9062 10.5357 14.1903 8.16587 14.1903 5.33922ZM24.726 5.53908C23.7267 5.02515 22.5561 4.73963 21.2427 4.73963C19.9293 4.73963 18.7301 5.02515 17.7308 5.59619C16.7029 6.16723 15.932 6.99523 15.361 8.02311C14.7899 9.05098 14.533 10.2787 14.533 11.6778C14.533 13.0483 14.8185 14.2474 15.3895 15.2753C15.9606 16.3032 16.7886 17.1312 17.8164 17.6737C18.8729 18.2447 20.1291 18.5302 21.5567 18.5302C22.6988 18.5302 23.6981 18.3304 24.5833 17.9021C25.4684 17.4738 26.1822 16.9028 26.6961 16.189C27.21 15.5037 27.5527 14.7614 27.724 13.9334L27.7525 13.8477H24.4119L24.3834 13.9048C24.2121 14.533 23.8409 15.0183 23.3555 15.361C22.813 15.7321 22.1278 15.932 21.3569 15.932C20.7002 15.932 20.1006 15.7892 19.5867 15.5037C19.0727 15.2182 18.673 14.8185 18.3875 14.3331C18.102 13.8192 17.9592 13.2196 17.9021 12.5343V12.4201H27.8096V12.363C27.8382 12.1631 27.8667 11.9633 27.8667 11.792V11.2209C27.8382 9.90754 27.5527 8.76546 27.0102 7.79469C26.4962 6.79537 25.6968 6.05302 24.726 5.53908ZM23.5268 8.08021C24.0979 8.56559 24.4405 9.22229 24.5833 10.0788H18.0449C18.1305 9.53636 18.3018 9.05098 18.5873 8.65125C18.9014 8.22297 19.2726 7.9089 19.758 7.68048C20.2148 7.45207 20.7287 7.33786 21.2712 7.33786C22.1849 7.33786 22.9272 7.59483 23.5268 8.08021Z" fill="#9CA3AF"/>
</svg>
