<svg width="35" height="37" viewBox="0 0 35 37" fill="none" xmlns="http://www.w3.org/2000/svg">
<path d="M29.5986 35.8976C32.0707 35.5119 33.3067 35.045 33.3067 34.4969C33.3067 33.9487 32.0707 33.4801 29.5986 33.091C27.1293 32.7053 24.1452 32.5125 20.6464 32.5125C17.1476 32.5125 14.1635 32.7053 11.6942 33.091C9.22553 33.4801 7.99121 33.9487 7.99121 34.4969C7.99121 35.045 9.22553 35.5119 11.6942 35.8976C14.1662 36.2867 17.1503 36.4813 20.6464 36.4813C24.1425 36.4813 27.1266 36.2867 29.5986 35.8976Z" fill="#E1D5C3"/>
<path d="M33.3018 34.4969C33.3018 35.045 32.0658 35.512 29.5937 35.8977C27.1217 36.2834 24.1376 36.478 20.6415 36.4813C17.1447 36.4813 14.1607 36.2868 11.6893 35.8977C9.21794 35.5086 7.98362 35.0417 7.98633 34.4969C7.98633 33.9488 9.22066 33.4802 11.6893 33.0911C14.1579 32.702 17.142 32.5091 20.6415 32.5125C24.1383 32.5125 27.1224 32.7054 29.5937 33.0911C32.0651 33.4768 33.3011 33.9454 33.3018 34.4969Z" stroke="#E1D5C3" stroke-width="0.1" stroke-linecap="round" stroke-linejoin="round"/>
<path d="M31.4655 1.63986C29.8758 0.43939 28.0091 -0.10197 25.8653 0.015776C25.4651 0.0394605 24.8649 0.0631447 24.0647 0.0868292C23.2644 0.110514 22.6625 0.132507 22.259 0.152808C21.4451 0.200177 20.3125 0.245854 18.8612 0.289839C17.264 0.333825 16.1297 0.372736 15.4583 0.406571C14.38 0.457323 13.7221 0.491158 13.4848 0.508076C12.8254 0.562557 12.1738 0.688488 11.5417 0.883644C9.87607 1.425 8.57054 2.24719 7.62513 3.35021C6.65124 4.48707 6.07477 5.90306 5.89573 7.5982C5.79668 8.72554 5.77799 9.85848 5.83978 10.9885C5.87301 11.7423 5.93065 12.8758 6.01271 14.3889C6.02634 14.5276 6.00355 14.6676 5.94659 14.7949C5.87812 14.9042 5.77102 14.9839 5.64649 15.0182L5.57528 14.9827L5.35656 14.7086C5.02486 14.2705 4.57752 13.9331 4.06459 13.7342C3.55369 13.5491 3.00365 13.4984 2.46743 13.587C1.95351 13.6523 1.4704 13.8677 1.07882 14.2062C0.690876 14.5562 0.397075 14.9976 0.224291 15.4902C0.00107708 16.0952 -0.0568538 16.7486 0.0564371 17.3833C0.37926 19.3701 1.16597 20.8994 2.41657 21.9713C2.65658 22.1706 2.87946 22.3896 3.0829 22.626C3.2822 22.8713 3.42931 23.1545 3.51525 23.4583C4.18106 25.1221 5.45306 26.4728 7.07579 27.2394C7.8178 27.5924 8.59304 27.8712 9.39014 28.0717C10.1848 28.2694 10.9896 28.4236 11.8011 28.5336C12.0453 28.5674 12.2098 28.6436 12.2945 28.762C12.3793 28.8804 12.398 29.0513 12.3505 29.2746C12.2894 29.6129 12.1996 30.1188 12.0809 30.7921C11.969 31.3842 11.8622 31.8866 11.7604 32.2994C11.5977 32.9694 11.635 33.5226 11.8724 33.959C12.1097 34.3955 12.5522 34.7254 13.1999 34.9487C14.0718 35.2347 14.983 35.3837 15.9009 35.3903C16.8135 35.3909 17.7254 35.3401 18.6323 35.238C18.938 35.2178 19.2329 35.1169 19.4867 34.9457C19.7405 34.7745 19.9442 34.5391 20.0769 34.2635C20.2254 33.9912 20.3061 33.6872 20.3123 33.3772C20.3185 33.0672 20.25 32.7602 20.1125 32.4821C19.77 31.7479 19.3207 31.1863 18.7645 30.7972C18.6833 30.7468 18.6082 30.6872 18.5407 30.6195C18.5084 30.5785 18.4856 30.5308 18.4742 30.4798C18.4627 30.4289 18.4629 30.376 18.4746 30.3252C18.5249 29.974 18.5436 29.619 18.5306 29.2644C18.5144 29.1253 18.5527 28.9853 18.6374 28.8736C18.7511 28.7876 18.8916 28.7444 19.0341 28.7518C19.97 28.7139 20.9483 28.6547 21.969 28.5742C22.1521 28.5569 22.2742 28.5894 22.3454 28.6706C22.4154 28.7809 22.4475 28.911 22.437 29.0411C22.4472 29.4201 22.4811 30.4994 22.5387 32.2791C22.5618 32.901 22.7245 33.3984 23.027 33.7712C23.3295 34.1441 23.7856 34.403 24.3953 34.5478C25.1912 34.7251 26.0066 34.8002 26.8215 34.7711C27.632 34.7376 28.4392 34.6494 29.2376 34.5072C29.458 34.4742 29.669 34.3958 29.8573 34.2769C30.0455 34.1581 30.207 34.0014 30.3312 33.8169C30.5964 33.4375 30.7238 32.9792 30.6924 32.5177C30.6806 31.9758 30.5206 31.4476 30.2295 30.99C29.9301 30.5488 29.5048 30.2076 29.0087 30.0105C28.65 29.8609 28.3973 29.6918 28.2508 29.503C28.0915 29.2898 28.0169 29.0022 28.027 28.6402C28.0234 28.4999 28.053 28.3608 28.1135 28.2342C28.191 28.1257 28.3046 28.0484 28.434 28.0159C28.9342 27.8579 29.425 27.6715 29.904 27.4576C32.8514 26.0839 34.5266 23.8339 34.9294 20.7076C34.9937 20.1619 35.0141 19.6121 34.9904 19.0632C34.9525 18.3357 34.927 17.7893 34.9142 17.4239C34.9013 17.0415 34.8674 15.8844 34.8124 13.9524C34.7717 12.5381 34.726 11.3826 34.6751 10.486C34.6751 10.4251 34.6581 9.82454 34.6242 8.6843C34.6135 8.08495 34.5677 7.48674 34.4869 6.89274C34.1478 4.65963 33.139 2.90867 31.4604 1.63986M27.5743 1.84794C28.8744 2.04123 30.0751 2.65452 30.9925 3.59383C31.924 4.5219 32.5305 5.72514 32.7219 7.02469C32.7755 7.37996 32.8161 7.80121 32.8439 8.28843C32.8575 8.57264 32.8728 8.99389 32.8897 9.55217C32.9508 10.936 33.0118 12.6176 33.0728 14.597C33.1068 15.7169 33.1576 17.3968 33.2254 19.6367C33.2401 20.5338 33.0669 21.424 32.7168 22.2504C32.7142 22.256 32.7108 22.2612 32.7066 22.2657C32.703 22.2781 32.6978 22.29 32.6914 22.3012C32.2114 23.3891 31.458 24.3348 30.5042 25.0469C29.6395 25.683 28.5713 26.1516 27.2997 26.4527C26.754 26.5703 26.1992 26.6416 25.6415 26.6659C24.8955 26.693 24.3376 26.72 23.968 26.7471C23.1542 26.808 22.1657 26.8605 21.0026 26.9044C19.6828 26.945 18.6927 26.9789 18.0321 27.0059C17.0887 27.0838 16.38 27.1379 15.9059 27.1684C15.1932 27.2311 14.4755 27.2038 13.7696 27.0871C12.8262 26.922 12.1192 26.7952 11.6485 26.7065C11.2715 26.6388 10.9205 26.5712 10.5956 26.5035C10.4339 26.469 10.2782 26.4335 10.1277 26.3969C9.92016 26.3482 9.72517 26.2991 9.54274 26.2497C8.7977 26.0581 8.0799 25.7733 7.40641 25.4022C6.73009 25.0174 6.14531 24.491 5.69227 23.8593C5.45424 23.5177 5.24983 23.154 5.08189 22.7732C4.99711 22.5878 4.83943 22.2054 4.60885 21.6262C4.52974 21.4031 4.37501 21.2146 4.17141 21.0933C3.47218 20.7133 2.89541 20.143 2.50813 19.4489C2.18259 18.8778 1.92996 18.1419 1.75024 17.2412C1.71163 17.0622 1.68613 16.8807 1.67394 16.6981C1.66502 16.5085 1.69264 16.319 1.75532 16.1398C1.9208 15.6661 2.2226 15.3718 2.66072 15.2567C3.09884 15.1417 3.50406 15.2551 3.87639 15.5968C4.14978 15.8498 4.36646 16.1577 4.5122 16.5002C4.72312 16.9908 4.87402 17.3308 4.9649 17.5203C5.10732 17.8181 5.31926 17.9602 5.60071 17.9466C5.86216 17.9334 6.04629 17.7791 6.15514 17.4848C6.34096 16.9874 6.54103 16.6186 6.75534 16.3784C6.85173 16.2581 6.96477 16.1522 7.09105 16.0637C7.15597 16.0225 7.23077 15.9993 7.30769 15.9966C7.38461 15.9939 7.46084 16.0119 7.52849 16.0485C7.59811 16.0808 7.65974 16.128 7.70898 16.1868C7.75821 16.2455 7.79385 16.3144 7.81333 16.3885C7.84479 16.5406 7.84824 16.6971 7.82351 16.8504C7.76332 17.2849 7.67669 17.7154 7.56409 18.1395C7.49627 18.4237 7.38098 18.8466 7.21821 19.4083C6.97978 20.2526 7.01 21.1499 7.30468 21.9764C7.5595 22.7099 8.01818 23.3559 8.62717 23.839C8.69635 23.8948 8.76756 23.9496 8.84081 24.0014L9.15616 24.2044L9.16634 24.2095C9.20906 24.2349 9.24976 24.2572 9.28841 24.2755L9.32911 24.2907C9.66278 24.426 9.95441 24.3533 10.204 24.0725C10.2773 23.9919 10.3332 23.8972 10.3682 23.7942C10.4032 23.6911 10.4166 23.582 10.4074 23.4736C10.4046 23.3612 10.3787 23.2505 10.3315 23.1484C10.2843 23.0463 10.2166 22.9549 10.1328 22.8798C9.75443 22.5432 9.40401 22.1765 9.08496 21.7835C8.89546 21.5446 8.7601 21.2676 8.68821 20.9715C8.6249 20.6623 8.64419 20.342 8.74416 20.0427C8.98153 19.278 9.14599 18.7011 9.23755 18.312C9.38196 17.7305 9.46044 17.1347 9.47153 16.5357C9.4817 15.4219 9.01544 14.7198 8.07274 14.4295C7.96742 14.4039 7.87514 14.3407 7.81333 14.2518C7.76728 14.1566 7.74131 14.053 7.73704 13.9473C7.67043 13.2405 7.63987 12.5307 7.64548 11.8208C7.6387 10.7882 7.62344 10.0776 7.5997 9.6892C7.53126 8.76261 7.60849 7.83104 7.82859 6.92826C8.37115 4.84944 9.66312 3.4436 11.7045 2.71073C11.8469 2.65998 11.9934 2.60923 12.1419 2.56862C12.2905 2.52802 12.4258 2.49047 12.5743 2.45697C12.5932 2.45284 12.6119 2.44776 12.6302 2.44174C12.9232 2.37813 13.2335 2.32569 13.5611 2.28441C13.968 2.23366 14.4495 2.19644 15.0056 2.17276C15.9822 2.13215 17.4454 2.07633 19.3953 2.00527C21.3451 1.93422 22.8083 1.8767 23.7849 1.83271C24.2095 1.81512 24.8436 1.78467 25.6873 1.74136C26.3216 1.71869 26.9567 1.75437 27.5845 1.84794M25.7737 28.361C26.2078 28.3373 26.4197 28.5505 26.4095 29.0005C26.3871 29.608 26.4212 30.2162 26.5113 30.8175C26.5223 30.9548 26.5839 31.0831 26.6842 31.1778C26.7378 31.2167 26.7992 31.2436 26.8641 31.2568C26.929 31.2699 26.9961 31.2689 27.0606 31.2539C27.3535 31.2107 27.6525 31.2349 27.9346 31.3246C28.2167 31.4143 28.4745 31.5672 28.6883 31.7716C28.6985 32.0051 28.6069 32.2521 28.4136 32.5126C28.2173 32.7735 28.022 32.9115 27.8287 32.9288C27.1878 32.9795 26.7164 33.0083 26.4146 33.015C25.9411 33.0271 25.4675 32.9931 25.0006 32.9135C24.5631 32.8323 24.3071 32.5583 24.2325 32.0913C24.157 31.5567 24.1196 31.0174 24.1206 30.4774L24.1104 28.8584C24.1033 28.6046 24.2193 28.4696 24.4563 28.4524C24.7486 28.4348 25.1861 28.4027 25.7686 28.356M18.0423 32.3959C18.117 32.4858 18.1802 32.5847 18.2305 32.6902C18.2564 32.7358 18.2684 32.7881 18.2648 32.8405C18.2611 32.8928 18.2421 32.9429 18.2101 32.9846C18.1176 33.1174 18.0408 33.2605 17.9812 33.4109C17.9378 33.487 17.8749 33.5501 17.7989 33.5938C17.7229 33.6375 17.6366 33.6602 17.5489 33.6596C16.691 33.6697 16.1009 33.6697 15.7788 33.6596C15.1875 33.6443 14.5987 33.5781 14.0189 33.4617C13.6899 33.394 13.4899 33.3009 13.4186 33.1825C13.3474 33.0641 13.3491 32.8425 13.4237 32.5177C13.6753 31.3233 13.8839 30.2507 14.0494 29.3C14.0548 29.1847 14.1039 29.0759 14.1867 28.9954C14.2826 28.9369 14.3959 28.9136 14.5072 28.9295C14.7513 28.9396 15.048 28.9447 15.3973 28.9447C15.5933 28.9447 15.8883 28.943 16.2823 28.9396C16.5089 28.9295 16.6665 28.9751 16.7554 29.0766C16.8383 29.1947 16.8712 29.3406 16.8469 29.4827L16.7452 31.2945C16.7263 31.4429 16.7586 31.5932 16.8368 31.7208C16.8855 31.78 16.9458 31.8285 17.014 31.8634C17.0823 31.8983 17.157 31.9189 17.2335 31.9239C17.3932 31.9443 17.5471 31.9966 17.686 32.0777C17.825 32.1588 17.9461 32.267 18.0423 32.3959Z" fill="black"/>
<path d="M18.2308 32.6902C18.1806 32.5847 18.1173 32.4858 18.0426 32.3959C17.9454 32.2674 17.8233 32.1598 17.6834 32.0796C17.5436 31.9993 17.3889 31.9481 17.2288 31.9289C17.1522 31.924 17.0775 31.9034 17.0093 31.8685C16.9411 31.8336 16.8807 31.785 16.832 31.7259C16.7539 31.5983 16.7216 31.448 16.7405 31.2996L16.8422 29.4877C16.8665 29.3457 16.8336 29.1997 16.7506 29.0817C16.6618 28.9802 16.5041 28.9345 16.2776 28.9447C15.8836 28.9447 15.5885 28.9464 15.3925 28.9498C15.044 28.9498 14.7472 28.9447 14.5024 28.9345C14.3912 28.9187 14.2778 28.942 14.182 29.0005C14.0991 29.081 14.05 29.1898 14.0446 29.305C13.8791 30.2565 13.6706 31.329 13.419 32.5227C13.3512 32.855 13.3495 33.0766 13.4139 33.1876C13.4783 33.2986 13.6784 33.3916 14.0141 33.4667C14.5939 33.5832 15.1828 33.6494 15.774 33.6647C16.0962 33.6748 16.6862 33.6748 17.5441 33.6647C17.6332 33.6657 17.7209 33.6427 17.7979 33.598C17.875 33.5533 17.9384 33.4887 17.9816 33.4109C18.0411 33.2605 18.1179 33.1174 18.2105 32.9846C18.2425 32.9429 18.2615 32.8928 18.2651 32.8405C18.2687 32.7881 18.2568 32.7359 18.2308 32.6902ZM26.4048 29.0005C26.415 28.5505 26.203 28.3374 25.769 28.361C25.1857 28.4091 24.7483 28.4412 24.4567 28.4575C24.2196 28.4747 24.1037 28.6097 24.1108 28.8635L24.121 30.4825C24.12 31.0224 24.1574 31.5618 24.2329 32.0964C24.3075 32.5633 24.5635 32.8374 25.0009 32.9186C25.4679 32.9981 25.9414 33.0321 26.415 33.0201C26.7174 33.0127 27.1888 32.9839 27.829 32.9338C28.0223 32.9166 28.2176 32.7785 28.414 32.5177C28.6103 32.2568 28.6988 32.0101 28.6886 31.7767C28.4748 31.5723 28.217 31.4194 27.9349 31.3297C27.6528 31.2399 27.3539 31.2158 27.061 31.259C26.9964 31.274 26.9294 31.275 26.8644 31.2618C26.7995 31.2487 26.7381 31.2218 26.6846 31.1829C26.5843 31.0882 26.5226 30.9598 26.5116 30.8225C26.4215 30.2213 26.3874 29.6131 26.4099 29.0056M3.88182 15.6069C3.50881 15.2686 3.10359 15.1552 2.66615 15.2669C2.22871 15.3786 1.92691 15.6729 1.76076 16.15C1.69808 16.3292 1.67045 16.5187 1.67937 16.7083C1.69157 16.8909 1.71706 17.0724 1.75567 17.2513C1.93607 18.152 2.1887 18.8879 2.51355 19.4591C2.90084 20.1532 3.47761 20.7234 4.17684 21.1034C4.38045 21.2248 4.53517 21.4133 4.61427 21.6363C4.84486 22.2149 5.00254 22.5972 5.08732 22.7833C5.25422 23.1604 5.45691 23.5207 5.69261 23.8593C6.14529 24.4868 6.72822 25.0096 7.40167 25.392C8.07516 25.7632 8.79295 26.048 9.538 26.2396C9.71975 26.289 9.91473 26.338 10.1229 26.3868C10.2735 26.4233 10.4281 26.4588 10.5909 26.4933L9.28876 24.2755C9.2501 24.2572 9.20941 24.2349 9.16668 24.2095L9.15651 24.2044L8.84115 24.0014C8.7679 23.9496 8.69669 23.8948 8.62752 23.839C8.01853 23.3559 7.55985 22.7099 7.30503 21.9764C7.01034 21.1499 6.98012 20.2526 7.21856 19.4083C7.37861 18.8466 7.49391 18.4237 7.56444 18.1395C7.67703 17.7154 7.76367 17.2849 7.82385 16.8504C7.84858 16.6971 7.84514 16.5406 7.81368 16.3885C7.79419 16.3144 7.75856 16.2455 7.70932 16.1868C7.66008 16.128 7.59846 16.0808 7.52883 16.0485C7.46119 16.0119 7.38495 15.9939 7.30803 15.9966C7.23111 15.9993 7.15632 16.0225 7.0914 16.0637C6.96511 16.1522 6.85208 16.2581 6.75569 16.3784C6.54206 16.6193 6.34198 16.9881 6.15548 17.4848C6.04663 17.7791 5.8625 17.9334 5.60105 17.9466C5.31892 17.9595 5.10699 17.8174 4.96524 17.5203C4.87369 17.3302 4.72279 16.9901 4.51254 16.5002C4.3668 16.1577 4.15013 15.8498 3.87673 15.5968L3.88182 15.6069Z" fill="#2199DF"/>
<path d="M10.1785 5.72549C10.3648 5.06941 10.668 4.45221 11.0737 3.90348C11.4899 3.34329 11.9951 2.85471 12.5692 2.45703C12.4206 2.49053 12.2762 2.52808 12.1368 2.56869C11.9974 2.60929 11.8418 2.66004 11.6994 2.71079C9.66138 3.44366 8.37111 4.8495 7.82855 6.92833C7.60963 7.83301 7.53411 8.76633 7.60474 9.69433C7.62848 10.0801 7.64374 10.7906 7.65052 11.8259C7.64491 12.5359 7.67547 13.2456 7.74208 13.9525C7.74636 14.0581 7.77232 14.1618 7.81838 14.257C7.87981 14.3429 7.97001 14.4041 8.0727 14.4295C9.01607 14.7212 9.48234 15.4233 9.47149 16.5358C9.4604 17.1348 9.38192 17.7306 9.23751 18.3121C9.14595 18.7012 8.98149 19.2781 8.74412 20.0428C8.64415 20.3421 8.62485 20.6624 8.68817 20.9715C8.76006 21.2676 8.89541 21.5447 9.08491 21.7836C9.40397 22.1766 9.75438 22.5432 10.1327 22.8798C10.2166 22.9549 10.2842 23.0464 10.3315 23.1485C10.3787 23.2506 10.4045 23.3612 10.4074 23.4736C10.4165 23.582 10.4032 23.6912 10.3682 23.7942C10.3332 23.8973 10.2773 23.992 10.2039 24.0725C9.95436 24.356 9.66274 24.4288 9.32906 24.2907L9.28837 24.2755L10.5905 26.4934C10.9147 26.5611 11.2657 26.6287 11.6434 26.6964C12.1141 26.7851 12.8211 26.9119 13.7645 27.0771C14.4703 27.1937 15.1881 27.221 15.9008 27.1583C16.3755 27.1278 17.0843 27.0737 18.027 26.9959C18.6882 26.9722 19.6784 26.9383 20.9975 26.8943C22.1647 26.851 23.1531 26.7986 23.9629 26.737C24.3318 26.7093 24.8897 26.6822 25.6363 26.6558C26.1941 26.6315 26.7488 26.5602 27.2945 26.4427C28.5662 26.1415 29.6343 25.6729 30.499 25.0368C31.4529 24.3247 32.2063 23.379 32.6862 22.2911C32.4394 22.5337 32.1778 22.7608 31.9029 22.9712C31.2893 23.4096 30.6373 23.7918 29.9548 24.1131C29.1348 24.5191 27.9175 24.7492 26.3027 24.8033C24.6879 24.8575 23.0772 24.937 21.4705 25.0419C19.8673 25.1434 18.6584 25.2314 17.8438 25.3058C15.6227 25.5088 14.1256 25.4784 13.3525 25.2144C12.9592 25.0795 12.6035 24.8534 12.3148 24.5547C11.9988 24.206 11.7114 23.8326 11.4552 23.4381C11.0426 22.6692 10.7363 21.848 10.5447 20.9969C10.4457 20.507 10.3728 19.7542 10.326 18.7384C10.2982 18.1192 10.2558 17.4121 10.1989 16.617C10.131 15.6561 10.0954 15.1435 10.092 15.0792C10.092 15.0589 10.1005 14.504 10.1175 13.4145C10.132 12.5325 10.0844 11.6507 9.97505 10.7754C9.72751 8.76286 9.79533 7.07957 10.1785 5.72549Z" fill="#FFA70B"/>
<path d="M30.9978 3.59394C30.0804 2.65463 28.8797 2.04134 27.5797 1.84805C26.9519 1.75448 26.3168 1.7188 25.6824 1.74147C24.838 1.78546 24.2039 1.81591 23.78 1.83283C22.8068 1.87681 21.3436 1.93433 19.3904 2.00539C17.4372 2.07644 15.974 2.13227 15.0008 2.17287C14.4413 2.19588 13.9597 2.23309 13.5562 2.28452C13.2286 2.32513 12.9184 2.37757 12.6254 2.44186C12.607 2.44787 12.5883 2.45295 12.5694 2.45708C11.9953 2.85476 11.4902 3.34334 11.074 3.90353C10.6683 4.45226 10.365 5.06946 10.1788 5.72554C9.79492 7.07894 9.7271 8.76731 9.97532 10.7906C10.0847 11.6659 10.1322 12.5478 10.1177 13.4298C10.1001 14.5186 10.0916 15.0735 10.0923 15.0944C10.0923 15.1581 10.1279 15.6707 10.1991 16.6323C10.2574 17.4274 10.2998 18.1345 10.3263 18.7537C10.3738 19.7688 10.4467 20.5216 10.545 21.0122C10.7366 21.8632 11.0428 22.6844 11.4555 23.4534C11.7116 23.8479 11.9991 24.2213 12.3151 24.5699C12.6038 24.8687 12.9594 25.0948 13.3527 25.2297C14.1259 25.4963 15.623 25.5268 17.8441 25.3211C18.658 25.2466 19.8668 25.1587 21.4708 25.0572C23.0747 24.9557 24.6854 24.8761 26.3029 24.8186C27.9184 24.7618 29.1358 24.5317 29.955 24.1284C30.6376 23.807 31.2896 23.4248 31.9032 22.9865C32.1781 22.7761 32.4397 22.5489 32.6865 22.3064C32.693 22.2952 32.6981 22.2833 32.7017 22.2709C32.7059 22.2664 32.7094 22.2612 32.7119 22.2556C33.062 21.4292 33.2352 20.539 33.2206 19.6419C33.1528 17.402 33.1019 15.7221 33.068 14.6022C33.0069 12.6228 32.9459 10.9412 32.8849 9.55735C32.8672 8.99908 32.852 8.57783 32.8391 8.29362C32.812 7.80639 32.7713 7.38515 32.717 7.02988C32.5295 5.72978 31.9266 4.52475 30.9978 3.59394Z" fill="#FED234"/>
<path d="M9.29102 24.2754L10.5921 26.4933" stroke="#2199DF" stroke-width="0.1" stroke-linecap="round" stroke-linejoin="round"/>
<path d="M12.6254 2.44482L12.5694 2.45701C11.9953 2.85469 11.4902 3.34327 11.074 3.90345C10.6683 4.45218 10.365 5.06939 10.1788 5.72547C9.79492 7.07886 9.7271 8.76824 9.97532 10.7936C10.0845 11.6662 10.1321 12.5454 10.1177 13.4246C10.1001 14.5134 10.0916 15.0683 10.0923 15.0893C10.0923 15.1529 10.1279 15.6655 10.1991 16.6271C10.2574 17.4222 10.2998 18.1294 10.3263 18.7485C10.3738 19.7636 10.4467 20.5164 10.545 21.007C10.7366 21.8581 11.0428 22.6793 11.4555 23.4482C11.7116 23.8428 11.9991 24.2161 12.3151 24.5648C12.6038 24.8635 12.9594 25.0896 13.3527 25.2246C14.1259 25.4912 15.623 25.5216 17.8441 25.3159C18.658 25.2415 19.8675 25.1542 21.4728 25.054C23.0781 24.9539 24.6882 24.8747 26.3029 24.8165C27.9184 24.7576 29.1358 24.5266 29.955 24.1232C30.6376 23.8019 31.2896 23.4197 31.9032 22.9813C32.1776 22.7714 32.4392 22.5453 32.6865 22.3043L32.7048 22.2687" stroke="#FFA70B" stroke-width="0.1" stroke-linecap="round" stroke-linejoin="round"/>
<path d="M16.9839 17.7183C16.6957 17.9551 16.5702 18.3679 16.6075 18.9566C16.638 19.3672 16.7504 19.7675 16.9381 20.1341C17.1246 20.4917 17.3535 20.8256 17.6197 21.1288C18.4607 22.1168 19.4932 22.6768 20.7174 22.8087C21.9415 22.9407 23.1351 22.6226 24.2983 21.8546C25.0859 21.2665 25.7122 20.4897 26.1192 19.5961C26.2462 19.3308 26.3467 19.0538 26.4193 18.7688C26.4931 18.4803 26.5069 18.1798 26.46 17.8857C26.3657 17.2767 26.0182 16.9925 25.4173 17.0331C25.1466 17.0566 24.8818 17.1252 24.634 17.2361C24.3054 17.3853 24.0572 17.4929 23.8913 17.5609C23.4975 17.7278 23.0931 17.8685 22.6808 17.9822C22.2624 18.0936 21.8319 18.1533 21.399 18.1598C20.3318 18.1471 19.273 17.969 18.2606 17.632C17.7038 17.456 17.2799 17.4848 16.989 17.7183M23.0673 20.9563C23.1722 21.0166 23.2725 21.0844 23.3674 21.1593C23.4118 21.1978 23.4457 21.2467 23.4662 21.3017C23.4866 21.3567 23.4929 21.4159 23.4844 21.4739C23.4744 21.5324 23.4508 21.5876 23.4155 21.6352C23.3801 21.6828 23.334 21.7215 23.281 21.748C23.1703 21.7979 23.0565 21.8403 22.9402 21.8749C22.34 22.0779 21.638 22.154 20.8344 22.1033C20.5017 22.0393 20.2616 21.9886 20.1121 21.951C19.892 21.9069 19.6784 21.8353 19.4763 21.7379C19.286 21.6364 19.1884 21.542 19.1813 21.4435C19.1741 21.345 19.2555 21.2405 19.4254 21.1085C19.8832 20.7702 20.48 20.5875 21.2158 20.5604C21.9517 20.5333 22.5672 20.6653 23.0622 20.9563H23.0673Z" fill="black"/>
<path d="M23.3626 21.1592C23.2677 21.0844 23.1674 21.0165 23.0625 20.9562C22.5708 20.6585 21.9554 20.5248 21.2161 20.5553C20.4769 20.5857 19.8801 20.7684 19.4257 21.1034C19.2561 21.232 19.1748 21.3436 19.1815 21.4384C19.1887 21.5399 19.2833 21.6343 19.4766 21.7327C19.6784 21.8319 19.8921 21.9052 20.1124 21.951C20.2619 21.9885 20.502 22.0393 20.8347 22.1032C21.6383 22.154 22.3403 22.0778 22.9405 21.8748C23.0568 21.8402 23.1706 21.7978 23.2813 21.7479C23.3343 21.7214 23.3804 21.6828 23.4158 21.6351C23.4511 21.5875 23.4747 21.5323 23.4847 21.4739C23.4926 21.4154 23.4855 21.3559 23.4642 21.3009C23.4428 21.2459 23.4079 21.1972 23.3626 21.1592Z" fill="#FD6448"/>
<path d="M27.7271 9.98357C27.3473 9.33393 26.8099 9.02265 26.1147 9.04972C25.4195 9.07679 24.8804 9.41852 24.4972 10.0749C24.2391 10.5117 24.0826 11.0009 24.0394 11.5061C23.9852 12.2268 24.0343 12.8342 24.1869 13.3282C24.3733 13.9339 24.7494 14.464 25.2602 14.8406C25.4787 14.9902 25.7303 15.0846 25.9935 15.1155C26.2567 15.1465 26.5235 15.1131 26.7709 15.0182C27.2181 14.8664 27.5908 14.5508 27.8136 14.1351C28.1734 13.4955 28.3576 12.7725 28.3477 12.039C28.3206 11.3122 28.1069 10.6044 27.7271 9.98357ZM26.7098 10.0851C26.9491 10.1539 27.1585 10.3003 27.3049 10.5012C27.4268 10.6969 27.4821 10.9265 27.4626 11.1559C27.4652 11.2578 27.4335 11.3576 27.3727 11.4395C27.3119 11.5213 27.2253 11.5805 27.1269 11.6076C26.9641 11.6618 26.7878 11.6212 26.5979 11.4858C26.4181 11.36 26.2856 11.1778 26.2215 10.9682C26.1469 10.7171 26.1503 10.5209 26.2317 10.3794C26.31 10.2373 26.4687 10.1389 26.7098 10.0851Z" fill="black"/>
<path d="M27.3047 10.5011C27.1582 10.3002 26.9488 10.1538 26.7095 10.085C26.4684 10.1388 26.3097 10.2372 26.2314 10.3793C26.1531 10.5214 26.147 10.7173 26.2212 10.9681C26.2853 11.1777 26.4178 11.3599 26.5976 11.4857C26.7882 11.6211 26.9646 11.6617 27.1266 11.6075C27.2251 11.5804 27.3116 11.5212 27.3724 11.4393C27.4332 11.3575 27.4649 11.2577 27.4623 11.1558C27.4818 10.9264 27.4265 10.6967 27.3047 10.5011Z" fill="white"/>
<path d="M15.7076 9.40991C14.9067 9.40991 14.32 9.82101 13.9477 10.6432C13.3712 11.8992 13.4204 13.1747 14.0952 14.4699C14.6473 15.2042 15.2644 15.5374 15.9467 15.4698C16.6289 15.4021 17.1579 14.9572 17.5337 14.135C18.0396 13.0286 18.0074 11.8545 17.437 10.6127C17.0681 9.81086 16.4916 9.40991 15.7076 9.40991ZM15.6669 11.2878C15.6212 11.0534 15.6552 10.8104 15.7636 10.5975C16.0613 10.3817 16.3377 10.3935 16.5927 10.633C16.8979 10.9247 17.0182 11.2225 16.9538 11.5263C16.9403 11.6252 16.9 11.7186 16.8373 11.7964C16.7745 11.8742 16.6917 11.9335 16.5978 11.9678C16.5004 11.9986 16.3966 12.0035 16.2968 11.9821C16.1969 11.9608 16.1043 11.9139 16.0281 11.846C15.8412 11.7123 15.7121 11.5127 15.6669 11.2878Z" fill="black"/>
<path d="M15.7634 10.5977C15.6551 10.8106 15.621 11.0535 15.6668 11.2879C15.712 11.5129 15.8411 11.7124 16.0279 11.8462C16.1041 11.914 16.1967 11.9609 16.2966 11.9823C16.3965 12.0037 16.5002 11.9987 16.5976 11.968C16.6916 11.9337 16.7744 11.8744 16.8371 11.7966C16.8999 11.7188 16.9402 11.6254 16.9537 11.5264C17.0174 11.2219 16.897 10.9242 16.5925 10.6332C16.3382 10.3896 16.0618 10.3778 15.7634 10.5977Z" fill="white"/>
</svg>
