<svg width="317" height="317" viewBox="0 0 317 317" fill="none" xmlns="http://www.w3.org/2000/svg">
<mask id="mask0_8_2744" style="mask-type:luminance" maskUnits="userSpaceOnUse" x="0" y="0" width="317" height="317">
<path d="M317 0H0V317H317V0Z" fill="white"/>
</mask>
<g mask="url(#mask0_8_2744)">
<mask id="mask1_8_2744" style="mask-type:luminance" maskUnits="userSpaceOnUse" x="103" y="156" width="116" height="56">
<path d="M103.025 156.009H218.956V211.711H103.025V156.009Z" fill="white"/>
</mask>
<g mask="url(#mask1_8_2744)">
<path d="M105.464 158.276C105.464 158.276 125.843 158.41 140.107 158.276C148.34 158.41 152.491 164.161 152.491 164.161L192.544 205.208C192.544 205.208 195.696 209.16 201.888 209.322C203.679 209.291 216.64 209.322 216.64 209.322" stroke="#E6E6E6" stroke-width="0.904743"/>
</g>
<mask id="mask2_8_2744" style="mask-type:luminance" maskUnits="userSpaceOnUse" x="102" y="156" width="117" height="5">
<path d="M102.798 156.009H218.956V160.764H102.798V156.009Z" fill="white"/>
</mask>
<g mask="url(#mask2_8_2744)">
<path d="M216.64 158.273H105.257" stroke="#E6E6E6" stroke-width="0.904743"/>
</g>
<mask id="mask3_8_2744" style="mask-type:luminance" maskUnits="userSpaceOnUse" x="103" y="104" width="116" height="57">
<path d="M103.025 104.836H218.956V160.764H103.025V104.836Z" fill="white"/>
</mask>
<g mask="url(#mask3_8_2744)">
<path d="M105.464 158.273C105.464 158.273 125.843 158.139 140.107 158.273C148.34 158.139 152.491 152.388 152.491 152.388L192.544 111.342C192.544 111.342 195.696 107.39 201.888 107.227C203.679 107.258 216.64 107.227 216.64 107.227" stroke="#E6E6E6" stroke-width="0.904743"/>
</g>
<mask id="mask4_8_2744" style="mask-type:luminance" maskUnits="userSpaceOnUse" x="71" y="138" width="41" height="41">
<path d="M71.9522 138.35H111.803V178.201H71.9522V138.35Z" fill="white"/>
</mask>
<g mask="url(#mask4_8_2744)">
<path d="M111.268 148.068V168.483C111.268 173.551 107.153 177.666 102.085 177.666H81.6698C76.6018 177.666 72.4869 173.551 72.4869 168.483V148.068C72.4869 143 76.6018 138.885 81.6698 138.885H102.085C107.153 138.885 111.268 143 111.268 148.068Z" fill="#E6E6E6"/>
</g>
<mask id="mask5_8_2744" style="mask-type:luminance" maskUnits="userSpaceOnUse" x="71" y="138" width="41" height="41">
<path d="M71.9522 138.35H111.803V178.201H71.9522V138.35Z" fill="white"/>
</mask>
<g mask="url(#mask5_8_2744)">
<path d="M111.268 148.068V168.483C111.268 173.551 107.153 177.666 102.085 177.666H81.6698C76.6018 177.666 72.4869 173.551 72.4869 168.483V148.068C72.4869 143 76.6018 138.885 81.6698 138.885H102.085C107.153 138.885 111.268 143 111.268 148.068Z" fill="#E6E6E6"/>
</g>
<mask id="mask6_8_2744" style="mask-type:luminance" maskUnits="userSpaceOnUse" x="72" y="138" width="40" height="40">
<path d="M72.405 138.803H111.35V177.748H72.405V138.803Z" fill="white"/>
</mask>
<g mask="url(#mask6_8_2744)">
<g opacity="0.2">
<g opacity="0.682174">
<path d="M111.294 147.92V168.631C111.294 173.632 107.234 177.692 102.233 177.692H81.5223C76.5215 177.692 72.4613 173.632 72.4613 168.631V147.92C72.4613 142.919 76.5215 138.859 81.5223 138.859H102.233C107.234 138.859 111.294 142.919 111.294 147.92Z" fill="#1560FB"/>
</g>
</g>
</g>
<mask id="mask7_8_2744" style="mask-type:luminance" maskUnits="userSpaceOnUse" x="99" y="152" width="124" height="64">
<path d="M99.4021 152.16H222.806V215.56H99.4021V152.16Z" fill="white"/>
</mask>
<g mask="url(#mask7_8_2744)">
<path d="M105.464 158.276C105.464 158.276 125.843 158.41 140.107 158.276C148.34 158.41 152.491 164.161 152.491 164.161L192.544 205.208C192.544 205.208 195.696 209.159 201.888 209.322C203.679 209.291 216.64 209.322 216.64 209.322" stroke="#1560FB" stroke-width="2.26186" stroke-linecap="round" stroke-dasharray="3.62 7.24"/>
</g>
<mask id="mask8_8_2744" style="mask-type:luminance" maskUnits="userSpaceOnUse" x="99" y="152" width="124" height="13">
<path d="M99.4021 152.16H222.806V164.387H99.4021V152.16Z" fill="white"/>
</mask>
<g mask="url(#mask8_8_2744)">
<path d="M105.464 158.273H216.64" stroke="#1560FB" stroke-width="2.26186" stroke-linecap="round" stroke-dasharray="3.62 7.24"/>
</g>
<mask id="mask9_8_2744" style="mask-type:luminance" maskUnits="userSpaceOnUse" x="99" y="100" width="124" height="65">
<path d="M99.4021 100.987H222.806V164.387H99.4021V100.987Z" fill="white"/>
</mask>
<g mask="url(#mask9_8_2744)">
<path d="M105.464 158.274C105.464 158.274 125.843 158.14 140.107 158.274C148.34 158.14 152.491 152.389 152.491 152.389L192.544 111.342C192.544 111.342 195.696 107.39 201.888 107.228C203.679 107.258 216.64 107.228 216.64 107.228" stroke="#1560FB" stroke-width="2.26186" stroke-linecap="round" stroke-dasharray="3.62 7.24"/>
</g>
<mask id="mask10_8_2744" style="mask-type:luminance" maskUnits="userSpaceOnUse" x="211" y="190" width="40" height="39">
<path d="M211.785 190.202H250.025V228.442H211.785V190.202Z" fill="white"/>
</mask>
<g mask="url(#mask10_8_2744)">
<g filter="url(#filter0_f_8_2744)">
<path d="M230.905 195.263C238.664 195.263 244.964 201.563 244.964 209.322C244.964 217.081 238.664 223.381 230.905 223.381C223.146 223.381 216.846 217.081 216.846 209.322C216.846 201.563 223.146 195.263 230.905 195.263Z" fill="white"/>
<path d="M230.905 195.263C238.664 195.263 244.964 201.563 244.964 209.322C244.964 217.081 238.664 223.381 230.905 223.381C223.146 223.381 216.846 217.081 216.846 209.322C216.846 201.563 223.146 195.263 230.905 195.263Z" stroke="white" stroke-width="1.12351"/>
</g>
</g>
<path d="M226.576 211.262C226.576 212.121 225.873 212.823 225.014 212.823C224.155 212.823 223.453 212.121 223.453 211.262C223.453 210.403 224.155 209.701 225.014 209.701C225.535 209.701 226.055 209.701 226.576 209.701C226.576 210.221 226.576 210.741 226.576 211.262Z" fill="#E01E5A"/>
<path d="M227.362 211.262C227.362 210.402 228.063 209.701 228.923 209.701C229.782 209.701 230.484 210.402 230.484 211.262C230.484 212.565 230.484 213.868 230.484 215.171C230.484 216.03 229.782 216.732 228.923 216.732C228.063 216.732 227.362 216.03 227.362 215.171C227.362 213.868 227.362 212.565 227.362 211.262Z" fill="#E01E5A"/>
<path d="M228.923 204.992C228.063 204.992 227.362 204.29 227.362 203.431C227.362 202.572 228.063 201.87 228.923 201.87C229.782 201.87 230.484 202.572 230.484 203.431C230.484 203.951 230.484 204.472 230.484 204.992C229.964 204.992 229.443 204.992 228.923 204.992Z" fill="#36C5F0"/>
<path d="M228.923 205.779C229.782 205.779 230.484 206.481 230.484 207.34C230.484 208.199 229.782 208.901 228.923 208.901C227.62 208.901 226.317 208.901 225.014 208.901C224.155 208.901 223.453 208.199 223.453 207.34C223.453 206.481 224.155 205.779 225.014 205.779C226.317 205.779 227.62 205.779 228.923 205.779Z" fill="#36C5F0"/>
<path d="M235.193 207.34C235.193 206.481 235.894 205.779 236.754 205.779C237.613 205.779 238.315 206.481 238.315 207.34C238.315 208.199 237.613 208.901 236.754 208.901C236.233 208.901 235.713 208.901 235.193 208.901C235.193 208.38 235.193 207.86 235.193 207.34Z" fill="#2EB67D"/>
<path d="M234.406 207.34C234.406 208.199 233.704 208.901 232.845 208.901C231.986 208.901 231.284 208.199 231.284 207.34C231.284 206.037 231.284 204.734 231.284 203.431C231.284 202.572 231.986 201.87 232.845 201.87C233.704 201.87 234.406 202.572 234.406 203.431C234.406 204.734 234.406 206.037 234.406 207.34Z" fill="#2EB67D"/>
<path d="M232.845 213.609C233.704 213.609 234.406 214.311 234.406 215.17C234.406 216.03 233.704 216.732 232.845 216.732C231.986 216.732 231.284 216.03 231.284 215.17C231.284 214.65 231.284 214.13 231.284 213.609C231.805 213.609 232.325 213.609 232.845 213.609Z" fill="#ECB22E"/>
<path d="M232.845 212.823C231.986 212.823 231.284 212.121 231.284 211.262C231.284 210.403 231.986 209.701 232.845 209.701C234.148 209.701 235.451 209.701 236.754 209.701C237.613 209.701 238.315 210.403 238.315 211.262C238.315 212.121 237.613 212.823 236.754 212.823C235.451 212.823 234.148 212.823 232.845 212.823Z" fill="#ECB22E"/>
<mask id="mask11_8_2744" style="mask-type:luminance" maskUnits="userSpaceOnUse" x="211" y="139" width="40" height="39">
<path d="M211.785 139.156H250.025V177.396H211.785V139.156Z" fill="white"/>
</mask>
<g mask="url(#mask11_8_2744)">
<g filter="url(#filter1_f_8_2744)">
<path d="M230.905 144.217C238.664 144.217 244.964 150.517 244.964 158.276C244.964 166.035 238.664 172.334 230.905 172.334C223.146 172.334 216.846 166.035 216.846 158.276C216.846 150.517 223.146 144.217 230.905 144.217Z" fill="white"/>
<path d="M230.905 144.217C238.664 144.217 244.964 150.517 244.964 158.276C244.964 166.035 238.664 172.334 230.905 172.334C223.146 172.334 216.846 166.035 216.846 158.276C216.846 150.517 223.146 144.217 230.905 144.217Z" stroke="white" stroke-width="1.12351"/>
</g>
</g>
<path d="M228.848 155.831C228.848 155.831 228.848 155.831 228.848 155.83C230.061 156.556 231.274 157.281 232.487 158.007C233.21 157.703 233.933 157.399 234.655 157.096C235.096 156.905 235.571 156.808 236.051 156.808C236.131 156.808 236.21 156.812 236.289 156.817C236.028 155.802 235.478 154.885 234.705 154.176C233.932 153.468 232.969 152.999 231.934 152.826C230.899 152.653 229.836 152.784 228.874 153.204C227.912 153.623 227.093 154.312 226.516 155.187C226.535 155.187 226.553 155.186 226.571 155.186C227.376 155.185 228.164 155.408 228.848 155.831Z" fill="#0364B8"/>
<path d="M228.847 155.83C228.847 155.83 228.847 155.83 228.847 155.831C228.163 155.408 227.375 155.184 226.571 155.185C226.552 155.185 226.534 155.186 226.516 155.187C225.728 155.196 224.959 155.42 224.289 155.833C223.62 156.247 223.076 156.835 222.716 157.534C222.356 158.233 222.194 159.017 222.247 159.801C222.3 160.586 222.566 161.341 223.016 161.985C224.086 161.536 225.155 161.086 226.225 160.637C226.7 160.437 227.176 160.237 227.651 160.038C228.71 159.593 229.769 159.148 230.827 158.703C231.38 158.471 231.933 158.238 232.486 158.006C231.273 157.281 230.06 156.555 228.847 155.83Z" fill="#0078D4"/>
<path d="M236.288 156.817C236.209 156.812 236.13 156.809 236.05 156.809C235.57 156.808 235.095 156.906 234.654 157.096C233.931 157.4 233.209 157.703 232.486 158.007C232.695 158.132 232.905 158.258 233.115 158.383C233.802 158.794 234.488 159.205 235.175 159.616C235.475 159.795 235.775 159.974 236.075 160.153C237.1 160.766 238.125 161.38 239.15 161.993C239.429 161.475 239.574 160.895 239.571 160.307C239.568 159.719 239.417 159.141 239.132 158.626C238.847 158.111 238.438 157.675 237.941 157.36C237.444 157.044 236.875 156.857 236.288 156.817Z" fill="#1490DF"/>
<path d="M236.077 160.155C235.778 159.975 235.478 159.796 235.178 159.617C234.491 159.206 233.804 158.795 233.117 158.384C232.907 158.259 232.698 158.134 232.488 158.008C231.935 158.241 231.382 158.473 230.829 158.705C229.77 159.15 228.712 159.595 227.653 160.04C227.178 160.24 226.702 160.439 226.227 160.639C225.157 161.089 224.088 161.538 223.018 161.987C223.417 162.56 223.948 163.027 224.567 163.35C225.186 163.673 225.874 163.842 226.573 163.841C229.733 163.841 232.892 163.841 236.052 163.841C236.688 163.841 237.311 163.67 237.857 163.344C238.403 163.019 238.85 162.552 239.152 161.994C238.127 161.38 237.102 160.768 236.077 160.155Z" fill="#28A8EA"/>
<mask id="mask12_8_2744" style="mask-type:luminance" maskUnits="userSpaceOnUse" x="211" y="88" width="40" height="39">
<path d="M211.785 88.1096H250.025V126.349H211.785V88.1096Z" fill="white"/>
</mask>
<g mask="url(#mask12_8_2744)">
<g filter="url(#filter2_f_8_2744)">
<path d="M230.905 93.1708C238.664 93.1708 244.964 99.4706 244.964 107.23C244.964 114.989 238.664 121.288 230.905 121.288C223.146 121.288 216.846 114.989 216.846 107.23C216.846 99.4706 223.146 93.1708 230.905 93.1708Z" fill="white"/>
<path d="M230.905 93.1708C238.664 93.1708 244.964 99.4706 244.964 107.23C244.964 114.989 238.664 121.288 230.905 121.288C223.146 121.288 216.846 114.989 216.846 107.23C216.846 99.4706 223.146 93.1708 230.905 93.1708Z" stroke="white" stroke-width="1.12351"/>
</g>
</g>
<path d="M234.818 103.316C233.644 103.185 232.47 103.055 231.296 102.925C229.861 103.055 228.426 103.185 226.991 103.316C226.861 104.62 226.731 105.924 226.6 107.228C226.731 108.533 226.861 109.838 226.991 111.142C228.296 111.305 229.601 111.468 230.905 111.631C232.209 111.468 233.513 111.305 234.818 111.142C234.948 109.805 235.078 108.468 235.209 107.131C235.078 105.859 234.948 104.587 234.818 103.316Z" fill="white"/>
<path d="M228.597 109.388C228.305 109.191 228.103 108.902 227.992 108.521C228.218 108.427 228.445 108.333 228.671 108.24C228.732 108.475 228.84 108.658 228.993 108.787C229.146 108.916 229.332 108.979 229.55 108.979C229.772 108.979 229.963 108.911 230.122 108.776C230.281 108.641 230.361 108.469 230.361 108.261C230.361 108.048 230.277 107.873 230.109 107.738C229.94 107.604 229.729 107.536 229.477 107.536C229.346 107.536 229.216 107.536 229.085 107.536C229.085 107.312 229.085 107.088 229.085 106.864C229.202 106.864 229.319 106.864 229.437 106.864C229.654 106.864 229.837 106.805 229.986 106.688C230.135 106.571 230.209 106.411 230.209 106.206C230.209 106.024 230.142 105.879 230.009 105.771C229.876 105.662 229.708 105.607 229.503 105.607C229.304 105.607 229.145 105.66 229.028 105.767C228.91 105.873 228.826 106.004 228.772 106.159C228.548 106.065 228.324 105.972 228.1 105.879C228.189 105.627 228.352 105.403 228.592 105.211C228.832 105.018 229.138 104.922 229.509 104.922C229.784 104.922 230.031 104.974 230.251 105.081C230.47 105.187 230.642 105.335 230.767 105.523C230.891 105.712 230.952 105.923 230.952 106.158C230.952 106.398 230.895 106.6 230.779 106.766C230.664 106.932 230.521 107.06 230.353 107.149C230.353 107.162 230.353 107.176 230.353 107.189C230.575 107.282 230.757 107.424 230.9 107.614C231.041 107.805 231.112 108.033 231.112 108.299C231.112 108.565 231.045 108.803 230.91 109.011C230.775 109.22 230.588 109.384 230.352 109.503C230.114 109.623 229.847 109.683 229.55 109.683C229.207 109.684 228.89 109.586 228.597 109.388Z" fill="#1A73E8"/>
<path d="M232.765 106.019C232.517 106.199 232.27 106.378 232.023 106.558C231.899 106.369 231.775 106.181 231.65 105.992C232.096 105.671 232.542 105.349 232.988 105.028C233.159 105.028 233.329 105.028 233.5 105.028C233.5 106.544 233.5 108.061 233.5 109.578C233.255 109.578 233.01 109.578 232.765 109.578C232.765 108.391 232.765 107.205 232.765 106.019Z" fill="#1A73E8"/>
<path d="M234.819 114.664C235.993 113.491 237.166 112.317 238.34 111.144C237.753 110.883 237.166 110.622 236.579 110.361C235.992 110.622 235.406 110.883 234.819 111.144C234.558 111.731 234.297 112.317 234.036 112.904C234.297 113.491 234.558 114.078 234.819 114.664Z" fill="#EA4335"/>
<path d="M226.21 112.904C226.471 113.491 226.732 114.078 226.993 114.665C229.602 114.665 232.21 114.665 234.819 114.665C234.819 113.491 234.819 112.317 234.819 111.143C232.21 111.143 229.602 111.143 226.993 111.143C226.732 111.73 226.471 112.317 226.21 112.904Z" fill="#34A853"/>
<path d="M224.644 99.7954C223.996 99.7954 223.471 100.321 223.471 100.969C223.471 104.36 223.471 107.751 223.471 111.142C224.058 111.403 224.644 111.664 225.231 111.925C225.818 111.664 226.405 111.403 226.992 111.142C226.992 108.534 226.992 105.926 226.992 103.317C229.601 103.317 232.209 103.317 234.818 103.317C235.078 102.73 235.34 102.143 235.6 101.556C235.34 100.969 235.078 100.382 234.818 99.7954C231.426 99.7954 228.036 99.7954 224.644 99.7954Z" fill="#4285F4"/>
<path d="M223.47 111.143C223.47 111.926 223.47 112.709 223.47 113.491C223.47 114.14 223.996 114.665 224.644 114.665C225.427 114.665 226.209 114.665 226.992 114.665C226.992 113.491 226.992 112.317 226.992 111.143C225.818 111.143 224.644 111.143 223.47 111.143Z" fill="#188038"/>
<path d="M234.819 103.318C234.819 105.927 234.819 108.535 234.819 111.143C235.993 111.143 237.167 111.143 238.34 111.143C238.34 108.535 238.34 105.927 238.34 103.318C237.753 103.057 237.166 102.796 236.579 102.535C235.992 102.796 235.406 103.057 234.819 103.318Z" fill="#FBBC04"/>
<path d="M238.34 103.317C238.34 102.534 238.34 101.751 238.34 100.969C238.34 100.32 237.815 99.795 237.166 99.795C236.384 99.795 235.601 99.795 234.819 99.795C234.819 100.969 234.819 102.143 234.819 103.317C235.993 103.317 237.167 103.317 238.34 103.317Z" fill="#1967D2"/>
<mask id="mask13_8_2744" style="mask-type:luminance" maskUnits="userSpaceOnUse" x="56" y="122" width="72" height="72">
<path d="M56.3807 122.724H127.252V193.822H56.3807V122.724Z" fill="white"/>
</mask>
<g mask="url(#mask13_8_2744)">
<g filter="url(#filter3_f_8_2744)">
<path d="M105.463 151.03V165.521C105.463 169.02 102.622 171.861 99.1233 171.861H84.632C81.133 171.861 78.2921 169.02 78.2921 165.521V151.03C78.2921 147.531 81.133 144.69 84.632 144.69H99.1233C102.622 144.69 105.463 147.531 105.463 151.03Z" fill="#1560FB"/>
<path d="M110.88 148.141V168.41C110.88 173.304 106.906 177.278 102.012 177.278H81.7429C76.8488 177.278 72.8752 173.304 72.8752 168.41V148.141C72.8752 143.247 76.8488 139.273 81.7429 139.273H102.012C106.906 139.273 110.88 143.247 110.88 148.141Z" stroke="#1560FB" stroke-width="0.843311" stroke-linecap="round" stroke-dasharray="2.53 3.16"/>
<path d="M93.8503 150.408C94.0778 150.535 94.1904 150.807 94.1224 151.058C93.6205 152.898 93.1202 154.736 92.6184 156.575C94.4496 156.575 96.2816 156.575 98.1128 156.575C98.5489 156.575 98.8224 157.044 98.604 157.422C98.5821 157.459 98.5579 157.496 98.5285 157.528C95.8833 160.362 93.2381 163.196 90.5929 166.03C90.2959 166.349 89.7608 166.228 89.6331 165.811C89.6014 165.708 89.6044 165.597 89.6331 165.493C90.1349 163.654 90.6353 161.816 91.1371 159.976C89.3059 159.976 87.4739 159.976 85.6427 159.976C85.2066 159.976 84.933 159.5 85.1514 159.122C85.1734 159.085 85.1975 159.056 85.227 159.024C87.8722 156.19 90.5174 153.356 93.1625 150.522C93.3401 150.331 93.6228 150.281 93.8503 150.408Z" fill="white"/>
</g>
</g>
</g>
<defs>
<filter id="filter0_f_8_2744" x="215.159" y="193.576" width="31.4917" height="31.4917" filterUnits="userSpaceOnUse" color-interpolation-filters="sRGB">
<feFlood flood-opacity="0" result="BackgroundImageFix"/>
<feBlend mode="normal" in="SourceGraphic" in2="BackgroundImageFix" result="shape"/>
<feGaussianBlur stdDeviation="0.561755" result="effect1_foregroundBlur_8_2744"/>
</filter>
<filter id="filter1_f_8_2744" x="215.159" y="142.53" width="31.4917" height="31.4917" filterUnits="userSpaceOnUse" color-interpolation-filters="sRGB">
<feFlood flood-opacity="0" result="BackgroundImageFix"/>
<feBlend mode="normal" in="SourceGraphic" in2="BackgroundImageFix" result="shape"/>
<feGaussianBlur stdDeviation="0.561755" result="effect1_foregroundBlur_8_2744"/>
</filter>
<filter id="filter2_f_8_2744" x="215.159" y="91.4838" width="31.4917" height="31.4917" filterUnits="userSpaceOnUse" color-interpolation-filters="sRGB">
<feFlood flood-opacity="0" result="BackgroundImageFix"/>
<feBlend mode="normal" in="SourceGraphic" in2="BackgroundImageFix" result="shape"/>
<feGaussianBlur stdDeviation="0.561755" result="effect1_foregroundBlur_8_2744"/>
</filter>
<filter id="filter3_f_8_2744" x="70.6416" y="137.04" width="42.4715" height="42.4715" filterUnits="userSpaceOnUse" color-interpolation-filters="sRGB">
<feFlood flood-opacity="0" result="BackgroundImageFix"/>
<feBlend mode="normal" in="SourceGraphic" in2="BackgroundImageFix" result="shape"/>
<feGaussianBlur stdDeviation="0.904743" result="effect1_foregroundBlur_8_2744"/>
</filter>
</defs>
</svg>
