<svg width="340" height="246" viewBox="0 0 340 246" fill="none" xmlns="http://www.w3.org/2000/svg">
<mask id="mask0_8_1782" style="mask-type:luminance" maskUnits="userSpaceOnUse" x="0" y="0" width="340" height="246">
<path d="M339.994 0H0.00537109V245.578H339.994V0Z" fill="white"/>
</mask>
<g mask="url(#mask0_8_1782)">
<path d="M339.429 16.7135C339.429 7.48304 331.946 0 322.716 0H16.7199C7.48949 0 0.00537109 7.48304 0.00537109 16.7135V227.887C0.00537109 237.117 7.48949 244.6 16.7199 244.6H322.716C331.946 244.6 339.429 237.117 339.429 227.887V16.7135Z" fill="url(#paint0_linear_8_1782)"/>
<path d="M338.141 17.0415C338.141 8.34366 331.089 1.29285 322.391 1.29285H17.0381C8.33915 1.29285 1.28833 8.34475 1.28833 17.0437V227.573C1.28833 236.272 8.33915 243.321 17.0381 243.321H322.391C331.089 243.321 338.141 236.272 338.141 227.573V17.0415Z" fill="url(#paint1_linear_8_1782)"/>
<path d="M326.897 227.084V16.714C326.897 14.052 324.738 11.8931 322.076 11.8931H16.2408C13.5788 11.8931 11.4199 14.052 11.4199 16.714V227.084C11.4199 229.746 13.5788 231.905 16.2408 231.905H322.076C324.738 231.905 326.897 229.746 326.897 227.084Z" fill="#1F1E2D"/>
<path d="M295.886 245.41C296.329 245.41 296.689 245.051 296.689 244.607H283.349C283.349 244.713 283.37 244.818 283.41 244.915C283.451 245.012 283.511 245.102 283.585 245.176C283.659 245.25 283.749 245.309 283.846 245.349C283.943 245.39 284.048 245.41 284.154 245.41H295.886ZM313.661 244.915C313.702 244.818 313.722 244.713 313.722 244.607H299.419C299.419 244.713 299.44 244.818 299.48 244.915C299.52 245.012 299.58 245.102 299.655 245.176C299.729 245.25 299.818 245.309 299.916 245.349C300.013 245.39 300.117 245.41 300.223 245.41H312.919C313.025 245.41 313.13 245.39 313.227 245.349C313.324 245.309 313.414 245.25 313.488 245.176C313.562 245.102 313.621 245.012 313.661 244.915ZM340.009 210.608C340.16 210.759 340.245 210.963 340.245 211.176V226.443C340.245 226.656 340.16 226.86 340.009 227.011C339.858 227.161 339.654 227.246 339.442 227.246V210.372C339.654 210.372 339.858 210.458 340.009 210.608Z" fill="#262439"/>
<path d="M212.835 185.013C212.835 193.145 206.233 199.748 198.101 199.748H143.528C135.396 199.748 128.793 193.145 128.793 185.013C128.793 176.881 135.396 170.278 143.528 170.278H198.101C206.233 170.278 212.835 176.881 212.835 185.013Z" fill="#8691FA"/>
<path d="M212.835 185.013C212.835 193.145 206.233 199.748 198.101 199.748H143.528C135.396 199.748 128.793 193.145 128.793 185.013C128.793 176.881 135.396 170.278 143.528 170.278H198.101C206.233 170.278 212.835 176.881 212.835 185.013Z" fill="#424060"/>
<path d="M145.219 188.819C145.667 188.656 146.071 188.405 146.431 188.077C146.78 187.761 147.053 187.357 147.261 186.888C147.468 186.418 147.566 185.883 147.566 185.283V184.519H143.79V185.611H146.868L146.278 185.087V185.654C146.278 186.102 146.169 186.484 145.951 186.822C145.722 187.16 145.427 187.422 145.056 187.619C144.674 187.804 144.259 187.892 143.812 187.892C143.277 187.892 142.796 187.761 142.382 187.51C141.967 187.259 141.64 186.909 141.399 186.451C141.17 186.003 141.05 185.469 141.05 184.868C141.05 184.268 141.17 183.744 141.399 183.297C141.618 182.849 141.945 182.489 142.36 182.238C142.775 181.987 143.255 181.856 143.79 181.856C144.335 181.856 144.805 181.987 145.187 182.26C145.569 182.533 145.842 182.882 146.016 183.329L147.162 182.784C147.02 182.413 146.802 182.063 146.486 181.747C146.169 181.43 145.787 181.168 145.329 180.972C144.87 180.775 144.357 180.677 143.79 180.677C143.211 180.677 142.676 180.775 142.185 180.994C141.683 181.201 141.268 181.485 140.908 181.867C140.537 182.238 140.264 182.685 140.068 183.188C139.86 183.701 139.762 184.268 139.762 184.868C139.762 185.48 139.86 186.036 140.068 186.549C140.275 187.062 140.559 187.499 140.919 187.87C141.279 188.252 141.716 188.547 142.207 188.754C142.687 188.961 143.233 189.07 143.812 189.07C144.303 189.07 144.772 188.983 145.219 188.819ZM152.838 188.874C153.176 188.754 153.471 188.579 153.711 188.361C153.962 188.143 154.137 187.892 154.257 187.619L153.253 187.117C153.1 187.368 152.903 187.575 152.652 187.739C152.401 187.903 152.096 187.979 151.735 187.979C151.397 187.979 151.081 187.892 150.808 187.728C150.535 187.564 150.328 187.324 150.175 187.029C150.033 186.735 149.978 186.386 150.011 185.982C149.978 185.556 150.033 185.196 150.175 184.89C150.317 184.585 150.513 184.355 150.764 184.192C151.015 184.028 151.31 183.941 151.626 183.941C151.954 183.941 152.238 184.028 152.489 184.192C152.74 184.355 152.914 184.574 153.034 184.847C153.154 185.13 153.176 185.447 153.111 185.807L153.689 185.36H149.694V186.342H154.399C154.42 186.255 154.431 186.156 154.442 186.058C154.453 185.96 154.453 185.862 154.453 185.763C154.453 185.381 154.388 185.01 154.257 184.672C154.137 184.334 153.951 184.028 153.711 183.755C153.471 183.493 153.176 183.286 152.827 183.133C152.478 182.98 152.074 182.904 151.626 182.904C151.081 182.904 150.589 183.035 150.142 183.297C149.705 183.57 149.356 183.93 149.105 184.388C148.854 184.847 148.723 185.37 148.723 185.971C148.723 186.549 148.854 187.084 149.105 187.542C149.356 188.023 149.716 188.383 150.164 188.667C150.611 188.929 151.135 189.07 151.725 189.07C152.128 189.07 152.5 189.005 152.838 188.874ZM158.754 188.983C158.874 188.972 158.994 188.95 159.092 188.94V187.881C159.026 187.892 158.961 187.892 158.885 187.903C158.808 187.914 158.743 187.914 158.688 187.914C158.459 187.914 158.262 187.87 158.121 187.804C157.979 187.728 157.869 187.619 157.804 187.466C157.739 187.324 157.706 187.16 157.706 186.953V184.159H159.048V183.035H157.706V181.681H156.472V182.14C156.472 182.413 156.396 182.631 156.232 182.795C156.08 182.958 155.861 183.035 155.588 183.035H155.425V184.159H156.472V187.008C156.472 187.641 156.647 188.132 156.985 188.481C157.324 188.83 157.804 189.005 158.426 189.005C158.524 189.005 158.634 188.994 158.754 188.983ZM165.968 188.841C166.296 188.699 166.557 188.492 166.743 188.219C166.929 187.957 167.016 187.652 167.016 187.302C167.016 186.898 166.885 186.538 166.623 186.255C166.361 185.949 165.99 185.742 165.499 185.6L164.538 185.316C164.418 185.283 164.298 185.229 164.178 185.174C164.058 185.119 163.971 185.054 163.894 184.956C163.818 184.868 163.785 184.759 163.785 184.617C163.785 184.41 163.862 184.246 164.025 184.115C164.189 183.995 164.396 183.93 164.669 183.93C164.986 183.93 165.259 184.017 165.51 184.181C165.761 184.344 165.935 184.574 166.055 184.868L167.016 184.41C166.841 183.941 166.547 183.57 166.121 183.297C165.695 183.035 165.215 182.904 164.68 182.904C164.276 182.904 163.905 182.98 163.589 183.122C163.272 183.264 163.021 183.471 162.836 183.744C162.65 184.017 162.563 184.323 162.563 184.683C162.563 185.076 162.694 185.414 162.945 185.709C163.196 186.003 163.578 186.222 164.091 186.364L165.019 186.626C165.139 186.658 165.27 186.713 165.39 186.768C165.51 186.822 165.608 186.898 165.684 186.986C165.761 187.084 165.804 187.193 165.804 187.335C165.804 187.564 165.717 187.739 165.532 187.87C165.346 188.001 165.117 188.066 164.822 188.066C164.484 188.066 164.167 187.968 163.894 187.772C163.611 187.575 163.392 187.313 163.229 186.975L162.279 187.422C162.465 187.924 162.781 188.328 163.229 188.623C163.676 188.918 164.211 189.07 164.822 189.07C165.259 189.07 165.641 188.994 165.968 188.841ZM171.327 188.983C171.447 188.972 171.567 188.95 171.666 188.94V187.881C171.6 187.892 171.535 187.892 171.458 187.903C171.382 187.914 171.316 187.914 171.262 187.914C171.032 187.914 170.836 187.87 170.694 187.804C170.552 187.728 170.443 187.619 170.378 187.466C170.312 187.324 170.279 187.16 170.279 186.953V184.159H171.622V183.035H170.279V181.681H169.046V182.14C169.046 182.413 168.97 182.631 168.817 182.795C168.653 182.958 168.435 183.035 168.162 183.035H167.998V184.159H169.046V187.008C169.046 187.641 169.221 188.132 169.559 188.481C169.897 188.83 170.378 189.005 171 189.005C171.098 189.005 171.207 188.994 171.327 188.983ZM175.758 188.929C176.031 188.83 176.282 188.699 176.49 188.525C176.697 188.35 176.872 188.143 177.014 187.903L176.774 187.881V188.94H177.952V184.967C177.952 184.563 177.854 184.203 177.658 183.886C177.45 183.58 177.177 183.34 176.817 183.166C176.457 182.991 176.042 182.904 175.573 182.904C175.191 182.904 174.842 182.969 174.514 183.089C174.176 183.209 173.892 183.384 173.652 183.613C173.401 183.842 173.226 184.093 173.106 184.388L174.143 184.901C174.263 184.628 174.438 184.399 174.689 184.235C174.929 184.072 175.213 183.984 175.529 183.984C175.889 183.984 176.173 184.083 176.392 184.268C176.61 184.443 176.719 184.683 176.719 184.967V186.484C176.719 186.778 176.653 187.051 176.512 187.291C176.37 187.542 176.162 187.739 175.922 187.881C175.671 188.023 175.376 188.099 175.049 188.099C174.776 188.099 174.558 188.023 174.394 187.892C174.22 187.75 174.132 187.564 174.132 187.335C174.132 187.106 174.209 186.92 174.361 186.768C174.514 186.615 174.754 186.506 175.082 186.451L176.894 186.145V185.163L174.842 185.501C174.383 185.578 174.012 185.698 173.717 185.873C173.423 186.047 173.204 186.265 173.063 186.516C172.921 186.768 172.844 187.062 172.844 187.379C172.844 187.717 172.932 188.023 173.095 188.274C173.259 188.525 173.499 188.721 173.805 188.863C174.099 189.005 174.449 189.07 174.853 189.07C175.18 189.07 175.486 189.027 175.758 188.929ZM180.845 188.94V185.534C180.845 185.076 180.976 184.716 181.227 184.465C181.478 184.214 181.805 184.083 182.209 184.083H182.722V182.958H182.362C181.958 182.958 181.609 183.046 181.314 183.209C181.019 183.384 180.812 183.668 180.681 184.061L180.79 184.235V183.035H179.611V188.94H180.845ZM186.662 188.983C186.782 188.972 186.902 188.95 187 188.94V187.881C186.935 187.892 186.87 187.892 186.793 187.903C186.717 187.914 186.651 187.914 186.597 187.914C186.367 187.914 186.171 187.87 186.029 187.804C185.887 187.728 185.778 187.619 185.713 187.466C185.647 187.324 185.614 187.16 185.614 186.953V184.159H186.957V183.035H185.614V181.681H184.381V182.14C184.381 182.413 184.305 182.631 184.152 182.795C183.988 182.958 183.77 183.035 183.497 183.035H183.333V184.159H184.381V187.008C184.381 187.641 184.556 188.132 184.894 188.481C185.232 188.83 185.713 189.005 186.335 189.005C186.433 189.005 186.542 188.994 186.662 188.983ZM192.305 188.874C192.643 188.754 192.927 188.579 193.178 188.361C193.418 188.143 193.593 187.892 193.713 187.619L192.709 187.117C192.556 187.368 192.36 187.575 192.109 187.739C191.857 187.903 191.552 187.979 191.192 187.979C190.853 187.979 190.548 187.892 190.275 187.728C190.002 187.564 189.784 187.324 189.642 187.029C189.489 186.735 189.434 186.386 189.467 185.982C189.434 185.556 189.489 185.196 189.631 184.89C189.773 184.585 189.969 184.355 190.22 184.192C190.471 184.028 190.766 183.941 191.083 183.941C191.41 183.941 191.694 184.028 191.945 184.192C192.196 184.355 192.37 184.574 192.491 184.847C192.611 185.13 192.632 185.447 192.567 185.807L193.145 185.36H189.151V186.342H193.855C193.877 186.255 193.888 186.156 193.899 186.058C193.909 185.96 193.909 185.862 193.909 185.763C193.909 185.381 193.844 185.01 193.724 184.672C193.593 184.334 193.407 184.028 193.167 183.755C192.927 183.493 192.632 183.286 192.283 183.133C191.934 182.98 191.53 182.904 191.083 182.904C190.537 182.904 190.046 183.035 189.609 183.297C189.162 183.57 188.812 183.93 188.561 184.388C188.31 184.847 188.179 185.37 188.179 185.971C188.179 186.549 188.31 187.084 188.561 187.542C188.812 188.023 189.172 188.383 189.62 188.667C190.067 188.929 190.591 189.07 191.181 189.07C191.585 189.07 191.967 189.005 192.305 188.874ZM197.238 187.673C196.966 187.51 196.758 187.27 196.605 186.975C196.453 186.691 196.376 186.353 196.376 185.982C196.376 185.611 196.453 185.283 196.605 184.988C196.758 184.705 196.976 184.475 197.249 184.301C197.522 184.137 197.839 184.05 198.177 184.05C198.515 184.05 198.821 184.137 199.094 184.301C199.367 184.465 199.574 184.705 199.727 184.988C199.891 185.283 199.967 185.621 199.967 185.982C199.967 186.353 199.891 186.691 199.727 186.975C199.574 187.27 199.367 187.51 199.094 187.673C198.821 187.837 198.515 187.924 198.177 187.924C197.828 187.924 197.511 187.837 197.238 187.673ZM199.29 188.787C199.672 188.601 199.956 188.328 200.163 187.968L200.022 187.739V188.94H201.2V180.677H199.967V184.257L200.163 183.973C199.956 183.635 199.661 183.373 199.29 183.188C198.93 183.002 198.515 182.904 198.046 182.904C197.489 182.904 196.976 183.035 196.529 183.308C196.081 183.58 195.732 183.941 195.47 184.41C195.219 184.879 195.088 185.403 195.088 185.982C195.088 186.56 195.219 187.084 195.47 187.553C195.732 188.023 196.081 188.383 196.529 188.667C196.976 188.929 197.489 189.07 198.046 189.07C198.504 189.07 198.919 188.972 199.29 188.787Z" fill="#9081CA"/>
<path d="M148.3 137.55C148.966 137.201 149.555 136.71 150.046 136.077C150.549 135.433 150.963 134.691 151.291 133.839L157.556 118.122H154.358L149.85 129.932H150.931L146.401 118.122H143.225L149.359 133.545L149.413 131.034L148.464 133.185C148.147 133.927 147.798 134.483 147.405 134.844C147.012 135.204 146.401 135.378 145.582 135.378C145.31 135.378 145.015 135.357 144.72 135.313C144.425 135.269 144.174 135.226 143.967 135.171V137.714C144.24 137.834 144.556 137.922 144.895 137.987C145.233 138.042 145.582 138.074 145.932 138.074C146.838 138.074 147.623 137.9 148.3 137.55ZM163.591 129.255C162.937 128.852 162.424 128.295 162.042 127.585C161.67 126.887 161.485 126.079 161.485 125.195C161.485 124.3 161.67 123.514 162.042 122.827C162.424 122.128 162.937 121.582 163.591 121.168C164.246 120.764 164.978 120.556 165.807 120.556C166.626 120.556 167.357 120.764 168.001 121.168C168.645 121.582 169.158 122.128 169.529 122.827C169.911 123.514 170.097 124.3 170.097 125.195C170.097 126.079 169.911 126.887 169.529 127.585C169.158 128.295 168.645 128.852 168.001 129.255C167.357 129.648 166.626 129.856 165.807 129.856C164.978 129.856 164.246 129.648 163.591 129.255ZM169.518 131.646C170.642 131.013 171.526 130.129 172.192 129.015C172.858 127.902 173.185 126.625 173.185 125.195C173.185 123.765 172.858 122.488 172.203 121.386C171.548 120.273 170.664 119.399 169.562 118.766C168.448 118.122 167.204 117.806 165.807 117.806C164.41 117.806 163.144 118.122 162.031 118.766C160.917 119.399 160.033 120.273 159.378 121.386C158.724 122.488 158.396 123.765 158.396 125.195C158.396 126.603 158.724 127.869 159.389 128.993C160.055 130.107 160.939 130.991 162.052 131.635C163.177 132.279 164.421 132.606 165.807 132.606C167.161 132.606 168.405 132.29 169.518 131.646ZM183.205 131.908C183.98 131.449 184.537 130.772 184.864 129.877L184.526 129.517V132.29H187.352V118.122H184.395V126.472C184.395 127.16 184.264 127.749 184.002 128.262C183.74 128.764 183.38 129.157 182.899 129.43C182.43 129.714 181.884 129.856 181.251 129.856C180.64 129.856 180.105 129.714 179.625 129.452C179.156 129.179 178.795 128.797 178.534 128.306C178.272 127.826 178.141 127.258 178.141 126.603V118.122H175.183V126.865C175.183 128 175.401 129.004 175.838 129.867C176.263 130.729 176.896 131.406 177.704 131.886C178.512 132.366 179.45 132.606 180.52 132.606C181.535 132.606 182.43 132.377 183.205 131.908ZM200.319 132.29L204.139 120.764H203.168L206.999 132.29H209.662L214.563 118.122H211.419L207.675 129.408H208.778L205.001 118.122H202.305L198.507 129.408H199.61L195.888 118.122H192.744L197.623 132.29H200.319ZM222.388 132.268C223.054 132.039 223.643 131.711 224.146 131.296C224.659 130.871 225.073 130.38 225.401 129.801L224.833 129.747V132.29H227.66V122.761C227.66 121.779 227.42 120.917 226.94 120.174C226.459 119.432 225.783 118.854 224.92 118.439C224.058 118.013 223.065 117.806 221.952 117.806C221.035 117.806 220.194 117.959 219.398 118.253C218.601 118.548 217.913 118.974 217.324 119.509C216.745 120.054 216.309 120.676 216.025 121.364L218.514 122.597C218.797 121.932 219.234 121.408 219.812 121.004C220.402 120.6 221.079 120.404 221.843 120.404C222.694 120.404 223.392 120.622 223.916 121.069C224.44 121.517 224.702 122.074 224.702 122.761V126.396C224.702 127.116 224.528 127.76 224.189 128.349C223.851 128.939 223.371 129.397 222.77 129.747C222.17 130.096 221.471 130.27 220.697 130.27C220.042 130.27 219.518 130.107 219.103 129.757C218.699 129.419 218.492 128.982 218.492 128.437C218.492 127.902 218.677 127.444 219.038 127.083C219.409 126.712 219.987 126.461 220.773 126.319L225.117 125.588V123.231L220.194 124.038C219.092 124.213 218.186 124.508 217.488 124.933C216.778 125.348 216.254 125.861 215.916 126.472C215.567 127.083 215.403 127.782 215.403 128.546C215.403 129.364 215.599 130.085 216.003 130.696C216.407 131.307 216.964 131.777 217.695 132.104C218.415 132.442 219.256 132.606 220.216 132.606C221.002 132.606 221.733 132.486 222.388 132.268ZM233.467 132.29V123.94C233.467 123.241 233.598 122.641 233.86 122.139C234.121 121.648 234.493 121.255 234.973 120.982C235.453 120.698 235.999 120.556 236.61 120.556C237.221 120.556 237.767 120.698 238.236 120.982C238.706 121.255 239.077 121.648 239.339 122.139C239.601 122.641 239.732 123.241 239.732 123.94V132.29H242.689V123.154C242.689 122.106 242.46 121.179 242.013 120.371C241.554 119.574 240.921 118.941 240.124 118.494C239.317 118.035 238.389 117.806 237.341 117.806C236.337 117.806 235.442 118.035 234.678 118.504C233.903 118.963 233.347 119.64 232.997 120.535L233.336 120.895V118.122H230.509V132.29H233.467ZM252.163 132.399C252.469 132.355 252.731 132.322 252.982 132.29V129.747C252.818 129.768 252.654 129.779 252.48 129.801C252.305 129.823 252.152 129.823 252.01 129.823C251.454 129.823 250.995 129.736 250.646 129.55C250.297 129.364 250.046 129.103 249.893 128.764C249.729 128.426 249.653 128.011 249.653 127.52V120.818H252.873V118.122H249.653V114.87H246.695V115.972C246.695 116.638 246.509 117.162 246.127 117.544C245.756 117.926 245.232 118.122 244.578 118.122H244.185V120.818H246.695V127.651C246.695 129.168 247.11 130.347 247.928 131.187C248.747 132.028 249.904 132.442 251.377 132.442C251.607 132.442 251.869 132.431 252.163 132.399Z" fill="#685D90"/>
<path d="M122.755 96.391C123.049 96.3473 123.322 96.3146 123.562 96.2818V93.7387C123.409 93.7606 123.246 93.7715 123.071 93.7933C122.896 93.8151 122.733 93.8151 122.591 93.8151C122.034 93.8151 121.587 93.7278 121.237 93.5423C120.888 93.3567 120.626 93.0948 120.473 92.7564C120.321 92.4181 120.233 92.0033 120.233 91.5122V84.8106H123.464V82.1147H120.233V78.8622H117.275V79.9645C117.275 80.6303 117.09 81.1542 116.719 81.5362C116.337 81.9183 115.824 82.1147 115.158 82.1147H114.765V84.8106H117.275V91.6431C117.275 93.1603 117.69 94.339 118.509 95.1795C119.327 96.0199 120.484 96.4346 121.969 96.4346C122.198 96.4346 122.46 96.4237 122.755 96.391ZM128.801 96.2818V87.9322C128.801 87.2337 128.932 86.6334 129.205 86.1313C129.478 85.6401 129.849 85.2472 130.329 84.9743C130.81 84.6906 131.355 84.5487 131.945 84.5487C132.556 84.5487 133.091 84.6906 133.571 84.9743C134.04 85.2472 134.4 85.6401 134.662 86.1313C134.924 86.6334 135.055 87.2337 135.055 87.9322V96.2818H138.024V87.1136C138.024 86.0876 137.795 85.1708 137.336 84.3631C136.889 83.5664 136.256 82.9333 135.448 82.4858C134.651 82.0274 133.724 81.7982 132.676 81.7982C131.661 81.7982 130.777 82.0274 130.002 82.4967C129.238 82.9551 128.681 83.6318 128.332 84.5268L128.801 84.887V76.461H125.843V96.2818H128.801ZM149.899 96.14C150.707 95.8343 151.405 95.4196 151.995 94.8957C152.573 94.3718 153.01 93.7715 153.283 93.1166L150.881 91.9051C150.51 92.5163 150.03 93.0184 149.441 93.4004C148.84 93.7824 148.109 93.9789 147.236 93.9789C146.417 93.9789 145.675 93.7715 145.02 93.3786C144.365 92.9747 143.863 92.4181 143.503 91.6977C143.143 90.9883 143.012 90.1478 143.099 89.1874C143.034 88.1723 143.165 87.2991 143.492 86.5679C143.82 85.8366 144.3 85.269 144.911 84.8761C145.522 84.4832 146.21 84.2867 146.974 84.2867C147.76 84.2867 148.448 84.4832 149.048 84.8761C149.637 85.269 150.074 85.8038 150.358 86.4696C150.63 87.1463 150.696 87.9104 150.532 88.7617L151.929 87.6921H142.335V90.0496H153.632C153.676 89.8422 153.719 89.613 153.73 89.3729C153.752 89.1219 153.763 88.8927 153.763 88.6635C153.763 87.7357 153.61 86.8626 153.305 86.044C152.999 85.2254 152.551 84.4941 151.973 83.8611C151.405 83.2171 150.696 82.715 149.856 82.3548C149.015 81.9837 148.055 81.7982 146.974 81.7982C145.664 81.7982 144.486 82.1147 143.427 82.7587C142.368 83.3917 141.539 84.2649 140.927 85.3563C140.316 86.4587 140.011 87.7248 140.011 89.1546C140.011 90.5517 140.316 91.8178 140.927 92.942C141.539 94.0662 142.379 94.9612 143.47 95.6161C144.551 96.2709 145.795 96.5984 147.214 96.5984C148.186 96.5984 149.081 96.4456 149.899 96.14ZM169.469 96.0745C170.309 95.7252 171.041 95.245 171.652 94.6447C172.274 94.0444 172.722 93.3676 173.005 92.6145L170.386 91.3812C170.091 92.1343 169.622 92.7346 168.978 93.1821C168.323 93.6187 167.581 93.8479 166.751 93.8479C165.944 93.8479 165.223 93.6405 164.59 93.2476C163.946 92.8437 163.444 92.2871 163.084 91.5777C162.713 90.8791 162.527 90.0714 162.527 89.1874C162.527 88.2924 162.713 87.4956 163.084 86.7971C163.444 86.0985 163.946 85.5528 164.59 85.149C165.223 84.756 165.944 84.5487 166.751 84.5487C167.581 84.5487 168.323 84.7779 168.978 85.2145C169.622 85.662 170.091 86.2513 170.386 86.9826L173.005 85.8038C172.711 85.0071 172.252 84.3085 171.63 83.7082C171.008 83.1189 170.277 82.6495 169.447 82.3112C168.607 81.9728 167.712 81.7982 166.751 81.7982C165.332 81.7982 164.077 82.1147 162.975 82.7587C161.872 83.3917 161.01 84.2758 160.388 85.3891C159.755 86.5024 159.439 87.7576 159.439 89.1546C159.439 90.5735 159.755 91.8396 160.388 92.9529C161.01 94.0771 161.872 94.9612 162.975 95.6161C164.077 96.2709 165.332 96.5984 166.751 96.5984C167.723 96.5984 168.629 96.4237 169.469 96.0745ZM179.903 93.2476C179.248 92.8437 178.735 92.2871 178.364 91.5777C177.982 90.8791 177.797 90.0714 177.797 89.1874C177.797 88.2924 177.982 87.5065 178.364 86.8189C178.735 86.1204 179.248 85.5746 179.903 85.1599C180.558 84.756 181.3 84.5487 182.119 84.5487C182.938 84.5487 183.669 84.756 184.324 85.1599C184.968 85.5746 185.47 86.1204 185.852 86.8189C186.223 87.5065 186.408 88.2924 186.408 89.1874C186.408 90.0714 186.223 90.8791 185.852 91.5777C185.47 92.2871 184.968 92.8437 184.324 93.2476C183.669 93.6405 182.938 93.8479 182.119 93.8479C181.3 93.8479 180.558 93.6405 179.903 93.2476ZM185.841 95.6379C186.954 95.0048 187.849 94.1208 188.504 93.0075C189.17 91.8942 189.508 90.6172 189.508 89.1874C189.508 87.7576 189.181 86.4805 188.526 85.3782C187.871 84.2649 186.987 83.3917 185.874 82.7587C184.771 82.1147 183.516 81.7982 182.119 81.7982C180.722 81.7982 179.467 82.1147 178.343 82.7587C177.229 83.3917 176.345 84.2649 175.69 85.3782C175.035 86.4805 174.708 87.7576 174.708 89.1874C174.708 90.5953 175.035 91.8614 175.701 92.9856C176.367 94.0989 177.251 94.983 178.375 95.627C179.489 96.2709 180.744 96.5984 182.119 96.5984C183.483 96.5984 184.717 96.2818 185.841 95.6379ZM194.736 96.2818V76.461H191.778V96.2818H194.736ZM202.213 93.2476C201.558 92.8437 201.045 92.2871 200.674 91.5777C200.292 90.8791 200.106 90.0714 200.106 89.1874C200.106 88.2924 200.292 87.5065 200.674 86.8189C201.045 86.1204 201.558 85.5746 202.213 85.1599C202.868 84.756 203.61 84.5487 204.428 84.5487C205.247 84.5487 205.989 84.756 206.633 85.1599C207.277 85.5746 207.79 86.1204 208.161 86.8189C208.532 87.5065 208.729 88.2924 208.729 89.1874C208.729 90.0714 208.532 90.8791 208.161 91.5777C207.79 92.2871 207.277 92.8437 206.633 93.2476C205.989 93.6405 205.247 93.8479 204.428 93.8479C203.61 93.8479 202.868 93.6405 202.213 93.2476ZM208.15 95.6379C209.264 95.0048 210.159 94.1208 210.824 93.0075C211.479 91.8942 211.818 90.6172 211.818 89.1874C211.818 87.7576 211.49 86.4805 210.835 85.3782C210.18 84.2649 209.296 83.3917 208.183 82.7587C207.081 82.1147 205.825 81.7982 204.428 81.7982C203.031 81.7982 201.776 82.1147 200.663 82.7587C199.539 83.3917 198.655 84.2649 198 85.3782C197.345 86.4805 197.017 87.7576 197.017 89.1874C197.017 90.5953 197.356 91.8614 198.011 92.9856C198.676 94.0989 199.571 94.983 200.685 95.627C201.798 96.2709 203.053 96.5984 204.428 96.5984C205.793 96.5984 207.026 96.2818 208.15 95.6379ZM217.057 96.2818V88.1068C217.057 87.0154 217.351 86.1531 217.952 85.5419C218.563 84.9307 219.349 84.6251 220.331 84.6251H221.553V81.9292H220.691C219.72 81.9292 218.879 82.1365 218.181 82.5513C217.482 82.9551 216.969 83.6318 216.664 84.5814L216.926 84.9962V82.1147H214.099V96.2818H217.057Z" fill="#685D90"/>
<path d="M78.0293 58.9376C78.8698 58.5884 79.601 58.1081 80.2232 57.5078C80.8453 56.9075 81.2928 56.2308 81.5657 55.4777L78.9462 54.2444C78.6515 54.9975 78.1822 55.5978 77.5382 56.0453C76.8942 56.4818 76.152 56.7111 75.3116 56.7111C74.5039 56.7111 73.7836 56.5037 73.1505 56.1107C72.5175 55.7069 72.0154 55.1503 71.6443 54.4408C71.2732 53.7423 71.0986 52.9346 71.0986 52.0505C71.0986 51.1555 71.2732 50.3588 71.6443 49.6602C72.0154 48.9617 72.5175 48.416 73.1505 48.0121C73.7836 47.6192 74.5039 47.4118 75.3116 47.4118C76.152 47.4118 76.8942 47.641 77.5382 48.0776C78.1822 48.5251 78.6515 49.1145 78.9462 49.8458L81.5657 48.667C81.271 47.8702 80.8126 47.1717 80.1904 46.5714C79.5792 45.982 78.8479 45.5127 78.0075 45.1743C77.1671 44.836 76.2721 44.6614 75.3116 44.6614C73.8927 44.6614 72.6375 44.9779 71.5352 45.6218C70.4437 46.2549 69.5815 47.139 68.9484 48.2523C68.3154 49.3655 68.0098 50.6207 68.0098 52.0178C68.0098 53.4367 68.3154 54.7028 68.9484 55.8161C69.5815 56.9403 70.4437 57.8243 71.5352 58.4792C72.6375 59.1341 73.8927 59.4615 75.3116 59.4615C76.2939 59.4615 77.1998 59.2869 78.0293 58.9376ZM86.8047 59.145V50.7953C86.8047 50.0968 86.9466 49.4965 87.2085 48.9944C87.4814 48.5033 87.8634 48.1104 88.3436 47.8375C88.8239 47.5537 89.3587 47.4118 89.9481 47.4118C90.5593 47.4118 91.105 47.5537 91.5743 47.8375C92.0437 48.1104 92.4148 48.5033 92.6767 48.9944C92.9387 49.4965 93.0696 50.0968 93.0696 50.7953V59.145H96.0275V49.9768C96.0275 48.9508 95.7983 48.034 95.3399 47.2263C94.8924 46.4295 94.2593 45.7965 93.4626 45.349C92.6549 44.8906 91.7271 44.6614 90.6793 44.6614C89.6752 44.6614 88.7802 44.8906 88.0162 45.3599C87.2413 45.8183 86.6846 46.495 86.3353 47.39L86.8047 47.7502V39.3241H83.8468V59.145H86.8047ZM105.01 59.1232C105.676 58.894 106.254 58.5665 106.767 58.1518C107.269 57.7261 107.684 57.2349 108.023 56.6565L107.444 56.6019V59.145H110.271V49.6166C110.271 48.6343 110.031 47.772 109.551 47.0298C109.07 46.2876 108.394 45.7092 107.531 45.2944C106.669 44.8687 105.676 44.6614 104.563 44.6614C103.657 44.6614 102.805 44.8142 102.009 45.1089C101.212 45.4035 100.524 45.8292 99.9458 46.364C99.3564 46.9098 98.9198 47.5319 98.647 48.2195L101.136 49.4529C101.408 48.7871 101.845 48.2632 102.423 47.8593C103.013 47.4555 103.69 47.259 104.454 47.259C105.316 47.259 106.003 47.4773 106.527 47.9248C107.051 48.3723 107.313 48.929 107.313 49.6166V53.2511C107.313 53.9715 107.139 54.6154 106.8 55.2048C106.462 55.7942 105.992 56.2526 105.392 56.6019C104.781 56.9512 104.093 57.1258 103.308 57.1258C102.664 57.1258 102.129 56.9621 101.725 56.6128C101.31 56.2745 101.103 55.8379 101.103 55.2922C101.103 54.7573 101.288 54.2989 101.659 53.9387C102.02 53.5676 102.598 53.3166 103.384 53.1747L107.728 52.4434V50.0859L102.805 50.8936C101.703 51.0682 100.808 51.3629 100.099 51.7886C99.3892 52.2033 98.8653 52.7163 98.5269 53.3275C98.1886 53.9387 98.0139 54.6373 98.0139 55.4013C98.0139 56.2199 98.2213 56.9403 98.6142 57.5515C99.0181 58.1627 99.5856 58.632 100.306 58.9595C101.026 59.2978 101.878 59.4615 102.838 59.4615C103.624 59.4615 104.344 59.3415 105.01 59.1232ZM116.088 59.145V50.7953C116.088 50.0968 116.219 49.4965 116.481 48.9944C116.743 48.5033 117.114 48.1104 117.595 47.8375C118.075 47.5537 118.621 47.4118 119.232 47.4118C119.843 47.4118 120.378 47.5537 120.847 47.8375C121.327 48.1104 121.688 48.5033 121.95 48.9944C122.212 49.4965 122.343 50.0968 122.343 50.7953V59.145H125.3V50.0095C125.3 48.9617 125.071 48.034 124.624 47.2263C124.165 46.4295 123.543 45.7965 122.735 45.349C121.939 44.8906 121.011 44.6614 119.963 44.6614C118.948 44.6614 118.053 44.8906 117.289 45.3599C116.525 45.8183 115.958 46.495 115.608 47.39L115.958 47.7502V44.9779H113.131V59.145H116.088ZM132.395 55.3576C131.773 54.9865 131.282 54.4736 130.921 53.8296C130.561 53.1856 130.387 52.4653 130.387 51.6794C130.387 50.8827 130.561 50.1514 130.921 49.5074C131.282 48.8635 131.773 48.3505 132.395 47.9794C133.028 47.5974 133.737 47.4118 134.523 47.4118C135.309 47.4118 136.008 47.5974 136.619 47.9794C137.23 48.3505 137.71 48.8635 138.07 49.5074C138.431 50.1514 138.605 50.8827 138.605 51.6794C138.605 52.4871 138.431 53.2075 138.07 53.8405C137.71 54.4845 137.23 54.9865 136.619 55.3576C136.008 55.7397 135.309 55.9252 134.523 55.9252C133.737 55.9252 133.028 55.7397 132.395 55.3576ZM138.256 64.0675C139.293 63.5108 140.101 62.7468 140.69 61.7754C141.268 60.804 141.563 59.7126 141.563 58.4901V44.9779H138.736V48.0885L139.151 47.3573C138.616 46.4841 137.918 45.8183 137.066 45.3599C136.204 44.8906 135.233 44.6614 134.152 44.6614C132.842 44.6614 131.674 44.967 130.627 45.5782C129.59 46.1894 128.782 47.0189 128.182 48.0667C127.592 49.1145 127.298 50.3151 127.298 51.6576C127.298 52.9783 127.592 54.1789 128.182 55.2485C128.782 56.3072 129.601 57.1476 130.649 57.7588C131.696 58.3701 132.875 58.6757 134.207 58.6757C135.287 58.6757 136.259 58.4356 137.132 57.9662C137.994 57.4969 138.671 56.8093 139.151 55.9252L138.605 55.2922V58.4901C138.605 59.2541 138.431 59.9199 138.092 60.4657C137.754 61.0223 137.285 61.4371 136.695 61.7208C136.106 62.0155 135.429 62.1574 134.676 62.1574C133.716 62.1574 132.908 61.9391 132.253 61.5025C131.598 61.066 131.151 60.5202 130.91 59.8544L128.182 60.9786C128.477 61.7645 128.946 62.4521 129.568 63.0306C130.201 63.62 130.954 64.0784 131.838 64.4058C132.722 64.7442 133.672 64.9079 134.709 64.9079C136.029 64.9079 137.219 64.6241 138.256 64.0675ZM153.733 59.0031C154.541 58.6975 155.239 58.2827 155.828 57.7588C156.407 57.2349 156.844 56.6346 157.116 55.9798L154.715 54.7683C154.344 55.3795 153.864 55.8815 153.274 56.2635C152.674 56.6456 151.943 56.842 151.07 56.842C150.251 56.842 149.509 56.6346 148.854 56.2417C148.199 55.8379 147.697 55.2812 147.337 54.5609C146.977 53.8514 146.846 53.011 146.933 52.0505C146.868 51.0355 146.999 50.1623 147.326 49.431C147.653 48.6997 148.134 48.1322 148.745 47.7393C149.356 47.3463 150.044 47.1499 150.808 47.1499C151.594 47.1499 152.281 47.3463 152.882 47.7393C153.471 48.1322 153.907 48.667 154.191 49.3328C154.464 50.0095 154.53 50.7735 154.366 51.6249L155.763 50.5552H146.169V52.9128H157.466C157.509 52.7054 157.553 52.4762 157.564 52.2361C157.586 51.985 157.597 51.7558 157.597 51.5266C157.597 50.5989 157.444 49.7257 157.138 48.9071C156.833 48.0885 156.385 47.3573 155.807 46.7242C155.239 46.0803 154.53 45.5782 153.689 45.218C152.849 44.8469 151.888 44.6614 150.808 44.6614C149.498 44.6614 148.319 44.9779 147.261 45.6218C146.202 46.2549 145.372 47.128 144.761 48.2195C144.15 49.3219 143.844 50.588 143.844 52.0178C143.844 53.4148 144.15 54.6809 144.761 55.8051C145.372 56.9293 146.213 57.8243 147.304 58.4792C148.385 59.1341 149.629 59.4615 151.048 59.4615C152.019 59.4615 152.914 59.3087 153.733 59.0031Z" fill="#685D90"/>
<mask id="mask1_8_1782" style="mask-type:luminance" maskUnits="userSpaceOnUse" x="239" y="37" width="33" height="33">
<path d="M239.576 37.6662H271.228V69.3185H239.576V37.6662Z" fill="white"/>
</mask>
<g mask="url(#mask1_8_1782)">
<mask id="mask2_8_1782" style="mask-type:alpha" maskUnits="userSpaceOnUse" x="243" y="41" width="25" height="25">
<path d="M253.866 65.1345L251.238 56.5584L243.537 51.9577L252.114 49.3292L256.714 41.6289L259.343 50.2051L267.043 54.8058L258.467 57.4343L253.866 65.1345Z" fill="#FDDCAB"/>
</mask>
<g mask="url(#mask2_8_1782)">
<mask id="mask3_8_1782" style="mask-type:luminance" maskUnits="userSpaceOnUse" x="239" y="37" width="33" height="33">
<path d="M239.576 37.6662H271.228V69.3185H239.576V37.6662Z" fill="white"/>
</mask>
<g mask="url(#mask3_8_1782)">
<path d="M255.29 37.7191C263.934 37.7191 270.952 44.7375 270.952 53.3816C270.952 62.0257 263.934 69.044 255.29 69.044C246.646 69.044 239.627 62.0257 239.627 53.3816C239.627 44.7375 246.646 37.7191 255.29 37.7191Z" fill="#74C384"/>
</g>
</g>
</g>
<path d="M71.1885 89.7833C62.1792 89.7833 52.7867 89.7833 52.7867 89.7833" stroke="#3C395B" stroke-width="31.3248" stroke-linecap="round"/>
<mask id="mask4_8_1782" style="mask-type:luminance" maskUnits="userSpaceOnUse" x="213" y="53" width="105" height="73">
<path d="M213.927 53.4923H317.07V125.529H213.927V53.4923Z" fill="white"/>
</mask>
<g mask="url(#mask4_8_1782)">
<mask id="mask5_8_1782" style="mask-type:luminance" maskUnits="userSpaceOnUse" x="197" y="2" width="135" height="106">
<path d="M197.009 2.00281H331.259V107.165H197.009V2.00281Z" fill="white"/>
</mask>
<g mask="url(#mask5_8_1782)">
<mask id="mask6_8_1782" style="mask-type:luminance" maskUnits="userSpaceOnUse" x="214" y="53" width="104" height="73">
<path d="M214.014 53.465H317.162V125.512H214.014V53.465Z" fill="white"/>
</mask>
<g mask="url(#mask6_8_1782)">
<mask id="mask7_8_1782" style="mask-type:luminance" maskUnits="userSpaceOnUse" x="214" y="53" width="104" height="73">
<path d="M214.014 53.465H317.162V125.512H214.014V53.465Z" fill="white"/>
</mask>
<g mask="url(#mask7_8_1782)">
<path d="M240.976 80.6505L249.702 98.3267C249.702 98.3267 254.416 90.4375 257.565 85.1671" stroke="#3C395B" stroke-width="13.4249" stroke-linecap="round" stroke-linejoin="round"/>
</g>
</g>
</g>
</g>
<path d="M113.947 142.441C114.079 142.522 114.235 142.522 114.367 142.441C116.27 141.278 130.454 132.261 130.454 121.758C130.454 119.315 129.562 116.973 127.975 115.245C126.388 113.518 124.236 112.548 121.992 112.548C118.833 112.548 116.079 114.22 114.625 116.967C114.439 117.317 113.875 117.317 113.689 116.967C112.236 114.22 109.481 112.548 106.322 112.548C104.078 112.548 101.926 113.518 100.339 115.245C98.7525 116.973 97.8606 119.315 97.8606 121.758C97.8606 132.261 112.044 141.278 113.947 142.441Z" fill="#E87280"/>
<mask id="mask8_8_1782" style="mask-type:luminance" maskUnits="userSpaceOnUse" x="171" y="37" width="67" height="34">
<path d="M171.36 37.1205H237.939V70.9557H171.36V37.1205Z" fill="white"/>
</mask>
<g mask="url(#mask8_8_1782)">
<mask id="mask9_8_1782" style="mask-type:luminance" maskUnits="userSpaceOnUse" x="136" y="-30" width="106" height="134">
<path d="M241.404 -29.221V103.462H136.242V-29.221H241.404Z" fill="white"/>
</mask>
<g mask="url(#mask9_8_1782)">
<path d="M230.32 54.252C230.32 63.2048 223.051 70.4738 214.098 70.4738C205.145 70.4738 197.876 63.2048 197.876 54.252C197.876 45.2992 205.145 38.0302 214.098 38.0302C223.051 38.0302 230.32 45.2992 230.32 54.252Z" fill="#B09BFF"/>
<path d="M211.764 54.252C211.764 63.2048 204.495 70.4738 195.543 70.4738C186.59 70.4738 179.321 63.2048 179.321 54.252C179.321 45.2992 186.59 38.0302 195.543 38.0302C204.495 38.0302 211.764 45.2992 211.764 54.252Z" fill="#B09BFF"/>
<mask id="mask10_8_1782" style="mask-type:luminance" maskUnits="userSpaceOnUse" x="191" y="37" width="26" height="35">
<path d="M216.121 37.2324V71.0184H191.956V37.2324H216.121Z" fill="white"/>
</mask>
<g mask="url(#mask10_8_1782)">
<path d="M215.875 70.1912C215.875 70.1912 211.898 70.6297 209.497 70.0509C207.321 69.5348 206.862 69.5304 204.943 69.3916C203.231 69.2679 201.969 69.5107 199.393 70.0103C198.021 70.2764 192.236 69.9115 192.236 69.9115L192.158 38.8545C192.158 38.8545 198.203 38.1191 199.771 38.6093C201.969 39.2969 203.34 39.2969 205.074 39.241C206.528 39.194 207.983 38.9346 209.683 38.5641C213.141 37.8103 215.774 39.302 215.774 39.302L215.875 70.1912Z" fill="#B09BFF"/>
</g>
</g>
</g>
</g>
<defs>
<linearGradient id="paint0_linear_8_1782" x1="339.653" y1="57.1684" x2="235.27" y2="333.996" gradientUnits="userSpaceOnUse">
<stop stop-color="#393757"/>
<stop offset="0.5" stop-color="#2E2C46"/>
<stop offset="1" stop-color="#222135"/>
</linearGradient>
<linearGradient id="paint1_linear_8_1782" x1="338.362" y1="57.8609" x2="234.771" y2="331.779" gradientUnits="userSpaceOnUse">
<stop stop-color="#393757"/>
<stop offset="0.5" stop-color="#2E2C46"/>
<stop offset="1" stop-color="#222135"/>
</linearGradient>
</defs>
</svg>
