<svg width="84" height="40" viewBox="0 0 84 40" fill="none" xmlns="http://www.w3.org/2000/svg">
<path d="M4.07428 20.844C3.26737 20.844 2.55704 20.668 1.94328 20.3155C1.32973 19.9518 0.852274 19.4517 0.511322 18.8154C0.170579 18.1676 0 17.4232 0 16.5822C0 15.5706 0.250017 14.6841 0.750053 13.9227C1.26138 13.1614 1.98321 12.5761 2.91513 12.1667C3.85834 11.7579 4.96084 11.5532 6.22222 11.5532C6.8019 11.5532 7.27372 11.5929 7.63725 11.6724V11.3145C7.63725 10.4507 7.47816 9.80872 7.15979 9.38812C6.84162 8.95623 6.35873 8.74029 5.7109 8.74029C4.66525 8.74029 3.99464 9.29154 3.69926 10.3938C3.60832 10.7122 3.42081 10.8485 3.13672 10.8031L0.818409 10.3938C0.647829 10.3598 0.528465 10.286 0.460316 10.1722C0.403456 10.0587 0.397602 9.9053 0.443174 9.71193C0.738764 8.55278 1.36381 7.65493 2.31831 7.01859C3.28451 6.37056 4.49488 6.04675 5.94942 6.04675C7.67696 6.04675 8.98956 6.51292 9.8874 7.44463C10.7968 8.37655 11.2512 9.73472 11.2512 11.5189V20.0939C11.2512 20.2189 11.2058 20.3268 11.1149 20.418C11.0355 20.4974 10.933 20.5371 10.808 20.5371H8.59195C8.31915 20.5371 8.14878 20.3893 8.08042 20.0939L7.73968 18.4916H7.60317C7.29629 19.2417 6.83598 19.8211 6.22222 20.2302C5.61996 20.6395 4.90398 20.844 4.07428 20.844ZM3.71619 16.1729C3.71619 16.7753 3.86963 17.2584 4.17651 17.622C4.49488 17.9744 4.92092 18.1504 5.45503 18.1504C6.15972 18.1504 6.69968 17.8379 7.07471 17.2129C7.44973 16.5765 7.63704 15.6672 7.63704 14.4855V13.5818C7.33904 13.5268 7.03677 13.4983 6.73375 13.4965C5.80183 13.4965 5.06307 13.7411 4.51746 14.2296C3.98335 14.7068 3.71619 15.3547 3.71619 16.1729ZM13.3651 6.7968C13.3651 6.67179 13.4048 6.56957 13.4844 6.49013C13.5263 6.44644 13.5766 6.41179 13.6323 6.38832C13.688 6.36484 13.748 6.35303 13.8085 6.35362H16.0586C16.1836 6.35362 16.2861 6.39334 16.3655 6.47299C16.4564 6.55243 16.5133 6.6605 16.5361 6.79701L16.8768 8.46749H17.0133C17.3202 7.68357 17.7575 7.08674 18.3261 6.67764C18.9056 6.25704 19.5875 6.04675 20.3716 6.04675C21.2126 6.04675 21.9345 6.26833 22.5367 6.71151C23.1505 7.15489 23.6221 7.78558 23.9517 8.60399H24.088C24.5881 7.74022 25.1508 7.09803 25.7759 6.67764C26.4009 6.25704 27.0997 6.04675 27.8726 6.04675C28.7136 6.04675 29.441 6.27419 30.0546 6.72865C30.6796 7.18332 31.1571 7.83115 31.4866 8.67214C31.8162 9.51313 31.9812 10.5076 31.9812 11.6554V20.0939C31.9812 20.2189 31.9356 20.3268 31.8446 20.418C31.7652 20.4974 31.6628 20.5371 31.5378 20.5371H28.8101C28.6851 20.5371 28.5773 20.4974 28.4861 20.418C28.4072 20.3287 28.3647 20.2131 28.367 20.0939V11.9282C28.367 11.0983 28.2081 10.4622 27.8897 10.0188C27.5713 9.57563 27.1112 9.35404 26.5088 9.35404C25.8497 9.35404 25.344 9.61535 24.9915 10.1382C24.6508 10.661 24.4802 11.4167 24.4802 12.4055V20.0941C24.4802 20.2189 24.4346 20.3268 24.3437 20.4177C24.2643 20.4974 24.1618 20.5371 24.0368 20.5371H21.3094C21.1846 20.5371 21.0765 20.4974 20.9856 20.418C20.9067 20.3287 20.8642 20.2131 20.8664 20.0939V11.9282C20.8664 11.0983 20.7071 10.4622 20.389 10.0188C20.0706 9.57563 19.6105 9.35404 19.0082 9.35404C18.3489 9.35404 17.8432 9.61535 17.4908 10.1382C17.15 10.661 16.9795 11.4167 16.9795 12.4055V20.0941C16.9795 20.2189 16.9341 20.3268 16.8432 20.4177C16.7635 20.4974 16.6613 20.5371 16.5363 20.5371H13.8087C13.6837 20.5371 13.5756 20.4974 13.4846 20.418C13.4058 20.3287 13.3632 20.213 13.3655 20.0939L13.3651 6.7968ZM33.7538 16.5822C33.7538 15.5706 34.0041 14.6841 34.5041 13.9227C35.0154 13.1614 35.7371 12.5761 36.6692 12.1667C37.6124 11.7579 38.7149 11.5532 39.9763 11.5532C40.556 11.5532 41.0278 11.5929 41.3913 11.6724V11.3145C41.3913 10.4507 41.232 9.80872 40.9138 9.38812C40.5957 8.95623 40.1128 8.74029 39.465 8.74029C38.4193 8.74029 37.7487 9.29154 37.4533 10.3938C37.3624 10.7122 37.1749 10.8485 36.8908 10.8031L34.5723 10.3938C34.4017 10.3598 34.2823 10.286 34.2142 10.1722C34.1575 10.0587 34.1517 9.9053 34.1972 9.71193C34.4926 8.55278 35.1177 7.65493 36.0724 7.01859C37.0384 6.37056 38.2487 6.04675 39.7035 6.04675C41.431 6.04675 42.7436 6.51292 43.6415 7.44463C44.5508 8.37655 45.0053 9.73472 45.0053 11.5189V20.0939C45.0053 20.2189 44.9599 20.3268 44.869 20.418C44.7895 20.4974 44.6871 20.5371 44.5621 20.5371H42.346C42.0732 20.5371 41.9028 20.3893 41.8345 20.0939L41.4935 18.4916H41.3572C41.0504 19.2417 40.59 19.8211 39.9763 20.2302C39.374 20.6395 38.658 20.844 37.8283 20.844C36.9986 20.844 36.3111 20.668 35.6973 20.3155C35.0836 19.9518 34.6063 19.4517 34.2654 18.8154C33.9244 18.1676 33.7538 17.4232 33.7538 16.5822ZM37.4707 16.1729C37.4707 16.7753 37.6239 17.2584 37.9308 17.622C38.2489 17.9744 38.6752 18.1504 39.2093 18.1504C39.914 18.1504 40.4537 17.8379 40.829 17.2129C41.2038 16.5765 41.3913 15.6672 41.3913 14.4855V13.5818C41.0932 13.5268 40.7909 13.4983 40.4878 13.4965C39.5561 13.4965 38.8173 13.7411 38.2719 14.2296C37.7376 14.7068 37.4707 15.3547 37.4707 16.1729ZM46.8468 18.0313C46.8468 17.7813 46.9149 17.5651 47.0512 17.3832L52.8815 9.21796H47.426C47.301 9.21796 47.1931 9.17824 47.102 9.09859C47.0231 9.0093 46.9806 8.89368 46.9828 8.77457V6.79701C46.9828 6.672 47.0226 6.56978 47.102 6.49034C47.1438 6.44666 47.1941 6.412 47.2499 6.38853C47.3056 6.36505 47.3655 6.35324 47.426 6.35383H56.393C56.518 6.35383 56.6204 6.3994 56.6999 6.49034C56.7908 6.56978 56.8362 6.67221 56.8362 6.79701V8.85986C56.8362 9.10988 56.768 9.32582 56.6317 9.50769L51.3471 16.7699C51.6678 16.7129 51.9929 16.6844 52.3187 16.6846C53.1369 16.6846 53.8872 16.7584 54.5691 16.9062C55.2623 17.0427 55.978 17.2699 56.717 17.5881C56.9783 17.7018 57.109 17.895 57.109 18.1678V20.1282C57.109 20.3101 57.0523 20.4351 56.9386 20.5032C56.8249 20.5601 56.6829 20.5545 56.5121 20.4863C55.6601 20.1679 54.9042 19.9463 54.2451 19.8215C53.5972 19.685 52.8869 19.6167 52.1141 19.6167C51.3412 19.6167 50.6027 19.685 49.8639 19.8215C49.1364 19.9578 48.3295 20.1794 47.4432 20.4863C47.2726 20.5432 47.1306 20.5432 47.0167 20.4863C46.9034 20.418 46.8465 20.2986 46.8465 20.1282L46.8468 18.0313ZM57.8592 13.4455C57.8592 12.0589 58.1264 10.8031 58.6605 9.67785C59.1948 8.54149 59.9277 7.65493 60.8597 7.01859C61.8031 6.37056 62.8485 6.04675 63.9964 6.04675C65.1442 6.04675 66.2012 6.37076 67.1331 7.01859C68.0765 7.65493 68.8153 8.54149 69.3494 9.67785C69.895 10.8031 70.1676 12.0589 70.1676 13.4455C70.1676 14.8319 69.8948 16.0934 69.3494 17.23C68.8153 18.3551 68.0763 19.2417 67.1331 19.8895C66.2012 20.5258 65.1555 20.844 63.9964 20.844C62.8372 20.844 61.8031 20.5258 60.8597 19.8895C59.9277 19.2414 59.1948 18.3551 58.6605 17.23C58.1264 16.0934 57.8594 14.8319 57.8594 13.4455H57.8592ZM61.6097 13.4455C61.6097 14.8887 61.8144 16.0025 62.2235 16.7866C62.6328 17.5595 63.2235 17.946 63.9964 17.946C64.7692 17.946 65.366 17.5595 65.7864 16.7866C66.207 16.0027 66.4171 14.8887 66.4171 13.4455C66.4171 12.002 66.207 10.8941 65.7864 10.1212C65.366 9.3369 64.7692 8.94494 63.9964 8.94494C63.2235 8.94494 62.6328 9.3369 62.2237 10.1212C61.8144 10.8941 61.6097 12.002 61.6097 13.4455ZM72.0086 6.7968C72.0086 6.67179 72.0484 6.56957 72.1282 6.49013C72.17 6.44646 72.2203 6.41182 72.276 6.38834C72.3317 6.36486 72.3916 6.35305 72.452 6.35362H74.7022C74.8272 6.35362 74.9296 6.39334 75.0091 6.47299C75.1 6.55243 75.1569 6.6605 75.1796 6.79701L75.5204 8.46749H75.6569C75.9638 7.69465 76.4126 7.09824 77.0038 6.67764C77.6058 6.25704 78.3107 6.04675 79.1176 6.04675C79.9812 6.04675 80.7256 6.27419 81.3507 6.72865C81.9872 7.18332 82.4759 7.83115 82.8169 8.67214C83.1576 9.51313 83.3282 10.5076 83.3282 11.6554V20.0939C83.3282 20.2189 83.2829 20.3268 83.1919 20.418C83.1125 20.4974 83.0101 20.5371 82.885 20.5371H80.1574C80.0324 20.5371 79.9246 20.4974 79.8334 20.418C79.7545 20.3287 79.712 20.213 79.7142 20.0939V11.9282C79.7142 11.0983 79.5437 10.4622 79.2027 10.0188C78.862 9.57563 78.3789 9.35404 77.7538 9.35404C77.0604 9.35404 76.532 9.61535 76.1684 10.1382C75.8047 10.661 75.6228 11.4167 75.6228 12.4055V20.0941C75.6228 20.2189 75.5775 20.3268 75.4865 20.4177C75.4069 20.4974 75.3047 20.5371 75.1796 20.5371H72.452C72.327 20.5371 72.2192 20.4974 72.128 20.418C72.0491 20.3287 72.0066 20.2131 72.0089 20.0939L72.0086 6.7968ZM9.47872 22.4971C9.26278 22.6677 9.21742 22.9518 9.34242 23.3496C9.45594 23.7018 9.72289 24.1394 10.1435 24.6622C11.8367 26.7535 13.854 28.4921 16.1953 29.8787C18.5366 31.2653 21.0427 32.2881 23.7134 32.9473C26.3955 33.6179 29.1344 33.953 31.9301 33.953C35.5102 33.953 38.9198 33.4304 42.1587 32.3847C45.3977 31.3504 48.1027 29.8958 50.2734 28.0205C51.0348 27.3501 51.4156 26.816 51.4156 26.4182C51.4156 26.2704 51.3529 26.1226 51.2281 25.975C51.0575 25.8044 50.8529 25.7476 50.6144 25.8044C50.3756 25.8611 50.0403 26.0032 49.6084 26.2307C47.5287 27.3217 44.9944 28.1911 42.0055 28.8389C39.0278 29.498 35.9193 29.8277 32.6804 29.8277C28.6686 29.8277 24.7931 29.2821 21.054 28.1909C17.315 27.1001 14.002 25.3953 11.1153 23.0768C10.6947 22.7473 10.3538 22.5368 10.0925 22.4459C9.84246 22.3552 9.63781 22.3721 9.47872 22.4971Z" fill="#9CA3AF"/>
<path d="M47.3575 23.3506C47.1188 23.578 47.0563 23.8167 47.17 24.0667C47.2494 24.2486 47.4029 24.3508 47.6303 24.3736C47.8575 24.4077 48.1813 24.3849 48.6019 24.3055C49.3043 24.1547 50.0163 24.0521 50.7327 23.9984C51.4714 23.953 52.1136 23.9643 52.6592 24.0325C53.2048 24.1121 53.5455 24.2486 53.682 24.4418C53.8867 24.7486 53.8127 25.3962 53.4604 26.3852C53.1195 27.374 52.6535 28.3341 52.0624 29.266C51.8351 29.641 51.6986 29.9366 51.6533 30.1525C51.6079 30.3685 51.6648 30.5503 51.8239 30.6981C51.9261 30.8003 52.0398 30.8513 52.1646 30.8513C52.4945 30.8513 52.9715 30.5616 53.5967 29.9819C54.7218 29.0047 55.5115 27.8456 55.9662 26.5044C56.2162 25.8112 56.3696 25.0839 56.4265 24.3224C56.4834 23.5611 56.3981 23.0155 56.1708 22.6858C55.9549 22.3677 55.4775 22.1062 54.7389 21.9019C54.0235 21.6989 53.2835 21.5954 52.5398 21.5946C51.0964 21.5946 49.727 21.9358 48.4316 22.6177C47.9541 22.879 47.5962 23.1235 47.3575 23.3506Z" fill="#9CA3AF"/>
</svg>
