<svg width="20" height="20" viewBox="0 0 20 20" fill="none" xmlns="http://www.w3.org/2000/svg">
<path d="M15.508 9.801C16.0659 9.272 16.5449 8.66545 16.93 8H15.745C15.1007 8.92665 14.2416 9.68353 13.2411 10.206C12.2407 10.7284 11.1286 11.0008 10 11C8.87123 11.0007 7.75906 10.7283 6.75847 10.2059C5.75787 9.68344 4.89859 8.92661 4.254 8H3.07C3.45511 8.66519 3.93365 9.27171 4.491 9.801L2.896 11.396L3.604 12.103L5.26 10.446C5.97 10.969 6.771 11.378 7.634 11.645L7.017 13.866L7.981 14.134L8.607 11.879C9.52827 12.0405 10.4706 12.0409 11.392 11.88L12.018 14.134L12.982 13.866L12.365 11.645C13.218 11.3808 14.0205 10.9751 14.739 10.445L16.396 12.103L17.104 11.396L15.508 9.801Z" fill="#1C1B25"/>
</svg>
