<svg width="50" height="40" viewBox="0 0 50 40" fill="none" xmlns="http://www.w3.org/2000/svg">
<path d="M21.0375 25.38H24.3663L28.07 27.8425C28.195 27.9257 28.3401 27.9734 28.4901 27.9807C28.64 27.9879 28.7891 27.9543 28.9215 27.8835C29.0538 27.8127 29.1645 27.7073 29.2418 27.5786C29.319 27.4499 29.3598 27.3026 29.36 27.1525V25.38C31.8575 25.38 33.5225 23.715 33.5225 21.2175V16.225C33.5225 13.7287 31.8575 12.0625 29.36 12.0625H21.0375C18.54 12.0625 16.875 13.7287 16.875 16.225V21.22C16.875 23.7162 18.54 25.3813 21.0375 25.3813V25.38Z" stroke="#1C1B25" stroke-width="1.8725" stroke-miterlimit="10" stroke-linecap="round" stroke-linejoin="round"/>
</svg>
