<svg width="84" height="40" viewBox="0 0 84 40" fill="none" xmlns="http://www.w3.org/2000/svg">
<mask id="mask0_8_2314" style="mask-type:luminance" maskUnits="userSpaceOnUse" x="0" y="2" width="84" height="36">
<path d="M0 2.84222H83.3282V37.1577H0V2.84222Z" fill="white"/>
</mask>
<g mask="url(#mask0_8_2314)">
<path d="M27.4521 6.79177C27.4521 8.99308 25.704 10.7412 23.5027 10.7412C21.3661 10.7412 19.5533 8.99308 19.5533 6.79177C19.5533 4.59045 21.3661 2.84235 23.5027 2.84235C25.704 2.84235 27.4521 4.59045 27.4521 6.79177Z" fill="#9CA3AF"/>
<path d="M27.5818 6.79174C27.5818 8.9931 25.8337 10.7412 23.6323 10.7412C21.431 10.7412 19.6828 8.9931 19.6828 6.79174C19.6828 4.59037 21.4957 2.84222 23.6323 2.84222C25.8337 2.84222 27.5818 4.59037 27.5818 6.79174ZM16.834 12.4894V18.3165H10.0356V28.0285C10.0356 30.1651 11.0068 31.0068 13.2729 31.0068H16.834V36.5749H12.755C6.34512 36.5749 3.49629 33.7261 3.49629 28.2874V18.3165H0V12.4894C1.94238 12.4894 3.49629 10.9355 3.49629 8.9931V6.27377H10.0356V12.4894H16.834ZM26.9344 12.4894H20.395V36.5749H26.9344V12.4894ZM49.0775 34.8268C47.3941 36.1865 44.7395 36.9634 42.0202 36.9634C35.4161 36.9634 29.8479 31.6542 29.8479 24.6617C29.8479 17.7338 35.4161 12.2304 42.0202 12.2304C44.7395 12.2304 47.3941 13.0721 49.0775 14.367V4.39613H55.6169V36.5749H49.0775V34.8268ZM49.207 24.6617C49.207 21.1006 46.2935 18.187 42.6029 18.187C39.0419 18.187 36.2578 21.1006 36.2578 24.6617C36.2578 28.2874 39.0419 31.1363 42.6029 31.1363C46.3582 31.1363 49.207 28.2874 49.207 24.6617ZM70.5085 37.1577C62.8037 37.1577 57.8183 31.7837 57.8183 24.5969C57.8183 17.6691 62.9979 12.0362 70.5732 12.0362C78.2133 12.0362 82.8103 17.2806 82.8103 24.3379C82.8103 25.2444 82.7455 26.4745 82.7455 26.6688H64.2929C65.0051 29.7119 67.2712 31.719 70.7027 31.719C73.6163 31.719 75.7529 30.4888 77.1126 28.5464L82.0333 31.5247C79.6377 34.9563 75.8824 37.1577 70.5085 37.1577ZM64.4871 21.7481H76.2061C75.4939 18.8345 73.1631 17.3453 70.5085 17.3453C67.4654 17.4101 65.3288 19.0287 64.4871 21.7481Z" fill="#9CA3AF"/>
</g>
</svg>
