<svg width="317" height="317" viewBox="0 0 317 317" fill="none" xmlns="http://www.w3.org/2000/svg">
<mask id="mask0_8_2707" style="mask-type:luminance" maskUnits="userSpaceOnUse" x="0" y="0" width="317" height="317">
<path d="M317 0H0V317H317V0Z" fill="white"/>
</mask>
<g mask="url(#mask0_8_2707)">
<path d="M101.73 228.109C99.5717 227.927 94.4171 227.634 93.1633 229.396C99.2532 231.753 101.73 229.519 101.73 228.109ZM101.755 227.705C101.164 224.754 98.133 223.434 95.7363 222.883C95.506 225.817 98.5112 227.466 101.755 227.705ZM85.4328 227.466C86.9453 228.578 88.8019 229.115 90.6755 228.984C92.5491 228.853 94.3147 228.057 95.6567 226.747C93.5783 226.17 87.9035 225.487 85.4328 227.466ZM94.7128 226.189C94.5109 223.889 93.2884 220.896 89.9164 220.179C89.5724 221.433 90.0443 224.839 94.7128 226.189ZM80.662 223.591C81.859 224.785 83.4369 225.521 85.12 225.672C86.8032 225.823 88.4863 225.376 89.8766 224.412C88.0058 223.449 83.5165 222.149 80.662 223.591ZM88.9497 223.673C89.1886 221.407 88.2788 217.532 85.592 216.799C84.9523 218.035 84.8187 221.555 88.9497 223.673ZM75.371 218.169C75.7605 218.934 76.2978 219.613 76.9574 220.162C77.617 220.714 78.3818 221.123 79.2035 221.367C80.0195 221.606 80.8753 221.677 81.7168 221.567C82.5584 221.458 83.3687 221.174 84.0965 220.733C81.4922 218.286 77.3356 217.344 75.371 218.169ZM83.69 220.045C84.5969 217.04 83.7639 213.765 81.5462 211.601C79.6925 214.834 81.6514 218.53 83.69 220.045ZM79.4139 216.247C78.6377 215.192 74.3304 211.365 71.9308 211.465C71.7062 216.486 76.9517 216.213 79.4139 216.247ZM79.2007 208.511C80.4061 206.882 81.2619 204.135 80.1815 201.975C79.2575 202.594 77.4038 205.403 79.2007 208.511ZM65.6162 210.64C64.6183 210.362 62.4603 210.08 61.4084 210.976C62.7674 212.332 64.5728 211.798 65.6162 210.64ZM86.209 186.678C85.6858 186.522 85.066 187.17 84.9153 187.693C85.4442 187.625 85.9986 187.429 86.209 186.678ZM58.7159 206.762C58.6278 206.779 58.4686 206.799 58.3833 206.936C58.5624 207.004 58.6989 206.856 58.7159 206.762Z" fill="white"/>
<path d="M215.271 229.885C217.429 229.703 222.583 229.411 223.837 231.173C217.747 233.53 215.271 231.296 215.271 229.885ZM215.245 229.482C215.837 226.531 218.867 225.211 221.264 224.66C221.494 227.594 218.489 229.243 215.245 229.482ZM231.568 229.243C230.055 230.355 228.198 230.892 226.325 230.761C224.451 230.63 222.686 229.834 221.344 228.524C223.422 227.946 229.097 227.264 231.568 229.243ZM222.288 227.966C222.489 225.666 223.712 222.672 227.084 221.956C227.428 223.21 226.956 226.616 222.288 227.966ZM236.338 225.368C235.141 226.562 233.563 227.298 231.88 227.449C230.197 227.6 228.514 227.153 227.124 226.189C228.995 225.226 233.484 223.926 236.338 225.368ZM228.051 225.45C227.812 223.184 228.722 219.309 231.408 218.575C232.048 219.812 232.182 223.332 228.051 225.45ZM241.629 219.946C241.24 220.711 240.703 221.39 240.043 221.939C239.383 222.49 238.619 222.9 237.797 223.144C236.981 223.383 236.125 223.454 235.284 223.343C234.442 223.235 233.632 222.951 232.904 222.51C235.508 220.062 239.665 219.121 241.629 219.946ZM233.31 221.822C232.403 218.817 233.236 215.542 235.454 213.378C237.308 216.611 235.349 220.307 233.31 221.822ZM237.586 218.024C238.363 216.969 242.67 213.142 245.07 213.242C245.294 218.263 240.049 217.99 237.586 218.024ZM237.8 210.288C236.594 208.659 235.738 205.912 236.819 203.751C237.743 204.371 239.597 207.18 237.8 210.288ZM251.384 212.417C252.382 212.139 254.54 211.857 255.592 212.753C254.233 214.109 252.428 213.574 251.384 212.417ZM230.791 188.455C231.315 188.299 231.934 188.947 232.085 189.47C231.556 189.402 231.002 189.206 230.791 188.455ZM258.284 208.539C258.373 208.556 258.532 208.576 258.617 208.713C258.438 208.781 258.301 208.633 258.284 208.539Z" fill="white"/>
<path d="M204.485 189.376C204.285 189.376 204.101 189.36 203.93 189.331C203.762 189.3 203.629 189.262 203.527 189.224L203.87 188.079C204.082 188.139 204.272 188.171 204.44 188.168C204.608 188.165 204.757 188.114 204.884 188.013C205.014 187.911 205.122 187.74 205.211 187.505L205.337 187.169L203.077 180.807H204.634L206.073 185.515H206.136L207.576 180.807H209.138L206.644 187.794C206.526 188.124 206.374 188.409 206.181 188.643C205.991 188.881 205.756 189.062 205.477 189.189C205.201 189.312 204.868 189.376 204.485 189.376ZM199.416 186.085C199.711 186.085 199.967 186.028 200.183 185.911C200.399 185.79 200.567 185.635 200.684 185.442C200.801 185.245 200.861 185.033 200.861 184.805V184.069C200.814 184.107 200.738 184.142 200.627 184.174C200.519 184.209 200.395 184.237 200.259 184.259C200.126 184.285 199.99 184.307 199.86 184.326C199.727 184.345 199.612 184.361 199.514 184.373C199.295 184.402 199.099 184.453 198.925 184.519C198.753 184.586 198.617 184.681 198.516 184.801C198.414 184.922 198.367 185.077 198.367 185.267C198.367 185.537 198.465 185.74 198.661 185.879C198.858 186.016 199.112 186.085 199.416 186.085ZM199.035 187.166C198.639 187.166 198.284 187.093 197.97 186.951C197.653 186.811 197.406 186.599 197.222 186.32C197.042 186.044 196.95 185.699 196.95 185.29C196.95 184.938 197.013 184.649 197.143 184.418C197.273 184.19 197.45 184.006 197.676 183.866C197.901 183.73 198.154 183.622 198.436 183.552C198.718 183.48 199.013 183.429 199.314 183.397C199.679 183.359 199.977 183.324 200.202 183.292C200.43 183.261 200.595 183.213 200.7 183.147C200.804 183.08 200.858 182.975 200.858 182.836V182.811C200.858 182.506 200.766 182.269 200.586 182.101C200.405 181.933 200.142 181.85 199.803 181.85C199.441 181.85 199.156 181.929 198.947 182.085C198.737 182.243 198.598 182.427 198.525 182.639L197.152 182.446C197.26 182.069 197.438 181.752 197.688 181.495C197.935 181.238 198.24 181.048 198.601 180.918C198.959 180.791 199.359 180.725 199.793 180.725C200.094 180.725 200.392 180.76 200.69 180.833C200.988 180.902 201.261 181.016 201.505 181.178C201.752 181.34 201.952 181.558 202.101 181.834C202.25 182.11 202.326 182.456 202.326 182.868V187.039H200.912V186.184H200.865C200.776 186.358 200.649 186.52 200.491 186.669C200.329 186.818 200.126 186.938 199.885 187.03C199.644 187.119 199.359 187.166 199.035 187.166ZM192.768 185.943C193.079 185.943 193.345 185.86 193.564 185.689C193.783 185.521 193.948 185.286 194.062 184.982C194.176 184.678 194.233 184.326 194.233 183.923C194.233 183.521 194.176 183.169 194.065 182.871C193.954 182.576 193.786 182.345 193.57 182.18C193.352 182.015 193.085 181.929 192.768 181.929C192.442 181.929 192.169 182.015 191.947 182.186C191.729 182.357 191.564 182.592 191.453 182.893C191.342 183.194 191.288 183.537 191.288 183.923C191.288 184.313 191.342 184.659 191.456 184.963C191.567 185.267 191.735 185.508 191.954 185.683C192.176 185.857 192.445 185.943 192.768 185.943ZM192.359 187.15C191.868 187.15 191.431 187.024 191.044 186.773C190.657 186.52 190.353 186.155 190.128 185.676C189.903 185.198 189.789 184.614 189.789 183.933C189.789 183.239 189.903 182.655 190.134 182.177C190.362 181.698 190.67 181.337 191.06 181.092C191.45 180.848 191.884 180.725 192.363 180.725C192.727 180.725 193.028 180.788 193.263 180.912C193.497 181.032 193.684 181.181 193.824 181.352C193.96 181.524 194.068 181.685 194.144 181.837H194.204V178.731H195.678V187.039H194.233V186.057H194.144C194.068 186.209 193.957 186.371 193.814 186.539C193.672 186.707 193.482 186.852 193.247 186.97C193.012 187.09 192.714 187.15 192.359 187.15ZM183.208 187.16C182.583 187.16 182.044 187.03 181.591 186.77C181.138 186.51 180.792 186.139 180.548 185.657C180.304 185.179 180.183 184.611 180.183 183.958C180.183 183.318 180.304 182.757 180.548 182.269C180.795 181.784 181.138 181.406 181.578 181.134C182.019 180.861 182.536 180.725 183.131 180.725C183.515 180.725 183.88 180.788 184.222 180.912C184.564 181.032 184.865 181.222 185.132 181.479C185.395 181.736 185.601 182.066 185.753 182.462C185.905 182.858 185.981 183.327 185.981 183.876V184.326H180.871V183.334H184.574C184.571 183.055 184.51 182.801 184.39 182.582C184.27 182.36 184.105 182.189 183.892 182.059C183.68 181.933 183.433 181.869 183.154 181.869C182.853 181.869 182.589 181.942 182.361 182.088C182.133 182.231 181.959 182.421 181.832 182.655C181.705 182.89 181.642 183.147 181.638 183.426V184.288C181.638 184.652 181.705 184.96 181.838 185.22C181.971 185.477 182.155 185.676 182.393 185.813C182.631 185.949 182.91 186.016 183.23 186.016C183.442 186.016 183.636 185.987 183.81 185.927C183.984 185.863 184.133 185.775 184.26 185.657C184.387 185.537 184.482 185.388 184.548 185.214L185.921 185.369C185.832 185.73 185.668 186.047 185.427 186.317C185.186 186.583 184.875 186.792 184.501 186.941C184.124 187.087 183.693 187.16 183.208 187.16ZM174.921 183.388V187.039H173.453V178.731H174.889V181.866H174.962C175.108 181.514 175.336 181.235 175.644 181.032C175.948 180.829 176.341 180.725 176.817 180.725C177.251 180.725 177.628 180.817 177.949 180.997C178.272 181.178 178.522 181.444 178.697 181.793C178.874 182.142 178.963 182.567 178.963 183.071V187.039H177.495V183.299C177.495 182.88 177.387 182.554 177.172 182.319C176.956 182.085 176.655 181.967 176.268 181.967C176.008 181.967 175.777 182.024 175.574 182.135C175.368 182.25 175.21 182.411 175.095 182.62C174.981 182.833 174.921 183.086 174.921 183.388ZM169.402 179.314H170.87V185.166C170.87 185.362 170.902 185.515 170.962 185.616C171.022 185.721 171.101 185.794 171.203 185.832C171.304 185.87 171.415 185.886 171.536 185.886C171.627 185.886 171.713 185.879 171.789 185.867C171.865 185.854 171.925 185.841 171.967 185.832L172.214 186.979C172.135 187.005 172.024 187.036 171.878 187.068C171.732 187.1 171.558 187.119 171.349 187.125C170.981 187.135 170.648 187.081 170.353 186.957C170.058 186.833 169.827 186.643 169.656 186.383C169.481 186.123 169.399 185.797 169.402 185.407V179.314ZM172.1 180.807V181.942H168.518V180.807H172.1ZM162.241 187.039V180.218C162.241 179.799 162.33 179.45 162.504 179.171C162.679 178.892 162.913 178.683 163.208 178.547C163.503 178.407 163.829 178.341 164.191 178.341C164.444 178.341 164.669 178.36 164.866 178.401C165.066 178.442 165.211 178.477 165.306 178.509L165.012 179.647C164.951 179.628 164.872 179.609 164.777 179.587C164.682 179.568 164.577 179.558 164.46 179.558C164.187 179.558 163.994 179.622 163.883 179.755C163.772 179.885 163.715 180.072 163.715 180.316V187.039H162.241ZM165.005 180.807V181.942H161.322V180.807H165.005ZM157.635 185.984C157.965 185.984 158.24 185.892 158.462 185.711C158.684 185.527 158.852 185.283 158.96 184.973C159.071 184.665 159.125 184.323 159.125 183.942C159.125 183.562 159.071 183.216 158.96 182.906C158.852 182.598 158.684 182.351 158.462 182.167C158.24 181.983 157.965 181.891 157.635 181.891C157.299 181.891 157.017 181.983 156.795 182.167C156.57 182.351 156.405 182.598 156.294 182.906C156.186 183.216 156.129 183.562 156.129 183.942C156.129 184.323 156.186 184.665 156.294 184.973C156.405 185.283 156.57 185.527 156.795 185.711C157.017 185.892 157.299 185.984 157.635 185.984ZM157.629 187.16C157.02 187.16 156.491 187.027 156.044 186.76C155.6 186.491 155.254 186.117 155.007 185.635C154.763 185.153 154.643 184.592 154.643 183.949C154.643 183.305 154.763 182.741 155.007 182.256C155.254 181.771 155.6 181.397 156.044 181.127C156.491 180.861 157.02 180.725 157.629 180.725C158.237 180.725 158.764 180.861 159.211 181.127C159.657 181.397 160.003 181.771 160.247 182.256C160.491 182.741 160.615 183.305 160.615 183.949C160.615 184.592 160.491 185.153 160.247 185.635C160.003 186.117 159.657 186.491 159.211 186.76C158.764 187.027 158.237 187.16 157.629 187.16ZM148.153 179.314H149.621V185.166C149.621 185.362 149.653 185.515 149.713 185.616C149.773 185.721 149.853 185.794 149.954 185.832C150.056 185.87 150.166 185.886 150.287 185.886C150.379 185.886 150.464 185.879 150.541 185.867C150.617 185.854 150.677 185.841 150.718 185.832L150.965 186.979C150.886 187.005 150.775 187.036 150.629 187.068C150.483 187.1 150.309 187.119 150.1 187.125C149.732 187.135 149.399 187.081 149.105 186.957C148.81 186.833 148.578 186.643 148.407 186.383C148.233 186.123 148.15 185.797 148.153 185.407V179.314ZM150.851 180.807V181.942H147.269V180.807H150.851ZM143.868 187.16C143.243 187.16 142.711 187.024 142.267 186.751C141.82 186.478 141.477 186.101 141.24 185.616C140.999 185.134 140.881 184.576 140.881 183.949C140.881 183.315 141.002 182.757 141.246 182.269C141.49 181.784 141.832 181.406 142.279 181.134C142.723 180.861 143.249 180.725 143.858 180.725C144.365 180.725 144.812 180.82 145.202 181.004C145.595 181.188 145.906 181.451 146.137 181.787C146.372 182.123 146.505 182.516 146.537 182.966H145.132C145.075 182.665 144.942 182.414 144.73 182.211C144.517 182.012 144.232 181.91 143.88 181.91C143.579 181.91 143.316 181.99 143.088 182.151C142.86 182.313 142.685 182.544 142.558 182.842C142.432 183.143 142.368 183.505 142.368 183.923C142.368 184.348 142.432 184.713 142.555 185.017C142.679 185.321 142.856 185.556 143.081 185.718C143.307 185.882 143.573 185.965 143.88 185.965C144.096 185.965 144.289 185.924 144.46 185.841C144.632 185.759 144.777 185.638 144.895 185.48C145.009 185.324 145.088 185.134 145.132 184.909H146.537C146.502 185.35 146.372 185.74 146.147 186.079C145.922 186.418 145.617 186.684 145.231 186.875C144.844 187.065 144.388 187.16 143.868 187.16ZM138.177 184.418V180.807H139.648V187.039H138.222V185.933H138.158C138.016 186.282 137.788 186.567 137.467 186.789C137.144 187.011 136.751 187.122 136.282 187.122C135.876 187.122 135.515 187.03 135.201 186.846C134.89 186.665 134.646 186.399 134.469 186.047C134.294 185.699 134.205 185.274 134.205 184.776V180.807H135.673V184.548C135.673 184.944 135.784 185.258 136 185.489C136.215 185.721 136.501 185.838 136.852 185.838C137.068 185.838 137.277 185.784 137.48 185.679C137.683 185.575 137.851 185.416 137.981 185.207C138.114 184.998 138.177 184.735 138.177 184.418ZM129.736 185.943C130.046 185.943 130.313 185.86 130.531 185.689C130.75 185.521 130.915 185.286 131.029 184.982C131.143 184.678 131.2 184.326 131.2 183.923C131.2 183.521 131.143 183.169 131.032 182.871C130.921 182.576 130.753 182.345 130.538 182.18C130.319 182.015 130.053 181.929 129.736 181.929C129.409 181.929 129.137 182.015 128.915 182.186C128.696 182.357 128.531 182.592 128.42 182.893C128.309 183.194 128.255 183.537 128.255 183.923C128.255 184.313 128.309 184.659 128.423 184.963C128.534 185.267 128.702 185.508 128.921 185.683C129.143 185.857 129.412 185.943 129.736 185.943ZM129.327 187.15C128.835 187.15 128.398 187.024 128.011 186.773C127.624 186.52 127.32 186.155 127.095 185.676C126.87 185.198 126.756 184.614 126.756 183.933C126.756 183.239 126.87 182.655 127.101 182.177C127.33 181.698 127.637 181.337 128.027 181.092C128.417 180.848 128.851 180.725 129.33 180.725C129.694 180.725 129.996 180.788 130.23 180.912C130.465 181.032 130.652 181.181 130.791 181.352C130.928 181.524 131.035 181.685 131.111 181.837H131.172V178.731H132.646V187.039H131.2V186.057H131.111C131.035 186.209 130.924 186.371 130.782 186.539C130.639 186.707 130.449 186.852 130.214 186.97C129.98 187.09 129.682 187.15 129.327 187.15ZM122.8 185.984C123.129 185.984 123.405 185.892 123.627 185.711C123.849 185.527 124.017 185.283 124.125 184.973C124.236 184.665 124.29 184.323 124.29 183.942C124.29 183.562 124.236 183.216 124.125 182.906C124.017 182.598 123.849 182.351 123.627 182.167C123.405 181.983 123.129 181.891 122.8 181.891C122.464 181.891 122.182 181.983 121.96 182.167C121.735 182.351 121.57 182.598 121.459 182.906C121.351 183.216 121.294 183.562 121.294 183.942C121.294 184.323 121.351 184.665 121.459 184.973C121.57 185.283 121.735 185.527 121.96 185.711C122.182 185.892 122.464 185.984 122.8 185.984ZM122.793 187.16C122.185 187.16 121.655 187.027 121.208 186.76C120.765 186.491 120.419 186.117 120.172 185.635C119.928 185.153 119.807 184.592 119.807 183.949C119.807 183.305 119.928 182.741 120.172 182.256C120.419 181.771 120.765 181.397 121.208 181.127C121.655 180.861 122.185 180.725 122.793 180.725C123.402 180.725 123.928 180.861 124.375 181.127C124.822 181.397 125.168 181.771 125.412 182.256C125.656 182.741 125.779 183.305 125.779 183.949C125.779 184.592 125.656 185.153 125.412 185.635C125.168 186.117 124.822 186.491 124.375 186.76C123.928 187.027 123.402 187.16 122.793 187.16ZM115.807 187.039V180.807H117.23V181.847H117.297C117.411 181.486 117.604 181.207 117.883 181.013C118.159 180.817 118.476 180.718 118.834 180.718C118.916 180.718 119.005 180.722 119.107 180.728C119.208 180.734 119.294 180.744 119.36 180.76V182.11C119.3 182.088 119.202 182.069 119.069 182.05C118.932 182.034 118.805 182.024 118.679 182.024C118.412 182.024 118.171 182.082 117.959 182.196C117.747 182.313 117.579 182.471 117.458 182.674C117.338 182.877 117.274 183.112 117.274 183.375V187.039H115.807ZM108.531 187.039V178.731H111.648C112.285 178.731 112.82 178.848 113.255 179.086C113.689 179.324 114.019 179.65 114.241 180.065C114.466 180.481 114.577 180.953 114.577 181.479C114.577 182.015 114.463 182.487 114.241 182.899C114.016 183.315 113.683 183.641 113.245 183.876C112.808 184.114 112.266 184.231 111.625 184.231H109.562V182.994H111.422C111.797 182.994 112.101 182.928 112.339 182.798C112.58 182.668 112.754 182.49 112.871 182.262C112.985 182.037 113.042 181.774 113.042 181.479C113.042 181.184 112.985 180.924 112.871 180.703C112.754 180.477 112.576 180.303 112.339 180.176C112.098 180.05 111.79 179.986 111.416 179.986H110.034V187.039H108.531Z" fill="white"/>
<path d="M169.383 203.111H172.642V216.092C172.642 216.53 172.708 216.866 172.845 217.097C172.978 217.326 173.158 217.484 173.38 217.57C173.602 217.652 173.849 217.693 174.119 217.693C174.322 217.693 174.509 217.681 174.68 217.649C174.851 217.62 174.981 217.592 175.073 217.57L175.621 220.115C175.447 220.175 175.2 220.242 174.88 220.315C174.556 220.388 174.166 220.429 173.704 220.442C172.889 220.464 172.153 220.34 171.497 220.068C170.844 219.795 170.328 219.37 169.944 218.793C169.564 218.216 169.377 217.497 169.383 216.631V203.111ZM175.371 206.424V208.944H167.421V206.424H175.371ZM165.474 210.079L162.504 210.402C162.418 210.101 162.272 209.819 162.066 209.556C161.86 209.293 161.581 209.08 161.233 208.916C160.887 208.754 160.459 208.675 159.955 208.675C159.277 208.675 158.709 208.82 158.25 209.115C157.79 209.41 157.565 209.79 157.568 210.26C157.565 210.659 157.711 210.989 158.015 211.239C158.319 211.493 158.82 211.699 159.524 211.86L161.883 212.365C163.192 212.647 164.165 213.094 164.802 213.705C165.443 214.317 165.766 215.119 165.772 216.111C165.766 216.98 165.512 217.747 165.011 218.41C164.511 219.072 163.813 219.592 162.926 219.963C162.038 220.337 161.017 220.521 159.866 220.521C158.174 220.521 156.811 220.166 155.777 219.456C154.747 218.743 154.132 217.75 153.932 216.479L157.112 216.172C157.254 216.796 157.562 217.269 158.028 217.586C158.497 217.906 159.106 218.064 159.857 218.064C160.63 218.064 161.255 217.906 161.724 217.586C162.196 217.269 162.431 216.875 162.431 216.406C162.431 216.01 162.279 215.684 161.978 215.427C161.673 215.167 161.204 214.97 160.567 214.831L158.209 214.336C156.883 214.06 155.901 213.594 155.264 212.938C154.63 212.279 154.313 211.445 154.319 210.437C154.313 209.588 154.547 208.846 155.016 208.218C155.489 207.59 156.145 207.105 156.988 206.76C157.831 206.414 158.808 206.243 159.911 206.243C161.531 206.243 162.808 206.589 163.74 207.28C164.675 207.968 165.252 208.903 165.474 210.079ZM149.811 201.815V220.252H146.47V205.064H146.362L142.051 207.819V204.756L146.632 201.815H149.811Z" fill="white"/>
<path d="M180.616 139.005C180.002 139.005 179.477 138.871 179.041 138.602C178.601 138.334 178.264 137.963 178.03 137.486C177.793 137.011 177.678 136.462 177.678 135.845C177.678 135.221 177.796 134.672 178.036 134.192C178.277 133.714 178.613 133.343 179.053 133.075C179.49 132.807 180.008 132.673 180.607 132.673C181.106 132.673 181.546 132.766 181.929 132.947C182.316 133.128 182.622 133.387 182.849 133.717C183.08 134.048 183.211 134.435 183.242 134.878H181.861C181.804 134.582 181.673 134.335 181.464 134.135C181.255 133.939 180.975 133.839 180.628 133.839C180.332 133.839 180.073 133.917 179.849 134.076C179.624 134.235 179.453 134.463 179.328 134.756C179.203 135.053 179.141 135.408 179.141 135.82C179.141 136.238 179.203 136.597 179.325 136.896C179.446 137.195 179.621 137.426 179.842 137.585C180.064 137.748 180.326 137.829 180.628 137.829C180.841 137.829 181.031 137.788 181.199 137.707C181.368 137.626 181.511 137.507 181.627 137.351C181.739 137.199 181.817 137.011 181.861 136.79H183.242C183.208 137.224 183.08 137.607 182.859 137.941C182.637 138.275 182.338 138.537 181.957 138.724C181.577 138.911 181.128 139.005 180.616 139.005ZM172.537 135.293V138.886H171.093V132.754H172.475V133.795H172.546C172.687 133.452 172.915 133.178 173.223 132.978C173.532 132.775 173.916 132.673 174.374 132.673C174.799 132.673 175.167 132.763 175.482 132.944C175.8 133.125 176.043 133.387 176.218 133.733C176.393 134.076 176.477 134.491 176.477 134.981V138.886H175.029V135.205C175.029 134.794 174.923 134.475 174.711 134.242C174.502 134.011 174.209 133.895 173.835 133.895C173.582 133.895 173.357 133.951 173.164 134.061C172.968 134.173 172.815 134.332 172.706 134.538C172.593 134.747 172.537 134.996 172.537 135.293ZM169.549 130.711V138.886H168.07V130.711H169.549ZM161.276 139.005C160.662 139.005 160.132 138.877 159.686 138.621C159.24 138.365 158.9 138 158.659 137.526C158.419 137.055 158.301 136.497 158.301 135.854C158.301 135.224 158.419 134.672 158.659 134.192C158.903 133.714 159.24 133.343 159.673 133.075C160.107 132.807 160.615 132.673 161.202 132.673C161.579 132.673 161.938 132.735 162.275 132.857C162.612 132.975 162.908 133.162 163.17 133.415C163.429 133.668 163.632 133.992 163.781 134.382C163.931 134.772 164.006 135.233 164.006 135.773V136.216H158.978V135.24H162.621C162.618 134.965 162.559 134.716 162.44 134.5C162.321 134.282 162.159 134.114 161.95 133.986C161.741 133.861 161.498 133.799 161.223 133.799C160.927 133.799 160.668 133.87 160.444 134.014C160.219 134.154 160.047 134.341 159.923 134.572C159.798 134.803 159.736 135.056 159.732 135.33V136.179C159.732 136.537 159.798 136.84 159.929 137.096C160.06 137.348 160.241 137.545 160.475 137.679C160.709 137.813 160.983 137.879 161.298 137.879C161.507 137.879 161.698 137.851 161.869 137.791C162.041 137.729 162.187 137.642 162.312 137.526C162.437 137.408 162.53 137.261 162.596 137.089L163.947 137.242C163.859 137.598 163.697 137.91 163.46 138.175C163.223 138.437 162.917 138.643 162.549 138.789C162.178 138.933 161.754 139.005 161.276 139.005ZM148.481 138.886V132.754H149.863V133.795H149.935C150.063 133.443 150.275 133.169 150.571 132.972C150.864 132.772 151.217 132.673 151.629 132.673C152.043 132.673 152.393 132.775 152.68 132.975C152.967 133.175 153.166 133.449 153.285 133.795H153.347C153.485 133.455 153.715 133.184 154.037 132.978C154.361 132.775 154.745 132.673 155.188 132.673C155.752 132.673 156.214 132.85 156.57 133.209C156.928 133.565 157.106 134.086 157.106 134.769V138.886H155.656V134.993C155.656 134.613 155.556 134.335 155.353 134.157C155.15 133.98 154.904 133.892 154.611 133.892C154.261 133.892 153.99 133.998 153.793 134.217C153.597 134.435 153.5 134.716 153.5 135.062V138.886H152.084V134.934C152.084 134.616 151.987 134.363 151.797 134.176C151.607 133.986 151.36 133.892 151.052 133.892C150.846 133.892 150.655 133.945 150.487 134.048C150.315 134.154 150.181 134.301 150.078 134.491C149.978 134.681 149.925 134.903 149.925 135.155V138.886H148.481ZM144.673 139.005C144.058 139.005 143.534 138.871 143.097 138.602C142.658 138.334 142.321 137.963 142.087 137.486C141.85 137.011 141.734 136.462 141.734 135.845C141.734 135.221 141.853 134.672 142.093 134.192C142.333 133.714 142.67 133.343 143.11 133.075C143.547 132.807 144.064 132.673 144.663 132.673C145.162 132.673 145.602 132.766 145.986 132.947C146.373 133.128 146.678 133.387 146.906 133.717C147.137 134.048 147.268 134.435 147.299 134.878H145.917C145.861 134.582 145.73 134.335 145.521 134.135C145.312 133.939 145.031 133.839 144.685 133.839C144.389 133.839 144.13 133.917 143.905 134.076C143.681 134.235 143.509 134.463 143.384 134.756C143.26 135.053 143.197 135.408 143.197 135.82C143.197 136.238 143.26 136.597 143.381 136.896C143.503 137.195 143.678 137.426 143.899 137.585C144.12 137.748 144.382 137.829 144.685 137.829C144.897 137.829 145.087 137.788 145.256 137.707C145.424 137.626 145.568 137.507 145.683 137.351C145.796 137.199 145.874 137.011 145.917 136.79H147.299C147.265 137.224 147.137 137.607 146.915 137.941C146.694 138.275 146.394 138.537 146.014 138.724C145.633 138.911 145.184 139.005 144.673 139.005ZM135.227 135.68H139.538V136.871H135.227V135.68ZM135.174 138.886H133.593L136.472 130.711H138.3L141.185 138.886H139.604L137.42 132.386H137.355L135.174 138.886Z" fill="white"/>
<mask id="mask1_8_2707" style="mask-type:luminance" maskUnits="userSpaceOnUse" x="131" y="71" width="55" height="55">
<path d="M131.363 71.2856H185.638V125.561H131.363V71.2856Z" fill="white"/>
</mask>
<g mask="url(#mask1_8_2707)">
<g filter="url(#filter0_f_8_2707)">
<path d="M177.216 88.3138V108.277C177.216 113.097 173.303 117.011 168.482 117.011H148.519C143.699 117.011 139.785 113.097 139.785 108.277V88.3138C139.785 83.4935 143.699 79.5798 148.519 79.5798H168.482C173.303 79.5798 177.216 83.4935 177.216 88.3138Z" fill="#1560FB"/>
<path d="M177.216 88.3138V108.277C177.216 113.097 173.303 117.011 168.482 117.011H148.519C143.699 117.011 139.785 113.097 139.785 108.277V88.3138C139.785 83.4935 143.699 79.5798 148.519 79.5798H168.482C173.303 79.5798 177.216 83.4935 177.216 88.3138Z" stroke="white" stroke-width="1.2464"/>
<path d="M161.218 87.457C161.531 87.6319 161.686 88.0057 161.593 88.3524C160.901 90.8865 160.212 93.4186 159.521 95.9528C162.043 95.9528 164.567 95.9528 167.09 95.9528C167.691 95.9528 168.068 96.5983 167.767 97.1189C167.736 97.1699 167.703 97.2209 167.663 97.2646C164.019 101.169 160.374 105.073 156.73 108.978C156.321 109.417 155.584 109.25 155.408 108.676C155.364 108.534 155.369 108.381 155.408 108.238C156.1 105.704 156.789 103.172 157.48 100.638C154.957 100.638 152.434 100.638 149.911 100.638C149.31 100.638 148.933 99.982 149.234 99.4615C149.264 99.4104 149.298 99.3698 149.338 99.3261C152.982 95.4218 156.626 91.5175 160.27 87.6131C160.515 87.3508 160.904 87.2821 161.218 87.457Z" fill="white"/>
</g>
</g>
</g>
<defs>
<filter id="filter0_f_8_2707" x="136.666" y="76.4606" width="43.67" height="43.6699" filterUnits="userSpaceOnUse" color-interpolation-filters="sRGB">
<feFlood flood-opacity="0" result="BackgroundImageFix"/>
<feBlend mode="normal" in="SourceGraphic" in2="BackgroundImageFix" result="shape"/>
<feGaussianBlur stdDeviation="1.2464" result="effect1_foregroundBlur_8_2707"/>
</filter>
</defs>
</svg>
