<svg width="317" height="317" viewBox="0 0 317 317" fill="none" xmlns="http://www.w3.org/2000/svg">
<mask id="mask0_8_2936" style="mask-type:luminance" maskUnits="userSpaceOnUse" x="0" y="0" width="317" height="317">
<path d="M317 0H0V317H317V0Z" fill="white"/>
</mask>
<g mask="url(#mask0_8_2936)">
<mask id="mask1_8_2936" style="mask-type:luminance" maskUnits="userSpaceOnUse" x="130" y="123" width="56" height="73">
<path d="M130.731 123.414H185.888V195.055H130.731V123.414Z" fill="white"/>
</mask>
<g mask="url(#mask1_8_2936)">
<path d="M180.785 192.235C180.16 192.235 179.627 192.099 179.184 191.826C178.737 191.553 178.394 191.176 178.157 190.691C177.916 190.209 177.798 189.651 177.798 189.024C177.798 188.39 177.919 187.832 178.163 187.344C178.407 186.859 178.749 186.481 179.196 186.209C179.64 185.936 180.166 185.8 180.775 185.8C181.282 185.8 181.729 185.895 182.119 186.079C182.512 186.263 182.823 186.526 183.054 186.862C183.289 187.198 183.422 187.591 183.454 188.041H182.049C181.992 187.74 181.859 187.49 181.647 187.287C181.434 187.087 181.149 186.985 180.797 186.985C180.496 186.985 180.233 187.065 180.005 187.226C179.776 187.388 179.602 187.619 179.475 187.917C179.349 188.219 179.285 188.58 179.285 188.998C179.285 189.423 179.349 189.788 179.472 190.092C179.596 190.396 179.773 190.631 179.998 190.793C180.223 190.957 180.49 191.04 180.797 191.04C181.013 191.04 181.206 190.999 181.377 190.916C181.548 190.834 181.694 190.713 181.812 190.555C181.926 190.4 182.005 190.209 182.049 189.984H183.454C183.419 190.425 183.289 190.815 183.064 191.154C182.839 191.493 182.534 191.759 182.148 191.95C181.761 192.14 181.304 192.235 180.785 192.235ZM172.574 188.463V192.114H171.107V185.882H172.511V186.941H172.584C172.726 186.592 172.958 186.313 173.272 186.111C173.586 185.905 173.975 185.8 174.441 185.8C174.873 185.8 175.247 185.892 175.567 186.076C175.89 186.26 176.137 186.526 176.315 186.878C176.492 187.226 176.578 187.648 176.578 188.146V192.114H175.107V188.374C175.107 187.955 174.999 187.632 174.784 187.394C174.571 187.16 174.273 187.043 173.893 187.043C173.636 187.043 173.408 187.1 173.211 187.211C173.012 187.325 172.856 187.486 172.745 187.696C172.631 187.908 172.574 188.162 172.574 188.463ZM169.537 183.806V192.114H168.035V183.806H169.537ZM161.131 192.235C160.506 192.235 159.967 192.105 159.514 191.845C159.061 191.585 158.715 191.214 158.471 190.732C158.227 190.254 158.107 189.686 158.107 189.033C158.107 188.393 158.227 187.832 158.471 187.344C158.718 186.859 159.061 186.481 159.501 186.209C159.942 185.936 160.459 185.8 161.055 185.8C161.438 185.8 161.803 185.863 162.145 185.987C162.488 186.107 162.789 186.298 163.055 186.554C163.318 186.811 163.524 187.141 163.676 187.537C163.828 187.933 163.904 188.402 163.904 188.951V189.401H158.794V188.409H162.497C162.494 188.13 162.434 187.876 162.313 187.658C162.193 187.436 162.028 187.264 161.815 187.134C161.603 187.008 161.356 186.944 161.077 186.944C160.776 186.944 160.513 187.017 160.284 187.163C160.056 187.306 159.882 187.496 159.755 187.73C159.628 187.965 159.565 188.222 159.562 188.501V189.363C159.562 189.727 159.628 190.035 159.761 190.295C159.894 190.552 160.078 190.751 160.316 190.888C160.554 191.024 160.833 191.091 161.153 191.091C161.365 191.091 161.559 191.062 161.733 191.002C161.907 190.938 162.056 190.85 162.183 190.732C162.31 190.612 162.405 190.463 162.472 190.289L163.844 190.444C163.755 190.805 163.591 191.122 163.35 191.392C163.109 191.658 162.798 191.867 162.424 192.016C162.047 192.162 161.616 192.235 161.131 192.235ZM148.128 192.114V185.882H149.532V186.941H149.605C149.735 186.583 149.95 186.304 150.251 186.104C150.549 185.901 150.908 185.8 151.326 185.8C151.748 185.8 152.103 185.905 152.394 186.107C152.686 186.31 152.889 186.589 153.009 186.941H153.073C153.212 186.596 153.447 186.32 153.773 186.111C154.103 185.905 154.493 185.8 154.943 185.8C155.517 185.8 155.986 185.981 156.347 186.345C156.712 186.707 156.893 187.236 156.893 187.93V192.114H155.418V188.158C155.418 187.772 155.317 187.49 155.111 187.309C154.905 187.128 154.655 187.039 154.357 187.039C154.002 187.039 153.726 187.147 153.526 187.369C153.326 187.591 153.228 187.876 153.228 188.228V192.114H151.789V188.098C151.789 187.775 151.691 187.518 151.497 187.328C151.304 187.134 151.053 187.039 150.74 187.039C150.53 187.039 150.337 187.093 150.166 187.198C149.992 187.306 149.855 187.455 149.751 187.648C149.649 187.841 149.595 188.066 149.595 188.323V192.114H148.128ZM144.257 192.235C143.633 192.235 143.1 192.099 142.656 191.826C142.209 191.553 141.867 191.176 141.629 190.691C141.388 190.209 141.271 189.651 141.271 189.024C141.271 188.39 141.391 187.832 141.636 187.344C141.88 186.859 142.222 186.481 142.669 186.209C143.113 185.936 143.639 185.8 144.248 185.8C144.755 185.8 145.202 185.895 145.592 186.079C145.985 186.263 146.295 186.526 146.527 186.862C146.761 187.198 146.894 187.591 146.926 188.041H145.522C145.465 187.74 145.332 187.49 145.119 187.287C144.907 187.087 144.622 186.985 144.27 186.985C143.969 186.985 143.705 187.065 143.477 187.226C143.249 187.388 143.075 187.619 142.948 187.917C142.821 188.219 142.758 188.58 142.758 188.998C142.758 189.423 142.821 189.788 142.945 190.092C143.068 190.396 143.246 190.631 143.471 190.793C143.696 190.957 143.962 191.04 144.27 191.04C144.485 191.04 144.679 190.999 144.85 190.916C145.021 190.834 145.167 190.713 145.284 190.555C145.398 190.4 145.477 190.209 145.522 189.984H146.926C146.891 190.425 146.761 190.815 146.536 191.154C146.311 191.493 146.007 191.759 145.62 191.95C145.233 192.14 144.777 192.235 144.257 192.235ZM134.658 188.856H139.039V190.067H134.658V188.856ZM134.605 192.114H132.997L135.923 183.806H137.781L140.713 192.114H139.106L136.887 185.508H136.82L134.605 192.114Z" fill="white"/>
<mask id="mask2_8_2936" style="mask-type:luminance" maskUnits="userSpaceOnUse" x="130" y="123" width="56" height="56">
<path d="M130.731 123.414H185.888V178.572H130.731V123.414Z" fill="white"/>
</mask>
<g mask="url(#mask2_8_2936)">
<g filter="url(#filter0_f_8_2936)">
<path d="M177.329 140.719V161.007C177.329 165.906 173.352 169.883 168.453 169.883H148.166C143.267 169.883 139.29 165.906 139.29 161.007V140.719C139.29 135.821 143.267 131.843 148.166 131.843H168.453C173.352 131.843 177.329 135.821 177.329 140.719Z" fill="#1560FB"/>
<path d="M177.329 140.719V161.007C177.329 165.906 173.352 169.883 168.453 169.883H148.166C143.267 169.883 139.29 165.906 139.29 161.007V140.719C139.29 135.821 143.267 131.843 148.166 131.843H168.453C173.352 131.843 177.329 135.821 177.329 140.719Z" stroke="white" stroke-width="1.26664"/>
<path d="M161.071 139.849C161.39 140.026 161.547 140.406 161.452 140.758C160.75 143.334 160.049 145.907 159.347 148.482C161.91 148.482 164.475 148.482 167.039 148.482C167.649 148.482 168.032 149.138 167.726 149.667C167.696 149.719 167.662 149.771 167.621 149.816C163.917 153.783 160.214 157.751 156.511 161.719C156.095 162.165 155.346 161.996 155.167 161.412C155.123 161.268 155.127 161.113 155.167 160.968C155.87 158.392 156.57 155.819 157.273 153.244C154.709 153.244 152.144 153.244 149.581 153.244C148.97 153.244 148.587 152.577 148.893 152.048C148.923 151.996 148.957 151.955 148.999 151.911C152.702 147.943 156.405 143.975 160.108 140.007C160.357 139.741 160.753 139.671 161.071 139.849Z" fill="white"/>
</g>
</g>
</g>
<mask id="mask3_8_2936" style="mask-type:luminance" maskUnits="userSpaceOnUse" x="166" y="65" width="177" height="166">
<path d="M166.452 65.0832H342.903V230.963H166.452V65.0832Z" fill="white"/>
</mask>
<g mask="url(#mask3_8_2936)">
<mask id="mask4_8_2936" style="mask-type:alpha" maskUnits="userSpaceOnUse" x="226" y="129" width="43" height="38">
<path d="M268.329 165.924C265.847 168.779 254.613 163.052 243.211 153.163C231.833 143.273 224.597 132.921 227.079 130.066C229.561 127.211 240.794 132.938 252.196 142.827C263.576 152.742 270.786 163.07 268.329 165.924Z" fill="black"/>
</mask>
<g mask="url(#mask4_8_2936)">
<path d="M268.329 165.924C265.845 168.781 254.613 163.052 243.211 153.163C231.834 143.273 224.595 132.923 227.079 130.066C229.563 127.209 240.794 132.938 252.196 142.827C263.576 152.742 270.788 163.069 268.329 165.924Z" fill="url(#paint0_linear_8_2936)"/>
<path d="M268.329 165.924C265.845 168.781 254.613 163.052 243.211 153.163C231.834 143.273 224.595 132.923 227.079 130.066C229.563 127.209 240.794 132.938 252.196 142.827C263.576 152.742 270.788 163.069 268.329 165.924Z" stroke="url(#paint1_linear_8_2936)" stroke-width="6.49812"/>
</g>
<path d="M267.297 164.227C265.412 166.396 255.286 160.68 244.697 151.453C234.109 142.226 227.017 133.02 228.903 130.852C230.788 128.683 240.914 134.399 251.502 143.625C262.091 152.852 269.182 162.058 267.297 164.227Z" fill="url(#paint2_linear_8_2936)"/>
<path d="M312.068 133.145C312.61 133.145 313.044 132.71 313.044 132.169C313.044 131.627 312.61 131.185 312.068 131.185C311.527 131.185 311.084 131.627 311.084 132.169C311.084 132.71 311.527 133.145 312.068 133.145Z" fill="url(#paint3_linear_8_2936)"/>
<path d="M276.914 99.0916C277.455 99.0916 277.889 98.6574 277.889 98.1159C277.889 97.5743 277.455 97.132 276.914 97.132C276.372 97.132 275.93 97.5743 275.93 98.1159C275.93 98.6574 276.372 99.0916 276.914 99.0916Z" fill="url(#paint4_linear_8_2936)"/>
<path d="M256.496 111.011C257.037 111.011 257.471 110.577 257.471 110.035C257.471 109.494 257.037 109.051 256.496 109.051C255.954 109.051 255.512 109.494 255.512 110.035C255.512 110.577 255.954 111.011 256.496 111.011Z" fill="url(#paint5_linear_8_2936)"/>
<path d="M284.334 128.727C284.875 128.727 285.309 128.293 285.309 127.752C285.309 127.21 284.875 126.768 284.334 126.768C283.792 126.768 283.35 127.21 283.35 127.752C283.35 128.293 283.792 128.727 284.334 128.727Z" fill="url(#paint6_linear_8_2936)"/>
<path d="M309.682 124.008C310.223 124.008 310.658 123.574 310.658 123.033C310.658 122.491 310.223 122.049 309.682 122.049C309.141 122.049 308.698 122.491 308.698 123.033C308.698 123.574 309.141 124.008 309.682 124.008Z" fill="url(#paint7_linear_8_2936)"/>
<path d="M296.297 149.784C296.839 149.784 297.273 149.35 297.273 148.809C297.273 148.267 296.839 147.825 296.297 147.825C295.756 147.825 295.314 148.267 295.314 148.809C295.314 149.35 295.756 149.784 296.297 149.784Z" fill="url(#paint8_linear_8_2936)"/>
<path d="M312.96 113.448C313.501 113.448 313.944 113.014 313.944 112.472C313.944 111.931 313.501 111.489 312.96 111.489C312.419 111.489 311.984 111.931 311.984 112.472C311.984 113.014 312.419 113.448 312.96 113.448Z" fill="url(#paint9_linear_8_2936)"/>
<path d="M294.435 113.528C294.976 113.528 295.41 113.093 295.41 112.552C295.41 112.01 294.976 111.568 294.435 111.568C293.893 111.568 293.451 112.01 293.451 112.552C293.451 113.093 293.893 113.528 294.435 113.528Z" fill="url(#paint10_linear_8_2936)"/>
<path d="M298.095 103.524C298.636 103.524 299.07 103.089 299.07 102.548C299.07 102.006 298.636 101.564 298.095 101.564C297.553 101.564 297.111 102.006 297.111 102.548C297.111 103.089 297.553 103.524 298.095 103.524Z" fill="url(#paint11_linear_8_2936)"/>
<mask id="mask5_8_2936" style="mask-type:alpha" maskUnits="userSpaceOnUse" x="225" y="144" width="112" height="41">
<path d="M326.922 146.133C330.249 146.219 333.297 146.416 336.024 146.665M226.429 183.476C233.882 176.998 241.372 171.598 248.779 167.107" stroke="black" stroke-width="3.24906"/>
</mask>
<g mask="url(#mask5_8_2936)">
<mask id="mask6_8_2936" style="mask-type:luminance" maskUnits="userSpaceOnUse" x="219" y="137" width="124" height="54">
<path d="M219.274 137.387H342.87V190.241H219.274V137.387Z" fill="white"/>
</mask>
<g mask="url(#mask6_8_2936)">
<path d="M419.322 11.0421V307.837H122.527V11.0421H419.322Z" fill="url(#paint12_radial_8_2936)"/>
</g>
</g>
<mask id="mask7_8_2936" style="mask-type:alpha" maskUnits="userSpaceOnUse" x="217" y="78" width="59" height="98">
<path d="M273.467 100.729C273.37 93.8145 271.798 86.7467 269.038 79.1992M218.152 174.198C221.483 171.705 224.644 169.276 227.638 166.905" stroke="black" stroke-width="3.24906"/>
</mask>
<g mask="url(#mask7_8_2936)">
<mask id="mask8_8_2936" style="mask-type:luminance" maskUnits="userSpaceOnUse" x="211" y="72" width="77" height="110">
<path d="M211.142 72.3364H287.577V181.297H211.142V72.3364Z" fill="white"/>
</mask>
<g mask="url(#mask8_8_2936)">
<path d="M402.197 -0.911011V300.649H100.637V-0.911011H402.197Z" fill="url(#paint13_radial_8_2936)"/>
</g>
</g>
<mask id="mask9_8_2936" style="mask-type:alpha" maskUnits="userSpaceOnUse" x="224" y="89" width="20" height="90">
<path d="M242.509 96.1735C241.221 94.1609 239.722 92.2411 238 90.4286M225.51 177.418C230.262 171.363 234.548 164.787 238.115 157.978" stroke="black" stroke-width="3.24906"/>
</mask>
<g mask="url(#mask9_8_2936)">
<mask id="mask10_8_2936" style="mask-type:luminance" maskUnits="userSpaceOnUse" x="218" y="83" width="48" height="102">
<path d="M218.461 83.7204H265.623V184.549H218.461V83.7204Z" fill="white"/>
</mask>
<g mask="url(#mask10_8_2936)">
<path d="M391.248 -31.3263V247.832H112.09V-31.3263H391.248Z" fill="url(#paint14_radial_8_2936)"/>
</g>
</g>
<path d="M271.422 147.554C272.639 146.842 273.728 145.91 274.688 144.754C275.992 143.186 277.533 142.027 279.309 141.276" stroke="url(#paint15_linear_8_2936)" stroke-width="3.24906"/>
<path d="M243.834 124.818C244.023 124.458 244.233 124.103 244.467 123.752C245.781 121.77 246.383 119.663 246.269 117.429" stroke="url(#paint16_linear_8_2936)" stroke-width="3.24906"/>
<mask id="mask11_8_2936" style="mask-type:luminance" maskUnits="userSpaceOnUse" x="166" y="94" width="137" height="137">
<path d="M166.706 103.533L294.057 94.6277L302.963 221.979L175.611 230.884L166.706 103.533Z" fill="white"/>
</mask>
<g mask="url(#mask11_8_2936)">
<g filter="url(#filter1_f_8_2936)">
<path d="M215.846 194.992C215.846 194.992 257.698 171.905 267.897 166.288C261.919 168.672 228.726 144.544 226.77 130.544C220.254 147.697 205.595 186.058 205.595 186.058C205.297 186.942 204.18 190.488 208.106 193.52C212.359 196.793 215.013 195.41 215.846 194.992Z" fill="url(#paint17_linear_8_2936)"/>
</g>
</g>
<path d="M222.187 142.529L218.789 151.513C217.72 154.727 242.177 176.183 254.947 173.421L267.889 166.289C252.545 174.717 220.529 146.91 222.187 142.529Z" fill="url(#paint18_linear_8_2936)"/>
<path d="M215.32 160.649L214.525 162.693L211.852 169.686C212.015 172.358 226.73 185.129 235.318 184.241L245.89 178.424C234.207 181.302 214.163 163.629 215.32 160.649Z" fill="url(#paint19_linear_8_2936)"/>
<path d="M205.818 185.514C207.122 187.723 213.115 192.913 217.856 193.899L229.025 187.746L229.095 187.693C222.218 191.456 209.354 180.188 208.942 177.389L205.818 185.514Z" fill="url(#paint20_linear_8_2936)"/>
<mask id="mask12_8_2936" style="mask-type:alpha" maskUnits="userSpaceOnUse" x="205" y="130" width="63" height="66">
<g opacity="0.75">
<path d="M215.846 194.993C215.846 194.993 255.225 173.26 267.897 166.288C258.581 167.506 227.242 140.931 226.77 130.544C221.5 144.385 205.595 186.059 205.595 186.059C205.297 186.942 204.18 190.488 208.106 193.521C212.359 196.793 215.013 195.41 215.846 194.993Z" fill="black"/>
</g>
</mask>
<g mask="url(#mask12_8_2936)">
<mask id="mask13_8_2936" style="mask-type:luminance" maskUnits="userSpaceOnUse" x="199" y="127" width="71" height="71">
<path d="M199.685 132.201L265.388 127.607L269.982 193.31L204.279 197.904L199.685 132.201Z" fill="white"/>
</mask>
<g mask="url(#mask13_8_2936)">
<g opacity="0.75">
<path d="M259.883 294.906L61.2008 199.713L156.408 0.999719L355.091 96.1928L259.883 294.906Z" fill="url(#paint21_radial_8_2936)"/>
</g>
</g>
</g>
<mask id="mask14_8_2936" style="mask-type:alpha" maskUnits="userSpaceOnUse" x="205" y="130" width="63" height="66">
<g opacity="0.75">
<path d="M215.846 194.993C215.846 194.993 262.025 169.525 267.897 166.288C260.867 169.86 224.64 141.494 226.77 130.544C223.788 138.364 205.595 186.059 205.595 186.059C205.297 186.942 204.18 190.488 208.106 193.521C212.359 196.793 215.013 195.41 215.846 194.993Z" fill="black"/>
</g>
</mask>
<g mask="url(#mask14_8_2936)">
<mask id="mask15_8_2936" style="mask-type:luminance" maskUnits="userSpaceOnUse" x="199" y="127" width="71" height="71">
<path d="M199.685 132.201L265.388 127.607L269.982 193.31L204.279 197.904L199.685 132.201Z" fill="white"/>
</mask>
<g mask="url(#mask15_8_2936)">
<g opacity="0.75">
<path d="M178.619 355.19L18.8844 102.515L271.541 -57.2074L431.275 195.468L178.619 355.19Z" fill="url(#paint22_radial_8_2936)"/>
</g>
</g>
</g>
<path d="M228.845 129.331C228.835 129.343 228.826 129.354 228.815 129.366C227.738 130.429 228.084 132.206 229.466 134.48C231.562 138.511 237.263 144.975 244.689 151.446C253.488 159.114 261.977 164.352 265.673 164.659C266.856 164.81 267.893 164.642 268.772 164.1C268.779 164.091 268.779 164.083 268.786 164.074C268.852 164.851 268.703 165.471 268.32 165.916C265.836 168.773 254.605 163.044 243.202 153.156C231.825 143.265 224.587 132.916 227.07 130.059C227.459 129.612 228.063 129.375 228.845 129.331Z" fill="url(#paint23_linear_8_2936)"/>
</g>
<mask id="mask16_8_2936" style="mask-type:luminance" maskUnits="userSpaceOnUse" x="-22" y="65" width="177" height="166">
<path d="M154.499 65.0832H-21.9512V230.963H154.499V65.0832Z" fill="white"/>
</mask>
<g mask="url(#mask16_8_2936)">
<mask id="mask17_8_2936" style="mask-type:alpha" maskUnits="userSpaceOnUse" x="52" y="129" width="43" height="38">
<path d="M52.6232 165.924C55.1053 168.779 66.3386 163.052 77.7407 153.163C89.1184 143.273 96.355 132.921 93.8729 130.066C91.3909 127.211 80.1575 132.938 68.7555 142.827C57.3761 152.742 50.1655 163.07 52.6232 165.924Z" fill="black"/>
</mask>
<g mask="url(#mask17_8_2936)">
<path d="M52.6232 165.924C55.1067 168.781 66.3385 163.052 77.7406 153.163C89.1183 143.273 96.3564 132.923 93.8728 130.066C91.3893 127.209 80.1575 132.938 68.7554 142.827C57.376 152.742 50.1639 163.069 52.6232 165.924Z" fill="url(#paint24_linear_8_2936)"/>
<path d="M52.6232 165.924C55.1067 168.781 66.3385 163.052 77.7406 153.163C89.1183 143.273 96.3564 132.923 93.8728 130.066C91.3893 127.209 80.1575 132.938 68.7554 142.827C57.376 152.742 50.1639 163.069 52.6232 165.924Z" stroke="url(#paint25_linear_8_2936)" stroke-width="6.49812"/>
</g>
<path d="M53.6548 164.227C55.5401 166.396 65.6657 160.68 76.2544 151.453C86.8432 142.226 93.9345 133.02 92.0492 130.852C90.1639 128.683 80.0383 134.399 69.4495 143.625C58.8608 152.852 51.7695 162.058 53.6548 164.227Z" fill="url(#paint26_linear_8_2936)"/>
<path d="M6.4858 133.09C5.94426 133.09 5.51005 132.656 5.51005 132.114C5.51005 131.573 5.94426 131.13 6.4858 131.13C7.02734 131.13 7.46968 131.573 7.46968 132.114C7.46968 132.656 7.02734 133.09 6.4858 133.09Z" fill="url(#paint27_linear_8_2936)"/>
<path d="M42.2923 95.6542C41.7507 95.6542 41.3165 95.22 41.3165 94.6785C41.3165 94.1369 41.7507 93.6946 42.2923 93.6946C42.8338 93.6946 43.2761 94.1369 43.2761 94.6785C43.2761 95.22 42.8338 95.6542 42.2923 95.6542Z" fill="url(#paint28_linear_8_2936)"/>
<path d="M64.0524 107.353C63.5109 107.353 63.0767 106.919 63.0767 106.377C63.0767 105.836 63.5109 105.393 64.0524 105.393C64.594 105.393 65.0363 105.836 65.0363 106.377C65.0363 106.919 64.594 107.353 64.0524 107.353Z" fill="url(#paint29_linear_8_2936)"/>
<path d="M33.7225 126.656C33.181 126.656 32.7468 126.222 32.7468 125.68C32.7468 125.139 33.181 124.696 33.7225 124.696C34.2641 124.696 34.7064 125.139 34.7064 125.68C34.7064 126.222 34.2641 126.656 33.7225 126.656Z" fill="url(#paint30_linear_8_2936)"/>
<path d="M8.88925 123.173C8.34853 123.173 7.9135 122.739 7.9135 122.198C7.9135 121.656 8.34853 121.214 8.88925 121.214C9.4308 121.214 9.87314 121.656 9.87314 122.198C9.87314 122.739 9.4308 123.173 8.88925 123.173Z" fill="url(#paint31_linear_8_2936)"/>
<path d="M21.6898 149.868C21.1483 149.868 20.7141 149.434 20.7141 148.892C20.7141 148.35 21.1483 147.908 21.6898 147.908C22.2314 147.908 22.6737 148.35 22.6737 148.892C22.6737 149.434 22.2314 149.868 21.6898 149.868Z" fill="url(#paint32_linear_8_2936)"/>
<path d="M4.61643 112.303C4.07489 112.303 3.63254 111.868 3.63254 111.327C3.63254 110.785 4.07489 110.343 4.61643 110.343C5.15716 110.343 5.59218 110.785 5.59218 111.327C5.59218 111.868 5.15716 112.303 4.61643 112.303Z" fill="url(#paint33_linear_8_2936)"/>
<path d="M22.621 110.427C22.0795 110.427 21.6453 109.993 21.6453 109.452C21.6453 108.91 22.0795 108.468 22.621 108.468C23.1626 108.468 23.6049 108.91 23.6049 109.452C23.6049 109.993 23.1626 110.427 22.621 110.427Z" fill="url(#paint34_linear_8_2936)"/>
<g opacity="0.991956">
<path d="M20.7917 102.2C20.2501 102.2 19.8159 101.766 19.8159 101.224C19.8159 100.683 20.2501 100.241 20.7917 100.241C21.3332 100.241 21.7756 100.683 21.7756 101.224C21.7756 101.766 21.3332 102.2 20.7917 102.2Z" fill="url(#paint35_linear_8_2936)"/>
</g>
<mask id="mask18_8_2936" style="mask-type:alpha" maskUnits="userSpaceOnUse" x="-16" y="144" width="112" height="41">
<path d="M-8.13355 146.205C-10.6274 146.308 -12.9473 146.471 -15.072 146.665M94.5225 183.476C86.4473 176.456 78.3265 170.702 70.3154 165.999" stroke="black" stroke-width="3.24906"/>
</mask>
<g mask="url(#mask18_8_2936)">
<mask id="mask19_8_2936" style="mask-type:luminance" maskUnits="userSpaceOnUse" x="-22" y="137" width="124" height="54">
<path d="M101.678 137.387H-21.9186V190.241H101.678V137.387Z" fill="white"/>
</mask>
<g mask="url(#mask19_8_2936)">
<path d="M-98.3697 11.0421V307.837H198.425V11.0421H-98.3697Z" fill="url(#paint36_radial_8_2936)"/>
</g>
</g>
<mask id="mask20_8_2936" style="mask-type:alpha" maskUnits="userSpaceOnUse" x="45" y="78" width="9" height="36">
<path d="M48.913 112.868C46.163 102.068 47.5046 91.3636 51.8134 79.4757" stroke="black" stroke-width="3.24906"/>
</mask>
<g mask="url(#mask20_8_2936)">
<mask id="mask21_8_2936" style="mask-type:luminance" maskUnits="userSpaceOnUse" x="33" y="72" width="77" height="110">
<path d="M109.809 72.3364H33.3746V181.297H109.809V72.3364Z" fill="white"/>
</mask>
<g mask="url(#mask21_8_2936)">
<path d="M-81.2452 -0.911011V300.649H220.315V-0.911011H-81.2452Z" fill="url(#paint37_radial_8_2936)"/>
</g>
</g>
<mask id="mask22_8_2936" style="mask-type:alpha" maskUnits="userSpaceOnUse" x="78" y="150" width="19" height="29">
<path d="M95.4415 177.418C89.1739 169.43 83.7129 160.534 79.6514 151.397" stroke="black" stroke-width="3.24906"/>
</mask>
<g mask="url(#mask22_8_2936)">
<mask id="mask23_8_2936" style="mask-type:luminance" maskUnits="userSpaceOnUse" x="55" y="83" width="48" height="102">
<path d="M102.491 83.7203H55.3293V184.549H102.491V83.7203Z" fill="white"/>
</mask>
<g mask="url(#mask23_8_2936)">
<path d="M-70.2962 -31.3263V247.832H208.862V-31.3263H-70.2962Z" fill="url(#paint38_radial_8_2936)"/>
</g>
</g>
<path d="M14.3664 125.519C12.8403 124.377 11.0834 123.636 9.09619 123.296C7.59114 123.037 6.22035 122.551 4.98138 121.834" stroke="url(#paint39_linear_8_2936)" stroke-width="3.24906"/>
<path d="M69.003 86.4603C68.6232 84.8709 68.6429 83.2105 69.0625 81.4816C69.3011 80.4994 69.4108 79.5398 69.3909 78.6038" stroke="url(#paint40_linear_8_2936)" stroke-width="3.24906"/>
<mask id="mask24_8_2936" style="mask-type:luminance" maskUnits="userSpaceOnUse" x="17" y="94" width="138" height="137">
<path d="M154.246 103.533L26.8945 94.6277L17.9892 221.979L145.341 230.884L154.246 103.533Z" fill="white"/>
</mask>
<g mask="url(#mask24_8_2936)">
<g filter="url(#filter2_f_8_2936)">
<path d="M105.106 194.992C105.106 194.992 63.2535 171.905 53.0547 166.288C59.0332 168.672 92.2261 144.544 94.1824 130.544C100.698 147.697 115.357 186.058 115.357 186.058C115.655 186.942 116.772 190.488 112.846 193.52C108.592 196.793 105.939 195.41 105.106 194.992Z" fill="url(#paint41_linear_8_2936)"/>
</g>
</g>
<path d="M98.7644 142.529L102.163 151.513C103.232 154.727 78.7745 176.183 66.0049 173.421L53.0625 166.289C68.4069 174.717 100.423 146.91 98.7644 142.529Z" fill="url(#paint42_linear_8_2936)"/>
<path d="M105.632 160.649L106.427 162.693L109.1 169.686C108.937 172.358 94.2223 185.129 85.6343 184.241L75.0616 178.424C86.7447 181.302 106.789 163.629 105.632 160.649Z" fill="url(#paint43_linear_8_2936)"/>
<path d="M115.134 185.514C113.83 187.723 107.837 192.913 103.096 193.899L91.9267 187.746L91.8571 187.693C98.7343 191.456 111.598 180.188 112.01 177.389L115.134 185.514Z" fill="url(#paint44_linear_8_2936)"/>
<mask id="mask25_8_2936" style="mask-type:alpha" maskUnits="userSpaceOnUse" x="53" y="130" width="63" height="66">
<g opacity="0.75">
<path d="M105.106 194.993C105.106 194.993 65.7264 173.26 53.0547 166.288C62.3711 167.506 93.7095 140.931 94.1824 130.544C99.4518 144.385 115.357 186.059 115.357 186.059C115.655 186.942 116.772 190.488 112.846 193.521C108.592 196.793 105.939 195.41 105.106 194.993Z" fill="black"/>
</g>
</mask>
<g mask="url(#mask25_8_2936)">
<mask id="mask26_8_2936" style="mask-type:luminance" maskUnits="userSpaceOnUse" x="50" y="127" width="72" height="71">
<path d="M121.267 132.201L55.564 127.607L50.9696 193.31L116.672 197.904L121.267 132.201Z" fill="white"/>
</mask>
<g mask="url(#mask26_8_2936)">
<g opacity="0.75">
<path d="M61.0685 294.906L259.751 199.713L164.543 0.999719L-34.1389 96.1928L61.0685 294.906Z" fill="url(#paint45_radial_8_2936)"/>
</g>
</g>
</g>
<mask id="mask27_8_2936" style="mask-type:alpha" maskUnits="userSpaceOnUse" x="53" y="130" width="63" height="66">
<g opacity="0.75">
<path d="M105.106 194.993C105.106 194.993 58.9271 169.525 53.0547 166.288C60.0847 169.86 96.3119 141.494 94.1824 130.544C97.1642 138.364 115.357 186.059 115.357 186.059C115.655 186.942 116.772 190.488 112.846 193.521C108.592 196.793 105.939 195.41 105.106 194.993Z" fill="black"/>
</g>
</mask>
<g mask="url(#mask27_8_2936)">
<mask id="mask28_8_2936" style="mask-type:luminance" maskUnits="userSpaceOnUse" x="50" y="127" width="72" height="71">
<path d="M121.267 132.201L55.564 127.607L50.9696 193.31L116.672 197.904L121.267 132.201Z" fill="white"/>
</mask>
<g mask="url(#mask28_8_2936)">
<g opacity="0.75">
<path d="M142.333 355.19L302.067 102.515L49.411 -57.2074L-110.323 195.468L142.333 355.19Z" fill="url(#paint46_radial_8_2936)"/>
</g>
</g>
</g>
<path d="M92.1067 129.331C92.1173 129.343 92.1263 129.354 92.1368 129.366C93.2134 130.429 92.8683 132.206 91.4858 134.48C89.3903 138.511 83.689 144.975 76.2632 151.446C67.4634 159.114 58.9754 164.352 55.2794 164.659C54.0958 164.81 53.0593 164.642 52.1803 164.1C52.1727 164.091 52.1725 164.083 52.1658 164.074C52.1 164.851 52.249 165.471 52.632 165.916C55.1155 168.773 66.3473 163.044 77.7494 153.156C89.1271 143.265 96.3652 132.916 93.8817 130.059C93.4931 129.612 92.8893 129.375 92.1067 129.331Z" fill="url(#paint47_linear_8_2936)"/>
</g>
<path d="M173.11 216.653L171.211 210.421H172.216L173.563 215.192H173.63L174.961 210.421H175.982L177.298 215.176H177.361L178.708 210.421H179.716L177.817 216.653H176.876L175.513 211.867H175.415L174.051 216.653H173.11ZM167.629 215.924C168.057 215.924 168.409 215.813 168.685 215.595C168.961 215.376 169.163 215.088 169.297 214.729C169.43 214.374 169.496 213.988 169.496 213.569C169.496 213.154 169.43 212.764 169.297 212.406C169.163 212.044 168.961 211.756 168.685 211.534C168.409 211.312 168.057 211.201 167.629 211.201C167.201 211.201 166.849 211.312 166.574 211.534C166.298 211.756 166.095 212.044 165.962 212.406C165.829 212.764 165.762 213.154 165.762 213.569C165.762 213.988 165.829 214.374 165.962 214.729C166.095 215.088 166.298 215.376 166.574 215.595C166.849 215.813 167.201 215.924 167.629 215.924ZM167.629 216.783C167.068 216.783 166.574 216.65 166.152 216.381C165.727 216.115 165.398 215.741 165.16 215.259C164.925 214.777 164.805 214.213 164.805 213.569C164.805 212.919 164.925 212.355 165.16 211.87C165.398 211.385 165.727 211.011 166.152 210.741C166.574 210.475 167.068 210.339 167.629 210.339C168.193 210.339 168.685 210.475 169.11 210.741C169.531 211.011 169.861 211.385 170.099 211.87C170.336 212.355 170.454 212.919 170.454 213.569C170.454 214.213 170.336 214.777 170.099 215.259C169.861 215.741 169.531 216.115 169.11 216.381C168.685 216.65 168.193 216.783 167.629 216.783ZM159.378 212.903V216.653H158.417V210.421H159.343V211.395H159.425C159.571 211.078 159.793 210.824 160.091 210.631C160.389 210.437 160.773 210.339 161.242 210.339C161.663 210.339 162.034 210.424 162.351 210.599C162.668 210.77 162.912 211.03 163.09 211.375C163.264 211.724 163.353 212.162 163.353 212.694V216.653H162.396V212.758C162.396 212.269 162.269 211.886 162.015 211.613C161.758 211.337 161.41 211.201 160.966 211.201C160.662 211.201 160.389 211.268 160.148 211.398C159.91 211.531 159.72 211.724 159.584 211.978C159.444 212.235 159.378 212.542 159.378 212.903ZM151.485 208.928H152.442V214.869C152.442 215.138 152.48 215.341 152.559 215.474C152.642 215.607 152.743 215.699 152.87 215.744C152.993 215.788 153.127 215.81 153.269 215.81C153.374 215.81 153.459 215.804 153.529 215.791C153.596 215.779 153.65 215.769 153.691 215.76L153.884 216.622C153.821 216.644 153.729 216.669 153.615 216.695C153.497 216.723 153.348 216.736 153.171 216.736C152.902 216.736 152.635 216.676 152.378 216.562C152.119 216.444 151.906 216.267 151.738 216.029C151.567 215.791 151.485 215.49 151.485 215.129V208.928ZM153.773 210.421V211.233H150.543V210.421H153.773ZM148.359 214.105V210.421H149.316V216.653H148.359V215.598H148.292C148.147 215.915 147.918 216.184 147.611 216.403C147.303 216.625 146.913 216.736 146.441 216.736C146.051 216.736 145.706 216.65 145.405 216.476C145.1 216.305 144.863 216.045 144.688 215.699C144.517 215.351 144.428 214.91 144.428 214.381V210.421H145.389V214.317C145.389 214.771 145.516 215.132 145.772 215.405C146.026 215.674 146.352 215.81 146.752 215.81C146.99 215.81 147.23 215.75 147.478 215.626C147.725 215.506 147.934 215.319 148.105 215.068C148.273 214.815 148.359 214.495 148.359 214.105ZM141.908 212.498C141.908 211.778 141.788 211.173 141.55 210.678C141.309 210.18 140.986 209.806 140.58 209.553C140.171 209.299 139.718 209.172 139.214 209.172C138.71 209.172 138.256 209.299 137.847 209.553C137.442 209.806 137.118 210.18 136.881 210.678C136.64 211.173 136.519 211.778 136.519 212.498C136.519 213.217 136.64 213.826 136.881 214.32C137.118 214.815 137.442 215.189 137.847 215.446C138.256 215.699 138.71 215.826 139.214 215.826C139.718 215.826 140.171 215.699 140.58 215.446C140.986 215.189 141.309 214.815 141.55 214.32C141.788 213.826 141.908 213.217 141.908 212.498ZM142.881 212.498C142.881 213.376 142.723 214.133 142.409 214.771C142.092 215.408 141.658 215.902 141.106 216.248C140.555 216.593 139.924 216.768 139.214 216.768C138.507 216.768 137.876 216.593 137.324 216.248C136.773 215.902 136.338 215.408 136.021 214.771C135.704 214.133 135.546 213.376 135.546 212.498C135.546 211.623 135.704 210.865 136.021 210.225C136.338 209.588 136.773 209.096 137.324 208.751C137.876 208.402 138.507 208.231 139.214 208.231C139.924 208.231 140.555 208.402 141.106 208.751C141.658 209.096 142.092 209.588 142.409 210.225C142.723 210.865 142.881 211.623 142.881 212.498Z" fill="white"/>
</g>
<defs>
<filter id="filter0_f_8_2936" x="136.12" y="128.673" width="44.3795" height="44.3795" filterUnits="userSpaceOnUse" color-interpolation-filters="sRGB">
<feFlood flood-opacity="0" result="BackgroundImageFix"/>
<feBlend mode="normal" in="SourceGraphic" in2="BackgroundImageFix" result="shape"/>
<feGaussianBlur stdDeviation="1.26664" result="effect1_foregroundBlur_8_2936"/>
</filter>
<filter id="filter1_f_8_2936" x="190.989" y="116.314" width="91.1376" height="93.5564" filterUnits="userSpaceOnUse" color-interpolation-filters="sRGB">
<feFlood flood-opacity="0" result="BackgroundImageFix"/>
<feBlend mode="normal" in="SourceGraphic" in2="BackgroundImageFix" result="shape"/>
<feGaussianBlur stdDeviation="7.10731" result="effect1_foregroundBlur_8_2936"/>
</filter>
<filter id="filter2_f_8_2936" x="38.8248" y="116.314" width="91.1376" height="93.5564" filterUnits="userSpaceOnUse" color-interpolation-filters="sRGB">
<feFlood flood-opacity="0" result="BackgroundImageFix"/>
<feBlend mode="normal" in="SourceGraphic" in2="BackgroundImageFix" result="shape"/>
<feGaussianBlur stdDeviation="7.10731" result="effect1_foregroundBlur_8_2936"/>
</filter>
<linearGradient id="paint0_linear_8_2936" x1="254.351" y1="120.481" x2="237.355" y2="190.758" gradientUnits="userSpaceOnUse">
<stop offset="0.25" stop-color="#1561FB"/>
<stop offset="1" stop-color="white"/>
</linearGradient>
<linearGradient id="paint1_linear_8_2936" x1="254.317" y1="120.459" x2="237.303" y2="190.721" gradientUnits="userSpaceOnUse">
<stop offset="0.26" stop-color="#94B1FC"/>
<stop offset="1" stop-color="#1561FB" stop-opacity="0.99999"/>
</linearGradient>
<linearGradient id="paint2_linear_8_2936" x1="262.617" y1="135.765" x2="230.791" y2="161.58" gradientUnits="userSpaceOnUse">
<stop stop-color="#C8D7FF"/>
<stop offset="1" stop-color="white"/>
</linearGradient>
<linearGradient id="paint3_linear_8_2936" x1="310.19" y1="126.648" x2="313.914" y2="137.592" gradientUnits="userSpaceOnUse">
<stop stop-color="#FFCB4B"/>
<stop offset="1" stop-color="#E81CA2"/>
</linearGradient>
<linearGradient id="paint4_linear_8_2936" x1="273.921" y1="93.2127" x2="280.052" y2="103.279" gradientUnits="userSpaceOnUse">
<stop stop-color="#FBE07A"/>
<stop offset="1" stop-color="#E81CA2"/>
</linearGradient>
<linearGradient id="paint5_linear_8_2936" x1="256.349" y1="109.49" x2="257.878" y2="115.288" gradientUnits="userSpaceOnUse">
<stop stop-color="#80DAFE"/>
<stop offset="1" stop-color="#008FE6"/>
</linearGradient>
<linearGradient id="paint6_linear_8_2936" x1="283.667" y1="125.89" x2="284.602" y2="128.565" gradientUnits="userSpaceOnUse">
<stop stop-color="#80DAFE"/>
<stop offset="1" stop-color="#008FE6"/>
</linearGradient>
<linearGradient id="paint7_linear_8_2936" x1="310.39" y1="120.74" x2="308.642" y2="126.326" gradientUnits="userSpaceOnUse">
<stop stop-color="#FFCB4B"/>
<stop offset="1" stop-color="#E81CA2"/>
</linearGradient>
<linearGradient id="paint8_linear_8_2936" x1="296.005" y1="142.539" x2="296.549" y2="154.476" gradientUnits="userSpaceOnUse">
<stop stop-color="#FFCB4B"/>
<stop offset="1" stop-color="#E81CA2"/>
</linearGradient>
<linearGradient id="paint9_linear_8_2936" x1="312.326" y1="110.619" x2="313.261" y2="113.294" gradientUnits="userSpaceOnUse">
<stop offset="0.25" stop-color="#9F00E8"/>
<stop offset="1" stop-color="#7000A3"/>
</linearGradient>
<linearGradient id="paint10_linear_8_2936" x1="296.329" y1="109.283" x2="292.719" y2="115.52" gradientUnits="userSpaceOnUse">
<stop stop-color="#80DAFE"/>
<stop offset="1" stop-color="#008FE6"/>
</linearGradient>
<linearGradient id="paint11_linear_8_2936" x1="297.834" y1="101.157" x2="299.046" y2="107.833" gradientUnits="userSpaceOnUse">
<stop stop-color="#FF9214"/>
<stop offset="1" stop-color="#FF4E0D"/>
</linearGradient>
<radialGradient id="paint12_radial_8_2936" cx="0" cy="0" r="1" gradientUnits="userSpaceOnUse" gradientTransform="translate(270.924 159.44) scale(56.1268)">
<stop stop-color="#69C8FA"/>
<stop offset="1" stop-color="#008FE6" stop-opacity="0.99999"/>
</radialGradient>
<radialGradient id="paint13_radial_8_2936" cx="0" cy="0" r="1" gradientUnits="userSpaceOnUse" gradientTransform="translate(251.417 149.869) scale(64.0977)">
<stop offset="0.13" stop-color="#9D00C4"/>
<stop offset="1" stop-color="#E100FF" stop-opacity="0.99999"/>
</radialGradient>
<radialGradient id="paint14_radial_8_2936" cx="0" cy="0" r="1" gradientUnits="userSpaceOnUse" gradientTransform="translate(251.669 108.253) scale(40.2812)">
<stop stop-color="#EC409F"/>
<stop offset="1" stop-color="#F58094" stop-opacity="0.99999"/>
</radialGradient>
<linearGradient id="paint15_linear_8_2936" x1="257.492" y1="154.504" x2="316.732" y2="119.692" gradientUnits="userSpaceOnUse">
<stop stop-color="#FF570F"/>
<stop offset="1" stop-color="#FF9213" stop-opacity="0.99999"/>
</linearGradient>
<linearGradient id="paint16_linear_8_2936" x1="240.932" y1="138.049" x2="252.447" y2="67.7765" gradientUnits="userSpaceOnUse">
<stop stop-color="#008FE7"/>
<stop offset="1" stop-color="#58BBF5" stop-opacity="0.99999"/>
</linearGradient>
<linearGradient id="paint17_linear_8_2936" x1="199.197" y1="140.02" x2="245.284" y2="187.473" gradientUnits="userSpaceOnUse">
<stop offset="0.25" stop-color="#C8D7FF"/>
<stop offset="1" stop-color="#5C8AFA"/>
</linearGradient>
<linearGradient id="paint18_linear_8_2936" x1="222.58" y1="142.086" x2="260.367" y2="174.933" gradientUnits="userSpaceOnUse">
<stop offset="0.25" stop-color="#5C8AFA"/>
<stop offset="1" stop-color="#1561FB"/>
</linearGradient>
<linearGradient id="paint19_linear_8_2936" x1="214.143" y1="162.002" x2="240.344" y2="184.787" gradientUnits="userSpaceOnUse">
<stop offset="0.25" stop-color="#5C8AFA"/>
<stop offset="1" stop-color="#1561FB"/>
</linearGradient>
<linearGradient id="paint20_linear_8_2936" x1="207.86" y1="178.589" x2="224.445" y2="193.006" gradientUnits="userSpaceOnUse">
<stop offset="0.25" stop-color="#5C8AFA"/>
<stop offset="1" stop-color="#1561FB"/>
</linearGradient>
<radialGradient id="paint21_radial_8_2936" cx="0" cy="0" r="1" gradientUnits="userSpaceOnUse" gradientTransform="translate(223.437 155.279) rotate(115.6) scale(24.4892 7.49615)">
<stop stop-color="white" stop-opacity="0.502"/>
<stop offset="1" stop-color="white" stop-opacity="0"/>
</radialGradient>
<radialGradient id="paint22_radial_8_2936" cx="0" cy="0" r="1" gradientUnits="userSpaceOnUse" gradientTransform="translate(242.141 175.98) rotate(147.7) scale(38.8261 12.1099)">
<stop stop-color="#450063" stop-opacity="0.75"/>
<stop offset="1" stop-color="#420061" stop-opacity="0"/>
</radialGradient>
<linearGradient id="paint23_linear_8_2936" x1="254.35" y1="120.473" x2="237.346" y2="190.751" gradientUnits="userSpaceOnUse">
<stop offset="0.25" stop-color="#1561FB"/>
<stop offset="1" stop-color="white"/>
</linearGradient>
<linearGradient id="paint24_linear_8_2936" x1="66.6011" y1="120.481" x2="83.597" y2="190.758" gradientUnits="userSpaceOnUse">
<stop offset="0.25" stop-color="#1561FB"/>
<stop offset="1" stop-color="white"/>
</linearGradient>
<linearGradient id="paint25_linear_8_2936" x1="66.6352" y1="120.459" x2="83.6485" y2="190.721" gradientUnits="userSpaceOnUse">
<stop offset="0.26" stop-color="#94B1FC"/>
<stop offset="1" stop-color="#1561FB" stop-opacity="0.99999"/>
</linearGradient>
<linearGradient id="paint26_linear_8_2936" x1="58.3349" y1="135.765" x2="90.1613" y2="161.58" gradientUnits="userSpaceOnUse">
<stop stop-color="#C8D7FF"/>
<stop offset="1" stop-color="white"/>
</linearGradient>
<linearGradient id="paint27_linear_8_2936" x1="8.36412" y1="126.593" x2="4.64" y2="137.538" gradientUnits="userSpaceOnUse">
<stop stop-color="#FFCB4B"/>
<stop offset="1" stop-color="#E81CA2"/>
</linearGradient>
<linearGradient id="paint28_linear_8_2936" x1="45.2846" y1="89.7753" x2="39.1536" y2="99.8418" gradientUnits="userSpaceOnUse">
<stop stop-color="#FBE07A"/>
<stop offset="1" stop-color="#E81CA2"/>
</linearGradient>
<linearGradient id="paint29_linear_8_2936" x1="64.1988" y1="105.832" x2="62.6701" y2="111.63" gradientUnits="userSpaceOnUse">
<stop stop-color="#80DAFE"/>
<stop offset="1" stop-color="#008FE6"/>
</linearGradient>
<linearGradient id="paint30_linear_8_2936" x1="34.3893" y1="123.818" x2="33.4542" y2="126.493" gradientUnits="userSpaceOnUse">
<stop stop-color="#80DAFE"/>
<stop offset="1" stop-color="#008FE6"/>
</linearGradient>
<linearGradient id="paint31_linear_8_2936" x1="8.18183" y1="119.905" x2="9.93006" y2="125.491" gradientUnits="userSpaceOnUse">
<stop stop-color="#FFCB4B"/>
<stop offset="1" stop-color="#E81CA2"/>
</linearGradient>
<linearGradient id="paint32_linear_8_2936" x1="21.9826" y1="142.623" x2="21.4378" y2="154.56" gradientUnits="userSpaceOnUse">
<stop stop-color="#FFCB4B"/>
<stop offset="1" stop-color="#E81CA2"/>
</linearGradient>
<linearGradient id="paint33_linear_8_2936" x1="5.25067" y1="109.473" x2="4.31557" y2="112.148" gradientUnits="userSpaceOnUse">
<stop offset="0.25" stop-color="#9F00E8"/>
<stop offset="1" stop-color="#7000A3"/>
</linearGradient>
<linearGradient id="paint34_linear_8_2936" x1="20.7264" y1="106.183" x2="24.3367" y2="112.419" gradientUnits="userSpaceOnUse">
<stop stop-color="#80DAFE"/>
<stop offset="1" stop-color="#008FE6"/>
</linearGradient>
<linearGradient id="paint35_linear_8_2936" x1="21.0519" y1="99.834" x2="19.8403" y2="106.51" gradientUnits="userSpaceOnUse">
<stop stop-color="#FF9214"/>
<stop offset="1" stop-color="#FF4E0D"/>
</linearGradient>
<radialGradient id="paint36_radial_8_2936" cx="0" cy="0" r="1" gradientUnits="userSpaceOnUse" gradientTransform="translate(50.0278 159.44) rotate(180) scale(56.1268)">
<stop stop-color="#69C8FA"/>
<stop offset="1" stop-color="#008FE6" stop-opacity="0.99999"/>
</radialGradient>
<radialGradient id="paint37_radial_8_2936" cx="0" cy="0" r="1" gradientUnits="userSpaceOnUse" gradientTransform="translate(69.5347 149.869) rotate(180) scale(64.0977)">
<stop offset="0.13" stop-color="#9D00C4"/>
<stop offset="1" stop-color="#E100FF" stop-opacity="0.99999"/>
</radialGradient>
<radialGradient id="paint38_radial_8_2936" cx="0" cy="0" r="1" gradientUnits="userSpaceOnUse" gradientTransform="translate(69.2827 108.253) rotate(180) scale(40.2812)">
<stop stop-color="#EC409F"/>
<stop offset="1" stop-color="#F58094" stop-opacity="0.99999"/>
</radialGradient>
<linearGradient id="paint39_linear_8_2936" x1="63.4593" y1="154.504" x2="4.21967" y2="119.691" gradientUnits="userSpaceOnUse">
<stop stop-color="#FF570F"/>
<stop offset="1" stop-color="#FF9213" stop-opacity="0.99999"/>
</linearGradient>
<linearGradient id="paint40_linear_8_2936" x1="80.0198" y1="138.049" x2="68.5049" y2="67.776" gradientUnits="userSpaceOnUse">
<stop stop-color="#008FE7"/>
<stop offset="1" stop-color="#58BBF5" stop-opacity="0.99999"/>
</linearGradient>
<linearGradient id="paint41_linear_8_2936" x1="121.755" y1="140.02" x2="75.6681" y2="187.473" gradientUnits="userSpaceOnUse">
<stop offset="0.25" stop-color="#C8D7FF"/>
<stop offset="1" stop-color="#5C8AFA"/>
</linearGradient>
<linearGradient id="paint42_linear_8_2936" x1="98.3716" y1="142.086" x2="60.5847" y2="174.933" gradientUnits="userSpaceOnUse">
<stop offset="0.25" stop-color="#5C8AFA"/>
<stop offset="1" stop-color="#1561FB"/>
</linearGradient>
<linearGradient id="paint43_linear_8_2936" x1="106.809" y1="162.002" x2="80.6077" y2="184.787" gradientUnits="userSpaceOnUse">
<stop offset="0.25" stop-color="#5C8AFA"/>
<stop offset="1" stop-color="#1561FB"/>
</linearGradient>
<linearGradient id="paint44_linear_8_2936" x1="113.092" y1="178.589" x2="96.5066" y2="193.006" gradientUnits="userSpaceOnUse">
<stop offset="0.25" stop-color="#5C8AFA"/>
<stop offset="1" stop-color="#1561FB"/>
</linearGradient>
<radialGradient id="paint45_radial_8_2936" cx="0" cy="0" r="1" gradientUnits="userSpaceOnUse" gradientTransform="translate(97.5142 155.279) rotate(64.4) scale(24.4892 7.49615)">
<stop stop-color="white" stop-opacity="0.502"/>
<stop offset="1" stop-color="white" stop-opacity="0"/>
</radialGradient>
<radialGradient id="paint46_radial_8_2936" cx="0" cy="0" r="1" gradientUnits="userSpaceOnUse" gradientTransform="translate(78.8105 175.98) rotate(32.3) scale(38.8261 12.1099)">
<stop stop-color="#450063" stop-opacity="0.75"/>
<stop offset="1" stop-color="#420061" stop-opacity="0"/>
</radialGradient>
<linearGradient id="paint47_linear_8_2936" x1="66.6018" y1="120.473" x2="83.6058" y2="190.751" gradientUnits="userSpaceOnUse">
<stop offset="0.25" stop-color="#1561FB"/>
<stop offset="1" stop-color="white"/>
</linearGradient>
</defs>
</svg>
