<svg width="19" height="12" viewBox="0 0 19 12" fill="none" xmlns="http://www.w3.org/2000/svg">
<path fill-rule="evenodd" clip-rule="evenodd" d="M2.22895 1.31528C2.96965 0.431148 3.86877 0 4.9644 0C6.99983 0 9.06009 1.56703 9.06009 4.56323C9.06009 7.55814 6.99983 9.12517 4.9644 9.12517C3.86919 9.12517 2.97051 8.71885 2.22938 7.88738V11.3772C2.22938 11.415 2.21442 11.4512 2.18777 11.4779C2.16112 11.5046 2.12497 11.5197 2.08723 11.5198H0.142146C0.104407 11.5197 0.0682543 11.5046 0.041609 11.4779C0.0149637 11.4512 -1.70164e-07 11.415 0 11.3772V0.320257C0 0.241905 0.0637947 0.177683 0.142146 0.177683H2.08723C2.16558 0.177683 2.22938 0.241905 2.22938 0.320257L2.22895 1.31528ZM4.51399 7.15268C5.85924 7.15268 6.7986 6.0883 6.7986 4.56323C6.7986 3.06256 5.83783 1.97335 4.51399 1.97335C3.18415 1.97335 2.18057 3.08654 2.18057 4.56323C2.18057 6.03992 3.18415 7.15268 4.51399 7.15268ZM14.3417 0C11.7206 0 9.66678 2.0183 9.66678 4.59576C9.66678 7.14497 11.7065 9.14229 14.3096 9.14229C16.9402 9.14229 19 7.13041 19 4.56323C19 2.00417 16.9543 0 14.3417 0ZM14.3417 7.16852C12.9477 7.16852 11.8966 6.04848 11.8966 4.56323C11.8966 3.07155 12.9113 1.98919 14.3096 1.98919C15.7131 1.98919 16.7711 3.10923 16.7711 4.59576C16.7711 6.08701 15.7495 7.16852 14.3417 7.16852Z" fill="#9CA3AF"/>
</svg>
