<svg width="84" height="40" viewBox="0 0 84 40" fill="none" xmlns="http://www.w3.org/2000/svg">
<path d="M14.7217 14.0535C13.3724 13.1765 12.5628 11.6826 12.558 10.0779H9.14625L9.14143 23.7539C9.07879 25.3345 7.74877 26.5681 6.16818 26.5103C4.58758 26.4525 3.35395 25.1128 3.41177 23.5322C3.4696 21.9902 4.73697 20.7758 6.27901 20.7758C6.56815 20.7758 6.85246 20.8192 7.12714 20.9108V17.4267C6.84764 17.3882 6.56333 17.3689 6.27901 17.3641C2.81905 17.3641 0 20.1831 0 23.6431C0 27.1127 2.80941 29.9221 6.27901 29.9221C9.74861 29.9221 12.558 27.1127 12.558 23.6431V16.7087C13.941 17.7014 15.6036 18.2363 17.3046 18.2363V14.8245C16.389 14.8245 15.4927 14.5595 14.7217 14.0535ZM20.567 14.8438H31.3228L30.3349 17.9182H27.5399V29.3005H24.0655V17.9182L20.567 17.9231V14.8438ZM48.9503 14.8438H59.9566L58.9687 17.9182H55.9328V29.3005H52.4488V17.9182L48.9503 17.9231V14.8438ZM31.983 19.441H35.4285V29.3005H32.0022L31.983 19.441ZM36.797 14.8004H40.2425V21.5324L43.6591 18.1833H47.7696L43.4519 22.3757L48.2901 29.3005H44.4928L41.2641 24.496L40.2425 25.4887V29.2956H36.797V14.8004ZM71.8352 14.8004H75.2807V21.5324L78.6973 18.1833H82.8126L78.4949 22.3757L83.333 29.3005H79.5358L76.3071 24.496L75.2855 25.4887V29.2956H71.84V14.8004H71.8352Z" fill="#9CA3AF"/>
<path d="M33.7033 18.3133C34.6614 18.3133 35.4381 17.5366 35.4381 16.5786C35.4381 15.6205 34.6614 14.8438 33.7033 14.8438C32.7452 14.8438 31.9686 15.6205 31.9686 16.5786C31.9686 17.5366 32.7452 18.3133 33.7033 18.3133Z" fill="#9CA3AF"/>
<path d="M64.5294 17.4941C61.2719 17.4941 58.6264 20.1348 58.6264 23.3923C58.6264 26.6498 61.2671 29.2953 64.5246 29.2953C67.7821 29.2953 70.4276 26.6546 70.4276 23.3971C70.4324 20.1396 67.7918 17.499 64.5294 17.4941ZM64.5294 26.2643C62.9441 26.2643 61.6623 24.9825 61.6623 23.3971C61.6623 21.8118 62.9441 20.53 64.5294 20.53C66.1148 20.53 67.3966 21.8118 67.3966 23.3971C67.4014 24.9825 66.1148 26.2643 64.5294 26.2643Z" fill="#9CA3AF"/>
</svg>
