<svg width="317" height="317" viewBox="0 0 317 317" fill="none" xmlns="http://www.w3.org/2000/svg">
<mask id="mask0_8_2344" style="mask-type:luminance" maskUnits="userSpaceOnUse" x="0" y="0" width="317" height="317">
<path d="M317 0H0V317H317V0Z" fill="white"/>
</mask>
<g mask="url(#mask0_8_2344)">
<path d="M122.516 127.434C122.516 124.541 122.533 123.105 123.432 122.206C124.331 121.307 125.767 121.29 128.659 121.29H136.099C138.991 121.29 140.427 121.307 141.326 122.206C142.225 123.105 142.242 124.541 142.242 127.434V134.873C142.242 137.766 142.225 139.201 141.326 140.1C140.427 140.999 138.991 141.016 136.099 141.016H128.659C125.767 141.016 124.331 140.999 123.432 140.1C122.533 139.201 122.516 137.766 122.516 134.873V127.434Z" stroke="#FB8F21" stroke-width="6.3332"/>
<path d="M173.236 127.434C173.236 124.541 173.253 123.105 174.152 122.206C175.051 121.307 176.487 121.29 179.379 121.29H186.819C189.711 121.29 191.147 121.307 192.046 122.206C192.945 123.105 192.962 124.541 192.962 127.434V134.873C192.962 137.766 192.945 139.201 192.046 140.1C191.147 140.999 189.711 141.016 186.819 141.016H179.379C176.487 141.016 175.051 140.999 174.152 140.1C173.253 139.201 173.236 137.766 173.236 134.873V127.434Z" stroke="#FB8F21" stroke-width="6.3332"/>
<path d="M152.807 121.84C152.807 119.981 152.821 119.063 153.399 118.486C153.976 117.909 154.893 117.894 156.753 117.894H158.726C160.585 117.894 161.503 117.909 162.08 118.486C162.657 119.063 162.672 119.981 162.672 121.84V123.813C162.672 125.673 162.657 126.59 162.08 127.167C161.503 127.744 160.585 127.759 158.726 127.759H156.753C154.893 127.759 153.976 127.744 153.399 127.167C152.821 126.59 152.807 125.673 152.807 123.813V121.84Z" fill="#FB8F21"/>
<path d="M192.962 124.249V138.057C192.962 139.69 191.636 141.016 190.003 141.016H176.195C174.562 141.016 173.236 139.69 173.236 138.057V124.249C173.236 122.616 174.562 121.29 176.195 121.29H190.003C191.636 121.29 192.962 122.616 192.962 124.249Z" stroke="#FB8F21" stroke-width="6.3332"/>
<path d="M152.105 138.607C152.105 136.483 152.122 135.435 152.781 134.775C153.44 134.116 154.488 134.099 156.612 134.099H158.866C160.99 134.099 162.038 134.116 162.697 134.775C163.356 135.435 163.373 136.483 163.373 138.607V140.86C163.373 142.984 163.356 144.032 162.697 144.691C162.038 145.351 160.99 145.368 158.866 145.368H156.612C154.488 145.368 153.44 145.351 152.781 144.691C152.122 144.032 152.105 142.984 152.105 140.86V138.607Z" fill="#FB8F21"/>
<path d="M119.699 155.795C119.699 154.201 119.712 153.415 120.206 152.921C120.701 152.426 121.487 152.414 123.08 152.414H124.771C126.365 152.414 127.151 152.426 127.645 152.921C128.14 153.415 128.152 154.201 128.152 155.795V157.486C128.152 159.079 128.14 159.865 127.645 160.36C127.151 160.854 126.365 160.867 124.771 160.867H123.08C121.487 160.867 120.701 160.854 120.206 160.36C119.712 159.865 119.699 159.079 119.699 157.486V155.795Z" fill="#FB8F21"/>
<path d="M136.606 155.795C136.606 154.201 136.618 153.415 137.113 152.921C137.607 152.426 138.394 152.414 139.987 152.414H141.678C143.271 152.414 144.057 152.426 144.552 152.921C145.046 153.415 145.059 154.201 145.059 155.795V157.486C145.059 159.079 145.046 159.865 144.552 160.36C144.057 160.854 143.271 160.867 141.678 160.867H139.987C138.394 160.867 137.607 160.854 137.113 160.36C136.618 159.865 136.606 159.079 136.606 157.486V155.795Z" fill="#FB8F21"/>
<path d="M153.513 155.795C153.513 154.201 153.525 153.415 154.02 152.921C154.514 152.426 155.3 152.414 156.894 152.414H158.584C160.178 152.414 160.964 152.426 161.459 152.921C161.953 153.415 161.966 154.201 161.966 155.795V157.486C161.966 159.079 161.953 159.865 161.459 160.36C160.964 160.854 160.178 160.867 158.584 160.867H156.894C155.3 160.867 154.514 160.854 154.02 160.36C153.525 159.865 153.513 159.079 153.513 157.486V155.795Z" fill="#FB8F21"/>
<path d="M170.419 155.795C170.419 154.201 170.432 153.415 170.926 152.921C171.421 152.426 172.207 152.414 173.8 152.414H175.491C177.084 152.414 177.871 152.426 178.365 152.921C178.86 153.415 178.872 154.201 178.872 155.795V157.486C178.872 159.079 178.86 159.865 178.365 160.36C177.871 160.854 177.084 160.867 175.491 160.867H173.8C172.207 160.867 171.421 160.854 170.926 160.36C170.432 159.865 170.419 159.079 170.419 157.486V155.795Z" fill="#FB8F21"/>
<path d="M187.326 155.795C187.326 154.201 187.339 153.415 187.833 152.921C188.328 152.426 189.114 152.414 190.707 152.414H192.398C193.991 152.414 194.777 152.426 195.272 152.921C195.766 153.415 195.779 154.201 195.779 155.795V157.486C195.779 159.079 195.766 159.865 195.272 160.36C194.777 160.854 193.991 160.867 192.398 160.867H190.707C189.114 160.867 188.328 160.854 187.833 160.36C187.339 159.865 187.326 159.079 187.326 157.486V155.795Z" fill="#FB8F21"/>
<path d="M153.513 172.702C153.513 171.108 153.525 170.322 154.02 169.827C154.514 169.333 155.3 169.32 156.894 169.32H158.584C160.178 169.32 160.964 169.333 161.459 169.827C161.953 170.322 161.966 171.108 161.966 172.702V174.392C161.966 175.986 161.953 176.772 161.459 177.266C160.964 177.761 160.178 177.773 158.584 177.773H156.894C155.3 177.773 154.514 177.761 154.02 177.266C153.525 176.772 153.513 175.986 153.513 174.392V172.702Z" fill="#FB8F21"/>
<path d="M153.513 189.608C153.513 188.015 153.525 187.229 154.02 186.734C154.514 186.24 155.3 186.227 156.894 186.227H158.584C160.178 186.227 160.964 186.24 161.459 186.734C161.953 187.229 161.966 188.015 161.966 189.608V191.299C161.966 192.892 161.953 193.678 161.459 194.173C160.964 194.667 160.178 194.68 158.584 194.68H156.894C155.3 194.68 154.514 194.667 154.02 194.173C153.525 193.678 153.513 192.892 153.513 191.299V189.608Z" fill="#FB8F21"/>
<path d="M170.419 189.608C170.419 188.015 170.432 187.229 170.926 186.734C171.421 186.24 172.207 186.227 173.8 186.227H175.491C177.084 186.227 177.871 186.24 178.365 186.734C178.86 187.229 178.872 188.015 178.872 189.608V191.299C178.872 192.892 178.86 193.678 178.365 194.173C177.871 194.667 177.084 194.68 175.491 194.68H173.8C172.207 194.68 171.421 194.667 170.926 194.173C170.432 193.678 170.419 192.892 170.419 191.299V189.608Z" fill="#FB8F21"/>
<path d="M186.65 189.608C186.65 188.015 186.662 187.229 187.157 186.734C187.651 186.24 188.437 186.227 190.031 186.227H191.722C193.315 186.227 194.101 186.24 194.596 186.734C195.09 187.229 195.103 188.015 195.103 189.608V191.299C195.103 192.892 195.09 193.678 194.596 194.173C194.101 194.667 193.315 194.68 191.722 194.68H190.031C188.437 194.68 187.651 194.667 187.157 194.173C186.662 193.678 186.65 192.892 186.65 191.299V189.608Z" fill="#FB8F21"/>
<path d="M170.419 172.702C170.419 171.108 170.432 170.322 170.926 169.827C171.421 169.333 172.207 169.32 173.8 169.32H175.491C177.084 169.32 177.871 169.333 178.365 169.827C178.86 170.322 178.872 171.108 178.872 172.702V174.392C178.872 175.986 178.86 176.772 178.365 177.266C177.871 177.761 177.084 177.773 175.491 177.773H173.8C172.207 177.773 171.421 177.761 170.926 177.266C170.432 176.772 170.419 175.986 170.419 174.392V172.702Z" fill="#FB8F21"/>
<path d="M187.326 172.702C187.326 171.108 187.339 170.322 187.833 169.827C188.328 169.333 189.114 169.32 190.707 169.32H192.398C193.991 169.32 194.777 169.333 195.272 169.827C195.766 170.322 195.779 171.108 195.779 172.702V174.392C195.779 175.986 195.766 176.772 195.272 177.266C194.777 177.761 193.991 177.773 192.398 177.773H190.707C189.114 177.773 188.328 177.761 187.833 177.266C187.339 176.772 187.326 175.986 187.326 174.392V172.702Z" fill="#FB8F21"/>
<path d="M122.869 178.534C122.869 175.745 122.89 174.371 123.757 173.505C124.623 172.638 125.997 172.617 128.786 172.617H135.972C138.761 172.617 140.135 172.638 141.001 173.505C141.868 174.371 141.889 175.745 141.889 178.534V185.72C141.889 188.509 141.868 189.883 141.001 190.749C140.135 191.616 138.761 191.637 135.972 191.637H128.786C125.997 191.637 124.623 191.616 123.757 190.749C122.89 189.883 122.869 188.509 122.869 185.72V178.534Z" stroke="#FB8F21" stroke-width="6.3332"/>
</g>
</svg>
