<svg width="84" height="40" viewBox="0 0 84 40" fill="none" xmlns="http://www.w3.org/2000/svg">
<mask id="mask0_8_2299" style="mask-type:luminance" maskUnits="userSpaceOnUse" x="0" y="8" width="84" height="24">
<path d="M83.2718 8.7088H0V31.291H83.2718V8.7088Z" fill="white"/>
</mask>
<g mask="url(#mask0_8_2299)">
<path d="M25.9299 19.5649C25.9299 23.2571 28.301 25.8315 31.5867 25.8315C34.8724 25.8315 37.2435 23.2571 37.2435 19.5649C37.2435 15.8727 34.8724 13.2984 31.5867 13.2984C28.301 13.2984 25.9299 15.8727 25.9299 19.5649ZM35.0756 19.5649C35.0756 22.207 33.636 23.9176 31.5867 23.9176C29.5374 23.9176 28.0978 22.207 28.0978 19.5649C28.0978 16.9228 29.5374 15.2122 31.5867 15.2122C33.636 15.2122 35.0756 16.9228 35.0756 19.5649ZM43.3484 25.8317C45.8381 25.8317 47.2608 23.7316 47.2608 21.208C47.2608 18.6844 45.8381 16.5843 43.3484 16.5843C42.1967 16.5843 41.3499 17.0416 40.791 17.7021V16.7537H38.7586V28.694H40.791V24.7139C41.3499 25.3744 42.1967 25.8317 43.3484 25.8317ZM40.7402 20.9539C40.7402 19.2772 41.6886 18.3626 42.9419 18.3626C44.4154 18.3626 45.2114 19.5143 45.2114 21.208C45.2114 22.9017 44.4154 24.0533 42.9419 24.0533C41.6886 24.0533 40.7402 23.1218 40.7402 21.479V20.9539ZM52.7613 25.8317C54.5397 25.8317 55.9454 24.9002 56.5721 23.342L54.8276 22.6815C54.5566 23.5961 53.7606 24.1042 52.7613 24.1042C51.4572 24.1042 50.5426 23.1726 50.3902 21.6483H56.6229V20.9709C56.6229 18.532 55.251 16.5843 52.6766 16.5843C50.1023 16.5843 48.4425 18.5998 48.4425 21.208C48.4425 23.9517 50.2208 25.8317 52.7613 25.8317ZM52.6597 18.2949C53.9469 18.2949 54.5566 19.1417 54.5735 20.1241H50.4918C50.7967 18.9215 51.6096 18.2949 52.6597 18.2949ZM58.1474 25.6454H60.1798V20.4289C60.1798 19.1587 61.1113 18.4812 62.0259 18.4812C63.1437 18.4812 63.5841 19.2772 63.5841 20.3781V25.6454H65.6164V19.7853C65.6164 17.8715 64.4986 16.5843 62.6356 16.5843C61.4839 16.5843 60.6879 17.1093 60.1798 17.7021V16.7537H58.1474V25.6454ZM71.5691 13.4849L66.9624 25.6454H69.1133L70.1464 22.8678H75.3968L76.4469 25.6454H78.6317L74.0249 13.4849H71.5691ZM72.7547 15.8899L74.6855 20.9709H70.8578L72.7547 15.8899ZM82.1213 13.5201H79.9534V25.6806H82.1213V13.5201ZM20.9631 17.9512C21.2164 17.191 21.3042 16.3854 21.2209 15.5885C21.1375 14.7915 20.8849 14.0216 20.4799 13.3302C19.8794 12.2845 18.9622 11.4567 17.8607 10.9661C16.7592 10.4755 15.5303 10.3475 14.3513 10.6007C13.8195 10.0014 13.1658 9.52258 12.434 9.19627C11.7022 8.86995 10.9091 8.70367 10.1079 8.70854C8.90266 8.7058 7.72767 9.08579 6.75227 9.79374C5.77688 10.5017 5.05143 11.501 4.68049 12.6478C3.89522 12.8085 3.15335 13.1352 2.50453 13.6058C1.85571 14.0765 1.3149 14.6803 0.9183 15.3768C0.313347 16.4197 0.0551676 17.6276 0.180982 18.8266C0.306796 20.0257 0.810104 21.1537 1.61835 22.0483C1.36513 22.8085 1.27725 23.6141 1.3606 24.411C1.44394 25.2079 1.69658 25.9779 2.10161 26.6693C2.70215 27.7149 3.61938 28.5428 4.72094 29.0333C5.82251 29.5239 7.05144 29.6518 8.23041 29.3985C8.76214 29.9979 9.41582 30.4767 10.1477 30.8029C10.8795 31.1291 11.6726 31.2951 12.4738 31.2898C13.6797 31.2928 14.8554 30.9127 15.8312 30.2042C16.8071 29.4957 17.5326 28.4956 17.9033 27.3481C18.6885 27.1874 19.4304 26.8608 20.0792 26.3901C20.728 25.9195 21.2688 25.3158 21.6654 24.6193C22.2698 23.5765 22.5274 22.3687 22.4014 21.1701C22.2753 19.9715 21.7719 18.8438 20.9638 17.9496L20.9631 17.9512ZM12.475 29.8145C11.4849 29.816 10.5259 29.4693 9.76577 28.8349C9.80055 28.8168 9.86061 28.7834 9.89923 28.7595L14.396 26.1625C14.5089 26.0983 14.6027 26.0052 14.6677 25.8927C14.7327 25.7802 14.7665 25.6524 14.7657 25.5225V19.1833L16.6662 20.2808C16.6865 20.2905 16.7001 20.3101 16.7028 20.3327V25.5824C16.7001 27.9169 14.8095 29.8098 12.475 29.8145ZM3.38292 25.9311C2.8869 25.0745 2.70822 24.0707 2.87821 23.0956C2.9114 23.1153 2.97012 23.1514 3.01167 23.1754L7.50846 25.7723C7.73631 25.9055 8.01859 25.9055 8.24712 25.7723L13.7368 22.6024V24.797C13.7382 24.8196 13.7278 24.8415 13.71 24.8557L9.16463 27.48C7.13991 28.6459 4.55426 27.9528 3.3836 25.9311H3.38292ZM2.19961 16.1157C2.69329 15.2581 3.47283 14.6013 4.40183 14.2604C4.40183 14.2992 4.39957 14.3676 4.39957 14.4155V19.6103C4.39895 19.74 4.43281 19.8675 4.49769 19.9798C4.56257 20.0921 4.65613 20.1851 4.76879 20.2494L10.2585 23.4188L8.35777 24.5163C8.3484 24.5225 8.33763 24.5263 8.32642 24.5273C8.31522 24.5283 8.30395 24.5264 8.29364 24.5219L3.74762 21.8952C1.72764 20.7252 1.03437 18.1402 2.19871 16.1164L2.19961 16.1157ZM17.8136 19.7492L12.3239 16.5793L14.2244 15.4825C14.2338 15.4762 14.2446 15.4724 14.2558 15.4714C14.2671 15.4704 14.2784 15.4723 14.2888 15.4769L18.8345 18.1014C20.8586 19.2707 21.5523 21.8599 20.383 23.8838C19.8885 24.7404 19.1094 25.3967 18.1812 25.7384V20.3887C18.1823 20.2591 18.1489 20.1316 18.0844 20.0192C18.0199 19.9069 17.9267 19.8136 17.8143 19.7492H17.8136ZM19.7049 16.9025C19.6717 16.8822 19.6132 16.8467 19.5716 16.8228L15.0748 14.2258C14.9627 14.1603 14.8352 14.1258 14.7054 14.1258C14.5756 14.1258 14.4481 14.1603 14.3359 14.2258L8.84622 17.3957V15.2011C8.84574 15.1899 8.84795 15.1788 8.85267 15.1686C8.85738 15.1584 8.86446 15.1495 8.87332 15.1426L13.4184 12.5202C15.4432 11.3522 18.0315 12.0473 19.1988 14.0727C19.6921 14.9281 19.8706 15.9291 19.7035 16.9023L19.7049 16.9025ZM7.81309 20.8142L5.91212 19.7167C5.90214 19.7118 5.89354 19.7045 5.88711 19.6954C5.88068 19.6863 5.87663 19.6758 5.87531 19.6647V14.4146C5.87667 12.0773 7.77289 10.1834 10.1101 10.1847C11.0988 10.1847 12.0558 10.5318 12.8159 11.1641C12.7812 11.1826 12.722 11.2158 12.6825 11.2398L8.18569 13.8367C8.07279 13.9008 7.97902 13.9938 7.91404 14.1062C7.84906 14.2185 7.81522 14.3462 7.81602 14.476L7.81331 20.8126V20.8139L7.81309 20.8142ZM8.84555 18.5882L11.2907 17.1762L13.7362 18.5876V21.4112L11.291 22.8226L8.84555 21.4112V18.5882Z" fill="#9CA3AF"/>
</g>
</svg>
