<svg width="3" height="3" viewBox="0 0 3 3" fill="none" xmlns="http://www.w3.org/2000/svg">
<path fill-rule="evenodd" clip-rule="evenodd" d="M1.24713e-05 1.50401C-0.000792243 1.7007 0.0373539 1.8956 0.112252 2.07747C0.18715 2.25934 0.297323 2.42458 0.436403 2.56366C0.575484 2.70274 0.74072 2.81291 0.922591 2.88781C1.10446 2.96271 1.29937 3.00085 1.49606 3.00005C1.6936 3.00005 1.88922 2.96113 2.07172 2.88552C2.25422 2.80991 2.42004 2.69908 2.55971 2.55937C2.69937 2.41967 2.81015 2.25381 2.8857 2.07128C2.96126 1.88876 3.00012 1.69313 3.00005 1.49559C3.0008 1.29894 2.9626 1.10409 2.88768 0.922269C2.81275 0.740452 2.70257 0.575265 2.5635 0.436234C2.42442 0.297203 2.2592 0.187078 2.07736 0.112209C1.89552 0.0373402 1.70066 -0.000791846 1.50401 1.24634e-05C1.10513 1.24634e-05 0.722577 0.15847 0.440523 0.440523C0.15847 0.722577 1.24713e-05 1.10512 1.24713e-05 1.50401ZM0.157715 1.50401C0.157715 0.758094 0.737974 0.148821 1.50401 0.148821C2.26677 0.148821 2.84282 0.750139 2.84282 1.49559C2.84282 2.24197 2.26209 2.85031 1.49606 2.85031C0.733763 2.85031 0.157715 2.24946 0.157715 1.50401Z" fill="#9CA3AF"/>
</svg>
