<svg width="84" height="40" viewBox="0 0 84 40" fill="none" xmlns="http://www.w3.org/2000/svg">
<path d="M10.4232 16.2472V19.0466H17.1537C16.975 20.5952 16.4389 21.7864 15.6051 22.5607C14.6521 23.5137 13.1035 24.5858 10.4232 24.5858C6.3135 24.5858 3.09719 21.2504 3.09719 17.1406C3.09719 13.0309 6.25394 9.69548 10.4232 9.69548C12.627 9.69548 14.2947 10.5889 15.4859 11.7206L17.4515 9.75504C15.7838 8.14688 13.5204 6.89609 10.4232 6.89609C4.76491 6.89609 0 11.4823 0 17.1406C0 22.799 4.76491 27.3852 10.4232 27.3852C13.4609 27.3852 15.7838 26.3727 17.5706 24.5263C19.417 22.6798 20.0126 20.0592 20.0126 17.9745C20.0126 17.3193 19.9531 16.7237 19.8935 16.2472H10.4232Z" fill="#9CA3AF"/>
<path d="M28.3518 13.9246C24.7186 13.9246 21.6809 16.724 21.6809 20.5359C21.6809 24.3479 24.659 27.1472 28.3518 27.1472C32.0446 27.1472 35.0227 24.4074 35.0227 20.5955C35.0227 16.724 32.0446 13.9246 28.3518 13.9246ZM28.3518 24.5861C26.3267 24.5861 24.5994 22.9184 24.5994 20.5955C24.5994 18.213 26.3267 16.6049 28.3518 16.6049C30.3769 16.6049 32.1042 18.213 32.1042 20.5955C32.1042 22.9184 30.3769 24.5861 28.3518 24.5861Z" fill="#9CA3AF"/>
<path d="M60.9325 15.4137H60.8134C60.1582 14.6394 58.9074 13.9246 57.2992 13.9246C53.9638 13.9246 51.1049 16.7836 51.1049 20.5359C51.1049 24.2287 53.9638 27.1472 57.2992 27.1472C58.9074 27.1472 60.1582 26.4325 60.8134 25.6582H60.9325V26.6112C60.9325 29.1128 59.5626 30.4827 57.4184 30.4827C55.6315 30.4827 54.5594 29.2319 54.0829 28.1002L51.5814 29.1723C52.2961 30.8996 54.2616 33.1034 57.4779 33.1034C60.8729 33.1034 63.7914 31.0783 63.7914 26.1943V14.282H61.0516V15.4137H60.9325ZM57.597 24.5861C55.572 24.5861 54.0829 22.8588 54.0829 20.5955C54.0829 18.2726 55.6315 16.6049 57.597 16.6049C59.5626 16.6049 61.1112 18.3322 61.1112 20.6551C61.1707 22.9184 59.6221 24.5861 57.597 24.5861Z" fill="#9CA3AF"/>
<path d="M43.1828 13.9245C39.5495 13.9245 36.5119 16.7239 36.5119 20.5358C36.5119 24.3477 39.49 27.1471 43.1828 27.1471C46.8756 27.1471 49.8537 24.4073 49.8537 20.5954C49.8537 16.7239 46.8756 13.9245 43.1828 13.9245ZM43.1828 24.586C41.1577 24.586 39.4304 22.9183 39.4304 20.5954C39.4304 18.2129 41.1577 16.6048 43.1828 16.6048C45.2079 16.6048 46.9352 18.2129 46.9352 20.5954C46.9352 22.9183 45.2079 24.586 43.1828 24.586ZM65.9948 7.19406H68.8537V27.2067H65.9948V7.19406Z" fill="#9CA3AF"/>
<path d="M77.6696 24.5861C76.1806 24.5861 75.168 23.9309 74.4533 22.561L83.3279 18.9278L83.0301 18.1535C82.4941 16.6645 80.7668 13.9246 77.3718 13.9246C73.9768 13.9246 71.1179 16.6049 71.1179 20.5359C71.1179 24.2287 73.9172 27.1472 77.6696 27.1472C80.7072 27.1472 82.4345 25.3008 83.2088 24.2287L80.9455 22.7397C80.1712 23.8714 79.1586 24.5861 77.6696 24.5861ZM77.4909 16.4262C78.6822 16.4262 79.6947 17.0218 79.9925 17.8557L74.0364 20.3573C73.9768 17.6174 76.0019 16.4262 77.4909 16.4262Z" fill="#9CA3AF"/>
</svg>
