<svg width="50" height="40" viewBox="0 0 50 40" fill="none" xmlns="http://www.w3.org/2000/svg">
<path d="M30.4588 18.4983C30.4871 18.4531 30.5028 18.4012 30.5042 18.3479C30.5056 18.2946 30.4927 18.2419 30.4669 18.1953C30.4411 18.1487 30.4032 18.1098 30.3572 18.0828C30.3113 18.0558 30.2589 18.0416 30.2056 18.0417H24.9686C24.9233 18.0416 24.8785 18.0313 24.8378 18.0113C24.797 17.9914 24.7614 17.9625 24.7335 17.9267C24.7056 17.8909 24.6863 17.8492 24.677 17.8049C24.6676 17.7605 24.6685 17.7145 24.6796 17.6706L26.3097 11.2024C26.3929 10.8729 25.949 10.6833 25.7675 10.9711L19.1039 21.5607C19.0753 21.6059 19.0594 21.6578 19.0578 21.7112C19.0561 21.7645 19.0688 21.8174 19.0946 21.8641C19.1203 21.9109 19.1582 21.9499 19.2041 21.9771C19.2501 22.0042 19.3025 22.0185 19.3559 22.0185H24.5929C24.7883 22.0185 24.9305 22.2012 24.8819 22.3896L23.2518 28.8567C23.1698 29.1862 23.6137 29.3769 23.7952 29.0891L30.4588 18.4983Z" stroke="#1C1B25" stroke-width="1.50289" stroke-miterlimit="10" stroke-linecap="round" stroke-linejoin="round"/>
</svg>
