<svg width="101" height="43" viewBox="0 0 101 43" fill="none" xmlns="http://www.w3.org/2000/svg">
<g clip-path="url(#clip0_8_3621)">
<path d="M34.7525 42.3062C37.6552 41.8516 39.1065 41.3014 39.1065 40.6555C39.1065 40.0096 37.6552 39.4574 34.7525 38.9989C31.8529 38.5444 28.349 38.3171 24.2406 38.3171C20.1322 38.3171 16.6282 38.5444 13.7287 38.9989C10.83 39.4574 9.38062 40.0096 9.38062 40.6555C9.38062 41.3014 10.83 41.8516 13.7287 42.3062C16.6314 42.7647 20.1354 42.9939 24.2406 42.9939C28.3458 42.9939 31.8497 42.7647 34.7525 42.3062Z" fill="#E1D5C3"/>
<path d="M39.1007 40.6556C39.1007 41.3015 37.6493 41.8517 34.7466 42.3062C31.8439 42.7607 28.3399 42.99 24.2347 42.994C20.1287 42.994 16.6248 42.7647 13.7229 42.3062C10.8209 41.8477 9.37158 41.2975 9.37476 40.6556C9.37476 40.0097 10.8241 39.4575 13.7229 38.999C16.6216 38.5405 20.1255 38.3132 24.2347 38.3172C28.3407 38.3172 31.8447 38.5445 34.7466 38.999C37.6485 39.4535 39.0999 40.0057 39.1007 40.6556Z" stroke="#E1D5C3" stroke-width="0.1" stroke-linecap="round" stroke-linejoin="round"/>
<path d="M36.9445 1.93749C35.0778 0.522892 32.8859 -0.115031 30.3686 0.0237169C29.8987 0.0516261 29.194 0.0795348 28.2543 0.107444C27.3146 0.135353 26.6078 0.16127 26.134 0.185192C25.1784 0.24101 23.8484 0.294834 22.1442 0.346665C20.2688 0.398496 18.9369 0.444348 18.1485 0.484218C16.8823 0.544024 16.1099 0.583894 15.8312 0.603829C15.0569 0.668028 14.2918 0.816422 13.5496 1.04639C11.5938 1.68431 10.0608 2.65316 8.95065 3.95292C7.80709 5.29256 7.13019 6.96113 6.91995 8.95863C6.80365 10.2871 6.78169 11.6221 6.85425 12.9536C6.89327 13.8419 6.96096 15.1776 7.05732 16.9606C7.07331 17.1241 7.04656 17.289 6.97967 17.439C6.89927 17.5678 6.77352 17.6617 6.62729 17.7022L6.54367 17.6603L6.28685 17.3373C5.89736 16.8211 5.37209 16.4235 4.76979 16.1891C4.16989 15.971 3.52402 15.9113 2.89438 16.0157C2.29092 16.0926 1.72364 16.3464 1.26384 16.7453C0.80831 17.1577 0.463324 17.6779 0.260437 18.2584C-0.00166495 18.9713 -0.0696885 19.7412 0.0633399 20.4891C0.442404 22.8303 1.36617 24.6324 2.83465 25.8955C3.11647 26.1304 3.37819 26.3884 3.61707 26.667C3.85109 26.956 4.02383 27.2897 4.12475 27.6478C4.90656 29.6083 6.40016 31.2 8.3056 32.1033C9.17689 32.5193 10.0872 32.8478 11.0232 33.0841C11.9562 33.317 12.9013 33.4987 13.8542 33.6283C14.1409 33.6682 14.334 33.7579 14.4335 33.8974C14.5331 34.037 14.555 34.2383 14.4992 34.5015C14.4276 34.9002 14.3221 35.4962 14.1827 36.2896C14.0513 36.9874 13.9259 37.5794 13.8064 38.0659C13.6153 38.8553 13.6591 39.5072 13.9378 40.0215C14.2165 40.5358 14.7362 40.9246 15.4967 41.1877C16.5205 41.5247 17.5905 41.7003 18.6682 41.708C19.7398 41.7088 20.8106 41.6489 21.8755 41.5286C22.2345 41.5048 22.5807 41.3859 22.8787 41.1842C23.1767 40.9824 23.4159 40.705 23.5717 40.3803C23.7461 40.0594 23.8409 39.7011 23.8482 39.3358C23.8554 38.9705 23.775 38.6088 23.6135 38.2812C23.2114 37.416 22.6838 36.7541 22.0308 36.2956C21.9353 36.2363 21.8471 36.1661 21.768 36.0863C21.73 36.038 21.7032 35.9817 21.6898 35.9217C21.6764 35.8617 21.6765 35.7994 21.6903 35.7394C21.7494 35.3256 21.7714 34.9073 21.756 34.4895C21.7371 34.3256 21.782 34.1606 21.8815 34.029C22.0149 33.9276 22.18 33.8767 22.3473 33.8855C23.4463 33.8408 24.595 33.771 25.7935 33.6762C26.0086 33.6558 26.1519 33.6941 26.2355 33.7898C26.3177 33.9198 26.3554 34.073 26.343 34.2264C26.355 34.6729 26.3948 35.9448 26.4625 38.0419C26.4896 38.7748 26.6807 39.3608 27.0359 39.8002C27.391 40.2396 27.9266 40.5446 28.6425 40.7152C29.5771 40.9242 30.5345 41.0127 31.4915 40.9784C32.4431 40.9389 33.3909 40.835 34.3285 40.6674C34.5872 40.6285 34.835 40.5361 35.0561 40.3961C35.2771 40.2561 35.4667 40.0715 35.6126 39.854C35.924 39.407 36.0736 38.8668 36.0366 38.323C36.0229 37.6846 35.8349 37.062 35.4931 36.5229C35.1416 36.003 34.6422 35.6009 34.0597 35.3686C33.6384 35.1924 33.3418 34.9931 33.1698 34.7706C32.9826 34.5194 32.895 34.1805 32.907 33.7539C32.9026 33.5886 32.9374 33.4247 33.0085 33.2755C33.0994 33.1477 33.2328 33.0565 33.3848 33.0183C33.9722 32.8321 34.5485 32.6125 35.1109 32.3604C38.5718 30.7417 40.5388 28.0903 41.0119 24.4063C41.0874 23.7634 41.1114 23.1154 41.0835 22.4686C41.0389 21.6114 41.0091 20.9675 40.9939 20.5369C40.9788 20.0864 40.939 18.7228 40.8745 16.4462C40.8267 14.7797 40.773 13.4181 40.7132 12.3615C40.7132 12.2898 40.6933 11.5821 40.6535 10.2385C40.6409 9.5322 40.5871 8.82729 40.4922 8.12733C40.0941 5.4959 38.9095 3.43262 36.9385 1.93749M32.3754 2.18269C33.902 2.41046 35.3119 3.13314 36.389 4.23999C37.4829 5.3336 38.1951 6.75148 38.4197 8.28283C38.4827 8.70146 38.5304 9.19785 38.5631 9.77198C38.579 10.1069 38.5969 10.6033 38.6168 11.2611C38.6885 12.8918 38.7602 14.8734 38.8319 17.2058C38.8717 18.5255 38.9314 20.505 39.011 23.1444C39.0283 24.2015 38.8248 25.2506 38.4138 26.2244C38.4108 26.231 38.4067 26.2371 38.4018 26.2424C38.3975 26.257 38.3915 26.271 38.3839 26.2842C37.8203 27.5661 36.9357 28.6806 35.8157 29.5197C34.8003 30.2692 33.546 30.8214 32.0529 31.1763C31.4121 31.3148 30.7607 31.3989 30.1058 31.4275C29.2298 31.4594 28.5748 31.4913 28.1408 31.5232C27.1852 31.5949 26.0245 31.6567 24.6587 31.7086C23.109 31.7564 21.9464 31.7963 21.1707 31.8282C20.063 31.9199 19.2308 31.9837 18.6741 32.0195C17.8373 32.0935 16.9944 32.0613 16.1656 31.9239C15.0579 31.7293 14.2277 31.5798 13.675 31.4753C13.2322 31.3956 12.8201 31.3158 12.4387 31.2361C12.2488 31.1954 12.066 31.1536 11.8892 31.1105C11.6455 31.0531 11.4166 30.9953 11.2023 30.9371C10.3275 30.7113 9.48465 30.3757 8.69383 29.9383C7.89968 29.4849 7.21301 28.8647 6.68104 28.1202C6.40154 27.7177 6.16152 27.2891 5.96432 26.8404C5.86478 26.6219 5.67963 26.1714 5.40887 25.4888C5.31598 25.2259 5.1343 25.0038 4.89522 24.8609C4.07417 24.4131 3.39692 23.7411 2.94216 22.9232C2.55991 22.2502 2.26327 21.383 2.05223 20.3216C2.0069 20.1108 1.97696 19.8969 1.96264 19.6817C1.95217 19.4583 1.98461 19.235 2.05821 19.0239C2.25252 18.4657 2.6069 18.1188 3.12134 17.9832C3.63579 17.8477 4.1116 17.9813 4.5488 18.3839C4.86982 18.6821 5.12425 19.0449 5.29538 19.4485C5.54305 20.0266 5.72024 20.4273 5.82695 20.6506C5.99419 21.0014 6.24305 21.1689 6.57353 21.1529C6.88053 21.1374 7.09674 20.9556 7.22455 20.6087C7.44275 20.0226 7.67768 19.588 7.92933 19.3049C8.04251 19.1633 8.17523 19.0384 8.32352 18.9341C8.39975 18.8855 8.48758 18.8582 8.5779 18.8551C8.66822 18.8519 8.75774 18.873 8.83717 18.9162C8.91892 18.9543 8.99129 19.0099 9.0491 19.0791C9.10692 19.1484 9.14876 19.2296 9.17164 19.3169C9.20858 19.4961 9.21263 19.6805 9.18359 19.8611C9.11291 20.3732 9.01119 20.8805 8.87898 21.3802C8.79934 21.7151 8.66396 22.2135 8.47284 22.8753C8.19287 23.8702 8.22835 24.9276 8.57437 25.9015C8.87359 26.7658 9.41218 27.527 10.1273 28.0963C10.2085 28.1621 10.2921 28.2267 10.3781 28.2877L10.7484 28.5269L10.7604 28.5329C10.8105 28.5628 10.8583 28.5891 10.9037 28.6106L10.9515 28.6286C11.3433 28.7881 11.6857 28.7023 11.9788 28.3714C12.0649 28.2765 12.1306 28.1649 12.1717 28.0435C12.2128 27.9221 12.2284 27.7935 12.2177 27.6657C12.2143 27.5333 12.184 27.4029 12.1285 27.2825C12.0731 27.1622 11.9937 27.0545 11.8952 26.966C11.4509 26.5693 11.0394 26.1373 10.6648 25.6742C10.4423 25.3927 10.2834 25.0662 10.1989 24.7173C10.1246 24.3531 10.1472 23.9756 10.2646 23.6229C10.5434 22.7218 10.7365 22.042 10.844 21.5835C11.0136 20.8983 11.1057 20.1962 11.1187 19.4903C11.1307 18.1778 10.5832 17.3505 9.47624 17.0084C9.35258 16.9783 9.24422 16.9038 9.17164 16.7991C9.11757 16.6869 9.08707 16.5648 9.08205 16.4403C9.00384 15.6074 8.96796 14.771 8.97454 13.9344C8.96658 12.7176 8.94866 11.8803 8.92079 11.4226C8.84043 10.3307 8.93111 9.233 9.18956 8.1692C9.82664 5.71957 11.3437 4.06297 13.7407 3.19938C13.908 3.13957 14.08 3.07977 14.2544 3.03192C14.4288 2.98408 14.5876 2.93982 14.762 2.90035C14.7842 2.89549 14.8062 2.8895 14.8277 2.88241C15.1718 2.80745 15.5361 2.74566 15.9207 2.69701C16.3986 2.63721 16.964 2.59335 17.617 2.56544C18.7637 2.5176 20.4819 2.45181 22.7714 2.36808C25.0609 2.28436 26.779 2.21658 27.9258 2.16475C28.4243 2.14401 29.1689 2.10813 30.1596 2.0571C30.9044 2.03039 31.6502 2.07243 32.3874 2.18269M30.2611 33.425C30.7708 33.3971 31.0196 33.6482 31.0077 34.1785C30.9813 34.8944 31.0213 35.6111 31.1271 36.3195C31.1401 36.4814 31.2124 36.6326 31.3302 36.7442C31.3931 36.79 31.4652 36.8217 31.5414 36.8372C31.6177 36.8527 31.6964 36.8515 31.7722 36.8339C32.1161 36.7829 32.4671 36.8114 32.7984 36.9171C33.1296 37.0229 33.4324 37.203 33.6834 37.4439C33.6954 37.719 33.5879 38.01 33.3609 38.317C33.1303 38.6244 32.901 38.7871 32.674 38.8074C31.9215 38.8672 31.368 38.9011 31.0136 38.9091C30.4576 38.9233 29.9015 38.8832 29.3532 38.7895C28.8396 38.6938 28.539 38.3709 28.4514 37.8207C28.3627 37.1906 28.3188 36.5551 28.32 35.9188L28.308 34.0111C28.2997 33.712 28.4358 33.553 28.7142 33.5326C29.0574 33.5119 29.571 33.474 30.2551 33.419M21.1826 38.1795C21.2704 38.2855 21.3446 38.402 21.4036 38.5264C21.4341 38.5801 21.4482 38.6417 21.4439 38.7034C21.4397 38.7651 21.4173 38.8242 21.3797 38.8732C21.2711 39.0297 21.1809 39.1983 21.111 39.3756C21.06 39.4652 20.9861 39.5396 20.8969 39.5911C20.8076 39.6426 20.7063 39.6694 20.6033 39.6686C19.5959 39.6806 18.9031 39.6806 18.5248 39.6686C17.8305 39.6506 17.1391 39.5726 16.4583 39.4354C16.072 39.3557 15.8371 39.246 15.7535 39.1065C15.6699 38.9669 15.6719 38.7058 15.7595 38.323C16.0549 36.9156 16.2998 35.6517 16.4941 34.5314C16.5005 34.3956 16.5581 34.2673 16.6554 34.1725C16.768 34.1036 16.901 34.0761 17.0317 34.0948C17.3183 34.1068 17.6667 34.1127 18.0769 34.1127C18.307 34.1127 18.6534 34.1107 19.1161 34.1068C19.3821 34.0948 19.5672 34.1486 19.6716 34.2682C19.7689 34.4073 19.8076 34.5792 19.7791 34.7467L19.6596 36.8817C19.6375 37.0565 19.6754 37.2337 19.7671 37.3841C19.8243 37.4537 19.8952 37.5109 19.9753 37.5521C20.0554 37.5932 20.1431 37.6175 20.233 37.6233C20.4205 37.6474 20.6012 37.7091 20.7644 37.8046C20.9275 37.9002 21.0698 38.0277 21.1826 38.1795Z" fill="black"/>
<path d="M21.4035 38.5264C21.3445 38.402 21.2703 38.2855 21.1825 38.1795C21.0684 38.0281 20.9249 37.9014 20.7607 37.8068C20.5965 37.7123 20.415 37.6519 20.2269 37.6293C20.137 37.6235 20.0493 37.5992 19.9692 37.5581C19.889 37.517 19.8182 37.4598 19.761 37.3901C19.6693 37.2397 19.6314 37.0626 19.6535 36.8877L19.773 34.7527C19.8015 34.5853 19.7628 34.4133 19.6655 34.2743C19.5611 34.1546 19.376 34.1008 19.11 34.1128C18.6473 34.1128 18.3009 34.1148 18.0708 34.1188C17.6614 34.1188 17.313 34.1128 17.0255 34.1008C16.8949 34.0821 16.7618 34.1096 16.6493 34.1786C16.552 34.2734 16.4944 34.4016 16.488 34.5374C16.2937 35.6585 16.0488 36.9224 15.7534 38.3291C15.6737 38.7206 15.6717 38.9817 15.7474 39.1125C15.823 39.2433 16.058 39.3529 16.4522 39.4414C17.133 39.5786 17.8244 39.6567 18.5187 39.6747C18.897 39.6866 19.5898 39.6866 20.5972 39.6747C20.7018 39.6759 20.8048 39.6488 20.8952 39.5961C20.9856 39.5435 21.0602 39.4673 21.1108 39.3756C21.1808 39.1984 21.271 39.0298 21.3796 38.8733C21.4172 38.8242 21.4395 38.7651 21.4438 38.7035C21.448 38.6418 21.434 38.5802 21.4035 38.5264ZM31.0016 34.1786C31.0135 33.6483 30.7646 33.3971 30.255 33.425C29.5701 33.4816 29.0565 33.5195 28.714 33.5387C28.4357 33.559 28.2995 33.7181 28.3079 34.0171L28.3198 35.9249C28.3187 36.5611 28.3626 37.1967 28.4512 37.8267C28.5388 38.3769 28.8395 38.6998 29.3531 38.7955C29.9014 38.8892 30.4575 38.9293 31.0135 38.9151C31.3687 38.9064 31.9221 38.8725 32.6739 38.8135C32.9009 38.7931 33.1302 38.6305 33.3608 38.3231C33.5913 38.0157 33.6952 37.725 33.6833 37.4499C33.4322 37.2091 33.1295 37.0289 32.7982 36.9232C32.467 36.8174 32.116 36.789 31.772 36.8399C31.6962 36.8576 31.6175 36.8587 31.5413 36.8432C31.465 36.8278 31.393 36.796 31.33 36.7502C31.2123 36.6387 31.1399 36.4874 31.127 36.3256C31.0212 35.6171 30.9812 34.9004 31.0075 34.1845M4.55464 18.396C4.11664 17.9973 3.64082 17.8637 3.12717 17.9953C2.61352 18.1268 2.25914 18.4737 2.06404 19.0359C1.99044 19.247 1.958 19.4703 1.96847 19.6937C1.98279 19.9089 2.01274 20.1228 2.05806 20.3336C2.26989 21.395 2.56654 22.2622 2.94799 22.9352C3.40275 23.7531 4.08001 24.4251 4.90105 24.8729C5.14013 25.0158 5.32181 25.238 5.4147 25.5008C5.68546 26.1826 5.87061 26.6331 5.97015 26.8524C6.16613 27.2968 6.40413 27.7213 6.6809 28.1203C7.21245 28.8597 7.89693 29.4758 8.68771 29.9264C9.47853 30.3638 10.3214 30.6994 11.1962 30.9252C11.4096 30.9834 11.6386 31.0412 11.8831 31.0986C12.0599 31.1417 12.2414 31.1835 12.4326 31.2242L10.9036 28.6107C10.8582 28.5892 10.8104 28.5629 10.7602 28.5329L10.7483 28.527L10.378 28.2877C10.292 28.2267 10.2084 28.1622 10.1271 28.0964C9.41204 27.5271 8.87344 26.7658 8.57423 25.9015C8.2282 24.9277 8.19272 23.8703 8.4727 22.8754C8.66064 22.2135 8.79602 21.7151 8.87884 21.3802C9.01105 20.8805 9.11277 20.3733 9.18344 19.8612C9.21249 19.6806 9.20844 19.4961 9.1715 19.317C9.14861 19.2296 9.10677 19.1485 9.04896 19.0792C8.99115 19.0099 8.91878 18.9543 8.83703 18.9163C8.7576 18.8731 8.66808 18.852 8.57776 18.8551C8.48744 18.8583 8.39961 18.8856 8.32338 18.9342C8.17509 19.0385 8.04237 19.1633 7.92919 19.305C7.67833 19.5889 7.44341 20.0235 7.22441 20.6087C7.09659 20.9556 6.88039 21.1374 6.57339 21.153C6.24211 21.1681 5.99325 21.0007 5.82681 20.6506C5.7193 20.4265 5.54211 20.0258 5.29524 19.4485C5.12411 19.0449 4.86968 18.6822 4.54866 18.384L4.55464 18.396Z" fill="#2199DF"/>
<path d="M11.9488 6.75185C12.1675 5.97875 12.5236 5.25145 12.9999 4.60484C13.4887 3.94474 14.0818 3.369 14.7559 2.90039C14.5815 2.93986 14.4119 2.98412 14.2482 3.03196C14.0846 3.07981 13.9018 3.13961 13.7346 3.19942C11.3415 4.06301 9.82647 5.71961 9.18939 8.16924C8.93233 9.23529 8.84365 10.3351 8.92659 11.4286C8.95447 11.8831 8.97238 12.7204 8.98035 13.9404C8.97376 14.777 9.00964 15.6134 9.08786 16.4463C9.09288 16.5708 9.12337 16.6929 9.17745 16.8051C9.24958 16.9064 9.3555 16.9785 9.47608 17.0085C10.5838 17.3521 11.1313 18.1794 11.1186 19.4904C11.1055 20.1962 11.0134 20.8983 10.8438 21.5836C10.7363 22.0421 10.5432 22.7219 10.2645 23.6229C10.1471 23.9756 10.1244 24.3531 10.1988 24.7174C10.2832 25.0663 10.4421 25.3927 10.6646 25.6742C11.0393 26.1374 11.4507 26.5694 11.895 26.966C11.9935 27.0546 12.0729 27.1623 12.1283 27.2826C12.1838 27.4029 12.2142 27.5333 12.2175 27.6658C12.2283 27.7935 12.2126 27.9221 12.1715 28.0435C12.1304 28.1649 12.0647 28.2766 11.9786 28.3715C11.6856 28.7056 11.3431 28.7913 10.9513 28.6286L10.9035 28.6107L12.4325 31.2242C12.8132 31.3039 13.2253 31.3837 13.6689 31.4634C14.2216 31.5679 15.0518 31.7174 16.1595 31.9119C16.9883 32.0494 17.8311 32.0815 18.668 32.0076C19.2254 31.9717 20.0576 31.9079 21.1646 31.8162C21.941 31.7883 23.1037 31.7485 24.6526 31.6966C26.0231 31.6456 27.1838 31.5838 28.1347 31.5112C28.5679 31.4785 29.2229 31.4466 30.0997 31.4156C30.7546 31.3869 31.406 31.3029 32.0467 31.1644C33.5399 30.8095 34.7942 30.2573 35.8095 29.5078C36.9295 28.6687 37.8142 27.5542 38.3778 26.2723C38.0879 26.5581 37.7808 26.8258 37.458 27.0737C36.7375 27.5903 35.9719 28.0406 35.1704 28.4193C34.2077 28.8977 32.7782 29.1689 30.8821 29.2327C28.986 29.2965 27.0946 29.3901 25.2081 29.5137C23.3255 29.6334 21.906 29.737 20.9496 29.8247C18.3415 30.0639 16.5835 30.0281 15.6757 29.7171C15.2138 29.5581 14.7963 29.2916 14.4573 28.9396C14.0862 28.5288 13.7487 28.0888 13.4479 27.6239C12.9634 26.7178 12.6037 25.7501 12.3788 24.7473C12.2625 24.1699 12.1769 23.2828 12.122 22.0859C12.0893 21.3563 12.0395 20.523 11.9726 19.5861C11.893 18.4537 11.8512 17.8497 11.8472 17.774C11.8472 17.75 11.8572 17.0962 11.8771 15.8124C11.8941 14.7731 11.8382 13.7339 11.7099 12.7025C11.4192 10.331 11.4988 8.34746 11.9488 6.75185Z" fill="#FFA70B"/>
<path d="M36.395 4.24C35.3178 3.13314 33.908 2.41046 32.3814 2.1827C31.6442 2.07243 30.8985 2.03039 30.1536 2.0571C29.1621 2.10893 28.4175 2.14482 27.9198 2.16475C26.777 2.21658 25.0589 2.28436 22.7654 2.36809C20.4719 2.45182 18.7538 2.5176 17.611 2.56545C16.954 2.59256 16.3886 2.63642 15.9148 2.69702C15.5301 2.74487 15.1658 2.80666 14.8218 2.88242C14.8002 2.88951 14.7783 2.89549 14.7561 2.90036C14.082 3.36897 13.4888 3.9447 13.0001 4.60481C12.5237 5.25142 12.1676 5.97872 11.9489 6.75182C11.4982 8.34663 11.4186 10.3361 11.71 12.7204C11.8384 13.7518 11.8943 14.791 11.8773 15.8303C11.8565 17.1133 11.8466 17.7672 11.8474 17.7919C11.8474 17.8668 11.8892 18.4709 11.9728 19.604C12.0413 20.5409 12.0911 21.3742 12.1221 22.1038C12.1779 23.2999 12.2635 24.1871 12.379 24.7652C12.6039 25.768 12.9635 26.7357 13.4481 27.6418C13.7488 28.1067 14.0864 28.5467 14.4574 28.9575C14.7964 29.3095 15.214 29.576 15.6759 29.735C16.5837 30.0492 18.3417 30.085 20.9497 29.8426C21.9053 29.7549 23.3248 29.6513 25.2082 29.5317C27.0916 29.412 28.9829 29.3183 30.8822 29.2506C32.7792 29.1836 34.2086 28.9125 35.1706 28.4372C35.972 28.0586 36.7376 27.6082 37.4581 27.0916C37.7809 26.8437 38.0881 26.576 38.3779 26.2902C38.3855 26.277 38.3916 26.263 38.3958 26.2483C38.4008 26.243 38.4048 26.237 38.4078 26.2304C38.8189 25.2566 39.0223 24.2075 39.0051 23.1504C38.9254 20.511 38.8657 18.5315 38.8259 17.2118C38.7542 14.8794 38.6825 12.8978 38.6109 11.2671C38.5902 10.6093 38.5722 10.1129 38.5571 9.77797C38.5252 9.20384 38.4775 8.70745 38.4138 8.28882C38.1936 6.75681 37.4856 5.33684 36.395 4.24Z" fill="#FED234"/>
<path d="M10.9072 28.6108L12.435 31.2243" stroke="#2199DF" stroke-width="0.1" stroke-linecap="round" stroke-linejoin="round"/>
<path d="M14.8218 2.88623L14.7561 2.90058C14.082 3.3692 13.4888 3.94493 13.0001 4.60504C12.5237 5.25164 12.1676 5.97894 11.9489 6.75204C11.4982 8.34685 11.4186 10.3376 11.71 12.7242C11.8382 13.7524 11.8941 14.7884 11.8773 15.8245C11.8565 17.1075 11.8466 17.7614 11.8474 17.7861C11.8474 17.8611 11.8892 18.4651 11.9728 19.5982C12.0413 20.5352 12.0911 21.3685 12.1221 22.0981C12.1779 23.2942 12.2635 24.1813 12.379 24.7594C12.6039 25.7623 12.9635 26.7299 13.4481 27.6361C13.7488 28.101 14.0864 28.5409 14.4574 28.9518C14.7964 29.3038 15.214 29.5702 15.6759 29.7292C16.5837 30.0434 18.3417 30.0793 20.9497 29.8369C21.9053 29.7492 23.3256 29.6463 25.2106 29.5283C27.0956 29.4103 28.9861 29.317 30.8822 29.2484C32.7792 29.179 34.2086 28.9067 35.1706 28.4315C35.972 28.0528 36.7376 27.6024 37.4581 27.0858C37.7804 26.8385 38.0875 26.5721 38.3779 26.288L38.3994 26.2462" stroke="#FFA70B" stroke-width="0.1" stroke-linecap="round" stroke-linejoin="round"/>
<path d="M76.4955 14.102C76.2565 14.2735 76.0495 14.5585 75.8743 14.9572C75.5159 15.7547 75.0779 16.6956 74.5603 17.7801C74.2704 18.402 73.8285 19.337 73.2344 20.5849C73.183 20.7165 73.1412 20.8146 73.109 20.878C73.0587 20.9769 72.9736 21.0537 72.87 21.0933C72.7848 21.0353 72.7151 20.9572 72.667 20.866C72.6108 20.7464 72.5678 20.6567 72.5356 20.5969L70.1346 15.7168C69.8391 15.1068 69.6361 14.712 69.5254 14.5326C69.4134 14.3225 69.2487 14.1453 69.0475 14.0183C68.8333 13.9244 68.6003 13.8815 68.3667 13.8927C67.9159 13.9047 67.5158 13.9087 67.1662 13.9047C66.8046 13.9047 66.5578 13.9645 66.4256 14.0841C66.2934 14.2037 66.2177 14.4429 66.1986 14.8018L65.6133 26.4279C65.6049 26.7784 65.6694 27.026 65.8044 27.1635C65.9394 27.3011 66.1783 27.3824 66.5211 27.3908C66.8317 27.4027 67.21 27.4007 67.6559 27.3848C67.9784 27.376 68.2054 27.3043 68.3368 27.1695C68.4563 27.0379 68.5303 26.8023 68.5458 26.4638L68.7848 20.0826C68.7848 20.0467 68.823 19.8039 68.8863 19.3529C70.487 22.5226 71.3251 24.1852 71.4008 24.3407C71.6962 24.9387 72.174 25.2318 72.8342 25.2198C73.4394 25.2198 73.8874 24.9148 74.1781 24.3048C74.4966 23.635 75.2074 22.2096 76.3103 20.0287C76.37 19.9059 76.4895 19.6906 76.6687 19.3828C76.677 19.4223 76.7069 19.5886 76.7583 19.8792C76.7821 20.0117 76.798 20.1455 76.806 20.2799C76.818 20.4625 76.8578 21.3377 76.9255 22.9054C76.9693 23.9611 77.021 24.8343 77.0808 25.5248C77.1082 25.8358 77.1369 26.1947 77.1644 26.6013C77.1923 26.8764 77.252 27.0638 77.3436 27.1635C77.4391 27.2747 77.6159 27.3453 77.8751 27.3728C78.0663 27.3928 78.4505 27.3987 79.0279 27.3908C79.4221 27.3828 79.6888 27.2991 79.8282 27.1396C79.9676 26.9801 80.0173 26.709 79.9775 26.3262C79.9775 26.3262 79.9476 26.1265 79.8879 25.7401C79.8879 25.1182 79.878 24.6617 79.8581 24.3706C79.5984 20.2161 79.4073 17.1003 79.2847 15.023C79.2568 14.5446 79.1772 14.2396 79.0458 14.108C78.9108 13.9729 78.6134 13.9023 78.1558 13.8987C78.0125 13.8987 77.9026 13.9047 77.8273 13.9047C77.7238 13.9104 77.62 13.9084 77.5168 13.8987C77.1629 13.8323 76.7971 13.9052 76.4955 14.102Z" fill="black"/>
<path d="M89.9935 18.9822C89.3811 18.3211 88.5728 17.8766 87.5686 17.6485C85.3555 17.1422 83.5498 17.7143 82.1514 19.3649C81.2316 20.6806 80.9429 22.1519 81.2853 23.7786C81.6716 25.6126 82.7287 26.7947 84.4568 27.325C85.4688 27.6329 86.5438 27.67 87.5746 27.4327C88.9483 27.1376 89.9596 26.4459 90.6087 25.3574C91.2418 24.2889 91.4269 23.0031 91.1641 21.5C90.9849 20.4713 90.5947 19.6321 89.9935 18.9822ZM87.9269 20.884C88.2534 21.3265 88.4127 21.9385 88.4048 22.72C88.3928 23.6019 88.124 24.2538 87.5984 24.6756C87.0729 25.0975 86.4019 25.2131 85.5857 25.0225C85.4885 25.0022 85.3943 24.97 85.3049 24.9268C84.8271 24.7275 84.4747 24.3427 84.2478 23.7726C84.0187 23.1737 83.9709 22.5206 84.1104 21.8947C84.3286 20.7377 85.0035 20.1356 86.1351 20.0886C86.9514 20.0965 87.5487 20.3617 87.9269 20.884Z" fill="black"/>
<path d="M64.6157 23.8861C64.8968 22.5158 64.7052 21.0904 64.0722 19.8433C63.6916 19.1041 63.0988 18.4959 62.37 18.097C61.6683 17.7105 60.8831 17.5012 60.0824 17.487C59.2877 17.452 58.4948 17.5908 57.7591 17.8936C57.0511 18.1686 56.4287 18.6268 55.9553 19.2213C55.4452 19.8939 55.1105 20.6832 54.9818 21.5178C54.8293 22.3892 54.8701 23.2835 55.1012 24.1373C55.3229 24.996 55.7777 25.7764 56.4152 26.392C57.1362 27.0618 58.0535 27.4812 59.0312 27.5881C60.4049 27.7675 61.5915 27.5502 62.5909 26.9362C63.666 26.2783 64.3429 25.2656 64.6216 23.8981M59.3478 20.1064C60.3034 20.0618 61.0082 20.3269 61.4621 20.9018C61.916 21.4768 62.0474 22.2423 61.8563 23.1984C61.7281 23.8052 61.525 24.2677 61.2471 24.5859C60.9698 24.9086 60.5776 25.1103 60.1541 25.148C59.622 25.2312 59.0787 25.1001 58.643 24.7832C58.2071 24.4487 57.918 23.9576 57.8367 23.4137C57.7373 22.8656 57.7413 22.3037 57.8486 21.7571C58.0207 20.8408 58.5184 20.2867 59.3418 20.0945L59.3478 20.1064Z" fill="black"/>
<path d="M46.9963 13.8987C46.5464 13.8867 46.3075 14.114 46.2796 14.5804C46.2677 14.7678 46.2617 15.0469 46.2617 15.4177L46.2498 26.2963C46.2498 26.8106 46.3035 27.1196 46.411 27.2233C46.5185 27.3269 46.843 27.3828 47.3846 27.3907H52.3956C53.0204 27.3907 53.3966 27.3907 53.5245 27.3848C53.7873 27.3644 53.964 27.3046 54.056 27.2053C54.148 27.1061 54.2018 26.9219 54.2173 26.6551C54.2173 26.5953 54.2173 26.2225 54.2173 25.5368C54.2173 25.1811 54.1595 24.9479 54.0441 24.8371C53.9246 24.7258 53.6857 24.6672 53.3214 24.6636C52.3148 24.6636 51.5602 24.6636 51.0577 24.6636C50.4808 24.672 50.1021 24.672 49.9349 24.6636C49.6761 24.6548 49.5088 24.613 49.4332 24.538C49.3579 24.4579 49.3137 24.2904 49.3137 24.0357C49.3221 23.629 49.3233 23.2582 49.3137 22.9233C49.3058 19.8732 49.3078 17.1242 49.3197 14.6761C49.3197 14.3923 49.262 14.1889 49.1465 14.0661C49.031 13.9433 48.8319 13.8855 48.5492 13.8927C48.1463 13.9134 47.6286 13.9154 46.9963 13.8987Z" fill="black"/>
<path d="M95.8887 18.6711C95.8887 18.3207 95.8146 18.0731 95.6796 17.9415C95.5447 17.8099 95.3034 17.7406 94.9629 17.7322C94.5807 17.7322 94.2024 17.7322 93.8281 17.7322C93.4698 17.7406 93.2308 17.798 93.1114 17.9056C92.9919 18.0133 92.9442 18.2525 92.9442 18.6113L92.9501 20.6447C92.9581 23.7785 92.9581 26.1308 92.9501 27.7017C92.9501 28.0877 92.8665 28.3867 92.6993 28.5988C92.5108 28.8152 92.2447 28.9484 91.9587 28.9696C91.4414 29.0414 91.138 29.1275 91.0508 29.2268C90.9636 29.326 90.9194 29.6418 90.9194 30.1717C90.9194 30.8893 90.9792 31.304 91.0986 31.4156C91.2181 31.5273 91.6481 31.5811 92.3887 31.5771C93.4128 31.5651 94.249 31.2302 94.8972 30.5724C95.5455 29.9145 95.8759 29.0772 95.8887 28.0606V22.7977C95.8967 20.6487 95.8967 19.2732 95.8887 18.6711Z" fill="black"/>
<path d="M98.8809 17.7383C98.5548 17.7467 98.317 17.8256 98.1701 17.9775C98.0232 18.1294 97.9575 18.3638 97.9611 18.6832C97.9762 20.4088 97.9802 22.9964 97.973 26.4459C97.973 26.8287 98.0347 27.0799 98.1582 27.1995C98.286 27.3191 98.544 27.3813 98.9346 27.3849L99.8305 27.3909C100.288 27.3909 100.583 27.3251 100.714 27.1935C100.846 27.0619 100.91 26.7689 100.906 26.3144C100.898 23.3392 100.886 21.1085 100.87 19.6221C100.874 19.2569 100.86 18.8916 100.828 18.5277C100.796 18.2646 100.723 18.0792 100.607 17.9715C100.491 17.8639 100.294 17.7945 100.01 17.7622C99.8305 17.7471 99.4542 17.7391 98.8809 17.7383Z" fill="black"/>
<path d="M93.2307 13.8269C93.0403 14.0739 92.9355 14.3762 92.932 14.6881C92.9081 14.997 92.9789 15.3058 93.1351 15.5732C93.3074 15.8623 93.5637 16.0918 93.8698 16.2311C94.1619 16.3764 94.4944 16.4185 94.8134 16.3507C95.1472 16.2798 95.4509 16.1072 95.683 15.8567C95.915 15.6061 96.064 15.2899 96.1095 14.9513C96.1514 14.6275 96.0728 14.2996 95.8885 14.0303C95.6732 13.7091 95.3763 13.451 95.0285 13.2827C94.2878 13.0674 93.6886 13.2488 93.2307 13.8269Z" fill="black"/>
<path d="M99.9977 13.546C99.7056 13.4199 99.38 13.3947 99.072 13.4742C98.7426 13.557 98.4453 13.736 98.2179 13.9886C98.0025 14.2278 97.8759 14.534 97.8595 14.8558C97.8365 15.0819 97.8607 15.3103 97.9306 15.5265C98.0005 15.7427 98.1146 15.942 98.2657 16.1117C98.4137 16.2774 98.5965 16.4083 98.8009 16.4952C99.0053 16.582 99.2264 16.6226 99.4482 16.614C99.6697 16.6239 99.8905 16.5827 100.093 16.4935C100.296 16.4043 100.476 16.2696 100.619 16.0997C100.906 15.7528 101.033 15.2963 101.001 14.7302C100.945 14.5866 100.906 14.4814 100.882 14.4132C100.842 14.3206 100.796 14.2307 100.744 14.1441C100.565 13.8702 100.304 13.6607 99.9977 13.546Z" fill="black"/>
<path d="M19.9402 20.8841C19.6018 21.1632 19.4545 21.6496 19.4983 22.3434C19.5341 22.8271 19.666 23.2989 19.8865 23.7309C20.1055 24.1522 20.3742 24.5458 20.6868 24.903C21.6743 26.0672 22.8867 26.7271 24.3242 26.8826C25.7616 27.0381 27.1632 26.6633 28.5289 25.7583C29.4538 25.0653 30.1892 24.15 30.6671 23.0969C30.8162 22.7843 30.9343 22.4578 31.0195 22.1221C31.1061 21.7821 31.1224 21.428 31.0673 21.0815C30.9566 20.3638 30.5485 20.0289 29.8429 20.0768C29.5251 20.1044 29.2142 20.1853 28.9231 20.316C28.5373 20.4918 28.2458 20.6186 28.0511 20.6987C27.5887 20.8953 27.1138 21.0612 26.6296 21.1951C26.1384 21.3264 25.6329 21.3967 25.1245 21.4044C23.8714 21.3894 22.6282 21.1796 21.4394 20.7825C20.7856 20.5751 20.2878 20.609 19.9462 20.8841M27.0835 24.6997C27.2066 24.7708 27.3244 24.8507 27.4359 24.9389C27.488 24.9843 27.5278 25.042 27.5518 25.1068C27.5758 25.1715 27.5832 25.2413 27.5733 25.3097C27.5616 25.3785 27.5338 25.4436 27.4923 25.4997C27.4508 25.5558 27.3967 25.6014 27.3344 25.6327C27.2045 25.6914 27.0708 25.7414 26.9342 25.7822C26.2294 26.0214 25.4052 26.1111 24.4615 26.0513C24.0709 25.9759 23.789 25.9161 23.6134 25.8719C23.355 25.8199 23.1042 25.7355 22.8668 25.6207C22.6435 25.5011 22.5288 25.3899 22.5204 25.2738C22.5121 25.1578 22.6076 25.0346 22.8071 24.8791C23.3446 24.4804 24.0454 24.2651 24.9095 24.2332C25.7735 24.2013 26.4962 24.3568 27.0776 24.6997H27.0835Z" fill="black"/>
<path d="M27.43 24.9388C27.3185 24.8506 27.2007 24.7707 27.0776 24.6996C26.5003 24.3488 25.7776 24.1913 24.9095 24.2272C24.0415 24.263 23.3407 24.4783 22.8072 24.8731C22.6081 25.0246 22.5125 25.1561 22.5205 25.2678C22.5288 25.3874 22.6399 25.4986 22.8669 25.6146C23.1039 25.7315 23.3548 25.8179 23.6135 25.8718C23.7891 25.9161 24.071 25.9759 24.4616 26.0512C25.4053 26.111 26.2295 26.0213 26.9343 25.7821C27.0708 25.7413 27.2045 25.6913 27.3344 25.6326C27.3968 25.6013 27.4509 25.5558 27.4924 25.4997C27.5339 25.4436 27.5616 25.3785 27.5733 25.3096C27.5826 25.2407 27.5743 25.1706 27.5492 25.1058C27.5242 25.041 27.4831 24.9836 27.43 24.9388Z" fill="#FD6448"/>
<path d="M32.5545 11.7696C32.1085 11.0041 31.4774 10.6373 30.6611 10.6692C29.8449 10.701 29.2118 11.1037 28.7618 11.8772C28.4587 12.392 28.275 12.9683 28.2243 13.5637C28.1606 14.413 28.2183 15.1286 28.3975 15.7107C28.6163 16.4245 29.058 17.0492 29.6577 17.4929C29.9143 17.6693 30.2098 17.7805 30.5188 17.8169C30.8279 17.8534 31.1411 17.814 31.4316 17.7023C31.9567 17.5234 32.3944 17.1514 32.656 16.6616C33.0785 15.9079 33.2948 15.0559 33.2831 14.1917C33.2513 13.3352 33.0004 12.5012 32.5545 11.7696ZM31.3599 11.8892C31.6409 11.9702 31.8868 12.1428 32.0587 12.3796C32.2018 12.6101 32.2667 12.8807 32.2439 13.1511C32.2469 13.2711 32.2097 13.3887 32.1383 13.4851C32.0669 13.5816 31.9653 13.6514 31.8497 13.6833C31.6586 13.7471 31.4515 13.6993 31.2285 13.5398C31.0174 13.3915 30.8618 13.1768 30.7866 12.9298C30.699 12.634 30.7029 12.4027 30.7985 12.236C30.8905 12.0686 31.0768 11.9526 31.3599 11.8892Z" fill="black"/>
<path d="M32.0587 12.3796C31.8867 12.1428 31.6408 11.9702 31.3599 11.8892C31.0768 11.9526 30.8904 12.0686 30.7985 12.236C30.7065 12.4035 30.6993 12.6343 30.7865 12.9298C30.8618 13.1768 31.0173 13.3915 31.2285 13.5398C31.4523 13.6993 31.6593 13.7471 31.8496 13.6833C31.9652 13.6513 32.0668 13.5816 32.1382 13.4851C32.2097 13.3887 32.2468 13.2711 32.2438 13.1511C32.2667 12.8806 32.2017 12.6101 32.0587 12.3796Z" fill="white"/>
<path d="M18.4411 11.094C17.5006 11.094 16.8117 11.5784 16.3745 12.5473C15.6976 14.0272 15.7554 15.5303 16.5477 17.0566C17.196 17.9218 17.9206 18.3145 18.7218 18.2347C19.5229 18.155 20.1441 17.6307 20.5852 16.6619C21.1793 15.3581 21.1415 13.9746 20.4718 12.5114C20.0385 11.5665 19.3616 11.094 18.4411 11.094ZM18.3933 13.3068C18.3396 13.0306 18.3795 12.7443 18.5068 12.4934C18.8564 12.2391 19.1809 12.253 19.4803 12.5353C19.8387 12.879 19.98 13.2298 19.9044 13.5879C19.8885 13.7045 19.8412 13.8145 19.7675 13.9062C19.6939 13.9979 19.5966 14.0677 19.4863 14.1082C19.3719 14.1444 19.2501 14.1502 19.1328 14.125C19.0156 14.0999 18.9068 14.0446 18.8173 13.9646C18.5979 13.807 18.4464 13.5719 18.3933 13.3068Z" fill="black"/>
<path d="M18.5069 12.4935C18.3796 12.7444 18.3397 13.0307 18.3934 13.3069C18.4465 13.572 18.598 13.8071 18.8174 13.9647C18.9069 14.0447 19.0157 14.0999 19.1329 14.1251C19.2502 14.1503 19.372 14.1445 19.4864 14.1083C19.5967 14.0678 19.694 13.998 19.7676 13.9063C19.8413 13.8146 19.8886 13.7045 19.9045 13.588C19.9793 13.2291 19.838 12.8783 19.4804 12.5354C19.1818 12.2483 18.8572 12.2344 18.5069 12.4935Z" fill="white"/>
</g>
<defs>
<clipPath id="clip0_8_3621">
<rect width="101" height="43" fill="white"/>
</clipPath>
</defs>
</svg>
