<svg width="9" height="12" viewBox="0 0 9 12" fill="none" xmlns="http://www.w3.org/2000/svg">
<path d="M5.273 4.8926C3.09955 4.3743 2.71275 4.0102 2.71275 3.24646C2.71275 2.52426 3.39254 2.03851 4.40345 2.03851C5.38351 2.03851 6.35501 2.40775 7.37362 3.16721C7.38888 3.17855 7.40625 3.18674 7.42472 3.19129C7.44318 3.19584 7.46236 3.19666 7.48115 3.19371C7.49993 3.19076 7.51794 3.18409 7.53412 3.1741C7.5503 3.16411 7.56432 3.15099 7.57537 3.13552L8.63639 1.63972C8.6574 1.61008 8.6663 1.57354 8.66128 1.53756C8.65627 1.50158 8.63772 1.46887 8.60941 1.44611C7.39675 0.472898 6.0316 0 4.43557 0C2.08908 0 0.450212 1.40841 0.450212 3.42294C0.450212 5.58353 1.86419 6.34856 4.3075 6.93883C6.3867 7.41815 6.73795 7.81951 6.73795 8.53657C6.73795 9.33159 6.02818 9.8259 4.88577 9.8259C3.61743 9.8259 2.58296 9.39841 1.42556 8.39607C1.39632 8.37182 1.35897 8.35957 1.32104 8.3618C1.30221 8.36328 1.28387 8.36851 1.2671 8.37719C1.25032 8.38587 1.23546 8.39783 1.22338 8.41235L0.0334287 9.82847C0.00958943 9.85666 -0.00227889 9.89305 0.000362596 9.92987C0.00300408 9.96669 0.0199445 10.001 0.047563 10.0255C1.39429 11.2279 3.05072 11.8631 4.83779 11.8631C7.36634 11.8631 9.00006 10.4813 9.00006 8.34296C9.00006 6.53618 7.92062 5.53641 5.273 4.8926Z" fill="#9CA3AF"/>
</svg>
