<svg width="23" height="16" viewBox="0 0 23 16" fill="none" xmlns="http://www.w3.org/2000/svg">
<path d="M3.30532 3.86263H5.44509C5.52342 3.86263 5.58677 3.92683 5.58677 4.00474V5.6758C5.58683 5.69446 5.58321 5.71295 5.57612 5.73022C5.56903 5.74748 5.55861 5.76318 5.54545 5.77641C5.5323 5.78965 5.51666 5.80016 5.49944 5.80736C5.48222 5.81455 5.46375 5.81828 5.44509 5.81834H3.30532V9.83763C3.30532 10.4728 3.58355 10.7558 4.2072 10.7558C4.61213 10.7558 4.97425 10.6689 5.34878 10.4805C5.37052 10.4697 5.39468 10.4645 5.41896 10.4656C5.44324 10.4667 5.46684 10.474 5.48751 10.4868C5.50819 10.4996 5.52525 10.5174 5.53708 10.5386C5.54891 10.5599 5.55511 10.5838 5.5551 10.6081V12.1995C5.5551 12.2501 5.52727 12.298 5.48276 12.3228C4.93744 12.6319 4.35915 12.7761 3.66145 12.7761C1.9463 12.7761 1.07652 11.8901 1.07652 10.1424V5.81834H0.141685C0.123023 5.81828 0.104551 5.81455 0.0873315 5.80736C0.0701115 5.80016 0.0544809 5.78965 0.0413246 5.77641C0.0281683 5.76318 0.017743 5.74748 0.0106533 5.73022C0.00356361 5.71295 -5.56489e-05 5.69446 6.4677e-07 5.6758V4.00474C6.4677e-07 3.9264 0.0629262 3.86263 0.141685 3.86263H1.07652V1.67449C1.07652 1.59616 1.1403 1.53238 1.21906 1.53238H3.16321C3.24197 1.53238 3.30532 1.59659 3.30532 1.67449V3.86263ZM12.8998 3.87119V3.60238C12.8998 2.81222 13.2029 2.45951 13.8826 2.45951C14.2879 2.45951 14.6137 2.54041 14.9784 2.66198C14.9998 2.66911 15.0226 2.67105 15.0449 2.66763C15.0672 2.66421 15.0883 2.65553 15.1066 2.64232C15.1249 2.6291 15.1397 2.61172 15.15 2.59162C15.1602 2.57152 15.1655 2.54927 15.1654 2.52672V0.887754C15.1656 0.857205 15.1559 0.827426 15.1377 0.802831C15.1196 0.778236 15.0941 0.760134 15.0648 0.751209C14.6796 0.636922 14.1869 0.519212 13.4486 0.519212C11.6525 0.519212 10.7036 1.53067 10.7036 3.44272V3.85449H9.76914C9.73137 3.85461 9.69518 3.86966 9.66848 3.89637C9.64177 3.92307 9.62672 3.95926 9.62661 3.99703V5.67623C9.62661 5.75499 9.69081 5.81877 9.76914 5.81877H10.7036V12.4885C10.7036 12.5672 10.7669 12.631 10.8452 12.631H12.7894C12.8681 12.631 12.9319 12.5668 12.9319 12.4885V5.81877H14.7477L17.5286 12.4868C17.2127 13.1875 16.9024 13.327 16.4787 13.327C16.1362 13.327 15.7754 13.2243 15.4064 13.0231C15.3892 13.0137 15.3703 13.0079 15.3508 13.006C15.3313 13.0041 15.3117 13.0061 15.293 13.012C15.2745 13.0185 15.2576 13.0286 15.2431 13.0419C15.2287 13.0551 15.2171 13.0712 15.2091 13.089L14.5499 14.5349C14.5347 14.5676 14.5325 14.6049 14.5439 14.6391C14.5553 14.6733 14.5794 14.7019 14.6111 14.719C15.299 15.0914 15.9205 15.2506 16.688 15.2506C18.1236 15.2506 18.9172 14.5816 19.617 12.7821L22.9904 4.06552C22.9987 4.04395 23.0017 4.02069 22.999 3.99774C22.9964 3.97478 22.9882 3.95281 22.9752 3.93371C22.9622 3.9146 22.9447 3.89894 22.9244 3.88805C22.904 3.87716 22.8813 3.87137 22.8582 3.87119H20.834C20.8044 3.87125 20.7755 3.88046 20.7514 3.89755C20.7273 3.91463 20.709 3.93877 20.6991 3.96664L18.6257 9.88985L16.3545 3.96279C16.3443 3.93587 16.3261 3.9127 16.3024 3.89635C16.2787 3.87999 16.2506 3.87122 16.2218 3.87119H12.8998ZM6.63375 3.8622H8.57833C8.65667 3.8622 8.72088 3.9264 8.72088 4.00474V12.488C8.72088 12.5668 8.65667 12.6306 8.57833 12.6306H6.63375C6.59602 12.6305 6.55988 12.6154 6.53324 12.5887C6.5066 12.562 6.49164 12.5258 6.49164 12.488V4.00431C6.49164 3.9264 6.55542 3.8622 6.63375 3.8622ZM7.61525 0C7.33939 5.19763e-08 7.06974 0.0818109 6.84039 0.235084C6.61103 0.388357 6.43229 0.606207 6.32677 0.861078C6.22124 1.11595 6.19368 1.39639 6.24755 1.66693C6.30143 1.93747 6.43434 2.18595 6.62946 2.38095C6.82457 2.57595 7.07314 2.7087 7.34371 2.76241C7.61428 2.81612 7.89471 2.78839 8.14951 2.6827C8.40432 2.57702 8.62206 2.39815 8.77519 2.1687C8.92832 1.93926 9.00997 1.66955 9.0098 1.3937C9.0098 0.623225 8.38529 0 7.61525 0Z" fill="#9CA3AF"/>
</svg>
