<svg width="603" height="463" viewBox="0 0 603 463" fill="none" xmlns="http://www.w3.org/2000/svg">
<mask id="mask0_8_1098" style="mask-type:luminance" maskUnits="userSpaceOnUse" x="0" y="0" width="603" height="463">
<path d="M602.997 0H0.00341797V462.547H602.997V0Z" fill="white"/>
</mask>
<g mask="url(#mask0_8_1098)">
<path d="M126.458 95.6094V160.197H61.5449V95.6094H126.458Z" fill="#ECECEF"/>
<path d="M126.458 95.6094V160.197H61.5449V95.6094H126.458Z" stroke="#3C9DF6" stroke-width="1.68199" stroke-linecap="round" stroke-linejoin="round"/>
<path d="M126.458 95.6094V160.197H61.5449V95.6094H126.458Z" fill="#FFD63F"/>
<path d="M62.8062 94.2891V96.812H60.2832V94.2891H62.8062Z" stroke="#3C9DF6" stroke-width="1.68199" stroke-linecap="round" stroke-linejoin="round"/>
<path d="M62.8062 94.2891V96.812H60.2832V94.2891H62.8062Z" fill="white"/>
<path d="M62.8062 158.936V161.459H60.2832V158.936H62.8062Z" stroke="#3C9DF6" stroke-width="1.68199" stroke-linecap="round" stroke-linejoin="round"/>
<path d="M62.8062 158.936V161.459H60.2832V158.936H62.8062Z" fill="white"/>
<path d="M127.806 94.2891V96.812H125.283V94.2891H127.806Z" stroke="#3C9DF6" stroke-width="1.68199" stroke-linecap="round" stroke-linejoin="round"/>
<path d="M127.806 94.2891V96.812H125.283V94.2891H127.806Z" fill="white"/>
<path d="M127.72 158.936V161.459H125.197V158.936H127.72Z" stroke="#3C9DF6" stroke-width="1.68199" stroke-linecap="round" stroke-linejoin="round"/>
<path d="M127.72 158.936V161.459H125.197V158.936H127.72Z" fill="white"/>
<path d="M90.9241 130.366C91.3051 130.246 91.7113 130.457 91.8314 130.838C91.9797 131.309 92.1283 131.778 92.2774 132.247C92.3985 132.627 92.188 133.034 91.8073 133.155C91.4266 133.276 91.0198 133.066 90.8987 132.685C90.7493 132.215 90.6003 131.745 90.4516 131.273C90.3315 130.892 90.5431 130.486 90.9241 130.366ZM92.2651 134.581C92.6452 134.458 93.053 134.667 93.1762 135.047C93.4773 135.976 93.7799 136.902 94.0841 137.824C94.2092 138.203 94.0032 138.612 93.6238 138.737C93.2444 138.862 92.8354 138.656 92.7102 138.277C92.4053 137.353 92.1018 136.424 91.7999 135.492C91.6768 135.112 91.8851 134.705 92.2651 134.581ZM94.085 140.122C94.4637 139.995 94.8738 140.199 95.001 140.578C95.3082 141.492 95.6168 142.402 95.927 143.309C96.0562 143.687 95.8546 144.098 95.4767 144.227C95.0987 144.357 94.6874 144.155 94.5581 143.777C94.2471 142.868 93.9376 141.955 93.6297 141.038C93.5024 140.66 93.7063 140.25 94.085 140.122ZM95.9408 145.572C96.3181 145.441 96.7304 145.64 96.8618 146.017C97.175 146.916 97.4895 147.811 97.8056 148.703C97.9391 149.079 97.7421 149.493 97.3656 149.626C96.9891 149.76 96.5756 149.563 96.4421 149.186C96.1251 148.292 95.8096 147.395 95.4956 146.493C95.3642 146.116 95.5636 145.703 95.9408 145.572ZM97.8322 150.931C98.208 150.795 98.6225 150.99 98.7582 151.366C99.0771 152.249 99.3976 153.129 99.7195 154.006C99.8573 154.381 99.665 154.796 99.29 154.934C98.915 155.072 98.4993 154.88 98.3616 154.505C98.0387 153.626 97.7173 152.743 97.3974 151.857C97.2618 151.481 97.4564 151.066 97.8322 150.931ZM99.793 156.291C100.167 156.151 100.584 156.341 100.724 156.715C101.068 157.635 101.414 158.551 101.762 159.463C101.904 159.836 101.717 160.254 101.343 160.396C100.97 160.539 100.552 160.351 100.41 159.978C100.061 159.063 99.7143 158.145 99.3689 157.222C99.229 156.848 99.4188 156.431 99.793 156.291ZM513.112 156.643C513.449 156.858 513.548 157.305 513.333 157.642C513.071 158.052 512.809 158.461 512.547 158.87C512.331 159.206 511.883 159.303 511.547 159.088C511.211 158.872 511.113 158.424 511.329 158.088C511.591 157.68 511.852 157.272 512.113 156.863C512.328 156.526 512.775 156.428 513.112 156.643ZM510.756 160.312C511.091 160.53 511.186 160.978 510.968 161.313C510.441 162.125 509.912 162.934 509.382 163.74C509.163 164.074 508.714 164.167 508.38 163.947C508.046 163.728 507.954 163.279 508.173 162.946C508.702 162.141 509.229 161.334 509.755 160.525C509.973 160.19 510.421 160.095 510.756 160.312ZM101.873 161.773C102.245 161.628 102.664 161.813 102.809 162.185C103.16 163.089 103.512 163.988 103.866 164.883C104.013 165.254 103.831 165.674 103.459 165.821C103.088 165.968 102.668 165.786 102.521 165.415C102.166 164.517 101.812 163.615 101.46 162.709C101.316 162.337 101.5 161.918 101.873 161.773ZM507.586 165.149C507.919 165.37 508.009 165.819 507.788 166.152C507.255 166.953 506.721 167.751 506.186 168.547C505.962 168.878 505.513 168.966 505.182 168.743C504.85 168.52 504.762 168.071 504.985 167.739C505.519 166.946 506.052 166.149 506.583 165.35C506.804 165.018 507.253 164.927 507.586 165.149ZM103.991 167.154C104.362 167.005 104.783 167.184 104.933 167.555C105.29 168.441 105.648 169.324 106.009 170.202C106.16 170.571 105.983 170.994 105.614 171.145C105.244 171.297 104.822 171.12 104.67 170.751C104.309 169.87 103.949 168.985 103.591 168.095C103.441 167.725 103.621 167.303 103.991 167.154ZM504.384 169.921C504.714 170.146 504.8 170.596 504.575 170.926C504.037 171.716 503.498 172.504 502.957 173.289C502.73 173.618 502.28 173.701 501.951 173.474C501.622 173.248 501.539 172.797 501.765 172.468C502.305 171.686 502.842 170.9 503.379 170.112C503.604 169.782 504.054 169.696 504.384 169.921ZM106.148 172.435C106.516 172.281 106.94 172.455 107.094 172.823C107.457 173.693 107.822 174.558 108.189 175.42C108.345 175.787 108.174 176.212 107.806 176.369C107.439 176.525 107.014 176.354 106.857 175.986C106.49 175.122 106.124 174.254 105.759 173.381C105.605 173.012 105.779 172.589 106.148 172.435ZM501.151 174.629C501.479 174.857 501.559 175.308 501.331 175.636C500.776 176.432 500.22 177.226 499.663 178.016C499.432 178.343 498.981 178.421 498.654 178.19C498.328 177.96 498.25 177.509 498.48 177.182C499.036 176.394 499.591 175.603 500.144 174.809C500.373 174.481 500.824 174.4 501.151 174.629ZM108.353 177.643C108.72 177.484 109.146 177.652 109.305 178.019C109.696 178.923 110.09 179.822 110.485 180.716C110.646 181.082 110.481 181.509 110.115 181.67C109.75 181.832 109.323 181.666 109.161 181.301C108.765 180.403 108.37 179.501 107.977 178.594C107.818 178.228 107.987 177.802 108.353 177.643ZM497.812 179.377C498.138 179.609 498.213 180.061 497.981 180.386C497.419 181.173 496.856 181.958 496.292 182.739C496.057 183.063 495.605 183.136 495.282 182.902C494.958 182.668 494.885 182.216 495.119 181.892C495.682 181.113 496.243 180.331 496.803 179.546C497.035 179.221 497.487 179.145 497.812 179.377ZM110.719 183.023C111.083 182.859 111.511 183.021 111.675 183.386C112.073 184.271 112.474 185.151 112.876 186.027C113.042 186.39 112.883 186.819 112.52 186.986C112.157 187.153 111.727 186.993 111.561 186.63C111.157 185.751 110.756 184.868 110.356 183.979C110.192 183.615 110.354 183.187 110.719 183.023ZM494.438 184.064C494.76 184.3 494.831 184.752 494.595 185.075C494.028 185.85 493.459 186.623 492.89 187.393C492.653 187.714 492.199 187.782 491.878 187.544C491.557 187.306 491.489 186.854 491.727 186.532C492.295 185.765 492.862 184.994 493.427 184.221C493.662 183.898 494.115 183.828 494.438 184.064ZM113.125 188.291C113.486 188.122 113.917 188.278 114.086 188.64C114.491 189.507 114.898 190.368 115.307 191.226C115.479 191.586 115.326 192.018 114.965 192.19C114.604 192.362 114.173 192.209 114.001 191.848C113.591 190.988 113.182 190.123 112.776 189.253C112.606 188.891 112.763 188.461 113.125 188.291ZM491.032 188.681C491.352 188.92 491.417 189.374 491.178 189.694C490.605 190.458 490.032 191.219 489.458 191.977C489.217 192.295 488.762 192.358 488.444 192.116C488.126 191.875 488.064 191.421 488.305 191.103C488.877 190.347 489.449 189.588 490.02 188.826C490.259 188.507 490.713 188.441 491.032 188.681ZM487.578 193.253C487.894 193.496 487.954 193.95 487.711 194.267C487.12 195.039 486.527 195.807 485.933 196.572C485.688 196.887 485.233 196.945 484.918 196.7C484.602 196.455 484.545 196 484.79 195.685C485.382 194.922 485.973 194.156 486.564 193.387C486.807 193.07 487.261 193.01 487.578 193.253ZM115.571 193.449C115.93 193.274 116.363 193.424 116.537 193.783C116.949 194.631 117.363 195.474 117.778 196.313C117.955 196.671 117.809 197.105 117.451 197.282C117.093 197.459 116.659 197.313 116.481 196.955C116.065 196.113 115.65 195.266 115.236 194.415C115.062 194.056 115.211 193.623 115.571 193.449ZM484.025 197.842C484.339 198.089 484.393 198.544 484.146 198.858C483.549 199.617 482.952 200.373 482.352 201.125C482.103 201.437 481.648 201.489 481.336 201.241C481.023 200.992 480.972 200.537 481.221 200.224C481.818 199.473 482.414 198.72 483.009 197.964C483.256 197.65 483.711 197.595 484.025 197.842ZM118.075 198.532C118.432 198.352 118.867 198.495 119.047 198.851C119.49 199.73 119.935 200.603 120.382 201.471C120.565 201.826 120.425 202.263 120.07 202.446C119.714 202.629 119.278 202.488 119.095 202.133C118.647 201.262 118.2 200.385 117.755 199.503C117.575 199.147 117.718 198.712 118.075 198.532ZM480.442 202.357C480.753 202.607 480.802 203.063 480.551 203.374C479.95 204.119 479.347 204.863 478.743 205.603C478.49 205.913 478.035 205.959 477.725 205.706C477.415 205.453 477.37 204.998 477.622 204.688C478.224 203.95 478.825 203.21 479.425 202.466C479.676 202.155 480.131 202.106 480.442 202.357ZM120.751 203.756C121.105 203.57 121.542 203.706 121.728 204.06C122.178 204.918 122.63 205.771 123.084 206.618C123.273 206.97 123.14 207.409 122.788 207.597C122.436 207.786 121.998 207.653 121.809 207.301C121.353 206.45 120.899 205.594 120.447 204.733C120.261 204.379 120.397 203.942 120.751 203.756ZM476.831 206.795C477.138 207.05 477.182 207.505 476.927 207.814C476.318 208.551 475.708 209.285 475.096 210.015C474.84 210.322 474.383 210.363 474.077 210.106C473.77 209.85 473.73 209.393 473.987 209.087C474.596 208.359 475.205 207.627 475.812 206.892C476.067 206.584 476.523 206.541 476.831 206.795ZM123.47 208.857C123.821 208.666 124.26 208.794 124.452 209.145C124.909 209.982 125.368 210.815 125.829 211.642C126.024 211.99 125.899 212.431 125.55 212.625C125.201 212.82 124.76 212.695 124.566 212.346C124.103 211.516 123.642 210.68 123.182 209.839C122.991 209.488 123.119 209.049 123.47 208.857ZM473.134 211.226C473.438 211.484 473.476 211.94 473.218 212.245C472.591 212.985 471.962 213.721 471.333 214.454C471.072 214.757 470.616 214.792 470.313 214.531C470.01 214.272 469.975 213.814 470.235 213.511C470.863 212.781 471.489 212.047 472.115 211.31C472.373 211.005 472.829 210.967 473.134 211.226ZM126.231 213.836C126.579 213.639 127.02 213.76 127.218 214.107C127.682 214.924 128.149 215.736 128.616 216.542C128.817 216.888 128.699 217.331 128.354 217.531C128.008 217.731 127.566 217.614 127.365 217.268C126.895 216.458 126.427 215.643 125.96 214.822C125.763 214.475 125.884 214.034 126.231 213.836ZM469.37 215.623C469.671 215.885 469.702 216.342 469.44 216.644C468.808 217.37 468.175 218.092 467.541 218.811C467.277 219.112 466.82 219.14 466.52 218.876C466.22 218.612 466.192 218.155 466.456 217.855C467.088 217.138 467.719 216.417 468.349 215.694C468.612 215.392 469.068 215.36 469.37 215.623ZM129.097 218.798C129.44 218.594 129.884 218.708 130.088 219.052C130.587 219.894 131.087 220.731 131.59 221.562C131.797 221.904 131.687 222.349 131.346 222.555C131.004 222.762 130.559 222.652 130.352 222.311C129.847 221.476 129.344 220.636 128.843 219.789C128.639 219.446 128.753 219.002 129.097 218.798ZM465.577 219.938C465.875 220.205 465.9 220.662 465.635 220.96C464.998 221.672 464.36 222.382 463.722 223.087C463.453 223.384 462.996 223.406 462.7 223.138C462.404 222.87 462.381 222.413 462.649 222.116C463.285 221.413 463.921 220.707 464.556 219.996C464.822 219.698 465.279 219.672 465.577 219.938ZM132.108 223.802C132.448 223.593 132.894 223.698 133.104 224.038C133.61 224.857 134.119 225.672 134.629 226.48C134.842 226.817 134.741 227.264 134.403 227.477C134.065 227.69 133.619 227.59 133.406 227.252C132.893 226.44 132.382 225.622 131.873 224.799C131.663 224.459 131.768 224.012 132.108 223.802ZM461.751 224.179C462.046 224.449 462.066 224.906 461.795 225.201C461.137 225.919 460.477 226.633 459.816 227.344C459.544 227.636 459.087 227.653 458.794 227.381C458.502 227.109 458.485 226.651 458.757 226.359C459.416 225.651 460.073 224.938 460.73 224.223C461 223.928 461.457 223.909 461.751 224.179ZM457.8 228.442C458.091 228.716 458.105 229.174 457.831 229.465C457.167 230.168 456.503 230.867 455.838 231.563C455.562 231.852 455.104 231.863 454.815 231.586C454.527 231.31 454.516 230.852 454.793 230.564C455.455 229.87 456.117 229.173 456.778 228.472C457.052 228.182 457.51 228.168 457.8 228.442ZM135.165 228.671C135.501 228.455 135.948 228.552 136.165 228.888C136.679 229.685 137.194 230.476 137.712 231.262C137.932 231.596 137.839 232.044 137.506 232.263C137.172 232.483 136.723 232.391 136.504 232.057C135.984 231.268 135.465 230.472 134.949 229.672C134.733 229.336 134.829 228.888 135.165 228.671ZM453.823 232.617C454.11 232.896 454.117 233.354 453.839 233.64C453.172 234.329 452.503 235.014 451.833 235.695C451.553 235.98 451.095 235.984 450.81 235.704C450.526 235.424 450.521 234.966 450.801 234.681C451.469 234.002 452.135 233.32 452.8 232.633C453.078 232.347 453.536 232.339 453.823 232.617ZM138.266 233.406C138.597 233.183 139.047 233.271 139.27 233.602C139.811 234.407 140.354 235.205 140.899 235.997C141.125 236.326 141.042 236.776 140.713 237.003C140.383 237.229 139.933 237.145 139.707 236.816C139.159 236.02 138.613 235.218 138.07 234.41C137.847 234.078 137.934 233.629 138.266 233.406ZM449.82 236.704C450.103 236.986 450.103 237.445 449.821 237.728C449.145 238.405 448.468 239.08 447.789 239.75C447.506 240.031 447.047 240.029 446.766 239.744C446.486 239.461 446.488 239.003 446.772 238.721C447.448 238.054 448.123 237.382 448.796 236.706C449.078 236.423 449.537 236.423 449.82 236.704ZM141.56 238.22C141.887 237.991 142.338 238.069 142.568 238.396C143.126 239.189 143.686 239.976 144.249 240.758C144.482 241.082 144.408 241.534 144.084 241.767C143.76 242.001 143.308 241.927 143.074 241.603C142.509 240.818 141.946 240.026 141.385 239.229C141.155 238.902 141.233 238.45 141.56 238.22ZM445.721 240.771C446 241.056 445.994 241.514 445.708 241.793C445.013 242.471 444.317 243.143 443.62 243.812C443.332 244.089 442.874 244.08 442.597 243.791C442.321 243.503 442.33 243.046 442.618 242.769C443.312 242.102 444.006 241.432 444.698 240.757C444.985 240.478 445.443 240.484 445.721 240.771ZM144.93 242.929C145.251 242.692 145.704 242.761 145.941 243.082C146.507 243.851 147.075 244.614 147.645 245.37C147.886 245.689 147.822 246.143 147.503 246.383C147.184 246.623 146.73 246.56 146.49 246.241C145.917 245.48 145.345 244.714 144.776 243.94C144.539 243.618 144.608 243.166 144.93 242.929ZM441.555 244.785C441.829 245.075 441.816 245.533 441.526 245.807C440.827 246.468 440.127 247.126 439.426 247.779C439.134 248.051 438.676 248.035 438.403 247.743C438.131 247.451 438.147 246.993 438.439 246.72C439.138 246.07 439.835 245.415 440.532 244.756C440.822 244.482 441.28 244.495 441.555 244.785ZM148.346 247.489C148.662 247.245 149.117 247.304 149.361 247.621C149.934 248.364 150.51 249.102 151.087 249.834C151.335 250.147 151.281 250.602 150.967 250.85C150.654 251.098 150.199 251.044 149.951 250.73C149.371 249.994 148.792 249.252 148.215 248.504C147.971 248.188 148.03 247.734 148.346 247.489ZM437.364 248.704C437.634 248.999 437.614 249.456 437.32 249.726C436.616 250.371 435.912 251.013 435.207 251.649C434.911 251.917 434.454 251.894 434.185 251.598C433.918 251.301 433.941 250.844 434.237 250.576C434.94 249.941 435.641 249.303 436.342 248.66C436.636 248.39 437.093 248.41 437.364 248.704ZM151.899 252.017C152.21 251.766 152.665 251.813 152.916 252.124C153.529 252.882 154.144 253.632 154.76 254.376C155.015 254.684 154.973 255.14 154.665 255.395C154.357 255.65 153.901 255.607 153.646 255.299C153.026 254.551 152.408 253.796 151.792 253.034C151.54 252.723 151.589 252.268 151.899 252.017ZM433.116 252.556C433.382 252.854 433.355 253.312 433.056 253.578C432.329 254.224 431.601 254.867 430.872 255.505C430.571 255.768 430.114 255.737 429.851 255.437C429.588 255.136 429.618 254.679 429.919 254.416C430.645 253.781 431.371 253.141 432.095 252.496C432.394 252.231 432.851 252.257 433.116 252.556ZM428.757 256.386C429.018 256.689 428.984 257.146 428.681 257.406C427.95 258.036 427.218 258.661 426.485 259.283C426.18 259.541 425.724 259.502 425.465 259.198C425.207 258.893 425.245 258.436 425.549 258.178C426.28 257.56 427.009 256.937 427.737 256.31C428.04 256.049 428.496 256.084 428.757 256.386ZM155.597 256.505C155.901 256.246 156.357 256.283 156.616 256.587C157.237 257.318 157.859 258.041 158.484 258.758C158.746 259.06 158.715 259.516 158.414 259.779C158.112 260.041 157.655 260.01 157.393 259.709C156.765 258.987 156.138 258.259 155.514 257.524C155.255 257.22 155.292 256.763 155.597 256.505ZM424.375 260.113C424.631 260.42 424.589 260.876 424.283 261.132C423.548 261.744 422.812 262.352 422.075 262.956C421.766 263.209 421.31 263.163 421.057 262.854C420.804 262.545 420.85 262.089 421.159 261.836C421.892 261.236 422.625 260.63 423.357 260.02C423.664 259.764 424.12 259.806 424.375 260.113ZM159.342 260.831C159.64 260.565 160.097 260.59 160.363 260.888C160.992 261.592 161.622 262.289 162.254 262.979C162.524 263.273 162.504 263.73 162.21 264C161.915 264.271 161.457 264.25 161.188 263.956C160.552 263.262 159.917 262.56 159.285 261.853C159.018 261.555 159.044 261.097 159.342 260.831ZM419.971 263.737C420.221 264.048 420.172 264.504 419.861 264.754C419.101 265.366 418.34 265.973 417.578 266.576C417.265 266.824 416.81 266.771 416.562 266.457C416.314 266.144 416.367 265.689 416.68 265.442C417.439 264.841 418.197 264.237 418.954 263.627C419.265 263.377 419.72 263.426 419.971 263.737ZM163.193 265.06C163.484 264.786 163.942 264.8 164.216 265.091C164.885 265.801 165.554 266.504 166.227 267.2C166.504 267.487 166.497 267.945 166.21 268.222C165.923 268.499 165.465 268.492 165.187 268.205C164.51 267.505 163.835 266.797 163.162 266.083C162.889 265.791 162.903 265.334 163.193 265.06ZM415.417 267.355C415.663 267.671 415.605 268.125 415.29 268.371C414.526 268.964 413.762 269.553 412.996 270.136C412.679 270.379 412.225 270.318 411.983 270C411.741 269.683 411.801 269.229 412.119 268.986C412.881 268.405 413.642 267.819 414.403 267.228C414.718 266.983 415.172 267.04 415.417 267.355ZM167.227 269.26C167.51 268.978 167.968 268.98 168.25 269.263C168.926 269.944 169.604 270.617 170.285 271.284C170.57 271.563 170.575 272.021 170.296 272.306C170.016 272.591 169.558 272.596 169.273 272.317C168.587 271.647 167.905 270.968 167.224 270.283C166.942 270 166.943 269.542 167.227 269.26ZM410.844 270.861C411.083 271.181 411.018 271.634 410.698 271.874C409.932 272.448 409.164 273.018 408.395 273.583C408.073 273.82 407.62 273.751 407.384 273.429C407.147 273.107 407.217 272.654 407.538 272.418C408.303 271.855 409.068 271.288 409.831 270.716C410.151 270.476 410.604 270.541 410.844 270.861ZM171.309 273.284C171.585 272.995 172.043 272.984 172.332 273.26C173.016 273.911 173.703 274.555 174.391 275.192C174.684 275.463 174.702 275.921 174.431 276.214C174.159 276.508 173.701 276.525 173.408 276.254C172.715 275.612 172.024 274.963 171.335 274.307C171.045 274.032 171.034 273.574 171.309 273.284ZM406.251 274.254C406.485 274.578 406.411 275.03 406.088 275.264C405.301 275.831 404.514 276.393 403.727 276.95C403.4 277.181 402.949 277.104 402.718 276.777C402.488 276.451 402.565 276 402.891 275.769C403.675 275.215 404.459 274.655 405.241 274.091C405.565 273.857 406.017 273.93 406.251 274.254ZM175.493 277.183C175.76 276.886 176.217 276.861 176.515 277.128C177.239 277.779 177.964 278.422 178.692 279.056C178.993 279.318 179.025 279.776 178.762 280.077C178.499 280.377 178.043 280.409 177.741 280.147C177.008 279.507 176.277 278.86 175.547 278.205C175.251 277.938 175.226 277.48 175.493 277.183ZM401.523 277.614C401.751 277.943 401.669 278.393 401.341 278.62C400.545 279.172 399.748 279.719 398.951 280.26C398.621 280.485 398.171 280.398 397.946 280.069C397.721 279.738 397.808 279.288 398.138 279.064C398.932 278.525 399.724 277.981 400.517 277.431C400.846 277.204 401.296 277.286 401.523 277.614ZM396.758 280.866C396.979 281.199 396.889 281.648 396.556 281.87C395.758 282.401 394.958 282.927 394.158 283.447C393.823 283.666 393.375 283.571 393.157 283.236C392.939 282.901 393.033 282.453 393.368 282.235C394.165 281.717 394.96 281.193 395.755 280.665C396.088 280.443 396.537 280.534 396.758 280.866ZM179.863 281.021C180.12 280.716 180.577 280.678 180.882 280.936C181.614 281.554 182.348 282.166 183.084 282.769C183.393 283.022 183.438 283.478 183.185 283.787C182.932 284.095 182.476 284.141 182.167 283.888C181.425 283.28 180.685 282.664 179.948 282.04C179.643 281.783 179.605 281.326 179.863 281.021ZM391.977 283.996C392.191 284.333 392.092 284.78 391.755 284.995C390.94 285.514 390.124 286.027 389.308 286.536C388.969 286.747 388.523 286.643 388.312 286.305C388.101 285.965 388.204 285.519 388.544 285.308C389.355 284.802 390.167 284.291 390.978 283.774C391.315 283.56 391.762 283.659 391.977 283.996ZM184.282 284.671C184.53 284.358 184.985 284.306 185.298 284.554C186.037 285.141 186.78 285.721 187.523 286.293C187.84 286.536 187.899 286.99 187.656 287.307C187.412 287.624 186.958 287.683 186.641 287.44C185.892 286.864 185.144 286.279 184.398 285.688C184.085 285.439 184.033 284.984 184.282 284.671ZM387.069 287.07C387.276 287.411 387.168 287.856 386.826 288.064C385.999 288.567 385.17 289.066 384.341 289.558C383.997 289.762 383.554 289.649 383.35 289.306C383.146 288.962 383.259 288.519 383.603 288.315C384.427 287.824 385.251 287.329 386.075 286.828C386.416 286.62 386.861 286.728 387.069 287.07ZM188.818 288.185C189.056 287.865 189.509 287.798 189.83 288.036C190.607 288.614 191.387 289.184 192.169 289.745C192.493 289.978 192.568 290.43 192.335 290.755C192.102 291.079 191.65 291.153 191.325 290.92C190.537 290.355 189.751 289.78 188.967 289.198C188.646 288.959 188.58 288.506 188.818 288.185ZM382.115 290.031C382.316 290.376 382.198 290.819 381.852 291.019C381.022 291.501 380.191 291.977 379.36 292.447C379.012 292.644 378.571 292.521 378.374 292.174C378.177 291.826 378.3 291.385 378.648 291.188C379.474 290.72 380.3 290.247 381.126 289.768C381.472 289.568 381.915 289.685 382.115 290.031ZM193.514 291.586C193.741 291.258 194.192 291.176 194.52 291.403C195.306 291.948 196.093 292.484 196.883 293.011C197.215 293.233 197.304 293.683 197.082 294.015C196.86 294.347 196.411 294.436 196.079 294.214C195.282 293.682 194.488 293.142 193.696 292.593C193.368 292.365 193.286 291.914 193.514 291.586ZM377.148 292.858C377.341 293.208 377.214 293.648 376.864 293.841C376.017 294.308 375.17 294.769 374.322 295.225C373.97 295.414 373.531 295.282 373.342 294.93C373.153 294.578 373.285 294.139 373.637 293.95C374.48 293.497 375.323 293.039 376.166 292.575C376.515 292.381 376.955 292.509 377.148 292.858ZM198.258 294.786C198.474 294.451 198.922 294.354 199.257 294.57C200.057 295.085 200.857 295.591 201.66 296.089C201.999 296.3 202.104 296.745 201.893 297.085C201.683 297.425 201.237 297.529 200.897 297.318C200.088 296.816 199.28 296.306 198.474 295.786C198.138 295.57 198.041 295.122 198.258 294.786ZM372.054 295.613C372.238 295.967 372.101 296.404 371.747 296.589C370.888 297.038 370.03 297.48 369.17 297.916C368.814 298.097 368.378 297.955 368.197 297.599C368.017 297.243 368.158 296.808 368.515 296.627C369.369 296.193 370.224 295.753 371.077 295.307C371.431 295.121 371.868 295.259 372.054 295.613ZM203.146 297.846C203.35 297.503 203.794 297.391 204.138 297.595C204.965 298.089 205.795 298.573 206.627 299.049C206.973 299.247 207.093 299.689 206.895 300.037C206.697 300.383 206.255 300.503 205.908 300.305C205.069 299.825 204.232 299.336 203.397 298.838C203.053 298.634 202.941 298.19 203.146 297.846ZM366.919 298.24C367.095 298.598 366.948 299.031 366.589 299.208C365.729 299.633 364.869 300.051 364.007 300.463C363.647 300.636 363.215 300.484 363.042 300.123C362.87 299.763 363.022 299.331 363.382 299.158C364.239 298.749 365.094 298.333 365.95 297.911C366.308 297.734 366.741 297.881 366.919 298.24ZM361.774 300.722C361.942 301.084 361.785 301.514 361.423 301.682C360.541 302.092 359.659 302.494 358.777 302.891C358.413 303.054 357.984 302.892 357.821 302.527C357.657 302.163 357.82 301.735 358.184 301.571C359.061 301.177 359.937 300.777 360.814 300.37C361.176 300.201 361.606 300.359 361.774 300.722ZM208.145 300.737C208.337 300.387 208.776 300.259 209.127 300.45C209.962 300.909 210.8 301.358 211.639 301.799C211.992 301.985 212.128 302.422 211.943 302.776C211.757 303.13 211.32 303.266 210.966 303.08C210.119 302.635 209.274 302.181 208.431 301.719C208.081 301.527 207.953 301.087 208.145 300.737ZM356.491 303.115C356.65 303.482 356.481 303.908 356.115 304.067C355.228 304.453 354.34 304.832 353.452 305.204C353.083 305.358 352.659 305.185 352.505 304.816C352.35 304.448 352.524 304.024 352.892 303.87C353.775 303.5 354.657 303.123 355.539 302.74C355.906 302.581 356.332 302.748 356.491 303.115ZM213.19 303.417C213.37 303.06 213.804 302.916 214.162 303.096C215.022 303.528 215.885 303.952 216.749 304.366C217.109 304.539 217.261 304.971 217.088 305.331C216.916 305.692 216.484 305.844 216.123 305.671C215.251 305.253 214.38 304.825 213.511 304.388C213.155 304.209 213.011 303.774 213.19 303.417ZM351.186 305.36C351.336 305.73 351.157 306.152 350.786 306.301C349.898 306.661 349.009 307.014 348.12 307.36C347.748 307.505 347.329 307.321 347.184 306.949C347.039 306.576 347.223 306.157 347.595 306.012C348.478 305.668 349.361 305.318 350.244 304.96C350.614 304.811 351.036 304.989 351.186 305.36ZM218.401 305.946C218.568 305.582 218.997 305.423 219.36 305.588C220.232 305.987 221.106 306.376 221.981 306.756C222.348 306.916 222.516 307.342 222.357 307.708C222.197 308.074 221.771 308.242 221.405 308.083C220.521 307.7 219.639 307.306 218.759 306.905C218.395 306.738 218.236 306.309 218.401 305.946ZM345.865 307.452C346.005 307.826 345.815 308.244 345.441 308.383C344.528 308.725 343.615 309.06 342.702 309.388C342.326 309.523 341.912 309.327 341.777 308.952C341.642 308.576 341.837 308.161 342.213 308.027C343.12 307.7 344.027 307.368 344.934 307.028C345.308 306.889 345.725 307.078 345.865 307.452ZM223.669 308.263C223.821 307.894 224.244 307.718 224.613 307.87C225.492 308.232 226.373 308.585 227.255 308.929C227.628 309.074 227.811 309.494 227.667 309.866C227.521 310.238 227.102 310.422 226.73 310.277C225.839 309.93 224.95 309.573 224.062 309.207C223.693 309.055 223.517 308.632 223.669 308.263ZM340.411 309.431C340.541 309.809 340.34 310.221 339.962 310.35C339.049 310.664 338.135 310.971 337.222 311.271C336.842 311.395 336.433 311.188 336.309 310.809C336.184 310.429 336.391 310.02 336.77 309.896C337.677 309.598 338.585 309.294 339.492 308.982C339.87 308.852 340.281 309.053 340.411 309.431ZM229.007 310.374C229.144 309.999 229.56 309.807 229.935 309.945C230.837 310.277 231.74 310.6 232.646 310.913C233.024 311.044 233.223 311.457 233.092 311.834C232.962 312.211 232.55 312.412 232.172 312.281C231.259 311.964 230.346 311.638 229.435 311.303C229.061 311.164 228.869 310.749 229.007 310.374ZM334.955 311.242C335.075 311.623 334.862 312.029 334.481 312.148C333.567 312.434 332.654 312.712 331.74 312.984C331.357 313.097 330.955 312.879 330.84 312.496C330.727 312.113 330.945 311.711 331.328 311.597C332.235 311.327 333.142 311.051 334.049 310.767C334.43 310.648 334.836 310.861 334.955 311.242ZM234.455 312.291C234.579 311.911 234.987 311.703 235.367 311.827C236.275 312.122 237.185 312.408 238.097 312.685C238.479 312.801 238.695 313.205 238.579 313.587C238.463 313.97 238.059 314.185 237.676 314.069C236.756 313.789 235.837 313.501 234.92 313.203C234.54 313.079 234.332 312.671 234.455 312.291ZM329.455 312.896C329.564 313.281 329.339 313.68 328.954 313.789C328.019 314.051 327.084 314.307 326.149 314.555C325.762 314.658 325.366 314.427 325.264 314.041C325.161 313.655 325.391 313.259 325.778 313.157C326.706 312.911 327.634 312.657 328.563 312.396C328.948 312.288 329.347 312.512 329.455 312.896ZM239.943 313.987C240.052 313.603 240.452 313.379 240.837 313.488C241.755 313.748 242.675 313.999 243.597 314.239C243.983 314.341 244.215 314.736 244.113 315.123C244.012 315.509 243.616 315.74 243.23 315.639C242.299 315.395 241.37 315.142 240.443 314.88C240.058 314.772 239.835 314.372 239.943 313.987ZM323.87 314.399C323.966 314.787 323.73 315.18 323.343 315.276C322.408 315.509 321.473 315.735 320.538 315.952C320.149 316.043 319.76 315.8 319.67 315.411C319.579 315.022 319.821 314.634 320.21 314.543C321.137 314.327 322.065 314.103 322.993 313.872C323.381 313.776 323.773 314.012 323.87 314.399ZM245.509 315.474C245.603 315.086 245.994 314.846 246.382 314.94C247.313 315.165 248.244 315.379 249.177 315.586C249.567 315.672 249.813 316.058 249.727 316.448C249.641 316.838 249.256 317.084 248.865 316.998C247.923 316.791 246.982 316.573 246.043 316.347C245.655 316.253 245.416 315.863 245.509 315.474ZM318.289 315.722C318.373 316.112 318.125 316.498 317.735 316.582C316.794 316.786 315.855 316.982 314.914 317.17C314.523 317.249 314.142 316.995 314.063 316.603C313.985 316.211 314.239 315.83 314.63 315.752C315.562 315.565 316.496 315.371 317.429 315.168C317.819 315.084 318.204 315.332 318.289 315.722ZM251.128 316.743C251.207 316.351 251.588 316.097 251.98 316.176C252.916 316.363 253.852 316.542 254.791 316.711C255.184 316.782 255.445 317.158 255.374 317.551C255.303 317.944 254.927 318.206 254.534 318.135C253.586 317.964 252.64 317.784 251.695 317.594C251.304 317.515 251.05 317.134 251.128 316.743ZM312.637 316.877C312.71 317.27 312.449 317.647 312.056 317.719C311.104 317.894 310.152 318.061 309.2 318.22C308.806 318.286 308.433 318.02 308.367 317.625C308.302 317.232 308.568 316.859 308.962 316.793C309.906 316.635 310.85 316.469 311.795 316.297C312.188 316.224 312.565 316.484 312.637 316.877ZM256.783 317.791C256.846 317.397 257.217 317.128 257.612 317.191C258.556 317.343 259.5 317.485 260.446 317.619C260.841 317.675 261.117 318.04 261.061 318.436C261.006 318.831 260.64 319.107 260.245 319.051C259.289 318.917 258.336 318.773 257.383 318.62C256.988 318.557 256.72 318.186 256.783 317.791ZM306.954 317.85C307.013 318.245 306.741 318.613 306.346 318.673C305.395 318.815 304.445 318.95 303.494 319.076C303.098 319.129 302.735 318.851 302.682 318.455C302.629 318.059 302.908 317.696 303.303 317.643C304.246 317.517 305.188 317.383 306.132 317.242C306.526 317.183 306.895 317.455 306.954 317.85ZM262.482 318.622C262.53 318.225 262.891 317.943 263.287 317.991C264.235 318.106 265.185 318.212 266.136 318.309C266.533 318.349 266.823 318.705 266.782 319.102C266.742 319.5 266.387 319.789 265.989 319.748C265.029 319.65 264.07 319.543 263.113 319.427C262.716 319.379 262.434 319.019 262.482 318.622ZM301.278 318.63C301.324 319.027 301.04 319.386 300.643 319.432C299.679 319.544 298.714 319.648 297.751 319.743C297.353 319.782 296.999 319.492 296.959 319.095C296.92 318.697 297.211 318.343 297.608 318.304C298.564 318.209 299.519 318.106 300.476 317.995C300.873 317.949 301.232 318.234 301.278 318.63ZM295.524 319.224C295.557 319.622 295.26 319.971 294.862 320.004C293.9 320.082 292.938 320.152 291.977 320.213C291.579 320.239 291.235 319.936 291.209 319.537C291.184 319.139 291.487 318.795 291.885 318.769C292.838 318.708 293.79 318.64 294.745 318.561C295.143 318.53 295.492 318.826 295.524 319.224ZM268.21 319.234C268.243 318.836 268.593 318.54 268.991 318.573C269.943 318.652 270.896 318.721 271.85 318.783C272.249 318.808 272.551 319.152 272.526 319.55C272.5 319.949 272.156 320.252 271.757 320.226C270.795 320.164 269.833 320.094 268.871 320.015C268.473 319.981 268.178 319.632 268.21 319.234ZM289.785 319.615C289.804 320.015 289.495 320.353 289.096 320.371C288.137 320.415 287.178 320.452 286.219 320.478C285.82 320.49 285.487 320.175 285.476 319.776C285.465 319.377 285.779 319.043 286.179 319.032C287.128 319.006 288.078 318.97 289.029 318.926C289.429 318.908 289.767 319.217 289.785 319.615ZM273.95 319.628C273.968 319.229 274.306 318.92 274.705 318.938C275.658 318.981 276.611 319.015 277.566 319.04C277.965 319.051 278.281 319.384 278.27 319.783C278.259 320.182 277.927 320.497 277.528 320.487C276.564 320.461 275.601 320.427 274.64 320.384C274.241 320.365 273.932 320.027 273.95 319.628ZM284.035 319.803C284.039 320.203 283.719 320.53 283.319 320.534C282.352 320.544 281.386 320.545 280.421 320.537C280.022 320.534 279.7 320.207 279.703 319.808C279.706 319.408 280.033 319.087 280.432 319.09C281.389 319.098 282.346 319.097 283.305 319.087C283.704 319.084 284.031 319.404 284.035 319.803Z" fill="#009DF6"/>
<path d="M92.9892 128.694C92.9892 130.092 91.8557 131.226 90.4575 131.226C89.0593 131.226 87.9258 130.092 87.9258 128.694C87.9258 127.296 89.0593 126.162 90.4575 126.162C91.8557 126.162 92.9892 127.296 92.9892 128.694Z" fill="#009DF6"/>
<path d="M515.423 156.905C515.423 158.303 514.289 159.436 512.891 159.436C511.493 159.436 510.359 158.303 510.359 156.905C510.359 155.507 511.493 154.373 512.891 154.373C514.289 154.373 515.423 155.507 515.423 156.905Z" fill="#009DF6"/>
<path d="M510.349 151.928C510.28 151.535 510.542 151.159 510.936 151.09C512.953 150.734 514.97 150.379 516.988 150.023C517.381 149.953 517.756 150.216 517.826 150.61C518.181 152.627 518.537 154.644 518.893 156.662C518.962 157.055 518.699 157.43 518.306 157.5C517.912 157.569 517.538 157.306 517.468 156.913C517.154 155.133 516.84 153.353 516.526 151.573C514.746 151.887 512.967 152.201 511.187 152.515C510.793 152.584 510.418 152.321 510.349 151.928Z" fill="#009DF6"/>
<path d="M1244.82 373.709V434.261C1244.82 441.455 1238.98 447.296 1231.79 447.296H74.5803C67.3861 447.296 61.5449 441.455 61.5449 434.261V373.709C61.5449 366.515 67.3861 360.674 74.5803 360.674H1231.79C1238.98 360.674 1244.82 366.515 1244.82 373.709Z" fill="white"/>
<path d="M275.361 380.078C275.361 378.921 275.55 378.019 275.926 377.373C276.303 376.721 276.963 376.395 277.904 376.395C278.84 376.395 279.496 376.721 279.872 377.373C280.249 378.019 280.438 378.921 280.438 380.078C280.438 381.255 280.249 382.17 279.872 382.823C279.496 383.476 278.84 383.802 277.904 383.802C276.963 383.802 276.303 383.476 275.926 382.823C275.55 382.17 275.361 381.255 275.361 380.078ZM279.529 380.078C279.529 379.493 279.489 378.998 279.408 378.595C279.334 378.184 279.176 377.854 278.934 377.606C278.698 377.357 278.355 377.232 277.904 377.232C277.447 377.232 277.097 377.357 276.855 377.606C276.619 377.854 276.461 378.184 276.381 378.595C276.307 378.998 276.27 379.493 276.27 380.078C276.27 380.684 276.307 381.192 276.381 381.602C276.461 382.012 276.619 382.342 276.855 382.591C277.097 382.84 277.447 382.964 277.904 382.964C278.355 382.964 278.698 382.84 278.934 382.591C279.176 382.342 279.334 382.012 279.408 381.602C279.489 381.192 279.529 380.684 279.529 380.078Z" fill="#B6B9C8"/>
<path d="M278.346 398.327C278.04 398.327 277.734 398.327 277.428 398.327C277.428 395.296 277.428 392.265 277.428 389.234C277.734 389.234 278.04 389.234 278.346 389.234C278.346 392.265 278.346 395.296 278.346 398.327Z" fill="#CFD1DB"/>
<path d="M327.504 380.078C327.504 378.921 327.692 378.019 328.069 377.373C328.446 376.721 329.105 376.395 330.047 376.395C330.982 376.395 331.638 376.721 332.015 377.373C332.392 378.019 332.58 378.921 332.58 380.078C332.58 381.255 332.392 382.17 332.015 382.823C331.638 383.476 330.982 383.802 330.047 383.802C329.105 383.802 328.446 383.476 328.069 382.823C327.692 382.17 327.504 381.255 327.504 380.078ZM331.672 380.078C331.672 379.493 331.632 378.998 331.551 378.595C331.477 378.184 331.319 377.854 331.076 377.606C330.841 377.357 330.498 377.232 330.047 377.232C329.59 377.232 329.24 377.357 328.998 377.606C328.762 377.854 328.604 378.184 328.523 378.595C328.449 378.998 328.412 379.493 328.412 380.078C328.412 380.684 328.449 381.192 328.523 381.602C328.604 382.012 328.762 382.342 328.998 382.591C329.24 382.84 329.59 382.964 330.047 382.964C330.498 382.964 330.841 382.84 331.076 382.591C331.319 382.342 331.477 382.012 331.551 381.602C331.632 381.192 331.672 380.684 331.672 380.078Z" fill="#B6B9C8"/>
<path d="M334.284 383.863C334.109 383.863 333.961 383.802 333.84 383.681C333.719 383.56 333.658 383.412 333.658 383.237C333.658 383.062 333.719 382.914 333.84 382.793C333.961 382.672 334.109 382.611 334.284 382.611C334.452 382.611 334.593 382.672 334.708 382.793C334.829 382.914 334.889 383.062 334.889 383.237C334.889 383.412 334.829 383.56 334.708 383.681C334.593 383.802 334.452 383.863 334.284 383.863Z" fill="#B6B9C8"/>
<path d="M335.85 383.066C336.704 382.38 337.373 381.818 337.858 381.381C338.342 380.937 338.749 380.476 339.079 379.998C339.415 379.514 339.584 379.039 339.584 378.575C339.584 378.138 339.476 377.795 339.261 377.546C339.052 377.29 338.712 377.162 338.241 377.162C337.784 377.162 337.427 377.307 337.172 377.596C336.923 377.879 336.788 378.259 336.768 378.737C336.472 378.737 336.176 378.737 335.88 378.737C335.907 377.983 336.136 377.401 336.566 376.991C336.997 376.58 337.552 376.375 338.231 376.375C338.924 376.375 339.473 376.567 339.876 376.95C340.287 377.334 340.492 377.862 340.492 378.535C340.492 379.093 340.324 379.638 339.987 380.17C339.658 380.694 339.281 381.159 338.857 381.562C338.433 381.959 337.892 382.423 337.232 382.955C338.389 382.955 339.547 382.955 340.704 382.955C340.704 383.211 340.704 383.466 340.704 383.722C339.086 383.722 337.468 383.722 335.85 383.722C335.85 383.503 335.85 383.285 335.85 383.066Z" fill="#B6B9C8"/>
<path d="M334.272 398.327C333.966 398.327 333.66 398.327 333.354 398.327C333.354 395.296 333.354 392.265 333.354 389.234C333.66 389.234 333.966 389.234 334.272 389.234C334.272 392.265 334.272 395.296 334.272 398.327Z" fill="#CFD1DB"/>
<path d="M387.215 380.078C387.215 378.921 387.403 378.019 387.78 377.373C388.157 376.721 388.816 376.395 389.758 376.395C390.693 376.395 391.349 376.721 391.726 377.373C392.103 378.019 392.291 378.921 392.291 380.078C392.291 381.255 392.103 382.17 391.726 382.823C391.349 383.476 390.693 383.802 389.758 383.802C388.816 383.802 388.157 383.476 387.78 382.823C387.403 382.17 387.215 381.255 387.215 380.078ZM391.383 380.078C391.383 379.493 391.342 378.998 391.262 378.595C391.188 378.184 391.03 377.854 390.787 377.606C390.552 377.357 390.209 377.232 389.758 377.232C389.301 377.232 388.951 377.357 388.708 377.606C388.473 377.854 388.315 378.184 388.234 378.595C388.16 378.998 388.123 379.493 388.123 380.078C388.123 380.684 388.16 381.192 388.234 381.602C388.315 382.012 388.473 382.342 388.708 382.591C388.951 382.84 389.301 382.964 389.758 382.964C390.209 382.964 390.552 382.84 390.787 382.591C391.03 382.342 391.188 382.012 391.262 381.602C391.342 381.192 391.383 380.684 391.383 380.078Z" fill="#B6B9C8"/>
<path d="M393.995 383.863C393.82 383.863 393.672 383.802 393.551 383.681C393.43 383.56 393.369 383.412 393.369 383.237C393.369 383.062 393.43 382.914 393.551 382.793C393.672 382.672 393.82 382.611 393.995 382.611C394.163 382.611 394.304 382.672 394.419 382.793C394.54 382.914 394.6 383.062 394.6 383.237C394.6 383.412 394.54 383.56 394.419 383.681C394.304 383.802 394.163 383.863 393.995 383.863Z" fill="#B6B9C8"/>
<path d="M395.447 382.177C395.447 381.945 395.447 381.713 395.447 381.481C396.628 379.846 397.809 378.211 398.99 376.576C399.356 376.576 399.723 376.576 400.09 376.576C400.09 378.177 400.09 379.779 400.09 381.38C400.426 381.38 400.762 381.38 401.099 381.38C401.099 381.646 401.099 381.911 401.099 382.177C400.762 382.177 400.426 382.177 400.09 382.177C400.09 382.719 400.09 383.26 400.09 383.802C399.787 383.802 399.484 383.802 399.181 383.802C399.181 383.26 399.181 382.719 399.181 382.177C397.937 382.177 396.692 382.177 395.447 382.177ZM399.222 377.535C398.317 378.817 397.412 380.098 396.507 381.38C397.412 381.38 398.317 381.38 399.222 381.38C399.222 380.098 399.222 378.817 399.222 377.535Z" fill="#B6B9C8"/>
<path d="M394.403 398.327C394.097 398.327 393.79 398.327 393.484 398.327C393.484 395.296 393.484 392.265 393.484 389.234C393.79 389.234 394.097 389.234 394.403 389.234C394.403 392.265 394.403 395.296 394.403 398.327Z" fill="#CFD1DB"/>
<path d="M447.766 380.078C447.766 378.921 447.954 378.019 448.331 377.373C448.708 376.721 449.367 376.395 450.309 376.395C451.244 376.395 451.9 376.721 452.277 377.373C452.653 378.019 452.842 378.921 452.842 380.078C452.842 381.255 452.653 382.17 452.277 382.823C451.9 383.476 451.244 383.802 450.309 383.802C449.367 383.802 448.708 383.476 448.331 382.823C447.954 382.17 447.766 381.255 447.766 380.078ZM451.934 380.078C451.934 379.493 451.893 378.998 451.812 378.595C451.738 378.184 451.58 377.854 451.338 377.606C451.103 377.357 450.76 377.232 450.309 377.232C449.851 377.232 449.501 377.357 449.259 377.606C449.024 377.854 448.866 378.184 448.785 378.595C448.711 378.998 448.674 379.493 448.674 380.078C448.674 380.684 448.711 381.192 448.785 381.602C448.866 382.012 449.024 382.342 449.259 382.591C449.501 382.84 449.851 382.964 450.309 382.964C450.76 382.964 451.103 382.84 451.338 382.591C451.58 382.342 451.738 382.012 451.812 381.602C451.893 381.192 451.934 380.684 451.934 380.078Z" fill="#B6B9C8"/>
<path d="M454.548 383.863C454.373 383.863 454.225 383.802 454.104 383.681C453.982 383.56 453.922 383.412 453.922 383.237C453.922 383.062 453.982 382.914 454.104 382.793C454.225 382.672 454.373 382.611 454.548 382.611C454.716 382.611 454.857 382.672 454.971 382.793C455.093 382.914 455.153 383.062 455.153 383.237C455.153 383.412 455.093 383.56 454.971 383.681C454.857 383.802 454.716 383.863 454.548 383.863Z" fill="#B6B9C8"/>
<path d="M460.288 378.241C460.14 377.494 459.679 377.121 458.905 377.121C458.307 377.121 457.859 377.353 457.563 377.817C457.267 378.274 457.123 379.031 457.129 380.088C457.284 379.738 457.54 379.465 457.896 379.27C458.26 379.068 458.663 378.967 459.107 378.967C459.8 378.967 460.352 379.183 460.762 379.613C461.18 380.044 461.388 380.639 461.388 381.399C461.388 381.857 461.297 382.267 461.116 382.631C460.941 382.994 460.672 383.283 460.308 383.499C459.952 383.714 459.518 383.822 459.006 383.822C458.313 383.822 457.772 383.667 457.382 383.357C456.991 383.048 456.719 382.621 456.564 382.076C456.409 381.531 456.332 380.858 456.332 380.057C456.332 377.588 457.193 376.354 458.916 376.354C459.575 376.354 460.093 376.532 460.47 376.888C460.846 377.245 461.069 377.696 461.136 378.241C460.853 378.241 460.571 378.241 460.288 378.241ZM458.916 379.744C458.626 379.744 458.354 379.805 458.098 379.926C457.842 380.04 457.634 380.219 457.472 380.461C457.318 380.696 457.24 380.986 457.24 381.329C457.24 381.84 457.388 382.257 457.684 382.58C457.98 382.896 458.404 383.055 458.956 383.055C459.427 383.055 459.8 382.91 460.076 382.621C460.359 382.325 460.5 381.928 460.5 381.43C460.5 380.905 460.365 380.495 460.096 380.199C459.827 379.896 459.434 379.744 458.916 379.744Z" fill="#B6B9C8"/>
<path d="M454.954 398.327C454.647 398.327 454.341 398.327 454.035 398.327C454.035 395.296 454.035 392.265 454.035 389.234C454.341 389.234 454.647 389.234 454.954 389.234C454.954 392.265 454.954 395.296 454.954 398.327Z" fill="#CFD1DB"/>
<path d="M508.316 380.078C508.316 378.921 508.505 378.019 508.882 377.373C509.258 376.721 509.918 376.395 510.86 376.395C511.795 376.395 512.451 376.721 512.828 377.373C513.204 378.019 513.393 378.921 513.393 380.078C513.393 381.255 513.204 382.17 512.828 382.823C512.451 383.476 511.795 383.802 510.86 383.802C509.918 383.802 509.258 383.476 508.882 382.823C508.505 382.17 508.316 381.255 508.316 380.078ZM512.484 380.078C512.484 379.493 512.444 378.998 512.363 378.595C512.289 378.184 512.131 377.854 511.889 377.606C511.653 377.357 511.31 377.232 510.86 377.232C510.402 377.232 510.052 377.357 509.81 377.606C509.575 377.854 509.416 378.184 509.336 378.595C509.262 378.998 509.225 379.493 509.225 380.078C509.225 380.684 509.262 381.192 509.336 381.602C509.416 382.012 509.575 382.342 509.81 382.591C510.052 382.84 510.402 382.964 510.86 382.964C511.31 382.964 511.653 382.84 511.889 382.591C512.131 382.342 512.289 382.012 512.363 381.602C512.444 381.192 512.484 380.684 512.484 380.078Z" fill="#B6B9C8"/>
<path d="M515.098 383.863C514.923 383.863 514.775 383.802 514.654 383.681C514.533 383.56 514.473 383.412 514.473 383.237C514.473 383.062 514.533 382.914 514.654 382.793C514.775 382.672 514.923 382.611 515.098 382.611C515.267 382.611 515.408 382.672 515.522 382.793C515.643 382.914 515.704 383.062 515.704 383.237C515.704 383.412 515.643 383.56 515.522 383.681C515.408 383.802 515.267 383.863 515.098 383.863Z" fill="#B6B9C8"/>
<path d="M521.264 377.222C520.329 379.415 519.394 381.608 518.458 383.802C518.149 383.802 517.84 383.802 517.53 383.802C518.479 381.639 519.427 379.476 520.376 377.313C519.077 377.313 517.779 377.313 516.48 377.313C516.48 377.05 516.48 376.788 516.48 376.525C518.075 376.525 519.67 376.525 521.264 376.525C521.264 376.758 521.264 376.99 521.264 377.222Z" fill="#B6B9C8"/>
<path d="M515.086 398.327C514.78 398.327 514.474 398.327 514.168 398.327C514.168 395.296 514.168 392.265 514.168 389.234C514.474 389.234 514.78 389.234 515.086 389.234C515.086 392.265 515.086 395.296 515.086 398.327Z" fill="#CFD1DB"/>
<path d="M568.027 380.078C568.027 378.921 568.216 378.019 568.592 377.373C568.969 376.721 569.629 376.395 570.571 376.395C571.506 376.395 572.162 376.721 572.538 377.373C572.915 378.019 573.104 378.921 573.104 380.078C573.104 381.255 572.915 382.17 572.538 382.823C572.162 383.476 571.506 383.802 570.571 383.802C569.629 383.802 568.969 383.476 568.592 382.823C568.216 382.17 568.027 381.255 568.027 380.078ZM572.195 380.078C572.195 379.493 572.155 378.998 572.074 378.595C572 378.184 571.842 377.854 571.6 377.606C571.364 377.357 571.021 377.232 570.571 377.232C570.113 377.232 569.763 377.357 569.521 377.606C569.285 377.854 569.127 378.184 569.047 378.595C568.973 378.998 568.936 379.493 568.936 380.078C568.936 380.684 568.973 381.192 569.047 381.602C569.127 382.012 569.285 382.342 569.521 382.591C569.763 382.84 570.113 382.964 570.571 382.964C571.021 382.964 571.364 382.84 571.6 382.591C571.842 382.342 572 382.012 572.074 381.602C572.155 381.192 572.195 380.684 572.195 380.078Z" fill="#B6B9C8"/>
<path d="M574.809 383.863C574.634 383.863 574.486 383.802 574.365 383.681C574.244 383.56 574.184 383.412 574.184 383.237C574.184 383.062 574.244 382.914 574.365 382.793C574.486 382.672 574.634 382.611 574.809 382.611C574.977 382.611 575.119 382.672 575.233 382.793C575.354 382.914 575.415 383.062 575.415 383.237C575.415 383.412 575.354 383.56 575.233 383.681C575.119 383.802 574.977 383.863 574.809 383.863Z" fill="#B6B9C8"/>
<path d="M577.817 380.007C577.44 379.859 577.151 379.644 576.949 379.362C576.747 379.079 576.646 378.736 576.646 378.332C576.646 377.969 576.737 377.643 576.919 377.353C577.101 377.057 577.37 376.825 577.726 376.657C578.09 376.482 578.527 376.395 579.038 376.395C579.55 376.395 579.984 376.482 580.34 376.657C580.703 376.825 580.976 377.057 581.158 377.353C581.346 377.643 581.44 377.969 581.44 378.332C581.44 378.722 581.336 379.066 581.127 379.362C580.919 379.651 580.633 379.866 580.27 380.007C580.687 380.135 581.016 380.361 581.259 380.684C581.507 381 581.632 381.383 581.632 381.834C581.632 382.271 581.524 382.655 581.309 382.985C581.094 383.308 580.788 383.56 580.391 383.741C580 383.916 579.55 384.004 579.038 384.004C578.527 384.004 578.076 383.916 577.686 383.741C577.302 383.56 577.003 383.308 576.788 382.985C576.572 382.655 576.465 382.271 576.465 381.834C576.465 381.383 576.586 380.996 576.828 380.674C577.07 380.351 577.4 380.129 577.817 380.007ZM580.552 378.443C580.552 378.033 580.418 377.717 580.148 377.495C579.879 377.273 579.509 377.162 579.038 377.162C578.574 377.162 578.207 377.273 577.938 377.495C577.669 377.717 577.535 378.036 577.535 378.453C577.535 378.83 577.673 379.133 577.948 379.362C578.231 379.59 578.594 379.705 579.038 379.705C579.489 379.705 579.852 379.59 580.128 379.362C580.411 379.126 580.552 378.82 580.552 378.443ZM579.038 380.411C578.54 380.411 578.133 380.529 577.817 380.764C577.501 380.993 577.343 381.34 577.343 381.804C577.343 382.234 577.494 382.581 577.797 382.843C578.106 383.106 578.52 383.237 579.038 383.237C579.556 383.237 579.967 383.106 580.27 382.843C580.572 382.581 580.724 382.234 580.724 381.804C580.724 381.353 580.569 381.01 580.259 380.774C579.95 380.532 579.543 380.411 579.038 380.411Z" fill="#B6B9C8"/>
<path d="M575.217 398.327C574.911 398.327 574.605 398.327 574.299 398.327C574.299 395.296 574.299 392.265 574.299 389.234C574.605 389.234 574.911 389.234 575.217 389.234C575.217 392.265 575.217 395.296 575.217 398.327Z" fill="#CFD1DB"/>
<path d="M105.477 380.078C105.477 378.921 105.665 378.019 106.042 377.373C106.418 376.721 107.078 376.395 108.02 376.395C108.955 376.395 109.611 376.721 109.988 377.373C110.364 378.019 110.553 378.921 110.553 380.078C110.553 381.255 110.364 382.17 109.988 382.823C109.611 383.476 108.955 383.802 108.02 383.802C107.078 383.802 106.418 383.476 106.042 382.823C105.665 382.17 105.477 381.255 105.477 380.078ZM109.645 380.078C109.645 379.493 109.604 378.998 109.523 378.595C109.449 378.184 109.291 377.854 109.049 377.606C108.814 377.357 108.471 377.232 108.02 377.232C107.562 377.232 107.212 377.357 106.97 377.606C106.735 377.854 106.577 378.184 106.496 378.595C106.422 378.998 106.385 379.493 106.385 380.078C106.385 380.684 106.422 381.192 106.496 381.602C106.577 382.012 106.735 382.342 106.97 382.591C107.212 382.84 107.562 382.964 108.02 382.964C108.471 382.964 108.814 382.84 109.049 382.591C109.291 382.342 109.449 382.012 109.523 381.602C109.604 381.192 109.645 380.684 109.645 380.078ZM112.308 383.863C112.133 383.863 111.985 383.802 111.864 383.681C111.743 383.56 111.682 383.412 111.682 383.237C111.682 383.062 111.743 382.914 111.864 382.793C111.985 382.672 112.133 382.611 112.308 382.611C112.476 382.611 112.618 382.672 112.732 382.793C112.853 382.914 112.914 383.062 112.914 383.237C112.914 383.412 112.853 383.56 112.732 383.681C112.618 383.802 112.476 383.863 112.308 383.863ZM114.033 380.078C114.033 378.921 114.222 378.019 114.599 377.373C114.975 376.721 115.635 376.395 116.577 376.395C117.512 376.395 118.168 376.721 118.545 377.373C118.921 378.019 119.11 378.921 119.11 380.078C119.11 381.255 118.921 382.17 118.545 382.823C118.168 383.476 117.512 383.802 116.577 383.802C115.635 383.802 114.975 383.476 114.599 382.823C114.222 382.17 114.033 381.255 114.033 380.078ZM118.201 380.078C118.201 379.493 118.161 378.998 118.08 378.595C118.006 378.184 117.848 377.854 117.606 377.606C117.37 377.357 117.027 377.232 116.577 377.232C116.119 377.232 115.769 377.357 115.527 377.606C115.292 377.854 115.133 378.184 115.053 378.595C114.979 378.998 114.942 379.493 114.942 380.078C114.942 380.684 114.979 381.192 115.053 381.602C115.133 382.012 115.292 382.342 115.527 382.591C115.769 382.84 116.119 382.964 116.577 382.964C117.027 382.964 117.37 382.84 117.606 382.591C117.848 382.342 118.006 382.012 118.08 381.602C118.161 381.192 118.201 380.684 118.201 380.078ZM120.421 380.078C120.421 378.921 120.609 378.019 120.986 377.373C121.363 376.721 122.022 376.395 122.964 376.395C123.899 376.395 124.555 376.721 124.932 377.373C125.309 378.019 125.497 378.921 125.497 380.078C125.497 381.255 125.309 382.17 124.932 382.823C124.555 383.476 123.899 383.802 122.964 383.802C122.022 383.802 121.363 383.476 120.986 382.823C120.609 382.17 120.421 381.255 120.421 380.078ZM124.589 380.078C124.589 379.493 124.548 378.998 124.468 378.595C124.394 378.184 124.236 377.854 123.993 377.606C123.758 377.357 123.415 377.232 122.964 377.232C122.507 377.232 122.157 377.357 121.914 377.606C121.679 377.854 121.521 378.184 121.44 378.595C121.366 378.998 121.329 379.493 121.329 380.078C121.329 380.684 121.366 381.192 121.44 381.602C121.521 382.012 121.679 382.342 121.914 382.591C122.157 382.84 122.507 382.964 122.964 382.964C123.415 382.964 123.758 382.84 123.993 382.591C124.236 382.342 124.394 382.012 124.468 381.602C124.548 381.192 124.589 380.684 124.589 380.078Z" fill="#7270FF"/>
<path d="M144.38 374.295C143.459 378.036 142.537 381.776 141.615 385.517C141.313 385.517 141.01 385.517 140.707 385.517C141.625 381.776 142.544 378.036 143.462 374.295C143.768 374.295 144.074 374.295 144.38 374.295Z" fill="#7270FF"/>
<path d="M159.078 382.177C159.078 381.945 159.078 381.713 159.078 381.481C160.259 379.846 161.44 378.211 162.62 376.576C162.987 376.576 163.354 376.576 163.72 376.576C163.72 378.177 163.72 379.779 163.72 381.38C164.057 381.38 164.393 381.38 164.73 381.38C164.73 381.646 164.73 381.911 164.73 382.177C164.393 382.177 164.057 382.177 163.72 382.177C163.72 382.719 163.72 383.26 163.72 383.802C163.418 383.802 163.115 383.802 162.812 383.802C162.812 383.26 162.812 382.719 162.812 382.177C161.567 382.177 160.323 382.177 159.078 382.177ZM162.853 377.535C161.948 378.817 161.043 380.098 160.138 381.38C161.043 381.38 161.948 381.38 162.853 381.38C162.853 380.098 162.853 378.817 162.853 377.535ZM166.142 383.863C165.967 383.863 165.819 383.802 165.698 383.681C165.576 383.56 165.516 383.412 165.516 383.237C165.516 383.062 165.576 382.914 165.698 382.793C165.819 382.672 165.967 382.611 166.142 382.611C166.31 382.611 166.451 382.672 166.565 382.793C166.687 382.914 166.747 383.062 166.747 383.237C166.747 383.412 166.687 383.56 166.565 383.681C166.451 383.802 166.31 383.863 166.142 383.863ZM167.867 380.078C167.867 378.921 168.056 378.019 168.433 377.373C168.809 376.721 169.469 376.395 170.411 376.395C171.346 376.395 172.002 376.721 172.378 377.373C172.755 378.019 172.944 378.921 172.944 380.078C172.944 381.255 172.755 382.17 172.378 382.823C172.002 383.476 171.346 383.802 170.411 383.802C169.469 383.802 168.809 383.476 168.433 382.823C168.056 382.17 167.867 381.255 167.867 380.078ZM172.035 380.078C172.035 379.493 171.995 378.998 171.914 378.595C171.84 378.184 171.682 377.854 171.44 377.606C171.204 377.357 170.861 377.232 170.411 377.232C169.953 377.232 169.603 377.357 169.361 377.606C169.125 377.854 168.967 378.184 168.887 378.595C168.813 378.998 168.776 379.493 168.776 380.078C168.776 380.684 168.813 381.192 168.887 381.602C168.967 382.012 169.125 382.342 169.361 382.591C169.603 382.84 169.953 382.964 170.411 382.964C170.861 382.964 171.204 382.84 171.44 382.591C171.682 382.342 171.84 382.012 171.914 381.602C171.995 381.192 172.035 380.684 172.035 380.078ZM174.255 380.078C174.255 378.921 174.443 378.019 174.82 377.373C175.197 376.721 175.856 376.395 176.798 376.395C177.733 376.395 178.389 376.721 178.766 377.373C179.143 378.019 179.331 378.921 179.331 380.078C179.331 381.255 179.143 382.17 178.766 382.823C178.389 383.476 177.733 383.802 176.798 383.802C175.856 383.802 175.197 383.476 174.82 382.823C174.443 382.17 174.255 381.255 174.255 380.078ZM178.423 380.078C178.423 379.493 178.382 378.998 178.302 378.595C178.228 378.184 178.069 377.854 177.827 377.606C177.592 377.357 177.249 377.232 176.798 377.232C176.34 377.232 175.991 377.357 175.748 377.606C175.513 377.854 175.355 378.184 175.274 378.595C175.2 378.998 175.163 379.493 175.163 380.078C175.163 380.684 175.2 381.192 175.274 381.602C175.355 382.012 175.513 382.342 175.748 382.591C175.991 382.84 176.34 382.964 176.798 382.964C177.249 382.964 177.592 382.84 177.827 382.591C178.069 382.342 178.228 382.012 178.302 381.602C178.382 381.192 178.423 380.684 178.423 380.078Z" fill="#7270FF"/>
<path d="M78.7851 374.551C79.0081 374.551 79.222 374.639 79.3797 374.797C79.5374 374.955 79.626 375.169 79.626 375.392C79.626 378.756 79.626 382.12 79.626 385.484C79.626 385.707 79.5374 385.921 79.3797 386.078C79.222 386.236 79.0081 386.325 78.7851 386.325C77.6637 386.325 76.5424 386.325 75.4211 386.325C75.198 386.325 74.9841 386.236 74.8264 386.078C74.6687 385.921 74.5801 385.707 74.5801 385.484C74.5801 382.12 74.5801 378.756 74.5801 375.392C74.5801 375.169 74.6687 374.955 74.8264 374.797C74.9841 374.639 75.198 374.551 75.4211 374.551C76.5424 374.551 77.6637 374.551 78.7851 374.551ZM85.513 374.551C85.736 374.551 85.95 374.639 86.1077 374.797C86.2654 374.955 86.354 375.169 86.354 375.392C86.354 378.756 86.354 382.12 86.354 385.484C86.354 385.707 86.2654 385.921 86.1077 386.078C85.95 386.236 85.736 386.325 85.513 386.325C84.3917 386.325 83.2704 386.325 82.149 386.325C81.926 386.325 81.712 386.236 81.5544 386.078C81.3967 385.921 81.308 385.707 81.308 385.484C81.308 382.12 81.308 378.756 81.308 375.392C81.308 375.169 81.3967 374.955 81.5544 374.797C81.712 374.639 81.926 374.551 82.149 374.551C83.2704 374.551 84.3917 374.551 85.513 374.551Z" fill="#7B70FC"/>
<path d="M1235.15 410.713V430.897C1235.15 436.467 1230.63 440.989 1225.06 440.989H77.9454C72.3757 440.989 67.8535 436.467 67.8535 430.897V410.713C67.8535 405.143 72.3757 400.621 77.9454 400.621H1225.06C1230.63 400.621 1235.15 405.143 1235.15 410.713Z" fill="#F5F5FF"/>
<path d="M98.9707 419.594C98.9707 419.244 98.9707 418.893 98.9707 418.543C98.9707 417.496 99.8159 416.65 100.863 416.65C101.213 416.65 101.564 416.65 101.914 416.65M104.437 416.65C104.788 416.65 105.138 416.65 105.489 416.65C106.536 416.65 107.381 417.496 107.381 418.543C107.381 418.893 107.381 419.244 107.381 419.594M107.38 422.537C107.38 422.747 107.38 422.958 107.38 423.168C107.38 424.215 106.535 425.06 105.488 425.06C105.278 425.06 105.068 425.06 104.857 425.06M101.914 425.061C101.564 425.061 101.213 425.061 100.863 425.061C99.8159 425.061 98.9707 424.216 98.9707 423.169C98.9707 422.818 98.9707 422.468 98.9707 422.117" stroke="#7270FF" stroke-width="0.946119" stroke-linecap="round" stroke-linejoin="round"/>
<path d="M118.653 423.227C118.095 422.269 117.536 421.31 116.978 420.351C116.608 420.351 116.238 420.351 115.868 420.351C115.868 421.31 115.868 422.269 115.868 423.227C115.561 423.227 115.255 423.227 114.949 423.227C114.949 420.883 114.949 418.538 114.949 416.193C115.706 416.193 116.463 416.193 117.22 416.193C117.751 416.193 118.199 416.284 118.562 416.466C118.932 416.647 119.208 416.893 119.39 417.203C119.571 417.512 119.662 417.865 119.662 418.262C119.662 418.747 119.521 419.174 119.238 419.544C118.962 419.914 118.545 420.159 117.987 420.281C118.576 421.263 119.164 422.245 119.753 423.227C119.386 423.227 119.02 423.227 118.653 423.227ZM115.868 419.615C116.318 419.615 116.769 419.615 117.22 419.615C117.718 419.615 118.091 419.493 118.34 419.251C118.589 419.002 118.714 418.673 118.714 418.262C118.714 417.845 118.589 417.522 118.34 417.293C118.098 417.065 117.725 416.95 117.22 416.95C116.769 416.95 116.318 416.95 115.868 416.95C115.868 417.838 115.868 418.726 115.868 419.615Z" fill="#7270FF"/>
<path d="M126.186 420.25C126.186 420.424 126.176 420.609 126.156 420.805C124.682 420.805 123.209 420.805 121.735 420.805C121.769 421.35 121.954 421.777 122.29 422.086C122.634 422.389 123.047 422.54 123.532 422.54C123.929 422.54 124.258 422.45 124.521 422.268C124.79 422.08 124.978 421.831 125.086 421.521C125.416 421.521 125.745 421.521 126.075 421.521C125.927 422.053 125.631 422.487 125.187 422.823C124.743 423.153 124.191 423.317 123.532 423.317C123.007 423.317 122.536 423.2 122.119 422.964C121.709 422.729 121.386 422.396 121.15 421.965C120.915 421.528 120.797 421.023 120.797 420.451C120.797 419.88 120.911 419.378 121.14 418.948C121.369 418.517 121.688 418.187 122.099 417.959C122.516 417.723 122.994 417.605 123.532 417.605C124.057 417.605 124.521 417.72 124.924 417.949C125.328 418.177 125.638 418.494 125.853 418.897C126.075 419.294 126.186 419.745 126.186 420.25ZM125.237 420.058C125.237 419.708 125.16 419.409 125.005 419.16C124.85 418.904 124.639 418.712 124.369 418.584C124.107 418.45 123.814 418.383 123.491 418.383C123.027 418.383 122.63 418.531 122.301 418.827C121.978 419.123 121.793 419.533 121.746 420.058C122.909 420.058 124.073 420.058 125.237 420.058Z" fill="#7270FF"/>
<path d="M127.105 420.451C127.105 419.88 127.22 419.382 127.449 418.958C127.677 418.527 127.994 418.194 128.397 417.959C128.808 417.723 129.275 417.605 129.8 417.605C130.48 417.605 131.038 417.77 131.475 418.1C131.919 418.43 132.212 418.887 132.353 419.472C132.024 419.472 131.694 419.472 131.364 419.472C131.27 419.136 131.085 418.87 130.809 418.675C130.54 418.48 130.204 418.383 129.8 418.383C129.275 418.383 128.851 418.564 128.528 418.927C128.205 419.284 128.044 419.792 128.044 420.451C128.044 421.117 128.205 421.632 128.528 421.995C128.851 422.359 129.275 422.54 129.8 422.54C130.204 422.54 130.54 422.446 130.809 422.258C131.078 422.069 131.263 421.8 131.364 421.45C131.694 421.45 132.024 421.45 132.353 421.45C132.205 422.016 131.909 422.47 131.465 422.813C131.021 423.149 130.466 423.317 129.8 423.317C129.275 423.317 128.808 423.2 128.397 422.964C127.994 422.729 127.677 422.396 127.449 421.965C127.22 421.535 127.105 421.03 127.105 420.451Z" fill="#7270FF"/>
<path d="M134.748 418.454C134.748 419.541 134.748 420.627 134.748 421.714C134.748 421.983 134.805 422.175 134.92 422.289C135.034 422.397 135.233 422.451 135.515 422.451C135.74 422.451 135.966 422.451 136.191 422.451C136.191 422.71 136.191 422.969 136.191 423.228C135.915 423.228 135.64 423.228 135.364 423.228C134.852 423.228 134.469 423.11 134.213 422.875C133.958 422.639 133.83 422.252 133.83 421.714C133.83 420.627 133.83 419.541 133.83 418.454C133.591 418.454 133.352 418.454 133.113 418.454C133.113 418.202 133.113 417.95 133.113 417.697C133.352 417.697 133.591 417.697 133.83 417.697C133.83 417.233 133.83 416.769 133.83 416.305C134.136 416.305 134.442 416.305 134.748 416.305C134.748 416.769 134.748 417.233 134.748 417.697C135.229 417.697 135.71 417.697 136.191 417.697C136.191 417.95 136.191 418.202 136.191 418.454C135.71 418.454 135.229 418.454 134.748 418.454Z" fill="#7270FF"/>
<path d="M137.012 420.441C137.012 419.876 137.126 419.382 137.355 418.958C137.584 418.527 137.896 418.194 138.293 417.959C138.697 417.723 139.144 417.605 139.636 417.605C140.12 417.605 140.541 417.71 140.897 417.918C141.254 418.127 141.519 418.389 141.694 418.705C141.694 418.369 141.694 418.033 141.694 417.696C142.004 417.696 142.313 417.696 142.623 417.696C142.623 419.54 142.623 421.383 142.623 423.227C142.313 423.227 142.004 423.227 141.694 423.227C141.694 422.884 141.694 422.54 141.694 422.197C141.513 422.52 141.24 422.789 140.877 423.005C140.52 423.213 140.103 423.317 139.626 423.317C139.134 423.317 138.69 423.196 138.293 422.954C137.896 422.712 137.584 422.372 137.355 421.935C137.126 421.498 137.012 421 137.012 420.441ZM141.694 420.451C141.694 420.034 141.61 419.671 141.442 419.361C141.274 419.052 141.045 418.816 140.756 418.655C140.473 418.487 140.16 418.403 139.817 418.403C139.474 418.403 139.161 418.483 138.879 418.645C138.596 418.806 138.371 419.042 138.203 419.351C138.034 419.661 137.95 420.024 137.95 420.441C137.95 420.865 138.034 421.235 138.203 421.551C138.371 421.861 138.596 422.1 138.879 422.268C139.161 422.429 139.474 422.51 139.817 422.51C140.16 422.51 140.473 422.429 140.756 422.268C141.045 422.1 141.274 421.861 141.442 421.551C141.61 421.235 141.694 420.869 141.694 420.451Z" fill="#7270FF"/>
<path d="M146.919 417.596C147.592 417.596 148.137 417.801 148.554 418.211C148.971 418.615 149.18 419.2 149.18 419.967C149.18 421.054 149.18 422.14 149.18 423.227C148.877 423.227 148.574 423.227 148.272 423.227C148.272 422.184 148.272 421.141 148.272 420.099C148.272 419.547 148.134 419.126 147.858 418.837C147.582 418.541 147.205 418.393 146.728 418.393C146.243 418.393 145.856 418.544 145.567 418.847C145.285 419.15 145.143 419.591 145.143 420.169C145.143 421.188 145.143 422.208 145.143 423.227C144.837 423.227 144.531 423.227 144.225 423.227C144.225 421.384 144.225 419.54 144.225 417.697C144.531 417.697 144.837 417.697 145.143 417.697C145.143 417.959 145.143 418.221 145.143 418.484C145.325 418.201 145.57 417.983 145.88 417.828C146.196 417.673 146.543 417.596 146.919 417.596Z" fill="#7270FF"/>
<path d="M153.011 417.605C153.489 417.605 153.906 417.71 154.263 417.918C154.626 418.127 154.895 418.389 155.07 418.705C155.07 418.369 155.07 418.033 155.07 417.696C155.38 417.696 155.689 417.696 155.999 417.696C155.999 419.58 155.999 421.464 155.999 423.348C155.999 423.852 155.891 424.3 155.676 424.69C155.46 425.087 155.151 425.396 154.747 425.618C154.35 425.84 153.885 425.951 153.354 425.951C152.628 425.951 152.022 425.78 151.537 425.437C151.053 425.094 150.767 424.626 150.679 424.034C150.982 424.034 151.285 424.034 151.588 424.034C151.689 424.37 151.898 424.64 152.214 424.841C152.53 425.05 152.91 425.154 153.354 425.154C153.858 425.154 154.27 424.996 154.586 424.68C154.908 424.364 155.07 423.92 155.07 423.348C155.07 422.961 155.07 422.574 155.07 422.187C154.889 422.51 154.619 422.779 154.263 422.995C153.906 423.21 153.489 423.317 153.011 423.317C152.52 423.317 152.073 423.196 151.669 422.954C151.272 422.712 150.959 422.372 150.731 421.935C150.502 421.498 150.387 421 150.387 420.441C150.387 419.876 150.502 419.382 150.731 418.958C150.959 418.527 151.272 418.194 151.669 417.959C152.073 417.723 152.52 417.605 153.011 417.605ZM155.07 420.451C155.07 420.034 154.986 419.671 154.818 419.361C154.65 419.052 154.421 418.816 154.131 418.655C153.849 418.487 153.536 418.403 153.193 418.403C152.85 418.403 152.536 418.483 152.255 418.645C151.972 418.806 151.747 419.042 151.578 419.351C151.409 419.661 151.326 420.024 151.326 420.441C151.326 420.865 151.409 421.235 151.578 421.551C151.747 421.861 151.972 422.1 152.255 422.268C152.536 422.429 152.85 422.51 153.193 422.51C153.536 422.51 153.849 422.429 154.131 422.268C154.421 422.1 154.65 421.861 154.818 421.551C154.986 421.235 155.07 420.869 155.07 420.451Z" fill="#7270FF"/>
<path d="M158.52 415.76C158.52 418.249 158.52 420.738 158.52 423.228C158.214 423.228 157.908 423.228 157.602 423.228C157.602 420.738 157.602 418.249 157.602 415.76C157.908 415.76 158.214 415.76 158.52 415.76Z" fill="#7270FF"/>
<path d="M165.182 420.25C165.182 420.424 165.172 420.609 165.152 420.805C163.678 420.805 162.205 420.805 160.732 420.805C160.765 421.35 160.95 421.777 161.287 422.086C161.63 422.389 162.043 422.54 162.528 422.54C162.925 422.54 163.255 422.45 163.517 422.268C163.786 422.08 163.974 421.831 164.082 421.521C164.412 421.521 164.741 421.521 165.071 421.521C164.923 422.053 164.627 422.487 164.183 422.823C163.739 423.153 163.187 423.317 162.528 423.317C162.003 423.317 161.532 423.2 161.115 422.964C160.705 422.729 160.382 422.396 160.146 421.965C159.911 421.528 159.793 421.023 159.793 420.451C159.793 419.88 159.907 419.378 160.136 418.948C160.365 418.517 160.684 418.187 161.095 417.959C161.512 417.723 161.99 417.605 162.528 417.605C163.053 417.605 163.517 417.72 163.921 417.949C164.324 418.177 164.634 418.494 164.849 418.897C165.071 419.294 165.182 419.745 165.182 420.25ZM164.233 420.058C164.233 419.708 164.156 419.409 164.001 419.16C163.847 418.904 163.635 418.712 163.366 418.584C163.103 418.45 162.81 418.383 162.488 418.383C162.023 418.383 161.626 418.531 161.297 418.827C160.974 419.123 160.789 419.533 160.742 420.058C161.906 420.058 163.069 420.058 164.233 420.058Z" fill="#7270FF"/>
<path d="M168.791 416.769C168.791 416.49 168.791 416.211 168.791 415.932C169.423 415.932 170.056 415.932 170.688 415.932C170.688 418.364 170.688 420.796 170.688 423.228C170.379 423.228 170.069 423.228 169.76 423.228C169.76 421.075 169.76 418.922 169.76 416.769C169.437 416.769 169.114 416.769 168.791 416.769Z" fill="#7270FF"/>
<path d="M1231.79 410.712V430.896C1231.79 434.609 1228.77 437.624 1225.06 437.624H289.035C285.321 437.624 282.307 434.609 282.307 430.896V410.712C282.307 406.999 285.321 403.984 289.035 403.984H1225.06C1228.77 403.984 1231.79 406.999 1231.79 410.712Z" fill="#E3E0FE"/>
<path d="M516.104 410.712V430.896C516.104 434.609 513.089 437.624 509.376 437.624H283.99C280.277 437.624 277.262 434.609 277.262 430.896V410.712C277.262 406.999 280.277 403.984 283.99 403.984H509.376C513.089 403.984 516.104 406.999 516.104 410.712Z" fill="#7270FF"/>
<path d="M289.034 412.395V429.215C289.034 431.072 287.527 432.579 285.67 432.579H268.85C266.994 432.579 265.486 431.072 265.486 429.215V412.395C265.486 410.539 266.994 409.031 268.85 409.031H285.67C287.527 409.031 289.034 410.539 289.034 412.395Z" fill="white"/>
<path d="M289.034 412.395V429.215C289.034 431.072 287.527 432.579 285.67 432.579H268.85C266.994 432.579 265.486 431.072 265.486 429.215V412.395C265.486 410.539 266.994 409.031 268.85 409.031H285.67C287.527 409.031 289.034 410.539 289.034 412.395Z" stroke="#7270FF" stroke-width="1.26149" stroke-linecap="round" stroke-linejoin="round"/>
<mask id="mask1_8_1098" style="mask-type:luminance" maskUnits="userSpaceOnUse" x="-20001" y="-19855" width="40540" height="40540">
<path d="M-20000.9 -19854.9H20538.4V20684.4H-20000.9V-19854.9Z" fill="white"/>
</mask>
<g mask="url(#mask1_8_1098)">
<mask id="mask2_8_1098" style="mask-type:alpha" maskUnits="userSpaceOnUse" x="268" y="414" width="13" height="13">
<mask id="mask3_8_1098" style="mask-type:luminance" maskUnits="userSpaceOnUse" x="-20001" y="-19855" width="40540" height="40540">
<path d="M-20000.9 -19854.9H20538.4V20684.4H-20000.9V-19854.9Z" fill="white"/>
</mask>
<g mask="url(#mask3_8_1098)">
<path d="M280.863 414.777V426.939H268.701V414.777H280.863Z" fill="black"/>
</g>
</mask>
<g mask="url(#mask2_8_1098)">
<mask id="mask4_8_1098" style="mask-type:luminance" maskUnits="userSpaceOnUse" x="-20001" y="-19855" width="40540" height="40540">
<path d="M-20000.9 -19854.9H20538.4V20684.4H-20000.9V-19854.9Z" fill="white"/>
</mask>
<g mask="url(#mask4_8_1098)">
<path d="M280.863 414.779V426.941H268.701V414.779H280.863Z" fill="#FFD63F"/>
</g>
</g>
</g>
<path d="M527.878 412.395V429.215C527.878 431.072 526.371 432.579 524.514 432.579H507.694C505.837 432.579 504.33 431.072 504.33 429.215V412.395C504.33 410.539 505.837 409.031 507.694 409.031H524.514C526.371 409.031 527.878 410.539 527.878 412.395Z" fill="white"/>
<path d="M527.878 412.395V429.215C527.878 431.072 526.371 432.579 524.514 432.579H507.694C505.837 432.579 504.33 431.072 504.33 429.215V412.395C504.33 410.539 505.837 409.031 507.694 409.031H524.514C526.371 409.031 527.878 410.539 527.878 412.395Z" stroke="#7270FF" stroke-width="1.26149" stroke-linecap="round" stroke-linejoin="round"/>
<path d="M81.3086 423.327C82.1496 422.486 82.9906 421.645 83.8316 420.804C82.9906 419.963 82.1496 419.122 81.3086 418.281" stroke="#7270FF" stroke-width="1.26149" stroke-linecap="round" stroke-linejoin="round"/>
<mask id="mask5_8_1098" style="mask-type:luminance" maskUnits="userSpaceOnUse" x="-25264" y="-25364" width="51554" height="51554">
<path d="M-14369 -25363.2L26289.2 -14468.9L15394.9 26189.3L-25263.3 15295L-14369 -25363.2Z" fill="white"/>
</mask>
<g mask="url(#mask5_8_1098)">
<mask id="mask6_8_1098" style="mask-type:alpha" maskUnits="userSpaceOnUse" x="509" y="413" width="17" height="16">
<mask id="mask7_8_1098" style="mask-type:luminance" maskUnits="userSpaceOnUse" x="-25264" y="-25364" width="51554" height="51554">
<path d="M-14369 -25363.2L26289.2 -14468.9L15394.9 26189.3L-25263.3 15295L-14369 -25363.2Z" fill="white"/>
</mask>
<g mask="url(#mask7_8_1098)">
<path d="M525.16 416.331L521.892 428.529L509.694 425.261L512.963 413.063L525.16 416.331Z" fill="black"/>
</g>
</mask>
<g mask="url(#mask6_8_1098)">
<mask id="mask8_8_1098" style="mask-type:luminance" maskUnits="userSpaceOnUse" x="-25264" y="-25364" width="51554" height="51554">
<path d="M-14369 -25363.2L26289.2 -14468.9L15394.9 26189.3L-25263.3 15295L-14369 -25363.2Z" fill="white"/>
</mask>
<g mask="url(#mask8_8_1098)">
<path d="M526.074 416.576L522.806 428.774L508.575 424.961L511.844 412.763L526.074 416.576Z" fill="#FC737D"/>
</g>
</g>
</g>
<path d="M1244.82 373.709V434.261C1244.82 441.455 1238.98 447.296 1231.79 447.296H74.5803C67.3861 447.296 61.5449 441.455 61.5449 434.261V373.709C61.5449 366.515 67.3861 360.674 74.5803 360.674H1231.79C1238.98 360.674 1244.82 366.515 1244.82 373.709Z" stroke="#ECEAFF" stroke-width="0.840995" stroke-linecap="round" stroke-linejoin="round"/>
</g>
</svg>
