<svg width="50" height="40" viewBox="0 0 50 40" fill="none" xmlns="http://www.w3.org/2000/svg">
<path fill-rule="evenodd" clip-rule="evenodd" d="M19.7057 10.4141C18.5669 10.4141 17.4746 10.8665 16.6693 11.6718C15.864 12.4771 15.4116 13.5693 15.4116 14.7082V21.767C15.4116 22.9059 15.864 23.9981 16.6693 24.8034C17.4746 25.6087 18.5669 26.0611 19.7057 26.0611H23.2175C22.986 25.5761 22.8224 25.0614 22.7316 24.5317H22.494L22.694 24.2847C22.5733 23.3351 22.6839 22.3705 23.0163 21.4729L20.5187 24.5317H19.7057C18.4422 24.5317 17.3763 23.6847 17.0469 22.527L20.474 18.6705C20.5151 18.6245 20.5661 18.5882 20.6232 18.5645C20.6803 18.5409 20.7419 18.5303 20.8036 18.5337C20.8653 18.5371 20.9255 18.5543 20.9796 18.5841C21.0337 18.6139 21.0805 18.6555 21.1163 18.7058L23.0434 21.4023C23.2493 20.8705 23.5304 20.3776 23.874 19.9341L22.361 17.8164C22.1917 17.5791 21.971 17.383 21.7154 17.2426C21.4599 17.1023 21.176 17.0213 20.8848 17.0057C20.5937 16.9901 20.3027 17.0403 20.0337 17.1525C19.7646 17.2648 19.5242 17.4362 19.3304 17.6541L16.941 20.3435V14.7082C16.941 13.9749 17.2323 13.2717 17.7508 12.7532C18.2693 12.2348 18.9725 11.9435 19.7057 11.9435H26.7646C27.4978 11.9435 28.201 12.2348 28.7195 12.7532C29.238 13.2717 29.5293 13.9749 29.5293 14.7082V17.7317C30.0669 17.8235 30.5799 17.9894 31.0587 18.2164V14.7082C31.0587 13.5693 30.6063 12.4771 29.801 11.6718C28.9957 10.8665 27.9034 10.4141 26.7646 10.4141H19.7057ZM26.1763 13.9435C25.9987 13.9435 25.8227 13.9785 25.6586 14.0465C25.4944 14.1145 25.3453 14.2141 25.2197 14.3397C25.094 14.4654 24.9944 14.6145 24.9264 14.7787C24.8584 14.9428 24.8234 15.1187 24.8234 15.2964C24.8234 15.4741 24.8584 15.65 24.9264 15.8142C24.9944 15.9783 25.094 16.1275 25.2197 16.2531C25.3453 16.3787 25.4944 16.4784 25.6586 16.5464C25.8227 16.6144 25.9987 16.6494 26.1763 16.6494C26.5351 16.6494 26.8793 16.5068 27.133 16.2531C27.3867 15.9994 27.5293 15.6552 27.5293 15.2964C27.5293 14.9376 27.3867 14.5935 27.133 14.3397C26.8793 14.086 26.5351 13.9435 26.1763 13.9435ZM26.3528 15.2964C26.3528 15.3432 26.3342 15.3881 26.3011 15.4212C26.268 15.4543 26.2231 15.4729 26.1763 15.4729C26.1295 15.4729 26.0846 15.4543 26.0515 15.4212C26.0184 15.3881 25.9999 15.3432 25.9999 15.2964C25.9999 15.2496 26.0184 15.2047 26.0515 15.1716C26.0846 15.1385 26.1295 15.1199 26.1763 15.1199C26.2231 15.1199 26.268 15.1385 26.3011 15.1716C26.3342 15.2047 26.3528 15.2496 26.3528 15.2964Z" fill="#1C1B25"/>
<path d="M28.5292 25.8824V21.1765M26.1763 23.5295H30.8822" stroke="#1C1B25" stroke-width="1.76471" stroke-linecap="round"/>
<path d="M28.5296 29.1176C31.6159 29.1176 34.1179 26.6157 34.1179 23.5294C34.1179 20.4431 31.6159 17.9412 28.5296 17.9412C25.4433 17.9412 22.9414 20.4431 22.9414 23.5294C22.9414 26.6157 25.4433 29.1176 28.5296 29.1176Z" stroke="#1C1B25" stroke-width="1.76471"/>
</svg>
