<svg width="317" height="317" viewBox="0 0 317 317" fill="none" xmlns="http://www.w3.org/2000/svg">
<mask id="mask0_8_3326" style="mask-type:luminance" maskUnits="userSpaceOnUse" x="0" y="0" width="317" height="317">
<path d="M317 0H0V317H317V0Z" fill="white"/>
</mask>
<g mask="url(#mask0_8_3326)">
<mask id="mask1_8_3326" style="mask-type:luminance" maskUnits="userSpaceOnUse" x="-16" y="12" width="132" height="293">
<path d="M-15.85 12.445H115.441V304.613H-15.85V12.445Z" fill="white"/>
</mask>
<g mask="url(#mask1_8_3326)">
<g filter="url(#filter0_f_8_3326)">
<path d="M77.1444 62.7312V254.269C77.1444 260.911 71.7515 266.304 65.1095 266.304H-9.10575C-15.7478 266.304 -21.1407 260.911 -21.1407 254.269V62.7312C-21.1407 56.0892 -15.7478 50.6963 -9.10575 50.6963H65.1095C71.7515 50.6963 77.1444 56.0892 77.1444 62.7312Z" fill="#D9D9D9"/>
<path d="M77.1444 62.7312V254.269C77.1444 260.911 71.7515 266.304 65.1095 266.304H-9.10575C-15.7478 266.304 -21.1407 260.911 -21.1407 254.269V62.7312C-21.1407 56.0892 -15.7478 50.6963 -9.10575 50.6963H65.1095C71.7515 50.6963 77.1444 56.0892 77.1444 62.7312Z" stroke="white" stroke-width="11.2209"/>
</g>
</g>
<mask id="mask2_8_3326" style="mask-type:luminance" maskUnits="userSpaceOnUse" x="-6" y="23" width="111" height="271">
<path d="M-5.01914 23.2758H104.61V293.782H-5.01914V23.2758Z" fill="white"/>
</mask>
<g mask="url(#mask2_8_3326)">
<path d="M77.1444 62.7312V254.269C77.1444 260.911 71.7515 266.304 65.1095 266.304H-9.10575C-15.7478 266.304 -21.1407 260.911 -21.1407 254.269V62.7312C-21.1407 56.0892 -15.7478 50.6963 -9.10575 50.6963H65.1095C71.7515 50.6963 77.1444 56.0892 77.1444 62.7312Z" stroke="url(#paint0_linear_8_3326)" stroke-width="11.2209"/>
<path d="M77.1444 62.7312V254.269C77.1444 260.911 71.7515 266.304 65.1095 266.304H-9.10575C-15.7478 266.304 -21.1407 260.911 -21.1407 254.269V62.7312C-21.1407 56.0892 -15.7478 50.6963 -9.10575 50.6963H65.1095C71.7515 50.6963 77.1444 56.0892 77.1444 62.7312Z" stroke="black" stroke-width="8.01492"/>
</g>
<mask id="mask3_8_3326" style="mask-type:luminance" maskUnits="userSpaceOnUse" x="71" y="12" width="175" height="293">
<path d="M71.061 12.4448H245.939V304.613H71.061V12.4448Z" fill="white"/>
</mask>
<g mask="url(#mask3_8_3326)">
<g filter="url(#filter1_f_8_3326)">
<path d="M207.643 62.7315V254.269C207.643 260.911 202.25 266.304 195.608 266.304H121.393C114.751 266.304 109.358 260.911 109.358 254.269V62.7315C109.358 56.0894 114.751 50.6966 121.393 50.6966H195.608C202.25 50.6966 207.643 56.0894 207.643 62.7315Z" fill="#D9D9D9"/>
<path d="M207.643 62.7315V254.269C207.643 260.911 202.25 266.304 195.608 266.304H121.393C114.751 266.304 109.358 260.911 109.358 254.269V62.7315C109.358 56.0894 114.751 50.6966 121.393 50.6966H195.608C202.25 50.6966 207.643 56.0894 207.643 62.7315Z" stroke="white" stroke-width="11.2209"/>
</g>
</g>
<mask id="mask4_8_3326" style="mask-type:luminance" maskUnits="userSpaceOnUse" x="81" y="23" width="155" height="271">
<path d="M81.8919 23.2757H235.109V293.782H81.8919V23.2757Z" fill="white"/>
</mask>
<g mask="url(#mask4_8_3326)">
<path d="M207.643 62.7313V254.269C207.643 260.911 202.25 266.304 195.608 266.304H121.393C114.751 266.304 109.358 260.911 109.358 254.269V62.7313C109.358 56.0893 114.751 50.6964 121.393 50.6964H195.608C202.25 50.6964 207.643 56.0893 207.643 62.7313Z" stroke="url(#paint1_linear_8_3326)" stroke-width="11.2209"/>
<path d="M207.643 62.7313V254.269C207.643 260.911 202.25 266.304 195.608 266.304H121.393C114.751 266.304 109.358 260.911 109.358 254.269V62.7313C109.358 56.0893 114.751 50.6964 121.393 50.6964H195.608C202.25 50.6964 207.643 56.0893 207.643 62.7313Z" stroke="black" stroke-width="8.01492"/>
</g>
<mask id="mask5_8_3326" style="mask-type:luminance" maskUnits="userSpaceOnUse" x="201" y="12" width="132" height="293">
<path d="M201.295 12.4448H332.85V304.613H201.295V12.4448Z" fill="white"/>
</mask>
<g mask="url(#mask5_8_3326)">
<g filter="url(#filter2_f_8_3326)">
<path d="M337.877 62.7312V254.269C337.877 260.911 332.484 266.304 325.842 266.304H251.627C244.985 266.304 239.592 260.911 239.592 254.269V62.7312C239.592 56.0892 244.985 50.6963 251.627 50.6963H325.842C332.484 50.6963 337.877 56.0892 337.877 62.7312Z" fill="#D9D9D9"/>
<path d="M337.877 62.7312V254.269C337.877 260.911 332.484 266.304 325.842 266.304H251.627C244.985 266.304 239.592 260.911 239.592 254.269V62.7312C239.592 56.0892 244.985 50.6963 251.627 50.6963H325.842C332.484 50.6963 337.877 56.0892 337.877 62.7312Z" stroke="white" stroke-width="11.2209"/>
</g>
</g>
<mask id="mask6_8_3326" style="mask-type:luminance" maskUnits="userSpaceOnUse" x="212" y="23" width="111" height="271">
<path d="M212.126 23.2757H322.019V293.782H212.126V23.2757Z" fill="white"/>
</mask>
<g mask="url(#mask6_8_3326)">
<path d="M337.877 62.7313V254.269C337.877 260.911 332.484 266.304 325.842 266.304H251.627C244.985 266.304 239.592 260.911 239.592 254.269V62.7313C239.592 56.0893 244.985 50.6964 251.627 50.6964H325.842C332.484 50.6964 337.877 56.0893 337.877 62.7313Z" stroke="url(#paint2_linear_8_3326)" stroke-width="11.2209"/>
<path d="M337.877 62.7313V254.269C337.877 260.911 332.484 266.304 325.842 266.304H251.627C244.985 266.304 239.592 260.911 239.592 254.269V62.7313C239.592 56.0893 244.985 50.6964 251.627 50.6964H325.842C332.484 50.6964 337.877 56.0893 337.877 62.7313Z" stroke="black" stroke-width="8.01492"/>
</g>
</g>
<defs>
<filter id="filter0_f_8_3326" x="-35.0781" y="36.7588" width="126.16" height="243.482" filterUnits="userSpaceOnUse" color-interpolation-filters="sRGB">
<feFlood flood-opacity="0" result="BackgroundImageFix"/>
<feBlend mode="normal" in="SourceGraphic" in2="BackgroundImageFix" result="shape"/>
<feGaussianBlur stdDeviation="4.15629" result="effect1_foregroundBlur_8_3326"/>
</filter>
<filter id="filter1_f_8_3326" x="95.4205" y="36.759" width="126.16" height="243.482" filterUnits="userSpaceOnUse" color-interpolation-filters="sRGB">
<feFlood flood-opacity="0" result="BackgroundImageFix"/>
<feBlend mode="normal" in="SourceGraphic" in2="BackgroundImageFix" result="shape"/>
<feGaussianBlur stdDeviation="4.15629" result="effect1_foregroundBlur_8_3326"/>
</filter>
<filter id="filter2_f_8_3326" x="225.654" y="36.7588" width="126.16" height="243.482" filterUnits="userSpaceOnUse" color-interpolation-filters="sRGB">
<feFlood flood-opacity="0" result="BackgroundImageFix"/>
<feBlend mode="normal" in="SourceGraphic" in2="BackgroundImageFix" result="shape"/>
<feGaussianBlur stdDeviation="4.15629" result="effect1_foregroundBlur_8_3326"/>
</filter>
<linearGradient id="paint0_linear_8_3326" x1="-17.9675" y1="65.6547" x2="9.18529" y2="210.844" gradientUnits="userSpaceOnUse">
<stop stop-color="#BBBBBB"/>
<stop offset="0.23" stop-color="white"/>
<stop offset="1" stop-color="#D4D4D4" stop-opacity="0.99999"/>
</linearGradient>
<linearGradient id="paint1_linear_8_3326" x1="112.531" y1="65.6548" x2="139.684" y2="210.844" gradientUnits="userSpaceOnUse">
<stop stop-color="#BBBBBB"/>
<stop offset="0.23" stop-color="white"/>
<stop offset="1" stop-color="#D4D4D4" stop-opacity="0.99999"/>
</linearGradient>
<linearGradient id="paint2_linear_8_3326" x1="242.765" y1="65.6548" x2="269.918" y2="210.844" gradientUnits="userSpaceOnUse">
<stop stop-color="#BBBBBB"/>
<stop offset="0.23" stop-color="white"/>
<stop offset="1" stop-color="#D4D4D4" stop-opacity="0.99999"/>
</linearGradient>
</defs>
</svg>
