<svg width="84" height="40" viewBox="0 0 84 40" fill="none" xmlns="http://www.w3.org/2000/svg">
<path d="M16.8467 17.3847C16.0634 15.9244 14.55 15.0217 12.9038 15.0217H0.424817C0.185858 15.0217 0 15.2208 0 15.4598C0 15.566 0.0398266 15.6855 0.11948 15.7651L2.84096 18.4999C3.07992 18.7388 3.41181 18.8716 3.7437 18.8716H12.5454C13.1693 18.8716 13.6871 19.3628 13.6871 20C13.6871 20.624 13.1959 21.1417 12.5587 21.1417H6.50501C6.26605 21.1417 6.08019 21.3408 6.08019 21.5798C6.08019 21.6993 6.12002 21.8055 6.19968 21.8851L8.92116 24.6199C9.16012 24.8456 9.49201 24.9783 9.8239 24.9783H12.5719C16.1431 24.9783 18.838 21.1683 16.8467 17.3847ZM23.4711 18.1282V22.3232H24.5465C25.6882 22.31 26.6042 21.3674 26.5909 20.2257C26.6174 19.0973 25.7413 18.168 24.6128 18.1282H23.4711ZM24.5465 16.8139C26.5511 16.8139 28.0645 18.3273 28.0645 20.2257C28.0645 22.1241 26.5511 23.6375 24.5465 23.6375H22.1834C22.0905 23.6375 22.0108 23.5579 22.0108 23.4649V16.9865C22.0108 16.8935 22.0905 16.8139 22.1834 16.8139H24.5465ZM33.2287 22.4693C34.4633 22.4693 35.4722 21.4736 35.4855 20.2257C35.4988 18.9778 34.4898 17.9821 33.2419 17.9689C32.0073 17.9689 30.9984 18.9645 30.9851 20.2124C30.9851 21.4603 31.9808 22.4693 33.2287 22.4693ZM33.2287 16.6546C35.3395 16.6546 36.9458 18.2742 36.9458 20.2257C36.9458 22.1772 35.3262 23.7835 33.2287 23.7835C31.1311 23.7835 29.5248 22.1772 29.5248 20.2124C29.5248 18.2476 31.1311 16.6546 33.2287 16.6546ZM42.0569 22.4693C43.2915 22.4693 44.3005 21.4603 44.3005 20.2124C44.3005 18.9645 43.2915 17.9689 42.0436 17.9689C40.809 17.9689 39.8001 18.9778 39.8001 20.2124C39.8133 21.4603 40.809 22.4693 42.0569 22.4693ZM42.0569 16.6546C44.1544 16.6546 45.7608 18.2609 45.7608 20.2257C45.7608 22.1905 44.1544 23.7835 42.0569 23.7835C39.9594 23.7835 38.3397 22.1772 38.3397 20.2124C38.3397 18.2476 39.9461 16.6546 42.0569 16.6546ZM50.686 18.1282H49.1726V19.9336H50.686C51.1772 19.9602 51.5887 19.5752 51.6153 19.084V19.0442C51.6286 18.553 51.2436 18.1282 50.7524 18.1149C50.7258 18.1282 50.6993 18.1282 50.686 18.1282ZM47.699 16.9865C47.699 16.8935 47.7787 16.8139 47.8716 16.8139H50.7258C52.0799 16.8139 53.0623 17.8095 53.0623 19.0574C53.0756 19.9071 52.5977 20.6771 51.841 21.0621L53.1552 23.3853C53.2083 23.4649 53.1818 23.5711 53.1154 23.6242C53.0889 23.6508 53.049 23.6508 53.0092 23.6508H51.8542C51.7879 23.6508 51.7348 23.611 51.6949 23.5579L50.4338 21.2612H49.1593V23.4649C49.1593 23.5579 49.0797 23.6375 48.9867 23.6375H47.8716C47.7787 23.6375 47.699 23.5579 47.699 23.4649V16.9865ZM56.8857 18.1547V22.3498H57.961C59.1027 22.3365 60.0187 21.3939 60.0054 20.2522C60.0452 19.1238 59.1558 18.1813 58.0274 18.1547H56.8857ZM57.961 16.8404C59.9656 16.8404 61.479 18.3538 61.479 20.2522C61.479 22.1506 59.9656 23.6641 57.961 23.6641H55.5979C55.505 23.6641 55.4254 23.5844 55.4254 23.4915V17.013C55.4254 16.9201 55.505 16.8404 55.5979 16.8404H57.961ZM65.9396 18.5131L65.1032 20.7567H66.7627L65.9396 18.5131ZM64.6253 22.0179L64.081 23.518C64.0545 23.5844 63.9881 23.6375 63.9084 23.6375H62.7269C62.634 23.6508 62.5543 23.5844 62.541 23.4782C62.541 23.4516 62.541 23.4118 62.5543 23.3853L65.1032 16.9068C65.1298 16.8404 65.1962 16.7873 65.2758 16.8006H66.5901C66.6697 16.8006 66.7361 16.8404 66.7627 16.9068L69.3116 23.3853C69.3514 23.4649 69.3116 23.5711 69.2319 23.611C69.2054 23.6242 69.1788 23.6242 69.139 23.6242H67.9575C67.8778 23.6242 67.8114 23.5844 67.7849 23.5048L67.2406 22.0046H64.6253V22.0179ZM70.679 18.6592C70.679 17.5839 71.6082 16.6546 73.0685 16.6546C73.8518 16.6413 74.6218 16.9201 75.1926 17.4511C75.259 17.5175 75.2723 17.6237 75.2059 17.6901L75.1926 17.7033L74.5421 18.3538C74.4758 18.4202 74.3695 18.4202 74.3032 18.3538C73.9978 18.0751 73.5863 17.9158 73.1748 17.9025C72.5906 17.9025 72.1525 18.2476 72.1525 18.6326C72.1525 19.9071 75.6174 19.1637 75.6174 21.6063C75.6174 22.841 74.6749 23.7835 73.0287 23.7835C72.1127 23.7968 71.2232 23.4384 70.5595 22.7879C70.4931 22.7215 70.4798 22.6153 70.5462 22.5489L70.5595 22.5356L71.1967 21.8984C71.2631 21.832 71.3693 21.832 71.4357 21.8984C71.8339 22.2834 72.3782 22.4958 72.9225 22.5091C73.6527 22.5091 74.1306 22.1241 74.1306 21.6329C74.1439 20.3717 70.679 21.1019 70.679 18.6592ZM81.8968 16.9732V19.5354H78.9629V16.9732C78.9629 16.8803 78.8832 16.8006 78.7903 16.8006H77.6752C77.5822 16.8006 77.5026 16.8803 77.5026 16.9732V23.4516C77.5026 23.5446 77.5822 23.6242 77.6752 23.6242H78.7903C78.8832 23.6242 78.9629 23.5446 78.9629 23.4516V20.8496H81.8968V23.4516C81.8968 23.5446 81.9764 23.6242 82.0694 23.6242H83.1845C83.2774 23.6242 83.3571 23.5446 83.3571 23.4516V16.9732C83.3571 16.8803 83.2774 16.8006 83.1845 16.8006H82.0694C81.9632 16.8006 81.8968 16.8803 81.8968 16.9732Z" fill="#9CA3AF"/>
</svg>
