<svg width="24" height="24" viewBox="0 0 24 24" fill="none" xmlns="http://www.w3.org/2000/svg">
<path d="M20.2622 11.7015C21.0992 10.908 21.8175 9.99817 22.3952 9H20.6177C19.6513 10.39 18.3626 11.5253 16.862 12.3089C15.3613 13.0926 13.6932 13.5012 12.0002 13.5C10.3071 13.5011 8.63884 13.0924 7.13795 12.3088C5.63706 11.5252 4.34813 10.3899 3.38124 9H1.60524C2.1829 9.99779 2.90071 10.9076 3.73674 11.7015L1.34424 14.094L2.40624 15.1545L4.89024 12.669C5.95524 13.4535 7.15674 14.067 8.45124 14.4675L7.52574 17.799L8.97174 18.201L9.91074 14.8185C11.2927 15.0608 12.7061 15.0613 14.0882 14.82L15.0272 18.201L16.4732 17.799L15.5477 14.4675C16.8272 14.0712 18.0309 13.4627 19.1087 12.6675L21.5942 15.1545L22.6562 14.094L20.2622 11.7015Z" fill="black"/>
</svg>
