<svg width="317" height="317" viewBox="0 0 317 317" fill="none" xmlns="http://www.w3.org/2000/svg">
<mask id="mask0_8_2570" style="mask-type:luminance" maskUnits="userSpaceOnUse" x="0" y="0" width="317" height="317">
<path d="M317 0H0V317H317V0Z" fill="white"/>
</mask>
<g mask="url(#mask0_8_2570)">
<path d="M218.543 236.907C218.543 238.025 218.702 239.005 219.021 239.845C219.338 240.685 219.801 241.34 220.406 241.81C221.008 242.278 221.742 242.513 222.606 242.513C223.504 242.513 224.26 242.27 224.867 241.787C225.475 241.303 225.935 240.64 226.246 239.795C226.555 238.952 226.711 237.988 226.711 236.907C226.711 235.835 226.558 234.884 226.252 234.049C225.943 233.217 225.485 232.564 224.878 232.092C224.27 231.619 223.512 231.384 222.606 231.384C221.734 231.384 220.995 231.611 220.387 232.07C219.779 232.527 219.32 233.169 219.008 233.994C218.699 234.818 218.543 235.79 218.543 236.907ZM214.546 252.034V228.266H218.554V231.125H218.789C219 230.705 219.296 230.256 219.679 229.78C220.062 229.302 220.58 228.893 221.232 228.552C221.885 228.211 222.717 228.039 223.731 228.039C225.065 228.039 226.273 228.38 227.348 229.059C228.426 229.738 229.279 230.739 229.913 232.063C230.547 233.389 230.864 235.011 230.864 236.931C230.864 238.828 230.552 240.442 229.931 241.771C229.308 243.097 228.46 244.111 227.388 244.809C226.315 245.506 225.1 245.855 223.742 245.855C222.751 245.855 221.93 245.691 221.277 245.361C220.625 245.031 220.102 244.629 219.708 244.161C219.312 243.691 219.008 243.247 218.789 242.827H218.62V252.034H214.546ZM202.836 242.624C203.752 242.624 204.516 242.373 205.131 241.866C205.747 241.359 206.207 240.677 206.51 239.824C206.814 238.968 206.965 238.014 206.965 236.965C206.965 235.906 206.814 234.947 206.51 234.089C206.207 233.23 205.747 232.546 205.131 232.036C204.516 231.526 203.752 231.27 202.836 231.27C201.898 231.27 201.119 231.526 200.5 232.036C199.882 232.546 199.42 233.23 199.116 234.089C198.812 234.947 198.662 235.906 198.662 236.965C198.662 238.014 198.812 238.968 199.116 239.824C199.42 240.677 199.882 241.359 200.5 241.866C201.119 242.373 201.898 242.624 202.836 242.624ZM202.815 245.889C201.127 245.889 199.663 245.517 198.424 244.774C197.188 244.032 196.229 242.994 195.55 241.657C194.871 240.323 194.53 238.762 194.53 236.976C194.53 235.19 194.871 233.626 195.55 232.282C196.229 230.94 197.188 229.896 198.424 229.154C199.663 228.412 201.127 228.039 202.815 228.039C204.503 228.039 205.963 228.412 207.202 229.154C208.441 229.896 209.398 230.94 210.077 232.282C210.755 233.626 211.096 235.19 211.096 236.976C211.096 238.762 210.755 240.323 210.077 241.657C209.398 242.994 208.441 244.032 207.202 244.774C205.963 245.517 204.503 245.889 202.815 245.889ZM183.422 245.551V228.266H187.374V231.146H187.554C187.868 230.147 188.409 229.379 189.178 228.834C189.947 228.29 190.827 228.018 191.817 228.018C192.044 228.018 192.295 228.026 192.578 228.047C192.858 228.066 193.093 228.092 193.281 228.132V231.878C193.109 231.817 192.837 231.764 192.464 231.714C192.095 231.666 191.735 231.642 191.389 231.642C190.647 231.642 189.981 231.801 189.392 232.121C188.803 232.438 188.341 232.879 188.003 233.441C187.665 234.004 187.495 234.654 187.495 235.388V245.551H183.422ZM170.99 242.513C171.851 242.513 172.588 242.278 173.196 241.81C173.804 241.34 174.263 240.685 174.58 239.845C174.895 239.005 175.053 238.025 175.053 236.907C175.053 235.79 174.897 234.818 174.586 233.994C174.274 233.169 173.817 232.527 173.212 232.07C172.61 231.611 171.867 231.384 170.99 231.384C170.081 231.384 169.323 231.619 168.716 232.092C168.108 232.564 167.651 233.217 167.345 234.049C167.036 234.884 166.882 235.835 166.882 236.907C166.882 237.988 167.038 238.952 167.35 239.795C167.662 240.64 168.121 241.303 168.734 241.787C169.344 242.27 170.097 242.513 170.99 242.513ZM169.854 245.855C168.496 245.855 167.279 245.506 166.206 244.809C165.134 244.111 164.286 243.097 163.665 241.771C163.041 240.442 162.73 238.828 162.73 236.931C162.73 235.011 163.047 233.389 163.681 232.063C164.315 230.739 165.171 229.738 166.251 229.059C167.331 228.38 168.536 228.039 169.865 228.039C170.877 228.039 171.709 228.211 172.364 228.552C173.016 228.893 173.534 229.302 173.915 229.78C174.298 230.256 174.593 230.705 174.805 231.125H174.974V222.505H179.058V245.551H175.053V242.827H174.805C174.593 243.247 174.29 243.691 173.893 244.161C173.495 244.629 172.971 245.031 172.316 245.361C171.664 245.691 170.842 245.855 169.854 245.855ZM132.588 245.551L127.704 228.266H131.856L134.894 240.418H135.053L138.157 228.266H142.265L145.371 240.352H145.54L148.533 228.266H152.697L147.802 245.551H143.559L140.318 233.869H140.083L136.841 245.551H132.588ZM117.974 245.889C116.241 245.889 114.746 245.527 113.491 244.803C112.234 244.08 111.267 243.052 110.593 241.718C109.917 240.386 109.579 238.817 109.579 237.01C109.579 235.233 109.92 233.669 110.599 232.321C111.278 230.977 112.229 229.925 113.452 229.173C114.675 228.417 116.109 228.039 117.76 228.039C118.828 228.039 119.834 228.211 120.782 228.552C121.731 228.893 122.571 229.421 123.303 230.134C124.034 230.847 124.61 231.753 125.03 232.852C125.45 233.951 125.662 235.259 125.662 236.773V238.022H111.492V235.277H121.757C121.749 234.496 121.58 233.801 121.25 233.188C120.92 232.578 120.46 232.094 119.871 231.743C119.282 231.392 118.598 231.215 117.818 231.215C116.984 231.215 116.252 231.415 115.623 231.817C114.992 232.218 114.503 232.741 114.154 233.391C113.806 234.041 113.626 234.752 113.621 235.523V237.922C113.621 238.926 113.803 239.787 114.17 240.503C114.537 241.221 115.053 241.768 115.713 242.146C116.373 242.526 117.145 242.714 118.03 242.714C118.624 242.714 119.16 242.632 119.641 242.463C120.119 242.294 120.537 242.043 120.888 241.713C121.242 241.382 121.509 240.976 121.688 240.487L125.493 240.915C125.252 241.919 124.795 242.796 124.124 243.543C123.453 244.288 122.597 244.867 121.554 245.276C120.51 245.683 119.319 245.889 117.974 245.889ZM105.957 222.505V245.551H102.243L91.3831 229.851H91.1929V245.551H87.019V222.505H90.7544L101.601 238.212H101.805V222.505H105.957Z" fill="url(#paint0_linear_8_2570)"/>
<path d="M178.807 266.24C178.455 266.24 178.136 266.169 177.853 266.029C177.571 265.889 177.343 265.696 177.172 265.451C177.003 265.208 176.907 264.928 176.892 264.613H177.615C177.642 264.893 177.771 265.123 177.996 265.305C178.223 265.488 178.492 265.577 178.807 265.577C179.06 265.577 179.285 265.519 179.483 265.4C179.681 265.282 179.837 265.118 179.951 264.912C180.064 264.703 180.12 264.468 180.12 264.204C180.12 263.934 180.062 263.694 179.945 263.483C179.826 263.271 179.665 263.105 179.462 262.981C179.256 262.859 179.023 262.798 178.759 262.796C178.572 262.793 178.376 262.822 178.178 262.88C177.98 262.941 177.816 263.015 177.687 263.107L176.989 263.023L177.362 259.988H180.566V260.651H177.988L177.771 262.471H177.808C177.935 262.37 178.094 262.286 178.284 262.22C178.474 262.154 178.672 262.119 178.881 262.119C179.259 262.119 179.594 262.209 179.89 262.389C180.186 262.569 180.418 262.814 180.59 263.126C180.759 263.438 180.844 263.792 180.844 264.193C180.844 264.587 180.756 264.935 180.579 265.245C180.405 265.554 180.162 265.797 179.856 265.974C179.549 266.151 179.198 266.24 178.807 266.24ZM171.767 266.156V265.614L173.801 263.385C174.041 263.123 174.237 262.896 174.393 262.703C174.546 262.51 174.662 262.326 174.736 262.156C174.813 261.985 174.85 261.802 174.85 261.615C174.85 261.398 174.797 261.211 174.694 261.052C174.591 260.894 174.451 260.77 174.271 260.685C174.094 260.598 173.893 260.556 173.669 260.556C173.431 260.556 173.225 260.603 173.051 260.701C172.874 260.799 172.739 260.933 172.644 261.108C172.549 261.282 172.501 261.488 172.501 261.723H171.79C171.79 261.361 171.872 261.044 172.039 260.772C172.205 260.497 172.435 260.286 172.723 260.133C173.011 259.98 173.333 259.903 173.693 259.903C174.054 259.903 174.374 259.98 174.654 260.133C174.934 260.286 175.151 260.492 175.309 260.751C175.47 261.01 175.55 261.298 175.55 261.615C175.55 261.842 175.507 262.064 175.425 262.278C175.346 262.495 175.204 262.735 175.005 262.999C174.805 263.263 174.527 263.583 174.176 263.963L172.789 265.445V265.493H175.658V266.156H171.767ZM168.494 265.577C168.943 265.577 169.294 265.361 169.542 264.928C169.791 264.494 169.915 263.876 169.915 263.073C169.915 262.537 169.859 262.082 169.746 261.707C169.632 261.332 169.468 261.047 169.257 260.849C169.046 260.653 168.792 260.556 168.494 260.556C168.047 260.556 167.701 260.775 167.45 261.213C167.199 261.652 167.072 262.27 167.072 263.073C167.072 263.607 167.128 264.061 167.242 264.434C167.355 264.806 167.516 265.091 167.728 265.287C167.939 265.48 168.195 265.577 168.494 265.577ZM168.494 266.24C168.039 266.24 167.654 266.116 167.334 265.868C167.014 265.62 166.771 265.26 166.602 264.788C166.433 264.315 166.351 263.741 166.351 263.073C166.351 262.405 166.436 261.837 166.605 261.364C166.774 260.891 167.02 260.529 167.339 260.278C167.659 260.03 168.045 259.903 168.494 259.903C168.943 259.903 169.328 260.03 169.648 260.278C169.97 260.529 170.213 260.891 170.385 261.364C170.554 261.837 170.639 262.405 170.639 263.073C170.639 263.741 170.554 264.315 170.385 264.788C170.216 265.26 169.973 265.62 169.653 265.868C169.334 266.116 168.948 266.24 168.494 266.24ZM161.366 266.156V265.614L163.401 263.385C163.641 263.123 163.836 262.896 163.992 262.703C164.145 262.51 164.262 262.326 164.336 262.156C164.412 261.985 164.449 261.802 164.449 261.615C164.449 261.398 164.396 261.211 164.293 261.052C164.19 260.894 164.05 260.77 163.871 260.685C163.694 260.598 163.493 260.556 163.268 260.556C163.031 260.556 162.825 260.603 162.65 260.701C162.473 260.799 162.339 260.933 162.243 261.108C162.148 261.282 162.101 261.488 162.101 261.723H161.39C161.39 261.361 161.472 261.044 161.639 260.772C161.805 260.497 162.035 260.286 162.323 260.133C162.611 259.98 162.933 259.903 163.292 259.903C163.654 259.903 163.974 259.98 164.254 260.133C164.534 260.286 164.75 260.492 164.909 260.751C165.07 261.01 165.149 261.298 165.149 261.615C165.149 261.842 165.107 262.064 165.025 262.278C164.946 262.495 164.803 262.735 164.605 262.999C164.404 263.263 164.127 263.583 163.776 263.963L162.389 265.445V265.493H165.258V266.156H161.366ZM159.565 266.204C159.417 266.204 159.29 266.151 159.184 266.045C159.076 265.939 159.023 265.81 159.023 265.662C159.023 265.514 159.076 265.387 159.184 265.279C159.29 265.173 159.417 265.12 159.565 265.12C159.715 265.12 159.842 265.173 159.948 265.279C160.054 265.387 160.109 265.514 160.109 265.662C160.109 265.76 160.083 265.85 160.035 265.934C159.985 266.016 159.919 266.082 159.837 266.13C159.758 266.18 159.665 266.204 159.565 266.204ZM156.102 265.577C156.355 265.577 156.582 265.514 156.783 265.387C156.984 265.26 157.145 265.091 157.261 264.88C157.38 264.666 157.438 264.428 157.438 264.169C157.438 263.913 157.383 263.681 157.269 263.472C157.156 263.261 157 263.094 156.802 262.97C156.603 262.846 156.379 262.783 156.125 262.783C155.935 262.783 155.758 262.82 155.592 262.896C155.428 262.97 155.283 263.073 155.161 263.205C155.037 263.335 154.939 263.485 154.871 263.652C154.799 263.821 154.765 263.995 154.765 264.18C154.765 264.426 154.823 264.655 154.937 264.867C155.053 265.081 155.211 265.253 155.412 265.382C155.615 265.511 155.845 265.577 156.102 265.577ZM156.102 266.24C155.848 266.235 155.594 266.188 155.343 266.095C155.09 266.003 154.857 265.847 154.649 265.628C154.44 265.408 154.273 265.11 154.147 264.732C154.02 264.357 153.956 263.884 153.956 263.314C153.956 262.767 154.009 262.283 154.11 261.861C154.213 261.438 154.361 261.081 154.556 260.791C154.752 260.5 154.987 260.281 155.261 260.13C155.539 259.98 155.851 259.903 156.197 259.903C156.543 259.903 156.852 259.972 157.121 260.109C157.391 260.249 157.61 260.439 157.782 260.685C157.953 260.928 158.062 261.211 158.112 261.53H157.377C157.309 261.253 157.177 261.023 156.981 260.841C156.783 260.659 156.522 260.566 156.197 260.566C155.718 260.566 155.343 260.775 155.069 261.19C154.797 261.604 154.657 262.188 154.657 262.938H154.704C154.815 262.769 154.95 262.624 155.106 262.503C155.261 262.381 155.433 262.286 155.623 262.22C155.811 262.154 156.012 262.119 156.22 262.119C156.574 262.119 156.899 262.209 157.193 262.384C157.486 262.561 157.718 262.801 157.895 263.11C158.072 263.419 158.162 263.771 158.162 264.169C158.162 264.55 158.075 264.899 157.906 265.216C157.734 265.53 157.496 265.781 157.187 265.968C156.878 266.153 156.516 266.243 156.102 266.24ZM150.781 265.577C151.23 265.577 151.582 265.361 151.83 264.928C152.078 264.494 152.202 263.876 152.202 263.073C152.202 262.537 152.147 262.082 152.033 261.707C151.92 261.332 151.756 261.047 151.545 260.849C151.333 260.653 151.08 260.556 150.781 260.556C150.335 260.556 149.989 260.775 149.738 261.213C149.487 261.652 149.36 262.27 149.36 263.073C149.36 263.607 149.415 264.061 149.529 264.434C149.643 264.806 149.804 265.091 150.015 265.287C150.226 265.48 150.483 265.577 150.781 265.577ZM150.781 266.24C150.327 266.24 149.941 266.116 149.621 265.868C149.302 265.62 149.059 265.26 148.89 264.788C148.721 264.315 148.639 263.741 148.639 263.073C148.639 262.405 148.723 261.837 148.892 261.364C149.061 260.891 149.307 260.529 149.627 260.278C149.946 260.03 150.332 259.903 150.781 259.903C151.23 259.903 151.616 260.03 151.936 260.278C152.258 260.529 152.501 260.891 152.673 261.364C152.842 261.837 152.926 262.405 152.926 263.073C152.926 263.741 152.842 264.315 152.673 264.788C152.504 265.26 152.261 265.62 151.941 265.868C151.621 266.116 151.236 266.24 150.781 266.24ZM147.186 266.204C147.038 266.204 146.911 266.151 146.805 266.045C146.697 265.939 146.644 265.81 146.644 265.662C146.644 265.514 146.697 265.387 146.805 265.279C146.911 265.173 147.038 265.12 147.186 265.12C147.336 265.12 147.463 265.173 147.569 265.279C147.675 265.387 147.73 265.514 147.73 265.662C147.73 265.76 147.704 265.85 147.656 265.934C147.606 266.016 147.54 266.082 147.458 266.13C147.379 266.18 147.286 266.204 147.186 266.204ZM141.543 266.156V265.614L143.577 263.385C143.818 263.123 144.013 262.896 144.169 262.703C144.322 262.51 144.439 262.326 144.512 262.156C144.589 261.985 144.626 261.802 144.626 261.615C144.626 261.398 144.573 261.211 144.47 261.052C144.367 260.894 144.227 260.77 144.048 260.685C143.871 260.598 143.67 260.556 143.445 260.556C143.207 260.556 143.001 260.603 142.827 260.701C142.65 260.799 142.515 260.933 142.42 261.108C142.325 261.282 142.278 261.488 142.278 261.723H141.567C141.567 261.361 141.649 261.044 141.815 260.772C141.982 260.497 142.212 260.286 142.5 260.133C142.787 259.98 143.11 259.903 143.469 259.903C143.831 259.903 144.151 259.98 144.431 260.133C144.711 260.286 144.927 260.492 145.086 260.751C145.247 261.01 145.326 261.298 145.326 261.615C145.326 261.842 145.284 262.064 145.202 262.278C145.123 262.495 144.98 262.735 144.782 262.999C144.581 263.263 144.304 263.583 143.952 263.963L142.566 265.445V265.493H145.434V266.156H141.543ZM138.27 265.577C138.719 265.577 139.071 265.361 139.319 264.928C139.567 264.494 139.691 263.876 139.691 263.073C139.691 262.537 139.636 262.082 139.522 261.707C139.409 261.332 139.245 261.047 139.034 260.849C138.822 260.653 138.569 260.556 138.27 260.556C137.824 260.556 137.478 260.775 137.227 261.213C136.976 261.652 136.849 262.27 136.849 263.073C136.849 263.607 136.904 264.061 137.018 264.434C137.132 264.806 137.293 265.091 137.504 265.287C137.715 265.48 137.972 265.577 138.27 265.577ZM138.27 266.24C137.816 266.24 137.43 266.116 137.11 265.868C136.791 265.62 136.548 265.26 136.379 264.788C136.21 264.315 136.128 263.741 136.128 263.073C136.128 262.405 136.212 261.837 136.381 261.364C136.55 260.891 136.796 260.529 137.116 260.278C137.435 260.03 137.821 259.903 138.27 259.903C138.719 259.903 139.105 260.03 139.425 260.278C139.747 260.529 139.99 260.891 140.162 261.364C140.331 261.837 140.415 262.405 140.415 263.073C140.415 263.741 140.331 264.315 140.162 264.788C139.993 265.26 139.75 265.62 139.43 265.868C139.11 266.116 138.725 266.24 138.27 266.24Z" fill="#6B7280"/>
<mask id="mask1_8_2570" style="mask-type:luminance" maskUnits="userSpaceOnUse" x="34" y="75" width="249" height="157">
<path d="M34.6058 75.5544H282.394V231.149H34.6058V75.5544Z" fill="white"/>
</mask>
<g mask="url(#mask1_8_2570)">
<mask id="mask2_8_2570" style="mask-type:luminance" maskUnits="userSpaceOnUse" x="34" y="75" width="249" height="157">
<path d="M34.6058 75.5544H282.394V231.149H34.6058V75.5544Z" fill="white"/>
</mask>
<g mask="url(#mask2_8_2570)">
<g filter="url(#filter0_f_8_2570)">
<path d="M277.275 85.075V221.665C277.275 224.123 275.279 226.119 272.821 226.119H44.1793C41.7212 226.119 39.7254 224.123 39.7254 221.665V85.075C39.7254 82.6169 41.7212 80.6211 44.1793 80.6211H272.821C275.279 80.6211 277.275 82.6169 277.275 85.075Z" fill="white"/>
</g>
</g>
<mask id="mask3_8_2570" style="mask-type:luminance" maskUnits="userSpaceOnUse" x="39" y="80" width="239" height="147">
<path d="M39.4612 80.6211H277.475V226.177H39.4612V80.6211Z" fill="white"/>
</mask>
<g mask="url(#mask3_8_2570)">
<mask id="mask4_8_2570" style="mask-type:alpha" maskUnits="userSpaceOnUse" x="39" y="80" width="239" height="147">
<path d="M277.275 85.075V221.665C277.275 224.123 275.279 226.119 272.821 226.119H44.1793C41.7212 226.119 39.7254 224.123 39.7254 221.665V85.075C39.7254 82.6169 41.7212 80.6211 44.1793 80.6211H272.821C275.279 80.6211 277.275 82.6169 277.275 85.075Z" fill="black"/>
</mask>
<g mask="url(#mask4_8_2570)">
<mask id="mask5_8_2570" style="mask-type:luminance" maskUnits="userSpaceOnUse" x="39" y="80" width="239" height="147">
<path d="M39.4612 80.6211H277.475V226.177H39.4612V80.6211Z" fill="white"/>
</mask>
<g mask="url(#mask5_8_2570)">
<mask id="mask6_8_2570" style="mask-type:luminance" maskUnits="userSpaceOnUse" x="39" y="80" width="239" height="11">
<path d="M39.4612 80.357H277.475V90.6595H39.4612V80.357Z" fill="white"/>
</mask>
<g mask="url(#mask6_8_2570)">
<path d="M41.5825 80.6211C62.5465 80.6211 254.454 80.6211 275.418 80.6211C276.443 80.6211 277.275 81.4533 277.275 82.4782C277.275 85.3286 277.275 90.4561 277.275 90.4561H39.7254C39.7254 90.4561 39.7254 85.3286 39.7254 82.4782C39.7254 81.4533 40.5576 80.6211 41.5825 80.6211Z" fill="white"/>
<mask id="mask7_8_2570" style="mask-type:luminance" maskUnits="userSpaceOnUse" x="246" y="82" width="30" height="7">
<path d="M246.098 82.848H275.049V88.0444H246.098V82.848Z" fill="white"/>
</mask>
<g mask="url(#mask7_8_2570)">
<path d="M249.159 84.6629C249.093 84.6629 249.043 84.7112 249.043 84.7791V85.5478L249.056 85.8727L248.9 85.6878L248.718 85.5029C248.697 85.4828 248.669 85.4712 248.636 85.4712C248.573 85.4712 248.525 85.5206 248.525 85.5822C248.525 85.6144 248.534 85.6413 248.554 85.6614L249.07 86.1739C249.1 86.2048 249.127 86.2162 249.159 86.2162C249.193 86.2162 249.22 86.2032 249.249 86.1739L249.762 85.6614C249.782 85.6413 249.796 85.6144 249.796 85.5822C249.796 85.5206 249.746 85.4712 249.682 85.4712C249.649 85.4712 249.621 85.4812 249.601 85.5029L249.418 85.6878L249.262 85.8754L249.276 85.5478V84.7791C249.276 84.7112 249.227 84.6629 249.159 84.6629ZM249.159 86.7577C248.432 86.7577 247.852 86.1744 247.852 85.4474C247.852 84.7204 248.43 84.1372 249.157 84.1372C249.884 84.1372 250.468 84.7204 250.47 85.4474C250.471 86.1744 249.886 86.7577 249.159 86.7577ZM249.159 87.0192C250.019 87.0192 250.731 86.3055 250.731 85.4474C250.731 84.5878 250.016 83.8756 249.157 83.8756C248.299 83.8756 247.588 84.5878 247.588 85.4474C247.588 86.3055 248.301 87.0192 249.159 87.0192Z" fill="#737373"/>
<path d="M256.767 85.8674C256.834 85.8674 256.889 85.8106 256.889 85.7459V84.1635L256.878 83.9337L256.984 84.042L257.216 84.293C257.238 84.3175 257.272 84.3299 257.301 84.3299C257.366 84.3299 257.412 84.2821 257.412 84.219C257.412 84.1868 257.4 84.1627 257.378 84.1397L256.857 83.6378C256.826 83.6069 256.798 83.5956 256.767 83.5956C256.736 83.5956 256.708 83.6069 256.677 83.6378L256.157 84.1397C256.134 84.1627 256.12 84.1868 256.12 84.219C256.12 84.2821 256.168 84.3299 256.231 84.3299C256.262 84.3299 256.294 84.3175 256.316 84.293L256.551 84.042L256.654 83.9337L256.643 84.1635V85.7459C256.643 85.8106 256.701 85.8674 256.767 85.8674ZM255.882 87.072H257.65C257.972 87.072 258.133 86.9111 258.133 86.5939V85.0564C258.133 84.7391 257.972 84.5809 257.65 84.5809H257.219V84.8292H257.644C257.797 84.8292 257.885 84.9122 257.885 85.0723V86.5807C257.885 86.7407 257.797 86.8237 257.644 86.8237H255.885C255.731 86.8237 255.647 86.7407 255.647 86.5807V85.0723C255.647 84.9122 255.731 84.8292 255.885 84.8292H256.313V84.5809H255.882C255.56 84.5809 255.399 84.7391 255.399 85.0564V86.5939C255.399 86.9111 255.56 87.072 255.882 87.072Z" fill="#737373"/>
<path d="M264.378 86.747C264.454 86.747 264.518 86.6863 264.518 86.6123V85.59H265.511C265.585 85.59 265.649 85.5255 265.649 85.45C265.649 85.3744 265.585 85.3126 265.511 85.3126H264.518V84.2876C264.518 84.2137 264.454 84.1529 264.378 84.1529C264.302 84.1529 264.241 84.2137 264.241 84.2876V85.3126H263.245C263.171 85.3126 263.107 85.3744 263.107 85.45C263.107 85.5255 263.171 85.59 263.245 85.59H264.241V86.6123C264.241 86.6863 264.302 86.747 264.378 86.747Z" fill="#737373"/>
<path d="M270.842 86.1025C270.688 86.1025 270.604 86.0195 270.604 85.8594V84.3273C270.604 84.1672 270.688 84.0842 270.842 84.0842H272.382C272.535 84.0842 272.62 84.1672 272.62 84.3273V84.5492H271.587C271.264 84.5492 271.104 84.7085 271.104 85.0273V86.1025H270.842ZM271.59 86.8157C271.437 86.8157 271.352 86.7328 271.352 86.5727V85.0405C271.352 84.8804 271.437 84.7975 271.59 84.7975H273.13C273.282 84.7975 273.368 84.8804 273.368 85.0405V86.5727C273.368 86.7328 273.282 86.8157 273.13 86.8157H271.59ZM270.84 86.3508H271.104V86.5859C271.104 86.9032 271.264 87.0641 271.587 87.0641H273.133C273.453 87.0641 273.616 86.9032 273.616 86.5859V85.0273C273.616 84.7101 273.453 84.5492 273.133 84.5492H272.868V84.3141C272.868 83.9968 272.708 83.8359 272.388 83.8359H270.84C270.516 83.8359 270.356 83.9968 270.356 84.3141V85.8727C270.356 86.1899 270.516 86.3508 270.84 86.3508Z" fill="#737373"/>
</g>
<mask id="mask8_8_2570" style="mask-type:luminance" maskUnits="userSpaceOnUse" x="64" y="82" width="13" height="7">
<path d="M64.5941 82.8481H76.8428V88.0445H64.5941V82.8481Z" fill="white"/>
</mask>
<g mask="url(#mask8_8_2570)">
<path d="M68.1683 86.7446L66.9478 85.5532C66.9185 85.5239 66.9029 85.4888 66.9029 85.4502C66.9029 85.41 66.9185 85.3717 66.9478 85.3472L68.1683 84.1531C68.1944 84.127 68.2285 84.1109 68.2686 84.1109C68.3487 84.1109 68.4086 84.1735 68.4086 84.2535C68.4086 84.2905 68.3936 84.3277 68.369 84.3539L67.2489 85.4502L68.369 86.5465C68.3936 86.5726 68.4086 86.6083 68.4086 86.6469C68.4086 86.7269 68.3487 86.7869 68.2686 86.7869C68.2285 86.7869 68.1944 86.7708 68.1683 86.7446Z" fill="#737373"/>
<path d="M73.1689 86.7868C73.2091 86.7868 73.2431 86.7707 73.2693 86.7446L74.4897 85.5505C74.5191 85.5212 74.5347 85.4861 74.5347 85.4475C74.5347 85.4074 74.5191 85.3706 74.4897 85.3445L73.2719 84.1504C73.2442 84.1227 73.2091 84.1082 73.1689 84.1082C73.0889 84.1082 73.0289 84.1708 73.0289 84.2508C73.0289 84.2878 73.044 84.3251 73.0685 84.3512L74.1912 85.4475L73.0685 86.5438C73.044 86.57 73.0289 86.6056 73.0289 86.6442C73.0289 86.7242 73.0889 86.7868 73.1689 86.7868Z" fill="#BFBFBF"/>
</g>
<path d="M58.9199 85.6483C58.9677 85.6483 59.0071 85.61 59.0071 85.5637C59.0071 85.5175 58.9677 85.4766 58.9199 85.4766H58.5897C58.5434 85.4766 58.5025 85.5175 58.5025 85.5637C58.5025 85.61 58.5434 85.6483 58.5897 85.6483H58.9199ZM58.9199 85.2494C58.9677 85.2494 59.0071 85.2084 59.0071 85.1622C59.0071 85.116 58.9677 85.0777 58.9199 85.0777H58.5897C58.5434 85.0777 58.5025 85.116 58.5025 85.1622C58.5025 85.2084 58.5434 85.2494 58.5897 85.2494H58.9199ZM58.9199 84.8505C58.9677 84.8505 59.0071 84.8106 59.0071 84.7659C59.0071 84.7197 58.9677 84.6788 58.9199 84.6788H58.5897C58.5434 84.6788 58.5025 84.7197 58.5025 84.7659C58.5025 84.8106 58.5434 84.8505 58.5897 84.8505H58.9199ZM58.5289 86.6204C58.3749 86.6204 58.2912 86.5375 58.2912 86.3774V84.5203C58.2912 84.3602 58.3749 84.2799 58.5289 84.2799H59.2157V86.6204H58.5289ZM61.1891 84.2799C61.3415 84.2799 61.4268 84.3602 61.4268 84.5203V86.3774C61.4268 86.5375 61.3415 86.6204 61.1891 86.6204H59.4588V84.2799H61.1891ZM58.5263 86.8687H61.1917C61.5153 86.8687 61.6752 86.7078 61.6752 86.3906V84.5097C61.6752 84.1924 61.5153 84.0316 61.1917 84.0316H58.5263C58.2042 84.0316 58.0428 84.1909 58.0428 84.5097V86.3906C58.0428 86.7094 58.2042 86.8687 58.5263 86.8687Z" fill="#737373"/>
<mask id="mask9_8_2570" style="mask-type:alpha" maskUnits="userSpaceOnUse" x="43" y="84" width="3" height="3">
<path d="M44.7366 86.5596C44.1211 86.5596 43.6218 86.063 43.6218 85.4474C43.6218 84.8319 44.1211 84.3327 44.7366 84.3327C45.3521 84.3327 45.8488 84.8319 45.8488 85.4474C45.8488 86.063 45.3521 86.5596 44.7366 86.5596Z" fill="black"/>
</mask>
<g mask="url(#mask9_8_2570)">
<path d="M44.7366 86.5596C44.1216 86.5596 43.6218 86.0624 43.6218 85.4474C43.6218 84.8325 44.1216 84.3327 44.7366 84.3327C45.3516 84.3327 45.8488 84.8325 45.8488 85.4474C45.8488 86.0624 45.3516 86.5596 44.7366 86.5596Z" fill="#EE6A5F"/>
<path d="M44.7366 86.5596C44.1216 86.5596 43.6218 86.0624 43.6218 85.4474C43.6218 84.8325 44.1216 84.3327 44.7366 84.3327C45.3516 84.3327 45.8488 84.8325 45.8488 85.4474C45.8488 86.0624 45.3516 86.5596 44.7366 86.5596Z" stroke="#CE5347" stroke-width="0.184724"/>
</g>
<mask id="mask10_8_2570" style="mask-type:alpha" maskUnits="userSpaceOnUse" x="47" y="84" width="3" height="3">
<path d="M48.4482 86.5596C47.8327 86.5596 47.3334 86.063 47.3334 85.4474C47.3334 84.8319 47.8327 84.3327 48.4482 84.3327C49.0638 84.3327 49.5604 84.8319 49.5604 85.4474C49.5604 86.063 49.0638 86.5596 48.4482 86.5596Z" fill="black"/>
</mask>
<g mask="url(#mask10_8_2570)">
<path d="M48.4482 86.5596C47.8333 86.5596 47.3334 86.0624 47.3334 85.4474C47.3334 84.8325 47.8333 84.3327 48.4482 84.3327C49.0632 84.3327 49.5604 84.8325 49.5604 85.4474C49.5604 86.0624 49.0632 86.5596 48.4482 86.5596Z" fill="#F5BD4F"/>
<path d="M48.4482 86.5596C47.8333 86.5596 47.3334 86.0624 47.3334 85.4474C47.3334 84.8325 47.8333 84.3327 48.4482 84.3327C49.0632 84.3327 49.5604 84.8325 49.5604 85.4474C49.5604 86.0624 49.0632 86.5596 48.4482 86.5596Z" stroke="#D6A243" stroke-width="0.184724"/>
</g>
<mask id="mask11_8_2570" style="mask-type:alpha" maskUnits="userSpaceOnUse" x="51" y="84" width="3" height="3">
<path d="M52.1599 86.5596C51.5444 86.5596 51.0451 86.063 51.0451 85.4474C51.0451 84.8319 51.5444 84.3327 52.1599 84.3327C52.7754 84.3327 53.272 84.8319 53.272 85.4474C53.272 86.063 52.7754 86.5596 52.1599 86.5596Z" fill="black"/>
</mask>
<g mask="url(#mask11_8_2570)">
<path d="M52.1599 86.5596C51.5449 86.5596 51.0451 86.0624 51.0451 85.4474C51.0451 84.8325 51.5449 84.3327 52.1599 84.3327C52.7748 84.3327 53.272 84.8325 53.272 85.4474C53.272 86.0624 52.7748 86.5596 52.1599 86.5596Z" fill="#61C454"/>
<path d="M52.1599 86.5596C51.5449 86.5596 51.0451 86.0624 51.0451 85.4474C51.0451 84.8325 51.5449 84.3327 52.1599 84.3327C52.7748 84.3327 53.272 84.8325 53.272 85.4474C53.272 86.0624 52.7748 86.5596 52.1599 86.5596Z" stroke="#58A942" stroke-width="0.184724"/>
</g>
<mask id="mask12_8_2570" style="mask-type:luminance" maskUnits="userSpaceOnUse" x="102" y="82" width="113" height="7">
<path d="M102.824 82.848H214.176V88.0444H102.824V82.848Z" fill="white"/>
</mask>
<g mask="url(#mask12_8_2570)">
<path d="M105.947 84.1952C106.179 84.2877 106.63 84.4517 106.869 84.5333C106.91 84.5487 106.919 84.5709 106.919 84.6232V85.6957C106.919 86.1717 106.693 86.2956 105.981 86.7286C105.936 86.7563 105.911 86.764 105.886 86.7656V84.182C105.901 84.182 105.922 84.186 105.947 84.1952ZM105.886 87.0456C105.911 87.0456 105.95 87.0355 105.989 87.0139C106.865 86.5225 107.165 86.3162 107.165 85.7538V84.5756C107.165 84.4139 107.095 84.3616 106.964 84.3062C106.782 84.2306 106.197 84.0206 106.015 83.9575C105.974 83.9437 105.929 83.9337 105.886 83.9337C105.843 83.9337 105.797 83.9466 105.757 83.9575C105.575 84.0098 104.987 84.2322 104.805 84.3062C104.676 84.36 104.605 84.4139 104.605 84.5756V85.7538C104.605 86.3162 104.908 86.5209 105.783 87.0139C105.823 87.0355 105.861 87.0456 105.886 87.0456Z" fill="#737373"/>
<path d="M206.382 83.9641V86.9307C206.382 87.5459 205.883 88.0455 205.267 88.0455H111.733C111.118 88.0455 110.619 87.5459 110.619 86.9307V83.9641C110.619 83.3488 111.118 82.8493 111.733 82.8493H205.267C205.883 82.8493 206.382 83.3488 206.382 83.9641Z" fill="black" fill-opacity="0.05"/>
<path d="M151.621 84.9693C151.621 84.6964 151.795 84.5519 151.999 84.5519C152.202 84.5519 152.377 84.6964 152.377 84.9693V85.2651L151.621 85.2678V84.9693ZM151.481 86.5067H152.517C152.657 86.5067 152.725 86.437 152.725 86.2848V85.487C152.725 85.3499 152.667 85.2797 152.551 85.2678V84.993C152.551 84.583 152.284 84.3854 151.999 84.3854C151.714 84.3854 151.444 84.583 151.444 84.993V85.273C151.338 85.2894 151.272 85.3586 151.272 85.487V86.2848C151.272 86.437 151.341 86.5067 151.481 86.5067Z" fill="#9E9E9E"/>
<path d="M166.554 86.3245V85.0247H166.747V85.2282H166.763C166.792 85.1595 166.834 85.1066 166.895 85.067C166.956 85.0274 167.027 85.0089 167.112 85.0089C167.199 85.0089 167.27 85.0274 167.326 85.067C167.384 85.1066 167.429 85.1595 167.461 85.2282H167.474C167.508 85.1621 167.558 85.1093 167.624 85.0697C167.69 85.03 167.77 85.0089 167.862 85.0089C167.978 85.0089 168.073 85.0459 168.147 85.1172C168.221 85.1912 168.258 85.3021 168.258 85.4553V86.3245H168.06V85.4553C168.06 85.3602 168.034 85.2916 167.981 85.2493C167.928 85.2097 167.867 85.1885 167.796 85.1885C167.704 85.1885 167.635 85.2149 167.585 85.2704C167.534 85.3259 167.508 85.3946 167.508 85.4791V86.3245H167.305V85.4342C167.305 85.3602 167.281 85.3021 167.233 85.2572C167.186 85.2123 167.125 85.1885 167.048 85.1885C166.996 85.1885 166.948 85.2017 166.903 85.2308C166.858 85.2572 166.824 85.2968 166.795 85.3444C166.768 85.3919 166.755 85.4501 166.755 85.5135V86.3245H166.554ZM165.654 86.1712C165.743 86.1712 165.815 86.1501 165.873 86.1026C165.931 86.0576 165.973 85.9969 166 85.9229C166.029 85.849 166.042 85.7697 166.042 85.6825C166.042 85.5954 166.029 85.5135 166 85.4395C165.973 85.3655 165.931 85.3048 165.873 85.2572C165.815 85.2123 165.743 85.1885 165.654 85.1885C165.564 85.1885 165.49 85.2123 165.434 85.2572C165.376 85.3048 165.334 85.3655 165.305 85.4395C165.278 85.5135 165.265 85.5954 165.265 85.6825C165.265 85.7697 165.278 85.849 165.305 85.9229C165.334 85.9969 165.376 86.0576 165.434 86.1026C165.49 86.1501 165.564 86.1712 165.654 86.1712ZM165.654 86.3509C165.535 86.3509 165.434 86.3245 165.345 86.269C165.257 86.2109 165.189 86.1343 165.138 86.0339C165.088 85.9335 165.064 85.8173 165.064 85.6825C165.064 85.5478 165.088 85.4289 165.138 85.3285C165.189 85.2282 165.257 85.1489 165.345 85.0934C165.434 85.038 165.535 85.0089 165.654 85.0089C165.77 85.0089 165.873 85.038 165.96 85.0934C166.05 85.1489 166.119 85.2282 166.169 85.3285C166.216 85.4289 166.243 85.5478 166.243 85.6825C166.243 85.8173 166.216 85.9335 166.169 86.0339C166.119 86.1343 166.05 86.2109 165.96 86.269C165.873 86.3245 165.77 86.3509 165.654 86.3509ZM164.314 86.3509C164.193 86.3509 164.087 86.3218 164 86.2663C163.91 86.2082 163.844 86.129 163.796 86.0286C163.749 85.9256 163.725 85.812 163.725 85.6825C163.725 85.5504 163.749 85.4342 163.799 85.3312C163.847 85.2308 163.915 85.1515 164.003 85.0961C164.09 85.038 164.193 85.0089 164.312 85.0089C164.401 85.0089 164.483 85.0247 164.557 85.0591C164.631 85.0934 164.689 85.141 164.737 85.2017C164.784 85.2625 164.814 85.3338 164.824 85.4157H164.626C164.61 85.355 164.576 85.3021 164.523 85.2572C164.473 85.2123 164.401 85.1885 164.314 85.1885C164.235 85.1885 164.169 85.2097 164.111 85.2493C164.05 85.2889 164.005 85.3444 163.973 85.4184C163.942 85.4923 163.926 85.5769 163.926 85.6746C163.926 85.775 163.942 85.8622 163.973 85.9361C164.005 86.0127 164.05 86.0682 164.108 86.1105C164.166 86.1527 164.235 86.1712 164.314 86.1712C164.364 86.1712 164.412 86.1633 164.454 86.1448C164.497 86.1263 164.534 86.1026 164.563 86.0682C164.592 86.0339 164.613 85.9942 164.626 85.9467H164.824C164.814 86.0233 164.784 86.092 164.742 86.1527C164.697 86.2135 164.639 86.2611 164.565 86.298C164.494 86.3324 164.409 86.3509 164.314 86.3509ZM163.276 86.3377C163.234 86.3377 163.199 86.3218 163.17 86.2928C163.139 86.2637 163.126 86.2267 163.126 86.1871C163.126 86.1448 163.139 86.1078 163.17 86.0788C163.199 86.0497 163.234 86.0339 163.276 86.0339C163.318 86.0339 163.353 86.0497 163.384 86.0788C163.413 86.1078 163.429 86.1448 163.429 86.1871C163.429 86.2135 163.421 86.2399 163.408 86.2611C163.395 86.2848 163.376 86.3033 163.353 86.3165C163.329 86.3324 163.305 86.3377 163.276 86.3377ZM161.868 85.6746C161.868 85.7723 161.881 85.8595 161.91 85.9335C161.939 86.0101 161.982 86.0682 162.037 86.1105C162.093 86.1501 162.159 86.1712 162.238 86.1712C162.322 86.1712 162.391 86.1501 162.449 86.1052C162.505 86.0629 162.547 86.0022 162.576 85.9256C162.602 85.8516 162.618 85.7671 162.618 85.6746C162.618 85.5848 162.602 85.5003 162.576 85.4289C162.547 85.355 162.505 85.2968 162.449 85.2519C162.394 85.2097 162.322 85.1885 162.238 85.1885C162.159 85.1885 162.09 85.2097 162.034 85.2493C161.979 85.2916 161.937 85.347 161.91 85.421C161.881 85.4923 161.868 85.5795 161.868 85.6746ZM161.67 86.3245V84.5942H161.871V85.2334H161.887C161.902 85.2097 161.924 85.1806 161.947 85.1463C161.974 85.1093 162.013 85.0776 162.061 85.0512C162.111 85.0221 162.177 85.0089 162.262 85.0089C162.373 85.0089 162.468 85.0353 162.552 85.0908C162.634 85.1463 162.7 85.2229 162.748 85.3233C162.793 85.4236 162.816 85.5425 162.816 85.6799C162.816 85.8173 162.793 85.9361 162.748 86.0365C162.7 86.1369 162.634 86.2135 162.552 86.269C162.47 86.3245 162.375 86.3509 162.267 86.3509C162.182 86.3509 162.116 86.3377 162.066 86.3086C162.016 86.2822 161.976 86.2505 161.95 86.2135C161.924 86.1792 161.902 86.1475 161.887 86.1237H161.863V86.3245H161.67ZM160.706 86.1765C160.785 86.1765 160.851 86.1607 160.906 86.129C160.962 86.0973 161.002 86.0576 161.031 86.0101C161.057 85.9599 161.073 85.9097 161.073 85.8542V85.672C161.062 85.6825 161.044 85.6905 161.017 85.6984C160.988 85.7063 160.954 85.7142 160.917 85.7195C160.88 85.7274 160.846 85.7327 160.811 85.7354C160.777 85.7406 160.748 85.7433 160.727 85.7459C160.674 85.7539 160.626 85.7644 160.582 85.7776C160.537 85.7935 160.5 85.8173 160.473 85.8463C160.447 85.8754 160.434 85.915 160.434 85.9652C160.434 86.0365 160.457 86.0867 160.51 86.1237C160.56 86.158 160.626 86.1765 160.706 86.1765ZM160.677 86.3562C160.595 86.3562 160.518 86.3403 160.452 86.3086C160.386 86.2769 160.331 86.232 160.291 86.1712C160.254 86.1131 160.233 86.0392 160.233 85.9546C160.233 85.8807 160.249 85.8199 160.278 85.775C160.307 85.7274 160.346 85.6905 160.394 85.664C160.444 85.6376 160.497 85.6191 160.558 85.6059C160.616 85.5927 160.677 85.5821 160.737 85.5742C160.817 85.5637 160.88 85.5557 160.93 85.5504C160.978 85.5452 161.015 85.5372 161.039 85.524C161.06 85.5108 161.073 85.487 161.073 85.4553V85.4474C161.073 85.3655 161.049 85.2995 161.004 85.2546C160.959 85.207 160.891 85.1859 160.798 85.1859C160.703 85.1859 160.629 85.207 160.574 85.2466C160.521 85.2889 160.481 85.3338 160.46 85.3814L160.27 85.3127C160.304 85.2334 160.349 85.1727 160.407 85.1278C160.463 85.0855 160.523 85.0538 160.592 85.0353C160.658 85.0168 160.727 85.0089 160.79 85.0089C160.833 85.0089 160.88 85.0142 160.936 85.0247C160.988 85.0327 161.041 85.0538 161.094 85.0855C161.144 85.1146 161.187 85.1595 161.221 85.2229C161.255 85.2836 161.271 85.3655 161.271 85.4685V86.3245H161.073V86.1475H161.062C161.049 86.1765 161.025 86.2082 160.994 86.2399C160.962 86.2716 160.92 86.298 160.867 86.3218C160.817 86.3429 160.751 86.3562 160.677 86.3562ZM159.932 84.5942V86.3245H159.731V84.5942H159.932ZM158.878 86.3509C158.754 86.3509 158.645 86.3245 158.555 86.269C158.466 86.2135 158.394 86.1343 158.347 86.0339C158.297 85.9361 158.273 85.8173 158.273 85.6852C158.273 85.5531 158.297 85.4342 158.347 85.3338C158.394 85.2308 158.463 85.1515 158.55 85.0961C158.637 85.038 158.74 85.0089 158.859 85.0089C158.925 85.0089 158.991 85.0195 159.057 85.0432C159.123 85.0644 159.184 85.1014 159.24 85.1515C159.292 85.2017 159.335 85.2704 159.366 85.3523C159.401 85.4342 159.417 85.5372 159.417 85.6588V85.7433H158.415V85.5716H159.213C159.213 85.4976 159.197 85.4316 159.168 85.3734C159.139 85.318 159.1 85.2704 159.047 85.2387C158.994 85.2044 158.931 85.1885 158.859 85.1885C158.777 85.1885 158.709 85.207 158.653 85.2466C158.595 85.2863 158.55 85.3365 158.518 85.3999C158.487 85.4633 158.473 85.5293 158.473 85.6006V85.7169C158.473 85.8146 158.489 85.8965 158.524 85.9652C158.558 86.0339 158.606 86.0841 158.666 86.1184C158.727 86.1554 158.798 86.1712 158.878 86.1712C158.931 86.1712 158.978 86.166 159.02 86.1501C159.063 86.1343 159.1 86.1131 159.131 86.0814C159.163 86.0524 159.187 86.0154 159.203 85.9705L159.395 86.0233C159.374 86.0893 159.34 86.1475 159.292 86.195C159.245 86.2452 159.187 86.2822 159.115 86.3112C159.044 86.3377 158.965 86.3509 158.878 86.3509ZM157.874 84.8108C157.834 84.8108 157.8 84.7976 157.773 84.7711C157.744 84.7421 157.731 84.7104 157.731 84.6734C157.731 84.6364 157.744 84.6047 157.773 84.5783C157.8 84.5519 157.834 84.5387 157.874 84.5387C157.911 84.5387 157.945 84.5519 157.972 84.5783C158.001 84.6047 158.014 84.6364 158.014 84.6734C158.014 84.7104 158.001 84.7421 157.972 84.7711C157.945 84.7976 157.911 84.8108 157.874 84.8108ZM157.771 86.3245V85.0247H157.972V86.3245H157.771ZM156.992 84.7157H157.192V85.952C157.192 86.0101 157.2 86.0497 157.216 86.0788C157.235 86.1078 157.256 86.1263 157.282 86.1343C157.309 86.1448 157.335 86.1475 157.364 86.1475C157.388 86.1475 157.404 86.1475 157.419 86.1448C157.433 86.1422 157.443 86.1395 157.451 86.1395L157.493 86.3165C157.48 86.3218 157.462 86.3271 157.435 86.3324C157.412 86.3377 157.382 86.3403 157.345 86.3403C157.287 86.3403 157.232 86.3297 157.179 86.306C157.126 86.2795 157.081 86.2426 157.044 86.195C157.01 86.1448 156.992 86.0814 156.992 86.0075V84.7157ZM157.47 85.0247V85.1938H156.796V85.0247H157.47ZM156.125 84.7157H156.326V85.952C156.326 86.0101 156.334 86.0497 156.35 86.0788C156.368 86.1078 156.389 86.1263 156.416 86.1343C156.442 86.1448 156.468 86.1475 156.498 86.1475C156.521 86.1475 156.537 86.1475 156.553 86.1448C156.566 86.1422 156.577 86.1395 156.585 86.1395L156.627 86.3165C156.614 86.3218 156.595 86.3271 156.569 86.3324C156.545 86.3377 156.516 86.3403 156.479 86.3403C156.421 86.3403 156.365 86.3297 156.313 86.306C156.26 86.2795 156.215 86.2426 156.178 86.195C156.144 86.1448 156.125 86.0814 156.125 86.0075V84.7157ZM156.603 85.0247V85.1938H155.93V85.0247H156.603ZM155.134 86.1712C155.224 86.1712 155.296 86.1501 155.354 86.1026C155.412 86.0576 155.454 85.9969 155.48 85.9229C155.51 85.849 155.523 85.7697 155.523 85.6825C155.523 85.5954 155.51 85.5135 155.48 85.4395C155.454 85.3655 155.412 85.3048 155.354 85.2572C155.296 85.2123 155.224 85.1885 155.134 85.1885C155.045 85.1885 154.971 85.2123 154.915 85.2572C154.857 85.3048 154.815 85.3655 154.786 85.4395C154.759 85.5135 154.746 85.5954 154.746 85.6825C154.746 85.7697 154.759 85.849 154.786 85.9229C154.815 85.9969 154.857 86.0576 154.915 86.1026C154.971 86.1501 155.045 86.1712 155.134 86.1712ZM155.134 86.3509C155.016 86.3509 154.915 86.3245 154.825 86.269C154.738 86.2109 154.669 86.1343 154.619 86.0339C154.569 85.9335 154.545 85.8173 154.545 85.6825C154.545 85.5478 154.569 85.4289 154.619 85.3285C154.669 85.2282 154.738 85.1489 154.825 85.0934C154.915 85.038 155.016 85.0089 155.134 85.0089C155.251 85.0089 155.354 85.038 155.441 85.0934C155.531 85.1489 155.599 85.2282 155.65 85.3285C155.697 85.4289 155.724 85.5478 155.724 85.6825C155.724 85.8173 155.697 85.9335 155.65 86.0339C155.599 86.1343 155.531 86.2109 155.441 86.269C155.354 86.3245 155.251 86.3509 155.134 86.3509ZM154.244 84.5942V86.3245H154.043V84.5942H154.244Z" fill="#4C4C4C"/>
<path d="M204.206 85.3734C204.233 85.3734 204.254 85.366 204.269 85.3496L204.716 84.8979C204.735 84.8794 204.742 84.8596 204.742 84.8345C204.742 84.8105 204.733 84.7859 204.716 84.7685L204.269 84.3141C204.254 84.2967 204.232 84.2877 204.206 84.2877C204.157 84.2877 204.119 84.3276 204.119 84.3775C204.119 84.4002 204.127 84.4208 204.143 84.4383L204.433 84.7236C204.371 84.7127 204.309 84.7051 204.246 84.7051C203.713 84.7051 203.284 85.1338 203.284 85.6666C203.284 86.2005 203.713 86.6282 204.246 86.6282C204.779 86.6282 205.205 86.2005 205.205 85.6666C205.205 85.6143 205.168 85.5768 205.115 85.5768C205.064 85.5768 205.03 85.6143 205.03 85.6666C205.03 86.1038 204.682 86.4539 204.246 86.4539C203.81 86.4539 203.458 86.1038 203.458 85.6666C203.458 85.2305 203.81 84.8821 204.246 84.8821C204.328 84.8821 204.405 84.8889 204.47 84.9032L204.145 85.2255C204.129 85.2429 204.119 85.2635 204.119 85.2862C204.119 85.3362 204.157 85.3734 204.206 85.3734Z" fill="#797979"/>
</g>
</g>
</g>
</g>
</g>
</g>
</g>
<defs>
<filter id="filter0_f_8_2570" x="37.6121" y="78.5078" width="241.776" height="149.724" filterUnits="userSpaceOnUse" color-interpolation-filters="sRGB">
<feFlood flood-opacity="0" result="BackgroundImageFix"/>
<feBlend mode="normal" in="SourceGraphic" in2="BackgroundImageFix" result="shape"/>
<feGaussianBlur stdDeviation="1.05557" result="effect1_foregroundBlur_8_2570"/>
</filter>
<linearGradient id="paint0_linear_8_2570" x1="68.4559" y1="208.446" x2="248.545" y2="259.599" gradientUnits="userSpaceOnUse">
<stop stop-color="#69BFFA"/>
<stop offset="0.33" stop-color="#B96AF3"/>
<stop offset="0.77" stop-color="#E9695E"/>
<stop offset="1" stop-color="#F2AC3E"/>
</linearGradient>
</defs>
</svg>
