<svg width="32" height="20" viewBox="0 0 32 20" fill="none" xmlns="http://www.w3.org/2000/svg">
<path d="M17.4999 17.5001L12.4999 12.5001M8.33364 5.83381V8.33381M8.33364 8.33381V10.8338M8.33364 8.33381H10.8336M8.33364 8.33381H5.83364M14.1661 8.33381C14.1775 9.10701 14.0349 9.87475 13.7469 10.5924C13.4588 11.31 13.031 11.9632 12.4882 12.514C11.9454 13.0648 11.2985 13.5021 10.5852 13.8007C9.87187 14.0992 9.1063 14.2529 8.33302 14.2529C7.55973 14.2529 6.79416 14.0992 6.08083 13.8007C5.36749 13.5021 4.72063 13.0648 4.17785 12.514C3.63507 11.9632 3.20721 11.31 2.91915 10.5924C2.63109 9.87475 2.48857 9.10701 2.49989 8.33381C2.52232 6.80155 3.14675 5.33966 4.23824 4.26403C5.32972 3.18841 6.8006 2.58545 8.33302 2.58545C9.86543 2.58545 11.3363 3.18841 12.4278 4.26403C13.5193 5.33966 14.1437 6.80155 14.1661 8.33381Z" stroke="black" stroke-opacity="0.6" stroke-width="1.875" stroke-linecap="round" stroke-linejoin="round"/>
<path d="M23.3 8.5L26 11.5L28.7 8.5" stroke="black" stroke-opacity="0.6" stroke-linecap="round" stroke-linejoin="round"/>
</svg>
