<svg width="25" height="25" viewBox="0 0 25 25" fill="none" xmlns="http://www.w3.org/2000/svg">
<path fill-rule="evenodd" clip-rule="evenodd" d="M12.4998 0C5.59666 0 0 5.59624 0 12.4998C0 19.4041 5.59666 24.9999 12.4998 24.9999C19.4037 24.9999 24.9999 19.4037 24.9999 12.4998C24.9999 5.59624 19.4037 0 12.4998 0ZM19.8938 11.0819C15.8647 8.68852 9.21858 8.46859 5.37205 9.63633C5.22512 9.68089 5.07086 9.69606 4.91807 9.681C4.76528 9.66593 4.61695 9.62092 4.48155 9.54853C4.20811 9.40234 4.00394 9.1535 3.91396 8.85677C3.86941 8.70985 3.85423 8.55559 3.8693 8.4028C3.88436 8.25 3.92937 8.10168 4.00176 7.96628C4.14796 7.69284 4.39679 7.48867 4.69352 7.39869C9.10925 6.05866 16.4488 6.3173 21.0875 9.07054C21.3541 9.22884 21.547 9.48658 21.6236 9.78707C21.7002 10.0876 21.6544 10.4062 21.4961 10.6728C21.3378 10.9395 21.08 11.1324 20.7795 11.209C20.479 11.2856 20.1604 11.2402 19.8938 11.0819ZM19.7619 14.6255C19.6267 14.8457 19.4096 15.0032 19.1583 15.0634C18.9071 15.1236 18.6422 15.0816 18.4219 14.9467C15.0624 12.8818 9.94007 12.2836 5.96592 13.4901C5.71849 13.5651 5.4514 13.5389 5.22329 13.4172C4.99517 13.2955 4.82468 13.0882 4.74925 12.8409C4.67452 12.5934 4.70104 12.3264 4.82299 12.0985C4.94494 11.8705 5.15235 11.7003 5.3997 11.6251C9.93922 10.2476 15.5831 10.9147 19.4416 13.2859C19.6617 13.4212 19.819 13.6383 19.8791 13.8896C19.9392 14.1409 19.897 14.4053 19.7619 14.6255ZM18.2325 18.0292C18.1793 18.1167 18.1094 18.1928 18.0267 18.2532C17.9441 18.3135 17.8503 18.357 17.7508 18.3811C17.6513 18.4052 17.548 18.4095 17.4469 18.3936C17.3457 18.3778 17.2487 18.3421 17.1614 18.2887C14.2261 16.4948 10.5314 16.0893 6.18032 17.0831C6.0806 17.1059 5.97737 17.1088 5.87652 17.0917C5.77567 17.0746 5.67917 17.0378 5.59254 16.9834C5.50591 16.929 5.43085 16.8581 5.37163 16.7747C5.31241 16.6913 5.2702 16.597 5.2474 16.4973C5.22461 16.3976 5.22168 16.2944 5.23878 16.1935C5.25589 16.0927 5.29269 15.9962 5.34708 15.9095C5.40148 15.8229 5.4724 15.7478 5.55581 15.6886C5.63922 15.6294 5.73347 15.5872 5.83319 15.5644C10.5948 14.4762 14.6795 14.9446 17.9743 16.958C18.0616 17.0114 18.1376 17.0814 18.1978 17.1641C18.258 17.2469 18.3014 17.3406 18.3254 17.4401C18.3493 17.5396 18.3535 17.6428 18.3376 17.7439C18.3216 17.845 18.286 17.9419 18.2325 18.0292Z" fill="#9CA3AF"/>
</svg>
