<svg width="19" height="19" viewBox="0 0 19 19" fill="none" xmlns="http://www.w3.org/2000/svg">
<mask id="mask0_8_310" style="mask-type:luminance" maskUnits="userSpaceOnUse" x="-1" y="-1" width="21" height="21">
<path d="M-0.863291 -0.863797H19.8638V19.8633H-0.863291V-0.863797Z" fill="white"/>
</mask>
<g mask="url(#mask0_8_310)">
<path d="M9.50008 18.1361C11.7906 18.1361 13.9872 17.2262 15.6069 15.6066C17.2265 13.987 18.1364 11.7903 18.1364 9.49983C18.1364 7.20935 17.2265 5.01267 15.6069 3.39305C13.9872 1.77344 11.7906 0.863544 9.50008 0.863544C7.2096 0.863544 5.01293 1.77344 3.39331 3.39305C1.77369 5.01267 0.863797 7.20935 0.863797 9.49983C0.863797 11.7903 1.77369 13.987 3.39331 15.6066C5.01293 17.2262 7.2096 18.1361 9.50008 18.1361Z" stroke="#A6A4B0" stroke-width="1.66667" stroke-linecap="round" stroke-linejoin="round"/>
<path d="M6.98679 6.91239C7.18983 6.3352 7.5906 5.84849 8.1181 5.53847C8.64561 5.22845 9.26582 5.11512 9.86887 5.21856C10.4719 5.322 11.0189 5.63553 11.413 6.10362C11.807 6.57171 12.0227 7.16416 12.0217 7.77602C12.0217 9.50327 9.43086 10.3669 9.43086 10.3669M9.49995 13.818H9.50859" stroke="#A6A4B0" stroke-width="1.66667" stroke-linecap="round" stroke-linejoin="round"/>
</g>
</svg>
