<svg width="84" height="40" viewBox="0 0 84 40" fill="none" xmlns="http://www.w3.org/2000/svg">
<path d="M0 26.9945V13.0266H3.72898V14.9017C4.48742 13.5323 5.96216 12.6896 7.52117 12.7738C9.14338 12.7317 10.6392 13.5955 11.3976 15.007C12.8724 13.4691 13.989 12.7738 15.7376 12.7738C18.8767 12.7738 20.6463 14.5435 20.6463 17.7879V26.9945H16.6435V19.4312C16.6435 17.4719 16.2221 16.5871 14.6842 16.5871C13.1252 16.5871 12.2825 17.5351 12.2825 19.4312V26.9945H8.25854V19.4312C8.25854 17.4719 7.83718 16.5871 6.29924 16.5871C4.74023 16.5871 3.89752 17.5351 3.89752 19.4312V26.9945H0ZM25.3866 14.8595C28.2307 11.9522 32.9077 11.889 35.8151 14.7331C38.7224 17.5773 38.7856 22.2543 35.9415 25.1616C35.2463 25.8779 34.4036 26.4468 33.4766 26.826C32.5707 27.2052 31.5805 27.3948 30.5903 27.3737C28.5889 27.4369 26.6506 26.6153 25.3023 25.1406C23.975 23.7501 23.2377 21.9172 23.2587 19.979C23.2587 18.0618 24.0172 16.2079 25.3866 14.8595ZM30.6114 23.4762C32.5075 23.5605 34.1297 22.0857 34.2139 20.1686C34.2982 18.2514 32.8235 16.6503 30.9063 16.566C29.0102 16.4817 27.388 17.9565 27.3037 19.8736V20.0422C27.2827 21.8961 28.7574 23.4341 30.6114 23.4762ZM40.6185 26.9945V13.0266H44.516L44.4739 14.9017C45.2956 13.4901 46.8546 12.6685 48.4768 12.7738C51.3631 12.7738 53.2381 14.5856 53.2381 17.7879V26.9945H49.1299V19.4312C49.1299 17.4719 48.7085 16.5871 47.1284 16.5871C45.5062 16.5871 44.6635 17.5351 44.6635 19.4312V26.9945H40.6185ZM70.6821 14.8385C73.5473 11.9311 78.2033 11.889 81.1106 14.7331C84.018 17.5773 84.0812 22.2543 81.2371 25.1616C80.5418 25.8779 79.6991 26.4468 78.7721 26.826C77.8662 27.2052 76.876 27.3948 75.8859 27.3737C73.8844 27.4369 71.9462 26.6153 70.5979 25.1406C69.2706 23.7501 68.5332 21.9172 68.5543 19.979C68.5543 18.0407 69.3127 16.2079 70.6821 14.8385ZM75.928 23.4551C77.8241 23.5394 79.4463 22.0647 79.5306 20.1475C79.6148 18.2514 78.1401 16.6292 76.2229 16.5449C74.3268 16.4607 72.7046 17.9354 72.6204 19.8526V20.0211C72.5782 21.8961 74.074 23.413 75.928 23.4551ZM56.2297 26.9945V24.0872L61.9812 16.6292H56.2297V13.0266H66.6161V16.3132L61.5388 23.3709H66.7214V26.9735H56.2297V26.9945Z" fill="#9CA3AF"/>
</svg>
