<svg width="69" height="40" viewBox="0 0 69 40" fill="none" xmlns="http://www.w3.org/2000/svg">
<path fill-rule="evenodd" clip-rule="evenodd" d="M18.7071 14.154C21.4147 9.78492 20.0609 4.06202 15.7534 1.35441C14.2765 0.492903 12.615 0.000610352 10.892 0.000610352H0V30.092H12.2458C17.3533 30.092 21.4763 25.9075 21.4763 20.8C21.4763 18.277 20.4917 15.9386 18.7071 14.154ZM7.01517 7.07731H10.892C12.1227 7.07731 13.1073 8.0619 13.1073 9.29263C13.1073 10.5234 12.1227 11.5079 10.892 11.5079H7.01517V7.07731ZM12.2458 23.0153H7.01517V18.5846H12.2458C13.4765 18.5846 14.4611 19.5692 14.4611 20.8C14.4611 22.0307 13.4765 23.0153 12.2458 23.0153ZM55.3829 0.000610352V30.092H48.3677V1.47749L55.3829 0.000610352ZM34.9528 8.55419C28.9837 8.55419 24.1223 13.4156 24.1223 19.4462C24.1223 25.4767 28.9837 30.3381 34.9528 30.3381C40.9218 30.3381 45.7832 25.4767 45.7832 19.4462C45.7217 13.4156 40.9218 8.55419 34.9528 8.55419ZM34.9528 23.0153C32.9836 23.0153 31.4452 21.4153 31.4452 19.5077C31.4452 17.5385 32.9836 16.0001 34.9528 16.0001C36.9219 16.0001 38.4603 17.6001 38.4603 19.5077C38.4603 21.4153 36.8604 23.0153 34.9528 23.0153ZM38.4603 36.4918C38.4603 38.461 36.8604 39.9994 34.9528 39.9994C33.0451 39.9994 31.4452 38.3994 31.4452 36.4918C31.4452 34.5226 33.0451 32.9842 34.9528 32.9842C36.8604 32.9227 38.4603 34.5226 38.4603 36.4918ZM68.7979 8.92341V16.0001H65.2903V21.5384C65.2903 23.1999 65.8441 24.4306 67.2595 24.4306C67.8133 24.4306 68.3056 24.3691 68.7979 24.246V29.4766C67.7517 30.0304 66.5825 30.3381 65.3518 30.3381H64.8595C60.9827 30.1535 58.2751 27.6921 58.2751 23.323V5.04661L65.2903 3.56973V8.98495H68.7979V8.92341Z" fill="#9CA3AF"/>
</svg>
