<svg width="198" height="84" viewBox="0 0 198 84" fill="none" xmlns="http://www.w3.org/2000/svg">
<g clip-path="url(#clip0_7_32)">
<path d="M68.1285 82.6448C73.819 81.7569 76.6642 80.6821 76.6642 79.4203C76.6642 78.1586 73.819 77.0798 68.1285 76.1841C62.4443 75.2962 55.5751 74.8523 47.5211 74.8523C39.467 74.8523 32.5978 75.2962 26.9136 76.1841C21.231 77.0798 18.3896 78.1586 18.3896 79.4203C18.3896 80.6821 21.231 81.7569 26.9136 82.6448C32.6041 83.5405 39.4732 83.9883 47.5211 83.9883C55.5689 83.9883 62.438 83.5405 68.1285 82.6448Z" fill="#E1D5C3"/>
<path d="M76.6525 79.4204C76.6525 80.6822 73.8073 81.757 68.1168 82.6449C62.4263 83.5328 55.5572 83.9806 47.5094 83.9884C39.46 83.9884 32.5908 83.5406 26.9019 82.6449C21.213 81.7492 18.3717 80.6744 18.3779 79.4204C18.3779 78.1587 21.2193 77.0799 26.9019 76.1842C32.5846 75.2886 39.4537 74.8446 47.5094 74.8524C55.5588 74.8524 62.4279 75.2963 68.1168 76.1842C73.8057 77.0721 76.6509 78.1509 76.6525 79.4204Z" stroke="#E1D5C3" stroke-width="0.1" stroke-linecap="round" stroke-linejoin="round"/>
<path d="M72.4257 3.78534C68.7663 1.02195 64.4692 -0.22423 59.5344 0.0468134C58.6133 0.101334 57.2316 0.155853 55.3895 0.210373C53.5473 0.264893 52.1617 0.315521 51.2328 0.362253C49.3594 0.471293 46.7523 0.576437 43.4114 0.677689C39.7348 0.778941 37.1238 0.868512 35.5782 0.946398C33.096 1.06323 31.5816 1.14111 31.0352 1.18006C29.5173 1.30547 28.0175 1.59535 26.5625 2.04459C22.7282 3.29076 19.723 5.18339 17.5467 7.72248C15.3049 10.3394 13.9779 13.599 13.5657 17.5011C13.3377 20.0961 13.2947 22.7041 13.4369 25.3052C13.5134 27.0405 13.6461 29.6497 13.835 33.1328C13.8664 33.4522 13.8139 33.7743 13.6828 34.0674C13.5252 34.319 13.2787 34.5025 12.992 34.5814L12.8281 34.4997L12.3246 33.8688C11.5611 32.8602 10.5313 32.0836 9.35056 31.6257C8.17451 31.1997 6.90836 31.083 5.67401 31.2869C4.49099 31.4372 3.3789 31.9331 2.47752 32.7122C1.58449 33.5179 0.908182 34.5341 0.510443 35.668C-0.00338 37.0606 -0.136733 38.5646 0.124055 40.0257C0.867172 44.5991 2.67812 48.1196 5.55692 50.587C6.10941 51.0458 6.62248 51.55 7.09077 52.0941C7.54955 52.6587 7.88819 53.3106 8.08602 54.0101C9.61868 57.8399 12.5467 60.9492 16.2822 62.7139C17.9902 63.5265 19.7748 64.1683 21.6096 64.6298C23.4388 65.0848 25.2916 65.4397 27.1596 65.693C27.7216 65.7709 28.1002 65.9461 28.2954 66.2187C28.4905 66.4913 28.5334 66.8846 28.4242 67.3987C28.2836 68.1776 28.0768 69.3419 27.8036 70.8919C27.546 72.2549 27.3001 73.4115 27.0659 74.3617C26.6913 75.9038 26.7771 77.1773 27.3235 78.182C27.8699 79.1867 28.8886 79.9461 30.3795 80.4602C32.3866 81.1186 34.4841 81.4615 36.5969 81.4766C38.6977 81.4781 40.7969 81.3611 42.8845 81.1261C43.5882 81.0796 44.2669 80.8474 44.8512 80.4533C45.4355 80.0592 45.9043 79.5173 46.2098 78.883C46.5516 78.256 46.7375 77.5562 46.7517 76.8426C46.766 76.129 46.6082 75.4224 46.2917 74.7823C45.5033 73.0922 44.4691 71.7992 43.1889 70.9036C43.0018 70.7878 42.8289 70.6505 42.6737 70.4947C42.5992 70.4003 42.5468 70.2904 42.5205 70.1731C42.4942 70.0558 42.4945 69.9342 42.5215 69.8171C42.6373 69.0086 42.6804 68.1914 42.6503 67.3753C42.6132 67.0551 42.7012 66.7328 42.8962 66.4757C43.1579 66.2776 43.4814 66.1783 43.8095 66.1954C45.9639 66.1081 48.2159 65.9718 50.5654 65.7865C50.987 65.7467 51.268 65.8215 51.4319 66.0084C51.593 66.2624 51.667 66.5617 51.6426 66.8613C51.6661 67.7336 51.7441 70.2182 51.8768 74.315C51.9299 75.7465 52.3046 76.8914 53.0009 77.7497C53.6971 78.608 54.747 79.2039 56.1505 79.5372C57.9826 79.9455 59.8596 80.1182 61.7356 80.0513C63.6011 79.9742 65.4592 79.7712 67.2973 79.4438C67.8045 79.3678 68.2902 79.1874 68.7236 78.9138C69.1571 78.6403 69.5286 78.2796 69.8147 77.8549C70.4252 76.9816 70.7185 75.9264 70.646 74.8641C70.619 73.6168 70.2505 72.4007 69.5805 71.3475C68.8914 70.3319 67.9124 69.5464 66.7704 69.0927C65.9445 68.7485 65.363 68.359 65.0258 67.9244C64.6589 67.4337 64.4872 66.7717 64.5106 65.9383C64.5021 65.6155 64.5703 65.2952 64.7096 65.0037C64.8879 64.7541 65.1494 64.576 65.4473 64.5013C66.5988 64.1377 67.7286 63.7086 68.8311 63.2162C75.616 60.0541 79.4721 54.8746 80.3994 47.678C80.5475 46.422 80.5944 45.1562 80.5399 43.8927C80.4525 42.2182 80.3939 40.9603 80.3643 40.1191C80.3346 39.239 80.2565 36.5753 80.1301 32.128C80.0364 28.8724 79.931 26.2126 79.814 24.1486C79.814 24.0084 79.7749 22.6259 79.6969 20.0012C79.6722 18.6215 79.5667 17.2445 79.3807 15.8771C78.6001 10.7367 76.2779 6.70606 72.414 3.78534M63.4685 4.26434C66.4612 4.70928 69.2251 6.12103 71.3368 8.28325C73.4812 10.4196 74.8773 13.1894 75.3178 16.1809C75.4411 16.9987 75.5348 17.9684 75.5988 19.0899C75.63 19.7442 75.6651 20.7139 75.7042 21.999C75.8447 25.1845 75.9852 29.0554 76.1257 33.6118C76.2038 36.1898 76.3208 40.0568 76.477 45.2129C76.5107 47.2779 76.1119 49.3272 75.3061 51.2296C75.3002 51.2424 75.2923 51.2543 75.2827 51.2646C75.2742 51.2932 75.2625 51.3206 75.2475 51.3464C74.1427 53.8506 72.4084 56.0277 70.2128 57.6668C68.2223 59.1311 65.7634 60.2098 62.8362 60.903C61.58 61.1736 60.3031 61.3378 59.0192 61.3937C57.3019 61.456 56.0178 61.5183 55.167 61.5806C53.2936 61.7208 51.0182 61.8415 48.3408 61.9428C45.3027 62.0362 43.0234 62.1141 41.5028 62.1764C39.3313 62.3556 37.6998 62.4802 36.6086 62.5503C34.968 62.6947 33.3157 62.6319 31.6909 62.3634C29.5193 61.9833 27.8918 61.6912 26.8083 61.4872C25.9403 61.3314 25.1324 61.1756 24.3846 61.0198C24.0123 60.9404 23.654 60.8586 23.3074 60.7745C22.8297 60.6623 22.3809 60.5494 21.9609 60.4357C20.2459 59.9946 18.5936 59.3391 17.0432 58.4846C15.4864 57.5989 14.1402 56.3873 13.0974 54.933C12.5494 54.1467 12.0789 53.3095 11.6923 52.4329C11.4972 52.0061 11.1342 51.126 10.6034 49.7926C10.4213 49.2791 10.0651 48.8452 9.59645 48.5659C7.98688 47.6911 6.65919 46.3785 5.76768 44.7806C5.01832 43.4659 4.43678 41.7719 4.02307 39.6986C3.93421 39.2867 3.87551 38.8689 3.84744 38.4485C3.8269 38.0121 3.8905 37.5758 4.03478 37.1634C4.41571 36.073 5.11043 35.3954 6.11895 35.1305C7.12746 34.8657 8.06026 35.1266 8.91734 35.9133C9.54667 36.4958 10.0454 37.2045 10.3809 37.9929C10.8665 39.1222 11.2138 39.905 11.423 40.3411C11.7509 41.0265 12.2387 41.3536 12.8866 41.3225C13.4884 41.2921 13.9123 40.9369 14.1629 40.2593C14.5906 39.1144 15.0512 38.2655 15.5445 37.7125C15.7664 37.4357 16.0266 37.1918 16.3173 36.9881C16.4667 36.8932 16.6389 36.8399 16.816 36.8337C16.993 36.8275 17.1685 36.8687 17.3242 36.9531C17.4845 37.0274 17.6264 37.1361 17.7397 37.2714C17.853 37.4067 17.9351 37.5653 17.9799 37.7358C18.0523 38.0858 18.0603 38.4461 18.0033 38.799C17.8648 39.7993 17.6654 40.7903 17.4062 41.7664C17.2501 42.4207 16.9847 43.3942 16.61 44.6871C16.0611 46.6307 16.1307 48.6963 16.8091 50.5987C17.3956 52.2871 18.4515 53.7742 19.8533 54.8863C20.0126 55.0148 20.1765 55.141 20.3451 55.2602L21.071 55.7275L21.0945 55.7392C21.1928 55.7976 21.2865 55.849 21.3755 55.891L21.4691 55.9261C22.2372 56.2376 22.9085 56.0702 23.4831 55.4237C23.6519 55.2384 23.7806 55.0203 23.8612 54.7831C23.9417 54.5459 23.9725 54.2947 23.9514 54.0452C23.9448 53.7864 23.8853 53.5317 23.7766 53.2966C23.6679 53.0616 23.5122 52.8512 23.3191 52.6782C22.4482 51.9034 21.6416 51.0595 20.9071 50.1547C20.4709 49.6048 20.1593 48.9671 19.9938 48.2855C19.8481 47.5739 19.8925 46.8366 20.1226 46.1475C20.669 44.3873 21.0476 43.0593 21.2584 42.1636C21.5908 40.8251 21.7715 39.4535 21.797 38.0746C21.8204 35.5106 20.7471 33.8945 18.5771 33.2262C18.3346 33.1673 18.1222 33.0219 17.9799 32.8173C17.8739 32.5981 17.8141 32.3595 17.8043 32.1164C17.651 30.4893 17.5806 28.8554 17.5935 27.2212C17.5779 24.8441 17.5428 23.2085 17.4882 22.3144C17.3306 20.1815 17.5084 18.037 18.0151 15.9589C19.264 11.1736 22.238 7.93744 26.9371 6.25043C27.265 6.1336 27.6022 6.01677 27.9441 5.92331C28.286 5.82984 28.5974 5.74339 28.9393 5.66629C28.9828 5.65678 29.0258 5.64508 29.0681 5.63123C29.7426 5.48481 30.4568 5.36409 31.2108 5.26907C32.1475 5.15224 33.256 5.06656 34.5361 5.01204C36.7842 4.91858 40.1524 4.79007 44.6408 4.62651C49.1292 4.46295 52.4974 4.33054 54.7455 4.22929C55.7228 4.18879 57.1825 4.11869 59.1245 4.019C60.5848 3.96682 62.0468 4.04894 63.4919 4.26434M59.3236 65.2958C60.3227 65.2413 60.8106 65.7319 60.7872 66.7678C60.7356 68.1662 60.8139 69.5664 61.0214 70.9503C61.0468 71.2664 61.1886 71.5619 61.4195 71.7798C61.5428 71.8693 61.6841 71.9313 61.8336 71.9615C61.9831 71.9918 62.1373 71.9895 62.2859 71.955C62.9602 71.8555 63.6483 71.9111 64.2977 72.1177C64.9471 72.3242 65.5406 72.6762 66.0327 73.1467C66.0561 73.6841 65.8454 74.2527 65.4004 74.8524C64.9485 75.4529 64.4989 75.7707 64.0539 75.8104C62.5786 75.9272 61.4936 75.9934 60.7989 76.009C59.7089 76.0366 58.6187 75.9584 57.5439 75.7753C56.5369 75.5884 55.9476 74.9575 55.7758 73.8827C55.6021 72.6519 55.516 71.4104 55.5182 70.1675L55.4948 66.4407C55.4784 65.8566 55.7454 65.5458 56.291 65.5061C56.9639 65.4656 57.9708 65.3916 59.3119 65.2841M41.5263 74.5837C41.6983 74.7907 41.8438 75.0183 41.9595 75.2613C42.0193 75.3663 42.0468 75.4866 42.0384 75.6071C42.0301 75.7277 41.9863 75.843 41.9127 75.9389C41.6997 76.2446 41.5229 76.574 41.3858 76.9202C41.2858 77.0953 41.141 77.2407 40.966 77.3413C40.7911 77.4419 40.5924 77.4942 40.3905 77.4927C38.4156 77.5161 37.0574 77.5161 36.3159 77.4927C34.9548 77.4576 33.5994 77.3051 32.2646 77.0371C31.5075 76.8813 31.0469 76.6671 30.883 76.3945C30.7191 76.1219 30.723 75.6118 30.8947 74.8641C31.4739 72.1147 31.954 69.6457 32.3349 67.4571C32.3474 67.1919 32.4604 66.9413 32.651 66.7561C32.8717 66.6215 33.1326 66.5678 33.3887 66.6043C33.9507 66.6276 34.6337 66.6393 35.4377 66.6393C35.8889 66.6393 36.568 66.6354 37.475 66.6276C37.9965 66.6043 38.3594 66.7094 38.5639 66.9431C38.7548 67.2147 38.8306 67.5506 38.7747 67.8777L38.5405 72.0485C38.4971 72.39 38.5714 72.7361 38.7513 73.0299C38.8634 73.1659 39.0023 73.2776 39.1594 73.358C39.3164 73.4384 39.4884 73.4858 39.6646 73.4972C40.0321 73.5442 40.3864 73.6647 40.7063 73.8514C41.0261 74.038 41.305 74.2871 41.5263 74.5837Z" fill="black"/>
<path d="M41.9596 75.2614C41.8439 75.0184 41.6984 74.7908 41.5263 74.5838C41.3027 74.288 41.0214 74.0404 40.6995 73.8557C40.3776 73.671 40.0216 73.5531 39.6529 73.5089C39.4768 73.4975 39.3048 73.4502 39.1477 73.3698C38.9906 73.2894 38.8518 73.1777 38.7397 73.0416C38.5598 72.7479 38.4855 72.4018 38.5289 72.0603L38.7631 67.8895C38.819 67.5624 38.7432 67.2265 38.5523 66.9548C38.3478 66.7212 37.9848 66.616 37.4634 66.6394C36.5564 66.6394 35.8773 66.6433 35.4261 66.6511C34.6236 66.6511 33.9406 66.6394 33.377 66.616C33.1209 66.5795 32.8601 66.6332 32.6394 66.7679C32.4487 66.9531 32.3357 67.2037 32.3233 67.4689C31.9423 69.659 31.4623 72.128 30.8831 74.8758C30.727 75.6407 30.7231 76.1508 30.8714 76.4063C31.0197 76.6618 31.4802 76.876 32.253 77.0489C33.5877 77.3169 34.9432 77.4693 36.3042 77.5045C37.0458 77.5279 38.404 77.5279 40.3789 77.5045C40.584 77.5069 40.7858 77.4539 40.9631 77.351C41.1404 77.2482 41.2865 77.0994 41.3858 76.9204C41.523 76.5741 41.6998 76.2447 41.9127 75.939C41.9864 75.8431 42.0302 75.7277 42.0385 75.6072C42.0468 75.4867 42.0194 75.3664 41.9596 75.2614ZM60.7756 66.7679C60.799 65.732 60.3111 65.2414 59.312 65.2959C57.9694 65.4065 56.9624 65.4805 56.2911 65.5179C55.7455 65.5576 55.4785 65.8683 55.4949 66.4525L55.5183 70.1793C55.5161 71.4222 55.6021 72.6637 55.7759 73.8945C55.9477 74.9693 56.537 75.6002 57.5439 75.7871C58.6188 75.9702 59.709 76.0484 60.799 76.0208C61.4953 76.0036 62.5803 75.9374 64.054 75.8222C64.499 75.7824 64.9486 75.4647 65.4005 74.8642C65.8525 74.2637 66.0562 73.6959 66.0328 73.1585C65.5406 72.688 64.9472 72.336 64.2978 72.1295C63.6484 71.9229 62.9603 71.8673 62.286 71.9668C62.1374 72.0013 61.9832 72.0035 61.8337 71.9733C61.6842 71.9431 61.5429 71.8811 61.4196 71.7916C61.1887 71.5737 61.0468 71.2782 61.0215 70.9621C60.814 69.5781 60.7356 68.178 60.7873 66.7796M8.92914 35.9368C8.07049 35.1579 7.13769 34.897 6.13074 35.154C5.12378 35.411 4.42906 36.0886 4.04658 37.1868C3.90229 37.5993 3.83869 38.0356 3.85924 38.472C3.88731 38.8923 3.946 39.3101 4.03487 39.722C4.45014 41.7953 5.03167 43.4894 5.77947 44.8041C6.67098 46.402 7.99867 47.7146 9.60824 48.5893C10.0769 48.8686 10.4331 49.3025 10.6152 49.816C11.146 51.1479 11.509 52.028 11.7041 52.4564C12.0883 53.3244 12.5549 54.1538 13.0975 54.9331C14.1395 56.3776 15.4814 57.581 17.0316 58.4614C18.5819 59.3158 20.2342 59.9714 21.9493 60.4124C22.3677 60.5261 22.8165 60.6391 23.2958 60.7512C23.6424 60.8353 23.9983 60.9171 24.373 60.9966L21.3756 55.8911C21.2866 55.8491 21.1929 55.7977 21.0945 55.7393L21.0711 55.7276L20.3452 55.2603C20.1766 55.1411 20.0127 55.0149 19.8534 54.8864C18.4516 53.7743 17.3957 52.2872 16.8091 50.5988C16.1308 48.6964 16.0612 46.6308 16.6101 44.6872C16.9785 43.3943 17.2439 42.4208 17.4063 41.7665C17.6655 40.7904 17.8649 39.7994 18.0034 38.7991C18.0604 38.4462 18.0524 38.086 17.98 37.7359C17.9352 37.5654 17.8531 37.4068 17.7398 37.2715C17.6265 37.1362 17.4846 37.0275 17.3243 36.9532C17.1686 36.8688 16.9931 36.8276 16.8161 36.8338C16.639 36.84 16.4668 36.8933 16.3174 36.9882C16.0267 37.1919 15.7665 37.4358 15.5446 37.7126C15.0528 38.2671 14.5923 39.1161 14.163 40.2594C13.9124 40.937 13.4885 41.2922 12.8867 41.3226C12.2373 41.3522 11.7494 41.0251 11.4231 40.3412C11.2123 39.9035 10.865 39.1207 10.381 37.993C10.0455 37.2046 9.54675 36.4959 8.91742 35.9134L8.92914 35.9368Z" fill="#2199DF"/>
<path d="M23.4246 13.19C23.8533 11.6798 24.5514 10.259 25.4853 8.99588C26.4434 7.70638 27.6062 6.58169 28.9277 5.66626C28.5858 5.74337 28.2533 5.82982 27.9325 5.92328C27.6116 6.01674 27.2533 6.13358 26.9255 6.2504C22.2342 7.93741 19.2641 11.1736 18.0151 15.9589C17.5112 18.0414 17.3373 20.1899 17.4999 22.3261C17.5546 23.214 17.5897 24.8496 17.6053 27.2329C17.5924 28.8671 17.6628 30.5009 17.8161 32.128C17.8259 32.3712 17.8857 32.6098 17.9917 32.829C18.1331 33.0268 18.3408 33.1677 18.5772 33.2262C20.7487 33.8976 21.822 35.5137 21.7971 38.0746C21.7715 39.4534 21.5909 40.825 21.2585 42.1636C21.0477 43.0593 20.6691 44.3873 20.1227 46.1475C19.8926 46.8365 19.8482 47.5739 19.9939 48.2855C20.1594 48.9671 20.471 49.6048 20.9072 50.1547C21.6416 51.0594 22.4483 51.9034 23.3192 52.6782C23.5123 52.8511 23.6679 53.0616 23.7766 53.2966C23.8854 53.5316 23.9449 53.7863 23.9515 54.0451C23.9725 54.2947 23.9418 54.5459 23.8612 54.7831C23.7806 55.0203 23.6519 55.2384 23.4831 55.4237C22.9086 56.0764 22.2373 56.2438 21.4692 55.9261L21.3756 55.891L24.373 60.9964C25.1192 61.1522 25.9271 61.308 26.7967 61.4638C27.8802 61.6678 29.5077 61.9599 31.6793 62.34C33.3041 62.6085 34.9564 62.6713 36.597 62.5269C37.6898 62.4568 39.3212 62.3322 41.4912 62.153C43.0134 62.0985 45.2927 62.0206 48.3291 61.9194C51.0159 61.8197 53.2913 61.699 55.1554 61.5572C56.0046 61.4934 57.2887 61.431 59.0075 61.3703C60.2915 61.3144 61.5684 61.1502 62.8246 60.8796C65.7518 60.1864 68.2106 59.1077 70.2011 57.6435C72.3968 56.0043 74.131 53.8272 75.2359 51.323C74.6677 51.8814 74.0655 52.4042 73.4328 52.8885C72.0203 53.8977 70.5194 54.7775 68.9483 55.5172C67.0608 56.4518 64.2585 56.9814 60.5414 57.106C56.8242 57.2307 53.1165 57.4137 49.4181 57.6551C45.7275 57.8888 42.9447 58.0913 41.0697 58.2626C35.9569 58.73 32.5106 58.6599 30.7309 58.0524C29.8255 57.7418 29.0068 57.2213 28.3423 56.5336C27.6148 55.731 26.9531 54.8715 26.3635 53.9633C25.4136 52.1933 24.7086 50.3029 24.2676 48.3439C24.0397 47.2161 23.8719 45.4831 23.7641 43.145C23.7001 41.7197 23.6026 40.0919 23.4714 38.2615C23.3153 36.0496 23.2333 34.8696 23.2255 34.7216C23.2255 34.6749 23.245 33.3976 23.2841 30.8896C23.3175 28.8594 23.2079 26.8294 22.9562 24.8145C22.3864 20.1819 22.5425 16.307 23.4246 13.19Z" fill="#FFA70B"/>
<path d="M71.3486 8.28337C69.2369 6.12115 66.473 4.7094 63.4803 4.26446C62.0351 4.04907 60.5731 3.96694 59.1129 4.01912C57.1692 4.12037 55.7095 4.19047 54.7338 4.22941C52.4935 4.33066 49.1253 4.46307 44.6291 4.62663C40.133 4.79019 36.7647 4.9187 34.5245 5.01216C33.2365 5.06513 32.1281 5.1508 31.1992 5.26919C30.4451 5.36265 29.7309 5.48337 29.0565 5.63136C29.0142 5.64521 28.9712 5.65691 28.9277 5.66641C27.6062 6.58184 26.4434 7.70652 25.4853 8.99603C24.5514 10.2592 23.8533 11.6799 23.4246 13.1902C22.5409 16.3056 22.3848 20.1921 22.9562 24.8497C23.2079 26.8646 23.3174 28.8946 23.2841 30.9248C23.2435 33.4312 23.2239 34.7085 23.2255 34.7568C23.2255 34.9032 23.3075 36.0832 23.4714 38.2967C23.6057 40.127 23.7032 41.7549 23.7641 43.1802C23.8734 45.5168 24.0412 47.2497 24.2676 48.3791C24.7086 50.3381 25.4136 52.2285 26.3635 53.9985C26.9531 54.9067 27.6148 55.7662 28.3422 56.5688C29.0068 57.2564 29.8254 57.777 30.7308 58.0875C32.5106 58.7013 35.9568 58.7714 41.0697 58.2978C42.9431 58.1265 45.7259 57.924 49.418 57.6903C53.1102 57.4567 56.818 57.2736 60.5414 57.1412C64.2601 57.0104 67.0624 56.4808 68.9483 55.5524C70.5193 54.8126 72.0203 53.9328 73.4327 52.9237C74.0655 52.4394 74.6677 51.9166 75.2359 51.3582C75.2508 51.3324 75.2626 51.305 75.271 51.2764C75.2806 51.2661 75.2885 51.2542 75.2944 51.2414C76.1003 49.339 76.4991 47.2897 76.4653 45.2247C76.3092 40.0686 76.1921 36.2016 76.114 33.6236C75.9735 29.0672 75.833 25.1963 75.6925 22.0108C75.6519 20.7257 75.6168 19.756 75.5871 19.1017C75.5247 17.9802 75.431 17.0105 75.3061 16.1927C74.8745 13.1999 73.4866 10.426 71.3486 8.28337Z" fill="#FED234"/>
<path d="M21.3823 55.8909L24.3774 60.9963" stroke="#2199DF" stroke-width="0.1" stroke-linecap="round" stroke-linejoin="round"/>
<path d="M29.0565 5.63818L28.9277 5.66622C27.6062 6.58166 26.4434 7.70634 25.4853 8.99585C24.5514 10.259 23.8533 11.6798 23.4246 13.19C22.5409 16.3054 22.3848 20.1943 22.9562 24.8565C23.2075 26.8652 23.317 28.889 23.2841 30.913C23.2435 33.4193 23.2239 34.6967 23.2255 34.7449C23.2255 34.8914 23.3075 36.0713 23.4714 38.2849C23.6057 40.1152 23.7032 41.743 23.7641 43.1683C23.8734 45.5049 24.0412 47.2378 24.2676 48.3672C24.7086 50.3262 25.4136 52.2166 26.3635 53.9867C26.9531 54.8949 27.6148 55.7544 28.3422 56.5569C29.0068 57.2446 29.8254 57.7651 30.7308 58.0757C32.5106 58.6894 35.9568 58.7595 41.0697 58.286C42.9431 58.1146 45.7274 57.9137 49.4227 57.6831C53.118 57.4526 56.8242 57.2703 60.5414 57.1364C64.2601 57.0009 67.0624 56.4689 68.9483 55.5405C70.5193 54.8008 72.0203 53.921 73.4327 52.9118C74.0644 52.4287 74.6665 51.9083 75.2359 51.3533L75.278 51.2716" stroke="#FFA70B" stroke-width="0.1" stroke-linecap="round" stroke-linejoin="round"/>
<path d="M149.961 27.5482C149.493 27.8831 149.087 28.44 148.744 29.2189C148.041 30.7766 147.182 32.6147 146.168 34.7332C145.599 35.9482 144.733 37.7747 143.568 40.2125C143.468 40.4695 143.386 40.6611 143.322 40.7849C143.224 40.9783 143.057 41.1282 142.854 41.2055C142.687 41.0922 142.55 40.9398 142.456 40.7616C142.346 40.5279 142.262 40.3527 142.198 40.2358L137.491 30.7026C136.912 29.511 136.514 28.7399 136.297 28.3894C136.078 27.979 135.755 27.6327 135.36 27.3847C134.94 27.2013 134.484 27.1174 134.026 27.1393C133.142 27.1627 132.358 27.1705 131.672 27.1627C130.963 27.1627 130.479 27.2795 130.22 27.5132C129.961 27.7468 129.813 28.2142 129.775 28.9151L128.628 51.6267C128.611 52.3113 128.738 52.795 129.003 53.0637C129.267 53.3324 129.736 53.4913 130.408 53.5076C131.016 53.531 131.758 53.5271 132.632 53.4959C133.265 53.4788 133.709 53.3386 133.967 53.0754C134.201 52.8183 134.346 52.358 134.377 51.6968L134.845 39.2311C134.845 39.161 134.92 38.6867 135.044 37.8058C138.182 43.9977 139.825 47.2456 139.974 47.5493C140.553 48.7176 141.49 49.2901 142.784 49.2667C143.97 49.2667 144.848 48.6709 145.418 47.4792C146.043 46.1708 147.436 43.3863 149.598 39.126C149.715 38.8861 149.95 38.4655 150.301 37.8642C150.317 37.9413 150.376 38.2661 150.476 38.8339C150.523 39.0927 150.554 39.3541 150.57 39.6167C150.594 39.9734 150.672 41.683 150.804 44.7454C150.89 46.8079 150.992 48.5136 151.109 49.8626C151.163 50.4701 151.219 51.171 151.273 51.9655C151.327 52.5029 151.444 52.8689 151.624 53.0637C151.811 53.281 152.158 53.4188 152.666 53.4726C153.041 53.5115 153.794 53.5232 154.926 53.5076C155.699 53.492 156.222 53.3285 156.495 53.0169C156.768 52.7054 156.866 52.1758 156.787 51.4281C156.787 51.4281 156.729 51.0379 156.612 50.2831C156.612 49.0681 156.592 48.1763 156.553 47.6078C156.044 39.492 155.67 33.4053 155.429 29.3474C155.375 28.4128 155.218 27.8169 154.961 27.5599C154.696 27.2959 154.113 27.158 153.216 27.151C152.935 27.151 152.72 27.1627 152.572 27.1627C152.369 27.1739 152.166 27.17 151.963 27.151C151.27 27.0214 150.553 27.1637 149.961 27.5482Z" fill="black"/>
<path d="M176.423 37.0815C175.223 35.7902 173.638 34.9217 171.669 34.4762C167.331 33.4871 163.791 34.6047 161.05 37.8292C159.246 40.3995 158.68 43.2735 159.352 46.4512C160.109 50.034 162.181 52.3433 165.569 53.3792C167.553 53.9806 169.66 54.0531 171.681 53.5894C174.374 53.0131 176.357 51.6618 177.629 49.5355C178.87 47.4481 179.233 44.9363 178.718 42C178.367 39.9906 177.602 38.3511 176.423 37.0815ZM172.372 40.7967C173.012 41.6612 173.324 42.8568 173.309 44.3833C173.285 46.1062 172.758 47.3796 171.728 48.2036C170.698 49.0277 169.382 49.2535 167.782 48.8812C167.592 48.8415 167.407 48.7787 167.232 48.6943C166.295 48.3049 165.604 47.5533 165.159 46.4395C164.71 45.2697 164.617 43.9937 164.89 42.7711C165.318 40.5108 166.641 39.3348 168.859 39.2429C170.46 39.2584 171.63 39.7764 172.372 40.7967Z" fill="black"/>
<path d="M126.672 46.6614C127.223 43.9844 126.848 41.2001 125.607 38.7638C124.861 37.3197 123.699 36.1315 122.27 35.3524C120.894 34.5974 119.355 34.1884 117.785 34.1607C116.227 34.0925 114.673 34.3636 113.231 34.9551C111.843 35.4923 110.623 36.3873 109.695 37.5487C108.695 38.8626 108.039 40.4045 107.786 42.035C107.487 43.7372 107.567 45.4841 108.02 47.1521C108.455 48.8294 109.346 50.3539 110.596 51.5565C112.01 52.865 113.808 53.6844 115.725 53.8931C118.418 54.2436 120.744 53.8191 122.703 52.6197C124.811 51.3346 126.138 49.3563 126.684 46.6848M116.345 39.2778C118.219 39.1906 119.6 39.7085 120.49 40.8316C121.38 41.9547 121.638 43.4502 121.263 45.3179C121.012 46.5033 120.613 47.4068 120.069 48.0283C119.525 48.6588 118.756 49.0527 117.926 49.1265C116.883 49.289 115.818 49.0328 114.964 48.4138C114.109 47.7603 113.542 46.801 113.383 45.7384C113.188 44.6677 113.196 43.5701 113.406 42.5023C113.744 40.7125 114.719 39.6299 116.334 39.2544L116.345 39.2778Z" fill="black"/>
<path d="M92.1316 27.151C91.2495 27.1277 90.7812 27.5716 90.7265 28.4829C90.7031 28.8489 90.6914 29.3941 90.6914 30.1185L90.668 51.3697C90.668 52.3744 90.7733 52.978 90.9841 53.1805C91.1949 53.383 91.831 53.4921 92.8926 53.5076H102.716C103.941 53.5076 104.679 53.5076 104.929 53.4959C105.444 53.4562 105.791 53.3394 105.971 53.1455C106.152 52.9515 106.257 52.5917 106.287 52.0706C106.287 51.9538 106.287 51.2256 106.287 49.8859C106.287 49.1912 106.174 48.7356 105.948 48.519C105.714 48.3017 105.245 48.1872 104.531 48.1802C102.558 48.1802 101.079 48.1802 100.094 48.1802C98.9625 48.1966 98.2201 48.1966 97.8923 48.1802C97.3849 48.1631 97.0571 48.0813 96.9087 47.9349C96.7612 47.7783 96.6746 47.4512 96.6746 46.9535C96.691 46.1591 96.6933 45.4348 96.6746 44.7805C96.659 38.8222 96.6629 33.452 96.6863 28.6698C96.6863 28.1153 96.5731 27.718 96.3467 27.4781C96.1204 27.2383 95.7301 27.1253 95.1758 27.1393C94.3859 27.1798 93.3711 27.1837 92.1316 27.151Z" fill="black"/>
<path d="M187.979 36.4741C187.979 35.7895 187.834 35.3058 187.57 35.0488C187.305 34.7918 186.832 34.6562 186.165 34.6399C185.415 34.6399 184.674 34.6399 183.94 34.6399C183.237 34.6562 182.769 34.7684 182.535 34.9787C182.301 35.189 182.207 35.6563 182.207 36.3573L182.219 40.3295C182.234 46.4513 182.234 51.0466 182.219 54.1153C182.219 54.8692 182.055 55.4534 181.727 55.8677C181.357 56.2904 180.836 56.5507 180.275 56.5921C179.261 56.7322 178.666 56.9005 178.495 57.0944C178.324 57.2884 178.238 57.9052 178.238 58.9403C178.238 60.3423 178.355 61.1523 178.589 61.3704C178.823 61.5884 179.666 61.6936 181.118 61.6858C183.126 61.6624 184.765 61.0082 186.036 59.7231C187.307 58.4379 187.955 56.8023 187.979 54.8162V44.5353C187.995 40.3373 187.995 37.6502 187.979 36.4741Z" fill="black"/>
<path d="M193.846 34.6514C193.207 34.6677 192.741 34.8219 192.453 35.1187C192.165 35.4154 192.036 35.8734 192.043 36.4973C192.072 39.8682 192.08 44.923 192.066 51.6617C192.066 52.4094 192.187 52.9 192.429 53.1337C192.68 53.3674 193.186 53.4889 193.951 53.4959L195.708 53.5076C196.605 53.5076 197.183 53.379 197.44 53.122C197.698 52.865 197.823 52.2925 197.815 51.4046C197.8 45.5928 197.776 41.2351 197.745 38.3315C197.754 37.6179 197.726 36.9043 197.663 36.1935C197.6 35.6795 197.457 35.3173 197.23 35.107C197.003 34.8967 196.616 34.7612 196.059 34.6981C195.708 34.6685 194.97 34.6529 193.846 34.6514Z" fill="black"/>
<path d="M182.769 27.0109C182.396 27.4933 182.19 28.0839 182.184 28.6933C182.137 29.2966 182.276 29.8999 182.582 30.4224C182.92 30.987 183.422 31.4354 184.022 31.7075C184.595 31.9912 185.247 32.0735 185.872 31.9411C186.526 31.8025 187.122 31.4654 187.577 30.976C188.031 30.4866 188.324 29.8688 188.413 29.2073C188.495 28.5749 188.341 27.9343 187.98 27.4082C187.557 26.7807 186.975 26.2766 186.294 25.9478C184.842 25.5272 183.667 25.8816 182.769 27.0109Z" fill="black"/>
<path d="M196.035 26.4618C195.463 26.2155 194.824 26.1661 194.221 26.3216C193.575 26.4833 192.992 26.833 192.546 27.3264C192.124 27.7937 191.876 28.3919 191.844 29.0204C191.799 29.4621 191.846 29.9083 191.983 30.3307C192.12 30.7531 192.344 31.1424 192.64 31.4738C192.93 31.7975 193.288 32.0533 193.689 32.223C194.09 32.3926 194.523 32.4719 194.958 32.4551C195.392 32.4745 195.825 32.3939 196.223 32.2197C196.621 32.0455 196.973 31.7823 197.253 31.4504C197.815 30.7728 198.065 29.881 198.003 28.775C197.892 28.4946 197.815 28.289 197.768 28.1558C197.69 27.9749 197.6 27.7993 197.499 27.6301C197.148 27.0951 196.636 26.6858 196.035 26.4618Z" fill="black"/>
<path d="M39.0907 40.7966C38.4272 41.3418 38.1384 42.2921 38.2242 43.6473C38.2944 44.5923 38.5532 45.5138 38.9853 46.3577C39.4147 47.1808 39.9414 47.9496 40.5543 48.6476C42.4901 50.9218 44.867 52.2108 47.6849 52.5146C50.5028 52.8183 53.2505 52.0862 55.9279 50.3182C57.741 48.9645 59.1828 47.1764 60.1196 45.1193C60.412 44.5087 60.6434 43.8709 60.8105 43.215C60.9803 42.5509 61.0121 41.8591 60.9041 41.1822C60.6871 39.7802 59.887 39.126 58.5038 39.2195C57.8808 39.2734 57.2713 39.4314 56.7007 39.6868C55.9443 40.0302 55.3729 40.2779 54.9912 40.4345C54.0847 40.8186 53.1538 41.1425 52.2045 41.4042C51.2415 41.6607 50.2505 41.798 49.2539 41.8131C46.7973 41.7837 44.3601 41.3738 42.0296 40.598C40.7479 40.193 39.7721 40.2592 39.1024 40.7966M53.0944 48.2503C53.3357 48.3892 53.5666 48.5454 53.7852 48.7176C53.8873 48.8062 53.9654 48.919 54.0125 49.0455C54.0595 49.1721 54.074 49.3084 54.0545 49.442C54.0315 49.5764 53.9771 49.7036 53.8958 49.8132C53.8144 49.9228 53.7083 50.0117 53.5861 50.0729C53.3315 50.1876 53.0694 50.2852 52.8017 50.3649C51.42 50.8323 49.8042 51.0075 47.9542 50.8907C47.1885 50.7435 46.6358 50.6266 46.2916 50.5402C45.785 50.4386 45.2932 50.2738 44.828 50.0495C44.3901 49.8158 44.1653 49.5985 44.1489 49.3719C44.1325 49.1452 44.3198 48.9046 44.7109 48.6008C45.7647 47.822 47.1385 47.4014 48.8324 47.3391C50.5262 47.2768 51.943 47.5805 53.0827 48.2503H53.0944Z" fill="black"/>
<path d="M53.7735 48.7176C53.5549 48.5453 53.324 48.3892 53.0826 48.2503C51.9508 47.5649 50.534 47.2573 48.8324 47.3274C47.1307 47.3975 45.7569 47.8181 44.7109 48.5891C44.3206 48.8851 44.1332 49.1421 44.1488 49.3602C44.1652 49.5939 44.383 49.8112 44.828 50.0378C45.2927 50.2661 45.7844 50.4349 46.2916 50.5402C46.6358 50.6266 47.1884 50.7435 47.9542 50.8907C49.8042 51.0075 51.42 50.8323 52.8016 50.3649C53.0694 50.2852 53.3315 50.1876 53.5861 50.0729C53.7083 50.0117 53.8144 49.9228 53.8957 49.8132C53.9771 49.7036 54.0315 49.5764 54.0545 49.442C54.0726 49.3074 54.0563 49.1704 54.0072 49.0438C53.958 48.9172 53.8776 48.805 53.7735 48.7176Z" fill="#FD6448"/>
<path d="M63.8197 22.992C62.9455 21.4966 61.7083 20.7801 60.1081 20.8424C58.5079 20.9047 57.2667 21.6913 56.3847 23.2023C55.7905 24.2078 55.4303 25.3338 55.3309 26.4969C55.206 28.1559 55.3192 29.5539 55.6704 30.691C56.0994 32.0854 56.9653 33.3057 58.141 34.1725C58.6439 34.517 59.2233 34.7342 59.8291 34.8054C60.435 34.8767 61.0491 34.7998 61.6185 34.5814C62.648 34.232 63.506 33.5054 64.0188 32.5486C64.847 31.0762 65.2711 29.4119 65.2482 27.7236C65.1859 26.0504 64.694 24.4212 63.8197 22.992ZM61.478 23.2257C62.0287 23.384 62.5108 23.7212 62.8479 24.1837C63.1283 24.634 63.2556 25.1625 63.2109 25.6908C63.2168 25.9253 63.1439 26.155 63.0039 26.3434C62.8638 26.5318 62.6647 26.6681 62.4381 26.7305C62.0634 26.8552 61.6575 26.7617 61.2204 26.4502C60.8065 26.1605 60.5015 25.741 60.3539 25.2585C60.1822 24.6806 60.19 24.2288 60.3774 23.9033C60.5577 23.5762 60.923 23.3495 61.478 23.2257Z" fill="black"/>
<path d="M62.8478 24.1836C62.5107 23.7211 62.0286 23.384 61.4778 23.2256C60.9228 23.3494 60.5575 23.5761 60.3772 23.9032C60.1969 24.2303 60.1828 24.6813 60.3538 25.2584C60.5013 25.7409 60.8063 26.1604 61.2202 26.4501C61.6589 26.7616 62.0648 26.8551 62.438 26.7305C62.6645 26.668 62.8637 26.5317 63.0037 26.3433C63.1437 26.1549 63.2166 25.9252 63.2107 25.6907C63.2555 25.1624 63.1282 24.6339 62.8478 24.1836Z" fill="white"/>
<path d="M36.1519 21.6719C34.3081 21.6719 32.9577 22.6182 32.1006 24.5108C30.7736 27.4019 30.8868 30.3382 32.4402 33.3197C33.711 35.0098 35.1316 35.777 36.7022 35.6212C38.2727 35.4655 39.4904 34.4413 40.3553 32.5486C41.5199 30.0018 41.4458 27.2991 40.1328 24.4407C39.2836 22.5948 37.9566 21.6719 36.1519 21.6719ZM36.0582 25.9945C35.9529 25.455 36.0312 24.8958 36.2807 24.4057C36.966 23.9088 37.6022 23.936 38.1892 24.4875C38.8917 25.1588 39.1688 25.8442 39.0205 26.5436C38.9894 26.7714 38.8967 26.9864 38.7523 27.1655C38.6078 27.3446 38.4172 27.481 38.2009 27.5601C37.9767 27.6308 37.7379 27.6421 37.508 27.593C37.2781 27.5438 37.065 27.4358 36.8895 27.2797C36.4594 26.9717 36.1623 26.5125 36.0582 25.9945Z" fill="black"/>
<path d="M36.2808 24.4057C36.0313 24.8958 35.953 25.455 36.0583 25.9946C36.1624 26.5125 36.4595 26.9718 36.8896 27.2797C37.0651 27.4359 37.2782 27.5438 37.5081 27.593C37.738 27.6422 37.9768 27.6308 38.201 27.5601C38.4173 27.481 38.6079 27.3446 38.7524 27.1655C38.8968 26.9864 38.9895 26.7714 39.0206 26.5437C39.1674 25.8427 38.8902 25.1573 38.1893 24.4875C37.6038 23.9267 36.9677 23.8994 36.2808 24.4057Z" fill="white"/>
</g>
<defs>
<clipPath id="clip0_7_32">
<rect width="198" height="84" fill="white"/>
</clipPath>
</defs>
</svg>
