<svg width="84" height="40" viewBox="0 0 84 40" fill="none" xmlns="http://www.w3.org/2000/svg">
<path d="M72.3903 20C72.3903 16.9127 74.7425 14.7368 77.8592 14.7368C80.976 14.7368 83.3282 16.9127 83.3282 20C83.3282 23.0285 80.976 25.2631 77.8592 25.2631C74.7425 25.2631 72.3903 23.0579 72.3903 20ZM80.2409 20C80.2409 18.5592 79.3294 17.5007 77.8887 17.5007C76.4479 17.5007 75.5364 18.5592 75.5364 20C75.5364 21.4407 76.4479 22.4993 77.8887 22.4993C79.3294 22.4993 80.2409 21.4701 80.2409 20ZM70.3321 17.5595C70.5379 17.9712 70.6261 18.4122 70.6261 18.8827C70.6261 20 70.038 21.0291 69.0971 21.823C70.3909 22.4404 71.1554 23.94 71.1554 25.3513C71.1554 27.9976 69.0089 29.7618 65.7452 29.7618C62.4815 29.7618 60.335 28.027 60.335 25.3513C60.335 23.9106 61.0995 22.4699 62.3933 21.823C61.423 21.0291 60.8643 20 60.8643 18.8827C60.8643 16.5598 62.6873 14.8545 65.5688 14.8545C67.2742 14.8545 67.774 15.1485 68.7443 15.1485C69.3912 15.1485 69.8322 15.0603 70.6261 14.6486C70.8907 14.5016 71.0965 14.4428 71.273 14.4428C71.6552 14.4428 71.861 14.8251 71.861 15.2955C71.8904 16.3246 71.42 17.1773 70.3321 17.5595ZM68.1268 25.2631C68.1268 24.087 67.2154 23.2637 65.7746 23.2637C64.3339 23.2637 63.4224 24.0576 63.4224 25.2631C63.4224 26.3805 64.4221 27.2625 65.7746 27.2625C67.0977 27.2625 68.1268 26.3805 68.1268 25.2631ZM63.8634 19.0591C63.8634 20.0588 64.7161 20.8527 65.7452 20.8527C66.8037 20.8527 67.627 20.0588 67.627 19.0591C67.627 18.0006 66.8625 17.2655 65.7452 17.2655C64.6573 17.2655 63.8634 17.9712 63.8634 19.0591ZM58.9237 20.2058V23.8812C58.9237 24.5869 58.6591 24.8809 57.8946 24.8809H56.8655C56.101 24.8809 55.8364 24.5869 55.8364 23.8812V20.294C55.8364 19.3825 55.6894 18.7357 55.3659 18.324C55.0131 17.883 54.4838 17.6478 53.8076 17.6478C53.1607 17.6478 52.5726 17.883 52.1904 18.324C51.8376 18.7357 51.6023 19.3825 51.6023 20.2646V23.8518C51.6023 24.5869 51.3083 24.8515 50.5732 24.8515H49.5441C48.8384 24.8515 48.515 24.5869 48.515 23.8518V15.6189C48.515 15.1485 48.7502 14.9427 49.1031 14.9427C49.6323 14.9427 50.3674 15.3837 50.9261 16.2364C51.7494 15.2661 53.0137 14.7663 54.2486 14.7663C55.7482 14.7663 56.9537 15.2955 57.7476 16.1776C58.5415 17.0891 58.9237 18.2652 58.9237 20.2058ZM42.8696 11.9142C42.8696 10.9733 43.6341 10.2382 44.6338 10.2382C45.5747 10.2382 46.398 10.9733 46.398 11.9142C46.398 12.8257 45.5747 13.5901 44.6338 13.5901C43.6341 13.5901 42.8696 12.8257 42.8696 11.9142ZM43.0755 23.8812V16.1482C43.0755 15.4425 43.3401 15.1485 44.1046 15.1485H45.1337C45.8981 15.1485 46.1628 15.4425 46.1628 16.1482V23.8812C46.1628 24.5869 45.8981 24.8809 45.1337 24.8809H44.1046C43.3401 24.8809 43.0755 24.5869 43.0755 23.8812ZM37.6359 23.8812V14.1782C37.6359 11.7377 39.0178 10.3558 40.1352 10.3558C40.488 10.3558 40.7232 10.591 40.7232 11.0321V23.8518C40.7232 24.5869 40.4292 24.8515 39.6941 24.8515H38.665C37.9593 24.8809 37.6359 24.6163 37.6359 23.8812ZM24.9338 20C24.9338 16.9127 27.286 14.7368 30.4027 14.7368C33.5195 14.7368 35.8717 16.9127 35.8717 20C35.8717 23.0285 33.5195 25.2631 30.4027 25.2631C27.286 25.2631 24.9338 23.0579 24.9338 20ZM32.755 20C32.755 18.5592 31.8435 17.5007 30.4027 17.5007C28.962 17.5007 28.0505 18.5592 28.0505 20C28.0505 21.4407 28.962 22.4993 30.4027 22.4993C31.8435 22.4993 32.755 21.4701 32.755 20ZM23.346 16.1482V24.381C23.346 24.8515 23.1108 25.0573 22.758 25.0573C22.2287 25.0573 21.4936 24.6163 20.9644 23.793C20.1999 24.7045 19.0238 25.2337 17.7006 25.2337C16.3775 25.2337 15.319 24.7633 14.5251 24.0576C13.6136 23.1755 13.1138 21.823 13.1138 19.8824V16.1482C13.1138 15.4425 13.3784 15.1485 14.1429 15.1485H15.172C15.9364 15.1485 16.2011 15.4425 16.2011 16.1482V19.6178C16.2011 20.7939 16.4069 21.4113 16.7891 21.823C17.1126 22.1758 17.583 22.3522 18.1711 22.3522C18.7591 22.3522 19.3178 22.117 19.6412 21.7348C20.0235 21.3231 20.2293 20.6763 20.2293 19.6766V16.1482C20.2293 15.4131 20.5233 15.1485 21.2584 15.1485H22.2875C23.0226 15.1191 23.346 15.4131 23.346 16.1482ZM10.9967 11.0321V24.381C10.9967 24.8515 10.7615 25.0573 10.4087 25.0573C9.87942 25.0573 9.14435 24.6163 8.61509 23.8224C7.96822 24.5869 6.64509 25.2631 5.11613 25.2631C2.05821 25.2631 0 23.0285 0 20C0 17.0303 2.08762 14.7368 5.11613 14.7368C6.23344 14.7368 7.20375 15.0897 7.93882 15.5895V14.1782C7.93882 11.7377 9.32076 10.3558 10.4381 10.3558C10.7909 10.3558 10.9967 10.591 10.9967 11.0321ZM7.93882 20C7.93882 18.5004 6.88031 17.5007 5.55717 17.5007C4.20463 17.5007 3.14613 18.5004 3.14613 20C3.14613 21.4995 4.20463 22.4993 5.55717 22.4993C6.88031 22.4993 7.93882 21.529 7.93882 20Z" fill="#9CA3AF"/>
</svg>
