<svg width="216" height="447" viewBox="0 0 216 447" fill="none" xmlns="http://www.w3.org/2000/svg">
<mask id="mask0_8_2098" style="mask-type:luminance" maskUnits="userSpaceOnUse" x="0" y="0" width="216" height="447">
<path d="M215.998 0H0.00170898V446.453H215.998V0Z" fill="white"/>
</mask>
<g mask="url(#mask0_8_2098)">
<path d="M23.4992 0C10.5214 0 0.00170898 10.5197 0.00170898 23.4975V422.482C0.00170898 435.46 10.5214 445.979 23.4992 445.979H190.793C203.769 445.979 214.29 435.46 214.29 422.482V256.006C214.74 255.993 215.169 255.803 215.483 255.48C215.798 255.156 215.973 254.724 215.973 254.272V203.196C215.973 202.744 215.798 202.312 215.483 201.988C215.169 201.665 214.74 201.475 214.29 201.462V173.916C215.225 173.891 215.973 173.124 215.973 172.184V149.032C215.973 148.582 215.796 148.148 215.481 147.825C215.167 147.501 214.74 147.313 214.29 147.299V23.4975C214.29 10.5197 203.769 0 190.793 0H23.4992Z" fill="url(#paint0_linear_8_2098)"/>
<path d="M190.713 1.75146H23.5626C11.5843 1.75146 1.87256 11.4632 1.87256 23.4415V421.533C1.87256 433.511 11.5843 443.223 23.5626 443.223H190.713C202.691 443.223 212.403 433.511 212.403 421.533V23.4415C212.403 11.4632 202.691 1.75146 190.713 1.75146Z" fill="url(#paint1_linear_8_2098)"/>
<path d="M188.738 7.9295H25.8931C15.9573 7.9295 7.90308 16.0271 7.90308 26.0154V416.414C7.90308 426.402 15.9573 434.5 25.8931 434.5H188.738C198.674 434.5 206.728 426.402 206.728 416.414V26.0154C206.728 16.0271 198.674 7.9295 188.738 7.9295Z" fill="black"/>
<path d="M188.061 7.9295H26.5711C14.2295 7.9295 6.99948 14.2558 7.90323 26.6968V415.733C7.90323 428.174 14.2295 434.5 26.5711 434.5H188.061C200.402 434.5 206.728 428.174 206.728 415.733V26.6968C206.728 16.0633 200.402 7.9295 188.061 7.9295Z" fill="url(#paint2_linear_8_2098)"/>
<path d="M201.306 364.007V414.617C201.306 422.598 194.826 429.077 186.846 429.077H27.7857C19.8052 429.077 13.3257 422.598 13.3257 414.617V364.007C13.3257 356.027 19.8052 349.547 27.7857 349.547H186.846C194.826 349.547 201.306 356.027 201.306 364.007Z" fill="#2F2B42"/>
<path d="M116.226 390.231C116.226 392.226 114.606 393.846 112.611 393.846H98.1509C96.1558 393.846 94.5359 392.226 94.5359 390.231C94.5359 388.236 96.1558 386.616 98.1509 386.616H112.611C114.606 386.616 116.226 388.236 116.226 390.231Z" fill="#434067"/>
<path d="M87.3057 390.231C87.3057 392.226 85.6859 393.846 83.6907 393.846H69.2307C67.2356 393.846 65.6157 392.226 65.6157 390.231C65.6157 388.236 67.2356 386.616 69.2307 386.616H83.6907C85.6859 386.616 87.3057 388.236 87.3057 390.231Z" fill="#5D5893"/>
<path d="M58.3858 390.231C58.3858 392.226 56.7659 393.846 54.7708 393.846H40.3108C38.3157 393.846 36.6958 392.226 36.6958 390.231C36.6958 388.236 38.3157 386.616 40.3108 386.616H54.7708C56.7659 386.616 58.3858 388.236 58.3858 390.231Z" fill="#434067"/>
<path d="M163.221 372.156C173.197 372.156 181.296 380.255 181.296 390.231C181.296 400.206 173.197 408.306 163.221 408.306C153.245 408.306 145.146 400.206 145.146 390.231C145.146 380.255 153.245 372.156 163.221 372.156Z" fill="#564D7E"/>
<path d="M155.991 390.934H166.991L162.144 395.781L163.422 397.059L170.451 390.03L163.422 383.001L162.144 384.279L166.991 389.126H155.991V390.934Z" fill="#9081CA"/>
<path d="M48.6661 284.436V260.848C48.6661 251.87 55.9556 244.58 64.9336 244.58H88.5215C97.4996 244.58 104.789 251.87 104.789 260.848V284.436C104.789 293.414 97.4996 300.703 88.5215 300.703H64.9336C55.9556 300.703 48.6661 293.414 48.6661 284.436Z" fill="#B09BFF"/>
<mask id="mask1_8_2098" style="mask-type:luminance" maskUnits="userSpaceOnUse" x="-18" y="178" width="245" height="192">
<path d="M-17.4019 178.061H226.611V369.204H-17.4019V178.061Z" fill="white"/>
</mask>
<g mask="url(#mask1_8_2098)">
<path d="M75.8536 212.173L86.5912 191.379" stroke="#FDDCAB" stroke-width="11.3873" stroke-linecap="round"/>
<path d="M75.8733 211.831C75.8733 211.831 69.8778 193.033 68.9854 190.235" stroke="#FDDCAB" stroke-width="11.3873" stroke-linecap="round"/>
<path d="M75.8391 211.971C75.8391 211.971 63.194 205.441 57.7443 202.627" stroke="#FDDCAB" stroke-width="11.3873" stroke-linecap="round"/>
<path d="M76.1214 211.959C76.1214 211.959 66.6542 214.979 60.0515 217.084" stroke="#FDDCAB" stroke-width="11.3873" stroke-linecap="round"/>
<path d="M67.4376 228.472C70.5316 222.48 75.8535 212.173 75.8535 212.173" stroke="#FDDCAB" stroke-width="11.3873" stroke-linecap="round"/>
<path d="M82.546 232.753C80.9875 227.866 75.8731 211.831 75.8731 211.831" stroke="#FDDCAB" stroke-width="11.3873" stroke-linecap="round"/>
<path d="M96.573 222.677L75.8389 211.971" stroke="#FDDCAB" stroke-width="11.3873" stroke-linecap="round"/>
<path d="M98.0644 204.961L76.1217 211.959" stroke="#FDDCAB" stroke-width="11.3873" stroke-linecap="round"/>
</g>
<path d="M165.751 273.743C165.898 273.503 165.898 273.222 165.751 272.983C163.653 269.549 147.375 243.946 128.418 243.946C124.008 243.946 119.779 245.556 116.661 248.421C113.543 251.285 111.792 255.169 111.792 259.22C111.792 264.923 114.811 269.894 119.768 272.519C120.4 272.853 120.4 273.873 119.768 274.207C114.811 276.832 111.792 281.803 111.792 287.505C111.792 291.556 113.543 295.441 116.661 298.305C119.779 301.17 124.008 302.78 128.418 302.78C147.375 302.78 163.653 277.177 165.751 273.743Z" fill="#E87280"/>
<path d="M167.689 199.762V213.917C167.689 223.095 160.238 230.546 151.06 230.546H136.905C127.727 230.546 120.276 223.095 120.276 213.917V199.762C120.276 190.584 127.727 183.133 136.905 183.133H151.06C160.238 183.133 167.689 190.584 167.689 199.762Z" fill="#4F487B"/>
<path d="M110.148 90.6227C93.7731 90.6227 76.7012 90.6227 76.7012 90.6227" stroke="#3C395B" stroke-width="56.9363" stroke-linecap="round"/>
<mask id="mask2_8_2098" style="mask-type:luminance" maskUnits="userSpaceOnUse" x="44" y="119" width="123" height="62">
<path d="M44.957 119.091H166.06V180.546H44.957V119.091Z" fill="white"/>
</mask>
<g mask="url(#mask2_8_2098)">
<mask id="mask3_8_2098" style="mask-type:luminance" maskUnits="userSpaceOnUse" x="-19" y="-2" width="192" height="242">
<path d="M172.16 -1.4921V239.674H-18.9834V-1.4921H172.16Z" fill="white"/>
</mask>
<g mask="url(#mask3_8_2098)">
<path d="M152.013 150.229C152.013 166.502 138.801 179.714 122.529 179.714C106.256 179.714 93.0437 166.502 93.0437 150.229C93.0437 133.957 106.256 120.745 122.529 120.745C138.801 120.745 152.013 133.957 152.013 150.229Z" fill="#B09BFF"/>
<path d="M118.286 150.229C118.286 166.502 105.074 179.714 88.8015 179.714C72.5288 179.714 59.3166 166.502 59.3166 150.229C59.3166 133.957 72.5288 120.745 88.8015 120.745C105.074 120.745 118.286 133.957 118.286 150.229Z" fill="#B09BFF"/>
<mask id="mask4_8_2098" style="mask-type:luminance" maskUnits="userSpaceOnUse" x="82" y="119" width="45" height="62">
<path d="M126.204 119.294V180.704H82.2818V119.294H126.204Z" fill="white"/>
</mask>
<g mask="url(#mask4_8_2098)">
<path d="M125.758 179.201C125.758 179.201 118.528 179.998 114.165 178.945C110.209 178.007 109.376 177.999 105.888 177.747C102.776 177.522 100.481 177.964 95.7989 178.872C93.3067 179.355 82.7914 178.692 82.7914 178.692L82.6486 122.243C82.6486 122.243 93.6374 120.906 96.4862 121.797C100.481 123.047 102.974 123.047 106.126 122.945C108.768 122.86 111.413 122.388 114.502 121.715C120.787 120.345 125.573 123.056 125.573 123.056L125.758 179.201Z" fill="#B09BFF"/>
</g>
</g>
</g>
<path d="M107.121 24.5829C110.343 24.5829 112.955 21.9747 112.955 18.7555C112.955 15.5364 110.343 12.9282 107.121 12.9282C103.898 12.9282 101.286 15.5364 101.286 18.7555C101.286 21.9747 103.898 24.5829 107.121 24.5829Z" fill="#363351"/>
</g>
<defs>
<linearGradient id="paint0_linear_8_2098" x1="215.646" y1="0.697709" x2="0.708439" y2="451.178" gradientUnits="userSpaceOnUse">
<stop stop-color="#2F2C47"/>
<stop offset="0.5" stop-color="#2B2840"/>
<stop offset="1" stop-color="#252338"/>
</linearGradient>
<linearGradient id="paint1_linear_8_2098" x1="212.15" y1="2.5052" x2="2.4799" y2="443.536" gradientUnits="userSpaceOnUse">
<stop stop-color="#393757"/>
<stop offset="0.5" stop-color="#2E2C46"/>
<stop offset="1" stop-color="#222135"/>
</linearGradient>
<linearGradient id="paint2_linear_8_2098" x1="206.011" y1="7.9295" x2="7.88879" y2="435.256" gradientUnits="userSpaceOnUse">
<stop stop-color="#232234"/>
<stop offset="0.5" stop-color="#1F1F2D"/>
<stop offset="1" stop-color="#1B1B28"/>
</linearGradient>
</defs>
</svg>
