<svg width="340" height="166" viewBox="0 0 340 166" fill="none" xmlns="http://www.w3.org/2000/svg">
<mask id="mask0_8_2007" style="mask-type:luminance" maskUnits="userSpaceOnUse" x="0" y="0" width="340" height="166">
<path d="M339.985 0H0.0153809V165.484H339.985V0Z" fill="white"/>
</mask>
<g mask="url(#mask0_8_2007)">
<path d="M339.976 139.973V24.9265C339.976 11.1601 328.816 0 315.05 0H24.9419C11.1755 0 0.0154114 11.1601 0.0154114 24.9265V139.973C0.0154114 153.739 11.1755 164.9 24.9419 164.9H315.05C328.816 164.9 339.976 153.739 339.976 139.973Z" fill="url(#paint0_linear_8_2007)"/>
<path d="M337.764 141.337V24.1565C337.764 12.0326 327.936 2.20599 315.812 2.20599H24.4386C12.3146 2.20599 2.48666 12.0326 2.48666 24.1565V141.337C2.48666 153.461 12.3146 163.289 24.4386 163.289H315.812C327.936 163.289 337.764 153.461 337.764 141.337Z" fill="url(#paint1_linear_8_2007)"/>
<path d="M332.406 25.0123V52.07C332.166 52.7402 331.528 53.2249 330.774 53.2249H328.753C326.614 53.2263 324.565 54.0765 323.054 55.5888C321.543 57.101 320.694 59.1519 320.696 61.29V102.034C320.694 103.093 320.903 104.141 321.308 105.119C321.712 106.097 322.306 106.986 323.054 107.735C323.802 108.484 324.691 109.078 325.669 109.484C326.646 109.89 327.693 110.1 328.753 110.1H330.774C331.132 110.1 331.481 110.211 331.773 110.417C332.065 110.624 332.285 110.916 332.406 111.252V139.361C332.406 149.564 324.145 157.834 313.954 157.834H25.8226C15.6319 157.834 7.37012 149.564 7.37012 139.361V25.0095C7.37012 14.8063 15.6319 6.53625 25.8226 6.53625H313.954C324.145 6.53625 332.406 14.8063 332.406 25.0123Z" fill="url(#paint2_linear_8_2007)"/>
<path d="M268.724 86.0129C277.895 86.0129 285.342 93.4593 285.342 102.631C285.342 111.802 277.895 119.248 268.724 119.248C259.553 119.248 252.106 111.802 252.106 102.631C252.106 93.4593 259.553 86.0129 268.724 86.0129Z" fill="#413F5F"/>
<path d="M266.089 107.016L269.803 103.301L270.496 102.609L269.803 101.917L266.089 98.2026L267.068 97.2236L272.454 102.609L267.068 107.995L266.089 107.016Z" fill="#9081CA"/>
<path d="M224.161 100.408V107.263H225.463V97.6245H224.493C224.327 98.3723 224.064 98.8431 223.718 99.037C223.372 99.2447 222.762 99.3832 221.876 99.4663V100.408H224.161ZM227.512 107.263H228.551L231.694 97.3337H230.669L227.512 107.263ZM235.239 107.526C236.361 107.526 237.22 107.235 237.829 106.653C238.438 106.072 238.743 105.324 238.743 104.396C238.743 103.815 238.591 103.33 238.314 102.928C238.023 102.527 237.621 102.264 237.123 102.125C237.427 101.987 237.69 101.807 237.884 101.585C238.203 101.211 238.369 100.726 238.369 100.131C238.369 99.3001 238.092 98.6631 237.552 98.22C237.012 97.7907 236.25 97.5691 235.267 97.5691C234.021 97.5691 233.148 98.0122 232.65 98.9124C232.359 99.4247 232.22 100.034 232.22 100.754H233.411C233.439 100.214 233.536 99.7848 233.702 99.4801C234.021 98.9401 234.575 98.6769 235.392 98.6769C235.849 98.6769 236.25 98.8016 236.583 99.0647C236.929 99.3278 237.109 99.7017 237.109 100.186C237.109 100.837 236.846 101.28 236.333 101.53C236.043 101.682 235.669 101.751 235.212 101.751C235.115 101.751 235.018 101.751 234.935 101.751C234.852 101.737 234.741 101.737 234.616 101.724V102.79C234.699 102.79 234.782 102.79 234.865 102.79C234.949 102.776 235.032 102.776 235.115 102.776C235.835 102.776 236.403 102.914 236.818 103.178C237.22 103.441 237.427 103.911 237.427 104.576C237.427 105.116 237.233 105.559 236.846 105.906C236.458 106.252 235.946 106.418 235.309 106.418C234.478 106.418 233.91 106.169 233.591 105.656C233.411 105.366 233.301 104.909 233.245 104.285H231.971C231.971 105.186 232.234 105.961 232.747 106.584C233.259 107.207 234.09 107.526 235.239 107.526Z" fill="#685D90"/>
<path d="M191.175 86.0129C200.346 86.0129 207.793 93.4593 207.793 102.631C207.793 111.802 200.346 119.248 191.175 119.248C182.004 119.248 174.557 111.802 174.557 102.631C174.557 93.4593 182.004 86.0129 191.175 86.0129Z" fill="#413F5F"/>
<path d="M192.406 107.862L193.385 106.883L188.979 102.477L193.385 98.0704L192.406 97.0913L187.021 102.477L192.406 107.862Z" fill="#9081CA"/>
<path d="M195.146 63.6967C195.672 63.4336 196.088 63.0874 196.392 62.6443C196.697 62.2012 196.849 61.6888 196.849 61.121C196.849 60.4286 196.641 59.847 196.226 59.3762C195.811 58.9192 195.187 58.5591 194.357 58.3099L192.542 57.7421C192.127 57.6175 191.808 57.4236 191.587 57.1605C191.379 56.8974 191.268 56.6066 191.268 56.2742C191.268 55.9834 191.351 55.7341 191.49 55.5264C191.628 55.3187 191.836 55.1525 192.085 55.0279C192.349 54.9171 192.653 54.8617 192.986 54.8617C193.553 54.8617 194.052 55.0002 194.467 55.291C194.897 55.5818 195.215 56.0111 195.423 56.5512L196.78 55.9695C196.614 55.471 196.351 55.0279 195.991 54.654C195.631 54.2662 195.187 53.9616 194.675 53.7539C194.176 53.5323 193.609 53.4215 192.986 53.4215C192.335 53.4215 191.753 53.5461 191.255 53.7954C190.756 54.0447 190.354 54.3909 190.077 54.834C189.801 55.2771 189.648 55.7895 189.648 56.3573C189.648 57.022 189.856 57.6036 190.257 58.1021C190.659 58.6007 191.241 58.9746 192.016 59.21L193.969 59.8193C194.384 59.9439 194.689 60.1101 194.897 60.3317C195.118 60.5671 195.215 60.8579 195.215 61.2318C195.215 61.5088 195.146 61.758 194.994 61.9657C194.841 62.1735 194.633 62.3396 194.357 62.4643C194.08 62.5751 193.761 62.6305 193.387 62.6305C192.764 62.6305 192.21 62.4643 191.725 62.1181C191.255 61.7719 190.881 61.2872 190.631 60.6502L189.247 61.2318C189.427 61.7857 189.717 62.2704 190.105 62.7135C190.493 63.129 190.964 63.4752 191.518 63.7106C192.072 63.946 192.667 64.0706 193.318 64.0706C194.01 64.0706 194.62 63.946 195.146 63.6967ZM203.718 63.8214C204.147 63.6691 204.521 63.4475 204.826 63.1705C205.13 62.8936 205.366 62.5751 205.504 62.2289L204.244 61.5918C204.036 61.9104 203.787 62.1735 203.482 62.3812C203.164 62.5889 202.776 62.6858 202.305 62.6858C201.876 62.6858 201.488 62.5751 201.142 62.3673C200.796 62.1596 200.533 61.855 200.339 61.4811C200.145 61.1072 200.076 60.664 200.131 60.1517C200.09 59.6116 200.159 59.1546 200.339 58.7668C200.505 58.3791 200.754 58.0883 201.073 57.8806C201.405 57.6729 201.765 57.5621 202.167 57.5621C202.582 57.5621 202.956 57.6729 203.275 57.8806C203.579 58.0883 203.815 58.3653 203.967 58.7115C204.106 59.0715 204.147 59.4731 204.05 59.9301L204.798 59.3623H199.716V60.6086H205.698C205.712 60.4979 205.74 60.3732 205.74 60.2486C205.753 60.124 205.767 59.9993 205.767 59.8747C205.767 59.39 205.684 58.9192 205.518 58.4899C205.352 58.0606 205.116 57.6729 204.812 57.3267C204.521 56.9943 204.147 56.7312 203.69 56.5373C203.247 56.3434 202.748 56.2465 202.167 56.2465C201.474 56.2465 200.851 56.4127 200.297 56.745C199.743 57.0912 199.3 57.5482 198.968 58.1298C198.649 58.7115 198.483 59.3762 198.483 60.1378C198.483 60.8718 198.649 61.5503 198.968 62.1319C199.3 62.7412 199.743 63.1982 200.311 63.5583C200.893 63.8906 201.544 64.0706 202.291 64.0706C202.818 64.0706 203.288 63.9876 203.718 63.8214ZM209.119 63.9045V53.4215H207.554V63.9045H209.119ZM216.153 63.8214C216.583 63.6691 216.956 63.4475 217.261 63.1705C217.566 62.8936 217.801 62.5751 217.954 62.2289L216.68 61.5918C216.486 61.9104 216.223 62.1735 215.918 62.3812C215.599 62.5889 215.212 62.6858 214.755 62.6858C214.312 62.6858 213.924 62.5751 213.578 62.3673C213.231 62.1596 212.968 61.855 212.774 61.4811C212.581 61.1072 212.511 60.664 212.567 60.1517C212.525 59.6116 212.594 59.1546 212.774 58.7668C212.941 58.3791 213.19 58.0883 213.522 57.8806C213.841 57.6729 214.201 57.5621 214.616 57.5621C215.032 57.5621 215.392 57.6729 215.71 57.8806C216.015 58.0883 216.25 58.3653 216.403 58.7115C216.541 59.0715 216.583 59.4731 216.5 59.9301L217.233 59.3623H212.165V60.6086H218.134C218.161 60.4979 218.175 60.3732 218.189 60.2486C218.189 60.124 218.203 59.9993 218.203 59.8747C218.203 59.39 218.12 58.9192 217.954 58.4899C217.787 58.0606 217.566 57.6729 217.261 57.3267C216.956 56.9943 216.583 56.7312 216.139 56.5373C215.696 56.3434 215.184 56.2465 214.616 56.2465C213.924 56.2465 213.287 56.4127 212.733 56.745C212.179 57.0912 211.736 57.5482 211.417 58.1298C211.085 58.7115 210.933 59.3762 210.933 60.1378C210.933 60.8718 211.085 61.5503 211.417 62.1319C211.736 62.7412 212.179 63.1982 212.761 63.5583C213.328 63.8906 213.993 64.0706 214.741 64.0706C215.253 64.0706 215.724 63.9876 216.153 63.8214ZM225.002 63.7937C225.445 63.6137 225.819 63.3505 226.152 63.032C226.484 62.7135 226.719 62.3673 226.872 61.9657L225.487 61.3149C225.321 61.7165 225.071 62.0211 224.739 62.2566C224.393 62.5058 224.005 62.6166 223.562 62.6166C223.133 62.6166 222.745 62.5058 222.413 62.2981C222.08 62.0904 221.817 61.7857 221.623 61.4118C221.429 61.0518 221.332 60.6225 221.332 60.1517C221.332 59.6808 221.429 59.2654 221.623 58.8915C221.817 58.5176 222.08 58.2268 222.413 58.0191C222.745 57.8113 223.133 57.7006 223.562 57.7006C224.005 57.7006 224.393 57.8113 224.739 58.0468C225.071 58.296 225.321 58.6007 225.487 58.9884L226.872 58.3653C226.706 57.936 226.47 57.5759 226.138 57.2574C225.805 56.9389 225.431 56.6896 224.988 56.5235C224.545 56.3296 224.061 56.2465 223.562 56.2465C222.814 56.2465 222.15 56.4127 221.568 56.745C220.986 57.0912 220.529 57.5482 220.197 58.1437C219.865 58.7392 219.698 59.4039 219.698 60.1378C219.698 60.8856 219.865 61.5503 220.197 62.1458C220.529 62.7412 220.986 63.1982 221.568 63.5583C222.15 63.8906 222.814 64.0706 223.562 64.0706C224.074 64.0706 224.559 63.9737 225.002 63.7937ZM232.328 63.9599C232.48 63.946 232.619 63.9183 232.743 63.9045V62.5612C232.674 62.5751 232.577 62.5751 232.494 62.5889C232.397 62.6028 232.314 62.6028 232.245 62.6028C231.94 62.6028 231.705 62.5474 231.525 62.4643C231.331 62.3673 231.192 62.2289 231.109 62.035C231.04 61.855 230.985 61.6472 230.985 61.3841V57.839H232.702V56.4127H230.985V54.6955H229.434V55.2771C229.434 55.6233 229.323 55.9003 229.129 56.108C228.935 56.3157 228.658 56.4127 228.298 56.4127H228.09V57.839H229.434V61.4534C229.434 62.2566 229.641 62.8797 230.071 63.3229C230.514 63.766 231.123 63.9876 231.912 63.9876C232.023 63.9876 232.162 63.9737 232.328 63.9599ZM242.257 63.7937C242.7 63.6137 243.074 63.3505 243.406 63.032C243.739 62.7135 243.974 62.3673 244.126 61.9657L242.742 61.3149C242.575 61.7165 242.326 62.0211 241.98 62.2566C241.648 62.5058 241.246 62.6166 240.803 62.6166C240.387 62.6166 240 62.5058 239.667 62.2981C239.335 62.0904 239.072 61.7857 238.864 61.4118C238.67 61.0518 238.587 60.6225 238.587 60.1517C238.587 59.6808 238.67 59.2654 238.864 58.8915C239.072 58.5176 239.335 58.2268 239.667 58.0191C240 57.8113 240.387 57.7006 240.803 57.7006C241.246 57.7006 241.648 57.8113 241.98 58.0468C242.326 58.296 242.575 58.6007 242.742 58.9884L244.126 58.3653C243.96 57.936 243.725 57.5759 243.392 57.2574C243.06 56.9389 242.672 56.6896 242.229 56.5235C241.8 56.3296 241.315 56.2465 240.803 56.2465C240.055 56.2465 239.39 56.4127 238.809 56.745C238.227 57.0912 237.77 57.5482 237.438 58.1437C237.105 58.7392 236.939 59.4039 236.939 60.1378C236.939 60.8856 237.105 61.5503 237.438 62.1458C237.77 62.7412 238.227 63.1982 238.809 63.5583C239.39 63.8906 240.055 64.0706 240.803 64.0706C241.329 64.0706 241.8 63.9737 242.257 63.7937ZM248.364 62.2981C248.018 62.0904 247.741 61.7857 247.547 61.4118C247.353 61.0518 247.242 60.6225 247.242 60.1517C247.242 59.6808 247.353 59.2654 247.547 58.8915C247.741 58.5314 248.018 58.2406 248.364 58.0191C248.71 57.8113 249.098 57.7006 249.527 57.7006C249.97 57.7006 250.358 57.8113 250.69 58.0191C251.037 58.2406 251.313 58.5314 251.507 58.8915C251.701 59.2654 251.798 59.6808 251.798 60.1517C251.798 60.6225 251.701 61.0518 251.507 61.4118C251.313 61.7857 251.037 62.0904 250.69 62.2981C250.358 62.5058 249.97 62.6166 249.527 62.6166C249.098 62.6166 248.71 62.5058 248.364 62.2981ZM251.493 63.5583C252.089 63.2259 252.56 62.7689 252.906 62.1735C253.266 61.578 253.432 60.9133 253.432 60.1517C253.432 59.39 253.266 58.7253 252.92 58.1298C252.574 57.5482 252.103 57.0912 251.521 56.745C250.94 56.4127 250.275 56.2465 249.527 56.2465C248.793 56.2465 248.128 56.4127 247.533 56.745C246.951 57.0912 246.481 57.5482 246.134 58.1298C245.788 58.7253 245.608 59.39 245.608 60.1517C245.608 60.8994 245.788 61.5642 246.134 62.1596C246.494 62.7551 246.965 63.2121 247.547 63.5583C248.142 63.9045 248.807 64.0706 249.527 64.0706C250.247 64.0706 250.912 63.9045 251.493 63.5583ZM256.811 63.9045V53.4215H255.246V63.9045H256.811ZM261.353 62.2981C261.007 62.0904 260.73 61.7857 260.536 61.4118C260.342 61.0518 260.232 60.6225 260.232 60.1517C260.232 59.6808 260.342 59.2654 260.536 58.8915C260.73 58.5314 261.007 58.2406 261.353 58.0191C261.699 57.8113 262.087 57.7006 262.517 57.7006C262.96 57.7006 263.347 57.8113 263.68 58.0191C264.026 58.2406 264.303 58.5314 264.497 58.8915C264.691 59.2654 264.788 59.6808 264.788 60.1517C264.788 60.6225 264.691 61.0518 264.497 61.4118C264.303 61.7857 264.026 62.0904 263.68 62.2981C263.347 62.5058 262.96 62.6166 262.517 62.6166C262.087 62.6166 261.699 62.5058 261.353 62.2981ZM264.483 63.5583C265.078 63.2259 265.549 62.7689 265.895 62.1735C266.255 61.578 266.436 60.9133 266.436 60.1517C266.436 59.39 266.255 58.7253 265.909 58.1298C265.563 57.5482 265.092 57.0912 264.511 56.745C263.929 56.4127 263.264 56.2465 262.517 56.2465C261.783 56.2465 261.118 56.4127 260.522 56.745C259.941 57.0912 259.47 57.5482 259.124 58.1298C258.778 58.7253 258.598 59.39 258.598 60.1517C258.598 60.8994 258.778 61.5642 259.124 62.1596C259.484 62.7551 259.955 63.2121 260.536 63.5583C261.132 63.9045 261.796 64.0706 262.517 64.0706C263.237 64.0706 263.901 63.9045 264.483 63.5583ZM269.787 63.9045V59.5839C269.787 59.0023 269.953 58.5453 270.271 58.2268C270.59 57.9083 271.005 57.7421 271.518 57.7421H272.169V56.3157H271.712C271.199 56.3157 270.756 56.4265 270.382 56.6343C270.022 56.8558 269.745 57.2159 269.579 57.7144L269.717 57.936V56.4127H268.222V63.9045H269.787Z" fill="#9081CA"/>
<path d="M95.0031 69.8974V52.1425C95.0031 45.1766 100.659 39.5209 107.625 39.5209H125.38C132.345 39.5209 138.001 45.1766 138.001 52.1425V69.8974C138.001 76.8633 132.345 82.519 125.38 82.519H107.625C100.659 82.519 95.0031 76.8633 95.0031 69.8974Z" fill="#B09BFF"/>
<path d="M47.3998 47.6882C46.4219 47.6315 45.7951 48.7109 46.3291 49.5319L50.3263 55.6797C50.6877 56.2353 50.5277 56.9785 49.9697 57.3362L43.7959 61.2932C42.9712 61.822 43.0985 63.0642 44.0131 63.4145L50.8608 66.0378C51.4797 66.2748 51.7871 66.9708 51.5458 67.5877L48.8771 74.4183C48.5208 75.3308 49.3533 76.2609 50.2993 76.0065L57.3815 74.1047C58.0216 73.9329 58.6789 74.3145 58.8467 74.9556L60.7024 82.0499C60.9501 82.9978 62.1708 83.2611 62.7868 82.4992L67.3979 76.7973C67.8145 76.2817 68.5712 76.2045 69.0839 76.6246L74.7551 81.2733C75.5123 81.8943 76.6543 81.3899 76.7049 80.4116L77.0846 73.0883C77.1192 72.4264 77.6859 71.9187 78.3474 71.9576L85.6677 72.3853C86.6456 72.4421 87.2724 71.3626 86.7384 70.5416L82.7413 64.3938C82.3799 63.8382 82.5398 63.095 83.0978 62.7373L89.2716 58.7804C90.0963 58.2515 89.969 57.0093 89.0544 56.659L82.2068 54.0357C81.5878 53.7988 81.2805 53.1027 81.5217 52.4858L84.1904 45.6552C84.5467 44.7427 83.7143 43.8126 82.7683 44.067L75.686 45.9688C75.046 46.1406 74.3886 45.759 74.2208 45.1179L72.3651 38.0236C72.1175 37.0758 70.8967 36.8124 70.2808 37.5743L65.6696 43.2762C65.253 43.7918 64.4963 43.869 63.9836 43.449L58.3124 38.8002C57.5552 38.1792 56.4132 38.6837 56.3627 39.6619L55.9829 46.9853C55.9484 47.6471 55.3817 48.1548 54.7201 48.1159L47.3998 47.6882Z" fill="#4F477B"/>
<mask id="mask1_8_2007" style="mask-type:luminance" maskUnits="userSpaceOnUse" x="44" y="84" width="45" height="45">
<path d="M44.3857 84.6281H88.6994V128.942H44.3857V84.6281Z" fill="white"/>
</mask>
<g mask="url(#mask1_8_2007)">
<mask id="mask2_8_2007" style="mask-type:alpha" maskUnits="userSpaceOnUse" x="47" y="87" width="40" height="40">
<path d="M66.4732 126.448L62.2204 111.404L47.2954 106.751L62.3393 102.499L66.9923 87.5735L71.2451 102.617L86.1702 107.27L71.1262 111.523L66.4732 126.448Z" fill="#FDDCAB"/>
</mask>
<g mask="url(#mask2_8_2007)">
<mask id="mask3_8_2007" style="mask-type:luminance" maskUnits="userSpaceOnUse" x="44" y="84" width="45" height="45">
<path d="M44.3857 84.6281H88.6994V128.942H44.3857V84.6281Z" fill="white"/>
</mask>
<g mask="url(#mask3_8_2007)">
<path d="M66.7331 85.1516C78.7972 85.1516 88.5923 94.9467 88.5923 107.011C88.5923 119.075 78.7972 128.87 66.7331 128.87C54.6691 128.87 44.874 119.075 44.874 107.011C44.874 94.9467 54.6691 85.1516 66.7331 85.1516Z" fill="#74C384"/>
</g>
</g>
</g>
<mask id="mask4_8_2007" style="mask-type:luminance" maskUnits="userSpaceOnUse" x="45" y="80" width="188" height="148">
<path d="M45.7708 80.6468H232.719V227.09H45.7708V80.6468Z" fill="white"/>
</mask>
<g mask="url(#mask4_8_2007)">
<path d="M117.231 106.788L123.707 90.0681" stroke="#FDDCAB" stroke-width="8.72426" stroke-linecap="round"/>
<path d="M117.217 106.525L110.089 90.3834" stroke="#FDDCAB" stroke-width="8.72426" stroke-linecap="round"/>
<path d="M117.203 106.634C117.203 106.634 104.36 101.66 101.322 100.483" stroke="#FDDCAB" stroke-width="8.72426" stroke-linecap="round"/>
<path d="M117.417 106.603C117.417 106.603 108.459 110.558 103.776 112.626" stroke="#FDDCAB" stroke-width="8.72426" stroke-linecap="round"/>
<path d="M112.755 118.342C114.635 113.489 117.231 106.788 117.231 106.788" stroke="#FDDCAB" stroke-width="8.72426" stroke-linecap="round"/>
<path d="M123.332 120.371C121.292 115.751 117.218 106.525 117.218 106.525" stroke="#FDDCAB" stroke-width="8.72426" stroke-linecap="round"/>
<path d="M133.335 112.883C130.476 111.776 117.203 106.634 117.203 106.634" stroke="#FDDCAB" stroke-width="8.72426" stroke-linecap="round"/>
<path d="M133.559 99.4743L117.417 106.603" stroke="#FDDCAB" stroke-width="8.72426" stroke-linecap="round"/>
</g>
</g>
<defs>
<linearGradient id="paint0_linear_8_2007" x1="339.349" y1="0.153715" x2="0.072184" y2="164.947" gradientUnits="userSpaceOnUse">
<stop stop-color="#2F2C47"/>
<stop offset="0.5" stop-color="#2B2840"/>
<stop offset="1" stop-color="#252338"/>
</linearGradient>
<linearGradient id="paint1_linear_8_2007" x1="337.97" y1="1.5399" x2="137.866" y2="163.562" gradientUnits="userSpaceOnUse">
<stop stop-color="#393757"/>
<stop offset="0.5" stop-color="#2E2C46"/>
<stop offset="1" stop-color="#222135"/>
</linearGradient>
<linearGradient id="paint2_linear_8_2007" x1="332.426" y1="7.07909" x2="7.00037" y2="158.023" gradientUnits="userSpaceOnUse">
<stop stop-color="#232234"/>
<stop offset="0.5" stop-color="#1F1F2D"/>
<stop offset="1" stop-color="#1B1B28"/>
</linearGradient>
</defs>
</svg>
