<svg width="84" height="40" viewBox="0 0 84 40" fill="none" xmlns="http://www.w3.org/2000/svg">
<path d="M29.4132 21.352L28.9165 22.7592H28.8752C28.7924 22.4419 28.6406 21.9591 28.3923 21.3796L25.7297 14.6885H23.1222V25.3529H24.8467V18.7722C24.8467 18.3583 24.8467 17.8892 24.8329 17.3098C24.8191 17.0201 24.7915 16.7993 24.7777 16.6338H24.8191C24.9019 17.0477 24.9985 17.3512 25.0674 17.5443L28.2681 25.3253H29.4822L32.6553 17.4754C32.7243 17.296 32.7932 16.9373 32.8622 16.6338H32.9036C32.8622 17.4202 32.8346 18.1238 32.8208 18.5514V25.3115H34.6557V14.661H32.1448L29.4132 21.352ZM36.394 17.6685H38.1875V25.3115H36.394V17.6685ZM37.3046 14.4402C37.001 14.4402 36.7527 14.5506 36.5458 14.7437C36.3388 14.9369 36.2285 15.1852 36.2285 15.4887C36.2285 15.7784 36.3388 16.0268 36.5458 16.2199C36.7527 16.4131 37.001 16.5096 37.3046 16.5096C37.6081 16.5096 37.8702 16.3993 38.0633 16.2199C38.2703 16.0268 38.3806 15.7784 38.3806 15.4887C38.3806 15.199 38.2703 14.9507 38.0633 14.7437C37.884 14.5506 37.6219 14.4402 37.3046 14.4402ZM44.5475 17.5995C44.2164 17.5305 43.8715 17.4891 43.5404 17.4891C42.7264 17.4891 41.9814 17.6685 41.3606 18.0272C40.7398 18.3859 40.2431 18.8825 39.9258 19.5034C39.5947 20.138 39.4291 20.8692 39.4291 21.7107C39.4291 22.4419 39.5947 23.0903 39.912 23.6836C40.2293 24.263 40.6708 24.7321 41.264 25.0494C41.8297 25.3667 42.4919 25.5323 43.2369 25.5323C44.0922 25.5323 44.8234 25.3529 45.4028 25.0218L45.4166 25.008V23.3525L45.3477 23.4077C45.0855 23.6008 44.782 23.7664 44.4785 23.8629C44.1612 23.9733 43.8715 24.0285 43.6232 24.0285C42.9058 24.0285 42.3401 23.8215 41.94 23.3663C41.5262 22.9248 41.3192 22.3178 41.3192 21.559C41.3192 20.7726 41.5262 20.1518 41.9538 19.6965C42.3815 19.2412 42.9471 19.0067 43.6369 19.0067C44.2164 19.0067 44.8096 19.1999 45.3477 19.5861L45.4166 19.6413V17.8892L45.4028 17.8754C45.1683 17.7789 44.9062 17.6685 44.5475 17.5995ZM50.466 17.5443C50.0245 17.5443 49.6106 17.6823 49.2519 17.972C48.9484 18.2203 48.7415 18.579 48.5621 19.0067H48.5483V17.6685H46.7549V25.3115H48.5483V21.4072C48.5483 20.745 48.6863 20.1932 48.9898 19.7931C49.2933 19.3792 49.6796 19.1723 50.1487 19.1723C50.3142 19.1723 50.4798 19.2137 50.6867 19.2412C50.8799 19.2964 51.0178 19.3516 51.1144 19.4206L51.1834 19.4758V17.6823L51.142 17.6685C51.0178 17.5857 50.7695 17.5443 50.466 17.5443ZM55.3498 17.5029C54.0944 17.5029 53.0873 17.8754 52.3837 18.6066C51.6663 19.3378 51.3214 20.3449 51.3214 21.6142C51.3214 22.8006 51.6801 23.7664 52.3699 24.47C53.0597 25.1598 53.9978 25.5185 55.1705 25.5185C56.3983 25.5185 57.3778 25.146 58.0814 24.401C58.7988 23.656 59.1437 22.6627 59.1437 21.4348C59.1437 20.2208 58.8126 19.255 58.1366 18.5514C57.4882 17.8478 56.5363 17.5029 55.3498 17.5029ZM56.7846 23.3801C56.4535 23.8077 55.9292 24.0147 55.2808 24.0147C54.6324 24.0147 54.1082 23.8077 53.7357 23.3525C53.3632 22.9248 53.1838 22.304 53.1838 21.5176C53.1838 20.7036 53.377 20.0828 53.7357 19.6413C54.1082 19.1999 54.6186 18.9791 55.267 18.9791C55.9016 18.9791 56.3983 19.1861 56.757 19.6137C57.1157 20.0414 57.3088 20.6622 57.3088 21.4762C57.2813 22.304 57.1295 22.9524 56.7846 23.3801ZM63.1446 20.8416C62.5789 20.6071 62.2202 20.4277 62.0547 20.276C61.9167 20.138 61.8478 19.9448 61.8478 19.6965C61.8478 19.4896 61.9305 19.2826 62.1375 19.1447C62.3444 19.0067 62.5789 18.9377 62.9238 18.9377C63.2274 18.9377 63.5447 18.9929 63.8482 19.0757C64.1517 19.1585 64.4276 19.2826 64.6484 19.4482L64.7173 19.5034V17.8203L64.6759 17.8065C64.469 17.7237 64.1931 17.6409 63.862 17.5719C63.5309 17.5167 63.2274 17.4891 62.979 17.4891C62.1237 17.4891 61.4201 17.6961 60.8682 18.1514C60.3164 18.579 60.0543 19.1585 60.0543 19.8345C60.0543 20.1932 60.1094 20.5105 60.2336 20.7726C60.3578 21.0347 60.5371 21.2831 60.7855 21.49C61.0338 21.6832 61.3925 21.9039 61.8891 22.1108C62.303 22.2902 62.6203 22.4281 62.8135 22.5385C63.0066 22.6489 63.1308 22.773 63.2274 22.8696C63.2963 22.98 63.3377 23.1179 63.3377 23.2973C63.3377 23.8077 62.9514 24.0561 62.1651 24.0561C61.8615 24.0561 61.5442 24.0009 61.1717 23.8767C60.7992 23.7526 60.4543 23.5732 60.1646 23.3663L60.0957 23.3111V25.0632L60.137 25.077C60.3992 25.2011 60.7165 25.2839 61.1028 25.3805C61.4891 25.4495 61.834 25.5047 62.1375 25.5047C63.0618 25.5047 63.8206 25.2977 64.3586 24.8424C64.9105 24.401 65.2002 23.8353 65.2002 23.1041C65.2002 22.5937 65.0622 22.1384 64.7587 21.7935C64.3586 21.4624 63.862 21.1175 63.1446 20.8416ZM69.9322 17.5029C68.6768 17.5029 67.6697 17.8754 66.9661 18.6066C66.2625 19.3378 65.9038 20.3449 65.9038 21.6142C65.9038 22.8006 66.2625 23.7664 66.9523 24.47C67.6421 25.1598 68.5802 25.5185 69.7529 25.5185C70.9807 25.5185 71.9603 25.146 72.6639 24.401C73.3813 23.656 73.7262 22.6627 73.7262 21.4348C73.7262 20.2208 73.3951 19.255 72.719 18.5514C72.0706 17.8478 71.1187 17.5029 69.9322 17.5029ZM71.3532 23.3801C71.0221 23.8077 70.4979 24.0147 69.8495 24.0147C69.1873 24.0147 68.6768 23.8077 68.3043 23.3525C67.9318 22.9248 67.7525 22.304 67.7525 21.5176C67.7525 20.7036 67.9456 20.0828 68.3043 19.6413C68.6768 19.1999 69.1873 18.9791 69.8357 18.9791C70.4565 18.9791 70.967 19.1861 71.3256 19.6137C71.6843 20.0414 71.8775 20.6622 71.8775 21.4762C71.8775 22.304 71.6981 22.9524 71.3532 23.3801ZM83.3144 19.1447V17.6685H81.5071V15.4059L81.452 15.4197L79.7412 15.9302L79.6999 15.944V17.6685H76.9958V16.7028C76.9958 16.2613 77.1062 15.9164 77.2993 15.6957C77.4925 15.4749 77.7822 15.3646 78.1409 15.3646C78.3892 15.3646 78.6514 15.4197 78.9411 15.5439L79.0101 15.5853V14.0263L78.9687 14.0125C78.7203 13.9298 78.3892 13.8746 77.9615 13.8746C77.4235 13.8746 76.9544 13.9987 76.5268 14.2057C76.0991 14.4402 75.7818 14.7575 75.5472 15.1852C75.3127 15.5991 75.1885 16.0682 75.1885 16.6062V17.6685H73.9331V19.1309H75.1885V25.3115H76.9958V19.1447H79.6999V23.0766C79.6999 24.6907 80.4586 25.5047 81.9762 25.5047C82.2245 25.5047 82.4867 25.4633 82.735 25.4219C82.9971 25.3667 83.1903 25.2977 83.3006 25.2425L83.3144 25.2287V23.7526L83.2454 23.8077C83.1351 23.8767 83.0385 23.9319 82.873 23.9733C82.735 24.0147 82.6108 24.0285 82.5143 24.0285C82.1556 24.0285 81.9072 23.9457 81.7279 23.7388C81.5623 23.5456 81.4795 23.2283 81.4795 22.7592V19.1447H83.3144ZM0 11.1016H8.45699V19.5586H0V11.1016ZM9.33993 11.1016H17.7969V19.5586H9.33993V11.1016ZM0 20.4415H8.45699V28.8985H0V20.4415ZM9.33993 20.4415H17.7969V28.8985H9.33993V20.4415Z" fill="#9CA3AF"/>
</svg>
