<svg width="35" height="37" viewBox="0 0 35 37" fill="none" xmlns="http://www.w3.org/2000/svg">
<path d="M29.5986 35.8977C32.0707 35.512 33.3067 35.0451 33.3067 34.4969C33.3067 33.9488 32.0707 33.4802 29.5986 33.0911C27.1293 32.7054 24.1452 32.5125 20.6464 32.5125C17.1476 32.5125 14.1635 32.7054 11.6942 33.0911C9.22553 33.4802 7.99121 33.9488 7.99121 34.4969C7.99121 35.0451 9.22553 35.512 11.6942 35.8977C14.1662 36.2868 17.1503 36.4814 20.6464 36.4814C24.1425 36.4814 27.1266 36.2868 29.5986 35.8977Z" fill="#E1D5C3"/>
<path d="M33.3018 34.497C33.3018 35.0451 32.0658 35.512 29.5937 35.8977C27.1217 36.2835 24.1376 36.478 20.6415 36.4814C17.1447 36.4814 14.1607 36.2868 11.6893 35.8977C9.21794 35.5086 7.98362 35.0417 7.98633 34.497C7.98633 33.9489 9.22066 33.4802 11.6893 33.0911C14.1579 32.702 17.142 32.5092 20.6415 32.5126C24.1383 32.5126 27.1224 32.7054 29.5937 33.0911C32.0651 33.4769 33.3011 33.9455 33.3018 34.497Z" stroke="#E1D5C3" stroke-width="0.1" stroke-linecap="round" stroke-linejoin="round"/>
<path d="M31.4655 1.63986C29.8758 0.43939 28.0091 -0.10197 25.8653 0.015776C25.4651 0.0394605 24.8649 0.0631447 24.0647 0.0868292C23.2644 0.110514 22.6625 0.132507 22.259 0.152808C21.4451 0.200177 20.3125 0.245854 18.8612 0.289839C17.264 0.333825 16.1297 0.372736 15.4583 0.406571C14.38 0.457323 13.7221 0.491158 13.4848 0.508076C12.8254 0.562557 12.1738 0.688488 11.5417 0.883644C9.87607 1.425 8.57054 2.24719 7.62513 3.35021C6.65124 4.48707 6.07477 5.90306 5.89573 7.5982C5.79668 8.72554 5.77799 9.85848 5.83978 10.9885C5.87301 11.7423 5.93065 12.8758 6.01272 14.3889C6.02634 14.5276 6.00355 14.6676 5.94659 14.7949C5.87812 14.9042 5.77102 14.9839 5.64649 15.0182L5.57528 14.9827L5.35656 14.7086C5.02486 14.2705 4.57752 13.9331 4.06459 13.7342C3.55369 13.5491 3.00365 13.4984 2.46743 13.587C1.95351 13.6523 1.4704 13.8677 1.07882 14.2062C0.690876 14.5562 0.397075 14.9976 0.224291 15.4902C0.00107708 16.0952 -0.0568538 16.7486 0.0564371 17.3833C0.37926 19.3701 1.16597 20.8994 2.41657 21.9713C2.65658 22.1706 2.87946 22.3896 3.0829 22.626C3.2822 22.8713 3.42931 23.1545 3.51525 23.4583C4.18106 25.1221 5.45306 26.4728 7.07579 27.2394C7.8178 27.5924 8.59304 27.8712 9.39014 28.0717C10.1848 28.2694 10.9896 28.4236 11.8011 28.5336C12.0453 28.5674 12.2098 28.6436 12.2945 28.762C12.3793 28.8804 12.398 29.0513 12.3505 29.2746C12.2894 29.6129 12.1996 30.1188 12.0809 30.7921C11.969 31.3842 11.8622 31.8866 11.7604 32.2994C11.5977 32.9694 11.635 33.5226 11.8724 33.959C12.1097 34.3955 12.5522 34.7254 13.1999 34.9487C14.0718 35.2347 14.983 35.3837 15.9009 35.3903C16.8135 35.3909 17.7254 35.3401 18.6323 35.238C18.938 35.2178 19.2329 35.1169 19.4867 34.9457C19.7405 34.7745 19.9442 34.5391 20.0769 34.2635C20.2254 33.9912 20.3061 33.6872 20.3123 33.3772C20.3185 33.0672 20.25 32.7602 20.1125 32.4821C19.77 31.7479 19.3207 31.1863 18.7645 30.7972C18.6833 30.7468 18.6082 30.6872 18.5407 30.6195C18.5084 30.5785 18.4856 30.5308 18.4742 30.4798C18.4627 30.4289 18.4629 30.376 18.4746 30.3252C18.5249 29.974 18.5436 29.619 18.5306 29.2644C18.5144 29.1253 18.5527 28.9853 18.6374 28.8736C18.7511 28.7876 18.8916 28.7444 19.0341 28.7518C19.97 28.7139 20.9483 28.6547 21.969 28.5742C22.1521 28.5569 22.2742 28.5894 22.3454 28.6706C22.4154 28.7809 22.4476 28.911 22.437 29.0411C22.4472 29.4201 22.4811 30.4994 22.5387 32.2791C22.5618 32.901 22.7245 33.3984 23.027 33.7712C23.3295 34.1441 23.7856 34.4029 24.3953 34.5478C25.1912 34.7251 26.0066 34.8002 26.8215 34.7711C27.632 34.7376 28.4392 34.6494 29.2376 34.5072C29.458 34.4742 29.669 34.3958 29.8573 34.2769C30.0455 34.1581 30.207 34.0014 30.3312 33.8169C30.5964 33.4375 30.7238 32.9792 30.6924 32.5177C30.6806 31.9758 30.5206 31.4476 30.2295 30.99C29.9301 30.5488 29.5048 30.2076 29.0087 30.0105C28.65 29.8609 28.3973 29.6918 28.2508 29.503C28.0915 29.2898 28.0169 29.0022 28.027 28.6402C28.0234 28.4999 28.053 28.3608 28.1135 28.2342C28.191 28.1257 28.3046 28.0484 28.434 28.0159C28.9342 27.8579 29.425 27.6715 29.904 27.4576C32.8514 26.0839 34.5266 23.8339 34.9294 20.7076C34.9937 20.1619 35.0141 19.6121 34.9904 19.0632C34.9525 18.3357 34.927 17.7893 34.9141 17.4239C34.9013 17.0415 34.8674 15.8844 34.8124 13.9524C34.7717 12.5381 34.726 11.3826 34.6751 10.486C34.6751 10.4251 34.6581 9.82454 34.6242 8.6843C34.6135 8.08495 34.5677 7.48674 34.4869 6.89274C34.1478 4.65963 33.139 2.90867 31.4604 1.63986M27.5743 1.84794C28.8744 2.04123 30.0751 2.65452 30.9925 3.59383C31.924 4.5219 32.5305 5.72514 32.7219 7.02469C32.7755 7.37996 32.8161 7.80121 32.844 8.28843C32.8575 8.57264 32.8728 8.99389 32.8897 9.55217C32.9508 10.936 33.0118 12.6176 33.0728 14.597C33.1068 15.7169 33.1576 17.3968 33.2254 19.6367C33.2401 20.5338 33.0669 21.424 32.7168 22.2504C32.7142 22.256 32.7108 22.2612 32.7066 22.2657C32.703 22.2781 32.6978 22.29 32.6914 22.3012C32.2114 23.3891 31.458 24.3348 30.5042 25.0469C29.6395 25.683 28.5713 26.1516 27.2997 26.4527C26.754 26.5703 26.1992 26.6416 25.6415 26.6659C24.8955 26.693 24.3376 26.72 23.968 26.7471C23.1542 26.808 22.1657 26.8605 21.0026 26.9044C19.6828 26.945 18.6927 26.9789 18.0321 27.0059C17.0887 27.0838 16.38 27.1379 15.9059 27.1684C15.1932 27.2311 14.4755 27.2038 13.7696 27.0871C12.8262 26.922 12.1192 26.7952 11.6485 26.7065C11.2715 26.6388 10.9205 26.5712 10.5956 26.5035C10.4339 26.469 10.2782 26.4335 10.1277 26.3969C9.92016 26.3482 9.72517 26.2991 9.54274 26.2497C8.79769 26.0581 8.0799 25.7733 7.40641 25.4022C6.73009 25.0174 6.14531 24.491 5.69227 23.8593C5.45424 23.5177 5.24983 23.154 5.08189 22.7732C4.99711 22.5878 4.83943 22.2054 4.60885 21.6262C4.52974 21.4031 4.37501 21.2146 4.17141 21.0933C3.47218 20.7133 2.89541 20.143 2.50813 19.4489C2.18259 18.8778 1.92996 18.1419 1.75024 17.2412C1.71163 17.0622 1.68613 16.8807 1.67394 16.6981C1.66502 16.5085 1.69264 16.319 1.75532 16.1398C1.9208 15.6661 2.2226 15.3718 2.66072 15.2567C3.09884 15.1417 3.50406 15.2551 3.87639 15.5968C4.14978 15.8498 4.36646 16.1577 4.5122 16.5002C4.72312 16.9908 4.87402 17.3308 4.9649 17.5203C5.10732 17.8181 5.31926 17.9602 5.60071 17.9466C5.86216 17.9334 6.04629 17.7791 6.15514 17.4848C6.34096 16.9874 6.54103 16.6186 6.75534 16.3784C6.85173 16.2581 6.96477 16.1522 7.09105 16.0637C7.15597 16.0225 7.23077 15.9993 7.30769 15.9966C7.38461 15.9939 7.46084 16.0119 7.52849 16.0485C7.59811 16.0808 7.65974 16.128 7.70898 16.1868C7.75821 16.2455 7.79385 16.3144 7.81333 16.3885C7.84479 16.5406 7.84824 16.6971 7.82351 16.8504C7.76332 17.2849 7.67669 17.7154 7.56409 18.1395C7.49627 18.4237 7.38098 18.8466 7.21821 19.4083C6.97978 20.2526 7.01 21.1499 7.30468 21.9764C7.5595 22.7099 8.01818 23.3559 8.62717 23.839C8.69635 23.8948 8.76756 23.9496 8.8408 24.0014L9.15616 24.2044L9.16634 24.2095C9.20906 24.2349 9.24976 24.2572 9.28842 24.2755L9.32911 24.2907C9.66278 24.426 9.95441 24.3533 10.204 24.0725C10.2773 23.9919 10.3332 23.8972 10.3682 23.7942C10.4032 23.6911 10.4166 23.582 10.4074 23.4736C10.4046 23.3612 10.3787 23.2505 10.3315 23.1484C10.2843 23.0463 10.2166 22.9549 10.1328 22.8798C9.75443 22.5432 9.40401 22.1765 9.08496 21.7835C8.89546 21.5446 8.7601 21.2676 8.68821 20.9715C8.6249 20.6623 8.64419 20.342 8.74416 20.0427C8.98153 19.278 9.14599 18.7011 9.23755 18.312C9.38196 17.7305 9.46044 17.1347 9.47153 16.5357C9.4817 15.4219 9.01544 14.7198 8.07274 14.4295C7.96742 14.4039 7.87514 14.3407 7.81333 14.2518C7.76728 14.1566 7.74131 14.053 7.73704 13.9473C7.67043 13.2405 7.63987 12.5307 7.64548 11.8208C7.6387 10.7882 7.62344 10.0776 7.5997 9.6892C7.53126 8.76261 7.60849 7.83104 7.82859 6.92826C8.37115 4.84944 9.66312 3.4436 11.7045 2.71073C11.8469 2.65998 11.9934 2.60923 12.1419 2.56862C12.2905 2.52802 12.4258 2.49047 12.5743 2.45697C12.5932 2.45284 12.6119 2.44776 12.6302 2.44174C12.9232 2.37813 13.2335 2.32569 13.5611 2.28441C13.968 2.23366 14.4495 2.19644 15.0056 2.17276C15.9822 2.13215 17.4454 2.07633 19.3953 2.00527C21.3451 1.93422 22.8083 1.8767 23.7849 1.83271C24.2095 1.81512 24.8436 1.78467 25.6873 1.74136C26.3216 1.71869 26.9567 1.75437 27.5845 1.84794M25.7737 28.361C26.2078 28.3373 26.4197 28.5505 26.4095 29.0005C26.3871 29.608 26.4212 30.2162 26.5113 30.8175C26.5223 30.9548 26.5839 31.0831 26.6842 31.1778C26.7378 31.2167 26.7992 31.2436 26.8641 31.2568C26.929 31.2699 26.9961 31.2689 27.0606 31.2539C27.3535 31.2107 27.6525 31.2349 27.9346 31.3246C28.2167 31.4143 28.4745 31.5672 28.6883 31.7716C28.6985 32.0051 28.6069 32.2521 28.4136 32.5126C28.2173 32.7735 28.022 32.9115 27.8287 32.9288C27.1878 32.9795 26.7164 33.0083 26.4146 33.015C25.9411 33.0271 25.4675 32.9931 25.0006 32.9135C24.5631 32.8323 24.3071 32.5583 24.2325 32.0913C24.157 31.5567 24.1196 31.0174 24.1206 30.4774L24.1104 28.8584C24.1033 28.6046 24.2193 28.4696 24.4563 28.4524C24.7486 28.4348 25.1861 28.4027 25.7686 28.356M18.0423 32.3959C18.117 32.4858 18.1802 32.5847 18.2305 32.6902C18.2564 32.7358 18.2684 32.7881 18.2648 32.8405C18.2611 32.8928 18.2421 32.9429 18.2101 32.9846C18.1176 33.1174 18.0408 33.2605 17.9812 33.4109C17.9378 33.487 17.8749 33.5501 17.7989 33.5938C17.7229 33.6375 17.6366 33.6602 17.5489 33.6596C16.691 33.6697 16.1009 33.6697 15.7788 33.6596C15.1875 33.6443 14.5987 33.5781 14.0189 33.4617C13.6899 33.394 13.4899 33.3009 13.4186 33.1825C13.3474 33.0641 13.3491 32.8425 13.4237 32.5177C13.6753 31.3233 13.8839 30.2507 14.0494 29.3C14.0548 29.1847 14.1039 29.0759 14.1867 28.9954C14.2826 28.9369 14.3959 28.9136 14.5072 28.9295C14.7513 28.9396 15.048 28.9447 15.3973 28.9447C15.5933 28.9447 15.8883 28.943 16.2823 28.9396C16.5089 28.9295 16.6665 28.9751 16.7554 29.0766C16.8383 29.1947 16.8712 29.3406 16.8469 29.4827L16.7452 31.2945C16.7263 31.4429 16.7586 31.5932 16.8368 31.7208C16.8855 31.78 16.9458 31.8285 17.014 31.8634C17.0823 31.8983 17.157 31.9189 17.2335 31.9239C17.3932 31.9443 17.5471 31.9966 17.686 32.0777C17.825 32.1588 17.9461 32.267 18.0423 32.3959Z" fill="black"/>
<path d="M18.2308 32.6903C18.1806 32.5848 18.1173 32.4859 18.0426 32.396C17.9454 32.2675 17.8233 32.1599 17.6834 32.0797C17.5436 31.9995 17.3889 31.9482 17.2288 31.9291C17.1522 31.9241 17.0775 31.9035 17.0093 31.8686C16.9411 31.8337 16.8807 31.7852 16.832 31.726C16.7539 31.5984 16.7216 31.4481 16.7405 31.2997L16.8422 29.4879C16.8665 29.3458 16.8336 29.1999 16.7506 29.0818C16.6618 28.9803 16.5041 28.9347 16.2776 28.9448C15.8836 28.9448 15.5885 28.9465 15.3925 28.9499C15.044 28.9499 14.7472 28.9448 14.5024 28.9347C14.3912 28.9188 14.2778 28.9421 14.182 29.0006C14.0991 29.0811 14.05 29.1899 14.0446 29.3052C13.8791 30.2566 13.6706 31.3292 13.419 32.5229C13.3512 32.8551 13.3495 33.0767 13.4139 33.1877C13.4783 33.2987 13.6784 33.3917 14.0141 33.4669C14.5939 33.5833 15.1828 33.6495 15.774 33.6648C16.0962 33.6749 16.6862 33.6749 17.5441 33.6648C17.6332 33.6658 17.7209 33.6428 17.7979 33.5981C17.875 33.5534 17.9384 33.4888 17.9816 33.411C18.0411 33.2606 18.1179 33.1175 18.2105 32.9847C18.2425 32.9431 18.2615 32.8929 18.2651 32.8406C18.2687 32.7882 18.2568 32.736 18.2308 32.6903ZM26.4048 29.0006C26.415 28.5506 26.203 28.3375 25.769 28.3612C25.1857 28.4092 24.7483 28.4413 24.4567 28.4576C24.2196 28.4748 24.1037 28.6098 24.1108 28.8636L24.121 30.4826C24.12 31.0225 24.1574 31.5619 24.2329 32.0965C24.3075 32.5635 24.5635 32.8375 25.0009 32.9187C25.4679 32.9983 25.9414 33.0322 26.415 33.0202C26.7174 33.0128 27.1888 32.984 27.829 32.934C28.0223 32.9167 28.2176 32.7787 28.414 32.5178C28.6103 32.2569 28.6988 32.0103 28.6886 31.7768C28.4748 31.5724 28.217 31.4195 27.9349 31.3298C27.6528 31.2401 27.3539 31.2159 27.061 31.2591C26.9964 31.2741 26.9294 31.2751 26.8644 31.2619C26.7995 31.2488 26.7381 31.2219 26.6846 31.183C26.5843 31.0883 26.5226 30.96 26.5116 30.8227C26.4215 30.2214 26.3874 29.6132 26.4099 29.0057M3.88182 15.6071C3.50881 15.2687 3.10359 15.1554 2.66615 15.267C2.22871 15.3787 1.92691 15.673 1.76076 16.1501C1.69808 16.3293 1.67045 16.5188 1.67937 16.7084C1.69157 16.891 1.71706 17.0725 1.75567 17.2514C1.93607 18.1521 2.1887 18.888 2.51355 19.4592C2.90084 20.1533 3.47761 20.7235 4.17684 21.1036C4.38045 21.2249 4.53517 21.4134 4.61427 21.6365C4.84486 22.215 5.00254 22.5974 5.08732 22.7835C5.25422 23.1606 5.45691 23.5208 5.69261 23.8594C6.14529 24.4869 6.72822 25.0097 7.40167 25.3921C8.07516 25.7633 8.79295 26.0481 9.538 26.2397C9.71975 26.2891 9.91474 26.3382 10.1229 26.3869C10.2735 26.4234 10.4281 26.459 10.5909 26.4935L9.28876 24.2756C9.2501 24.2573 9.20941 24.235 9.16668 24.2096L9.15651 24.2045L8.84115 24.0015C8.7679 23.9497 8.69669 23.8949 8.62752 23.8391C8.01853 23.356 7.55985 22.71 7.30503 21.9765C7.01034 21.1501 6.98012 20.2527 7.21856 19.4084C7.37861 18.8468 7.49391 18.4238 7.56444 18.1396C7.67703 17.7155 7.76367 17.2851 7.82385 16.8505C7.84858 16.6972 7.84514 16.5407 7.81368 16.3886C7.79419 16.3145 7.75856 16.2457 7.70932 16.1869C7.66008 16.1281 7.59846 16.0809 7.52883 16.0486C7.46119 16.012 7.38495 15.9941 7.30803 15.9967C7.23111 15.9994 7.15632 16.0226 7.0914 16.0638C6.96511 16.1523 6.85208 16.2583 6.75569 16.3785C6.54206 16.6194 6.34198 16.9882 6.15548 17.4849C6.04663 17.7793 5.8625 17.9336 5.60105 17.9467C5.31892 17.9596 5.10699 17.8175 4.96524 17.5204C4.87369 17.3303 4.72279 16.9902 4.51254 16.5003C4.3668 16.1578 4.15012 15.85 3.87673 15.5969L3.88182 15.6071Z" fill="#2199DF"/>
<path d="M10.1785 5.7254C10.3648 5.06933 10.668 4.45212 11.0737 3.90339C11.4899 3.34321 11.9951 2.85462 12.5692 2.45695C12.4206 2.49044 12.2762 2.528 12.1368 2.5686C11.9974 2.6092 11.8418 2.65996 11.6994 2.71071C9.66138 3.44357 8.37111 4.84942 7.82855 6.92824C7.60963 7.83292 7.53411 8.76624 7.60474 9.69425C7.62848 10.08 7.64374 10.7905 7.65052 11.8259C7.64491 12.5358 7.67547 13.2455 7.74208 13.9524C7.74636 14.058 7.77232 14.1617 7.81838 14.2569C7.87981 14.3428 7.97001 14.404 8.0727 14.4295C9.01607 14.7211 9.48234 15.4232 9.47149 16.5357C9.4604 17.1347 9.38192 17.7305 9.23751 18.312C9.14595 18.7011 8.98149 19.278 8.74412 20.0427C8.64415 20.342 8.62485 20.6623 8.68817 20.9715C8.76006 21.2676 8.89541 21.5446 9.08491 21.7835C9.40397 22.1765 9.75439 22.5431 10.1327 22.8797C10.2166 22.9549 10.2842 23.0463 10.3315 23.1484C10.3787 23.2505 10.4045 23.3611 10.4074 23.4735C10.4165 23.582 10.4032 23.6911 10.3682 23.7941C10.3332 23.8972 10.2773 23.9919 10.2039 24.0724C9.95436 24.356 9.66274 24.4287 9.32906 24.2907L9.28837 24.2754L10.5905 26.4933C10.9147 26.561 11.2657 26.6287 11.6434 26.6963C12.1141 26.785 12.8211 26.9119 13.7645 27.077C14.4703 27.1936 15.1881 27.2209 15.9008 27.1582C16.3755 27.1277 17.0843 27.0736 18.027 26.9958C18.6882 26.9721 19.6784 26.9382 20.9975 26.8943C22.1647 26.851 23.1531 26.7985 23.9629 26.7369C24.3318 26.7092 24.8897 26.6821 25.6363 26.6557C26.1941 26.6314 26.7488 26.5601 27.2945 26.4426C28.5662 26.1414 29.6343 25.6728 30.499 25.0367C31.4529 24.3247 32.2063 23.3789 32.6862 22.291C32.4394 22.5336 32.1778 22.7607 31.9029 22.9711C31.2893 23.4095 30.6373 23.7917 29.9548 24.113C29.1348 24.519 27.9175 24.7491 26.3027 24.8033C24.6879 24.8574 23.0772 24.9369 21.4705 25.0418C19.8673 25.1433 18.6584 25.2313 17.8438 25.3057C15.6227 25.5087 14.1256 25.4783 13.3525 25.2144C12.9592 25.0794 12.6035 24.8533 12.3148 24.5546C11.9988 24.2059 11.7114 23.8326 11.4552 23.438C11.0426 22.6691 10.7363 21.8479 10.5447 20.9968C10.4457 20.5069 10.3728 19.7541 10.326 18.7383C10.2982 18.1192 10.2558 17.412 10.1989 16.6169C10.131 15.656 10.0954 15.1434 10.092 15.0791C10.092 15.0588 10.1005 14.5039 10.1175 13.4144C10.132 12.5325 10.0844 11.6506 9.97505 10.7753C9.72751 8.76277 9.79533 7.07948 10.1785 5.7254Z" fill="#FFA70B"/>
<path d="M30.9978 3.59387C30.0804 2.65456 28.8797 2.04127 27.5797 1.84798C26.9519 1.75441 26.3168 1.71873 25.6824 1.7414C24.838 1.78539 24.2039 1.81584 23.78 1.83276C22.8068 1.87674 21.3436 1.93426 19.3904 2.00531C17.4372 2.07637 15.974 2.1322 15.0008 2.1728C14.4413 2.19581 13.9597 2.23302 13.5562 2.28445C13.2286 2.32506 12.9184 2.3775 12.6254 2.44178C12.607 2.4478 12.5883 2.45288 12.5694 2.45701C11.9953 2.85469 11.4902 3.34327 11.074 3.90346C10.6683 4.45219 10.365 5.06939 10.1788 5.72547C9.79492 7.07887 9.7271 8.76724 9.97532 10.7906C10.0847 11.6659 10.1322 12.5477 10.1177 13.4297C10.1001 14.5185 10.0916 15.0734 10.0923 15.0944C10.0923 15.158 10.1279 15.6706 10.1991 16.6322C10.2574 17.4273 10.2998 18.1345 10.3263 18.7536C10.3738 19.7687 10.4467 20.5215 10.545 21.0121C10.7366 21.8632 11.0428 22.6844 11.4555 23.4533C11.7116 23.8478 11.9991 24.2212 12.3151 24.5699C12.6038 24.8686 12.9594 25.0947 13.3527 25.2296C14.1259 25.4963 15.623 25.5267 17.8441 25.321C18.658 25.2466 19.8668 25.1586 21.4708 25.0571C23.0747 24.9556 24.6854 24.8761 26.3029 24.8186C27.9184 24.7617 29.1358 24.5316 29.955 24.1283C30.6376 23.807 31.2896 23.4248 31.9032 22.9864C32.1781 22.776 32.4397 22.5489 32.6865 22.3063C32.693 22.2951 32.6981 22.2832 32.7018 22.2708C32.7059 22.2663 32.7094 22.2611 32.7119 22.2556C33.062 21.4291 33.2352 20.5389 33.2206 19.6418C33.1527 17.4019 33.1019 15.722 33.068 14.6021C33.0069 12.6227 32.9459 10.9411 32.8849 9.55728C32.8672 8.99901 32.852 8.57776 32.8391 8.29355C32.812 7.80632 32.7713 7.38508 32.717 7.02981C32.5295 5.72971 31.9266 4.52468 30.9978 3.59387Z" fill="#FED234"/>
<path d="M9.29102 24.2753L10.5921 26.4932" stroke="#2199DF" stroke-width="0.1" stroke-linecap="round" stroke-linejoin="round"/>
<path d="M12.6254 2.44477L12.5694 2.45695C11.9953 2.85463 11.4902 3.34321 11.074 3.9034C10.6683 4.45213 10.365 5.06933 10.1788 5.72541C9.79492 7.07881 9.7271 8.76819 9.97532 10.7936C10.0845 11.6661 10.1321 12.5453 10.1177 13.4246C10.1001 14.5134 10.0916 15.0683 10.0923 15.0892C10.0923 15.1529 10.1279 15.6655 10.1991 16.627C10.2574 17.4222 10.2998 18.1293 10.3263 18.7485C10.3738 19.7635 10.4467 20.5164 10.545 21.007C10.7366 21.858 11.0428 22.6792 11.4555 23.4482C11.7116 23.8427 11.9991 24.2161 12.3151 24.5647C12.6038 24.8635 12.9594 25.0896 13.3527 25.2245C14.1259 25.4911 15.623 25.5216 17.8441 25.3159C18.658 25.2414 19.8675 25.1541 21.4728 25.054C23.0781 24.9538 24.6882 24.8747 26.3029 24.8165C27.9184 24.7576 29.1358 24.5265 29.955 24.1232C30.6376 23.8018 31.2896 23.4196 31.9032 22.9813C32.1776 22.7714 32.4392 22.5453 32.6865 22.3042L32.7048 22.2687" stroke="#FFA70B" stroke-width="0.1" stroke-linecap="round" stroke-linejoin="round"/>
<path d="M16.9839 17.7182C16.6957 17.9551 16.5702 18.3678 16.6075 18.9566C16.638 19.3671 16.7504 19.7674 16.9381 20.134C17.1246 20.4916 17.3535 20.8256 17.6197 21.1288C18.4607 22.1168 19.4932 22.6767 20.7174 22.8087C21.9415 22.9406 23.1351 22.6226 24.2983 21.8545C25.0859 21.2665 25.7122 20.4897 26.1192 19.5961C26.2462 19.3308 26.3467 19.0537 26.4193 18.7688C26.4931 18.4803 26.5069 18.1797 26.46 17.8857C26.3657 17.2767 26.0182 16.9924 25.4173 17.033C25.1466 17.0565 24.8818 17.1251 24.634 17.2361C24.3054 17.3853 24.0572 17.4929 23.8913 17.5609C23.4975 17.7277 23.0931 17.8685 22.6808 17.9821C22.2624 18.0936 21.8319 18.1532 21.399 18.1598C20.3318 18.147 19.273 17.9689 18.2606 17.6319C17.7038 17.456 17.2799 17.4847 16.989 17.7182M23.0673 20.9562C23.1722 21.0165 23.2725 21.0844 23.3674 21.1592C23.4118 21.1977 23.4457 21.2467 23.4662 21.3017C23.4866 21.3566 23.4929 21.4159 23.4844 21.4739C23.4744 21.5323 23.4508 21.5875 23.4155 21.6352C23.3801 21.6828 23.334 21.7214 23.281 21.748C23.1703 21.7978 23.0565 21.8402 22.9402 21.8748C22.34 22.0778 21.638 22.154 20.8344 22.1032C20.5017 22.0393 20.2616 21.9885 20.1121 21.951C19.892 21.9069 19.6784 21.8352 19.4763 21.7378C19.286 21.6363 19.1884 21.5419 19.1813 21.4434C19.1741 21.345 19.2555 21.2404 19.4254 21.1085C19.8832 20.7701 20.48 20.5874 21.2158 20.5603C21.9517 20.5333 22.5672 20.6652 23.0622 20.9562H23.0673Z" fill="black"/>
<path d="M23.3626 21.1591C23.2677 21.0842 23.1674 21.0164 23.0625 20.9561C22.5708 20.6583 21.9554 20.5247 21.2161 20.5551C20.4769 20.5856 19.8801 20.7683 19.4257 21.1033C19.2561 21.2318 19.1748 21.3435 19.1815 21.4382C19.1887 21.5397 19.2833 21.6341 19.4766 21.7326C19.6784 21.8318 19.8921 21.9051 20.1124 21.9508C20.2619 21.9884 20.502 22.0391 20.8347 22.1031C21.6383 22.1538 22.3403 22.0777 22.9405 21.8747C23.0568 21.8401 23.1706 21.7977 23.2813 21.7478C23.3343 21.7213 23.3804 21.6826 23.4158 21.635C23.4511 21.5874 23.4747 21.5322 23.4847 21.4737C23.4926 21.4153 23.4855 21.3558 23.4642 21.3008C23.4428 21.2458 23.4079 21.197 23.3626 21.1591Z" fill="#FD6448"/>
<path d="M27.7271 9.98364C27.3473 9.33401 26.8099 9.02273 26.1147 9.0498C25.4195 9.07686 24.8804 9.4186 24.4972 10.075C24.2391 10.5118 24.0826 11.0009 24.0394 11.5062C23.9852 12.2269 24.0343 12.8342 24.1869 13.3282C24.3733 13.934 24.7494 14.4641 25.2602 14.8407C25.4787 14.9903 25.7303 15.0847 25.9935 15.1156C26.2567 15.1465 26.5235 15.1131 26.7709 15.0183C27.2181 14.8665 27.5908 14.5508 27.8136 14.1352C28.1734 13.4956 28.3576 12.7725 28.3477 12.0391C28.3206 11.3122 28.1069 10.6045 27.7271 9.98364ZM26.7098 10.0851C26.9491 10.1539 27.1585 10.3004 27.3049 10.5013C27.4268 10.6969 27.4821 10.9265 27.4626 11.156C27.4652 11.2579 27.4335 11.3577 27.3727 11.4395C27.3119 11.5214 27.2253 11.5806 27.1269 11.6077C26.9641 11.6619 26.7878 11.6213 26.5979 11.4859C26.4181 11.3601 26.2856 11.1779 26.2215 10.9682C26.1469 10.7172 26.1503 10.5209 26.2317 10.3795C26.31 10.2374 26.4687 10.1389 26.7098 10.0851Z" fill="black"/>
<path d="M27.3047 10.5012C27.1582 10.3003 26.9488 10.1538 26.7095 10.085C26.4684 10.1388 26.3097 10.2373 26.2314 10.3794C26.1531 10.5215 26.147 10.7174 26.2212 10.9681C26.2853 11.1777 26.4178 11.3599 26.5976 11.4858C26.7882 11.6211 26.9646 11.6617 27.1266 11.6076C27.2251 11.5805 27.3116 11.5213 27.3724 11.4394C27.4332 11.3576 27.4649 11.2578 27.4623 11.1559C27.4818 10.9264 27.4265 10.6968 27.3047 10.5012Z" fill="white"/>
<path d="M15.7076 9.41C14.9067 9.41 14.32 9.82109 13.9477 10.6433C13.3712 11.8992 13.4204 13.1748 14.0952 14.47C14.6473 15.2042 15.2644 15.5375 15.9467 15.4698C16.6289 15.4022 17.1579 14.9572 17.5337 14.1351C18.0396 13.0287 18.0074 11.8546 17.437 10.6128C17.0681 9.81094 16.4916 9.41 15.7076 9.41ZM15.6669 11.2878C15.6212 11.0534 15.6552 10.8105 15.7636 10.5976C16.0613 10.3817 16.3377 10.3936 16.5927 10.6331C16.8979 10.9248 17.0182 11.2225 16.9538 11.5264C16.9403 11.6253 16.9 11.7187 16.8373 11.7965C16.7745 11.8743 16.6917 11.9336 16.5978 11.9679C16.5004 11.9987 16.3966 12.0036 16.2968 11.9822C16.1969 11.9609 16.1043 11.914 16.0281 11.8461C15.8412 11.7123 15.7121 11.5128 15.6669 11.2878Z" fill="black"/>
<path d="M15.7634 10.5978C15.6551 10.8107 15.621 11.0537 15.6668 11.2881C15.712 11.5131 15.8411 11.7126 16.0279 11.8463C16.1041 11.9142 16.1967 11.9611 16.2966 11.9824C16.3965 12.0038 16.5002 11.9989 16.5976 11.9681C16.6916 11.9338 16.7744 11.8745 16.8371 11.7967C16.8999 11.7189 16.9402 11.6255 16.9537 11.5266C17.0174 11.2221 16.897 10.9243 16.5925 10.6334C16.3382 10.3897 16.0618 10.3779 15.7634 10.5978Z" fill="white"/>
</svg>
